<?xml version="1.0" encoding="utf-8"?>
<!-- Generator: Adobe Illustrator 21.1.0, SVG Export Plug-In . SVG Version: 6.00 Build 0)  -->
<svg version="1.0" id="Layer_1" xmlns="http://www.w3.org/2000/svg" xmlns:xlink="http://www.w3.org/1999/xlink" x="0px" y="0px"
	 width="177.5921px" height="350px" viewBox="0 0 177.5921 350" enable-background="new 0 0 177.5921 350" xml:space="preserve">
<g>
	<g>
		<polygon fill="#936742" points="90.6513,115.3596 108.6958,115.3596 107.6344,345.6931 87.1131,345.6931 87.1131,232.4723 
			54.5622,204.8748 46.4244,183.2921 62.3461,179.7539 66.5919,196.3832 89.5898,212.3049 		"/>
		<g>
			<polygon fill="#98C74E" points="103.4556,2.7078 164.7236,37.7182 137.3718,43.9179 			"/>
			<path fill="#A0CE55" d="M28.694,34.4359c1.4588,0,74.7616-31.7281,74.7616-31.7281L41.4581,58.5055L28.694,34.4359z"/>
			<polygon fill="#A0CE55" points="115.1257,106.6447 137.3718,43.9179 103.4556,2.7078 41.4581,58.5055 			"/>
			<polygon fill="#88AE43" points="164.7236,37.7182 166.9118,96.4334 115.1257,106.6447 137.3718,43.9179 			"/>
			<polygon fill="#98C74E" points="26.8705,102.2684 28.694,34.4359 41.4581,58.5055 			"/>
			<polygon fill="#76983D" points="128.2497,127.1721 166.9118,96.4334 115.1257,106.6447 			"/>
			<polygon fill="#76983D" points="56.4105,123.7852 128.2497,127.1721 115.1257,106.6447 41.4581,58.5055 26.8705,102.2684 			"/>
		</g>
		<g>
			<polygon fill="#98C74E" points="34.5892,133.5296 70.011,138.2233 58.3736,146.3622 			"/>
			<path fill="#A0CE55" d="M5.6079,162.7065c0.6839-0.2791,28.9812-29.1768,28.9812-29.1768l-18.3925,38.0197L5.6079,162.7065z"/>
			<polygon fill="#A0CE55" points="59.9433,180.0262 58.3736,146.3622 34.5892,133.5296 16.1966,171.5493 			"/>
			<polygon fill="#88AE43" points="70.011,138.2233 82.2689,165.3323 59.9433,180.0262 58.3736,146.3622 			"/>
			<polygon fill="#98C74E" points="17.7292,194.8574 5.6079,162.7065 16.1966,171.5493 			"/>
			<polygon fill="#76983D" points="70.0231,187.1395 82.2689,165.3323 59.9433,180.0262 			"/>
			<polygon fill="#76983D" points="35.6946,199.2943 70.0231,187.1395 59.9433,180.0262 16.1966,171.5493 17.7292,194.8574 			"/>
		</g>
	</g>
	<g>
		<polygon fill="#76983D" points="68.6894,347.2921 113.1767,347.2921 108.4628,315.4734 99.035,341.989 84.3042,319.5981 		"/>
		<polygon fill="#88AE43" points="81.8394,347.2921 126.3268,347.2921 121.6129,315.4734 112.1851,341.989 97.4542,319.5981 		"/>
		<polygon fill="#A0CE55" points="75.8427,347.2921 120.33,347.2921 115.6162,315.4734 106.1884,341.989 91.4575,319.5981 		"/>
	</g>
</g>
</svg>
