<svg id="svg2" xmlns="http://www.w3.org/2000/svg" viewBox="0 0 100 100"><title>ground</title><g id="layer1"><path d="M23.39,97.31c-.4,0-.6.2-.6.4s.3.3.8.2.8-.1.7.2c-.2.8,2.09.8,2.49,0s-.1-1.3-1-.9a.76.76,0,0,1-.9-.3,1,1,0,0,0-.8-.6c-.3,0-.5.2-.3.5S23.69,97.31,23.39,97.31Z" transform="translate(0)"/><path d="M52.48,74.23a4.35,4.35,0,0,1-.8,1.5c-1,1.2-1,1.9,0,1.8s1.2.2.5,1c-.3.3-.3.4-.1.3a1.32,1.32,0,0,1,1.2.4c.8.6.8.6-.1.3-.7-.2-.8-.1-.7.4a.57.57,0,0,0,.7.4c.3-.2.3,0,.1.5A3.46,3.46,0,0,0,53,82c0,.2-.3.4-.7.3s-.6-.3-.5-.5,0-.4-.2-.4c-.4,0-1.1-1.5-.9-2.1.1-.4-.8-.4-1.39,0a5.25,5.25,0,0,0-.7,1.1c-.2.7-.2.7-.2-.1,0-.5-.2-.9-.4-.9-.5,0-.4,1.8.2,2.4.4.4.4.6.1.7s-.2.3.2.7a.94.94,0,0,0,1.3.1c.5-.4.5-.4.1.1-.7.8-.6,1.2.2.9.4-.2.6-.1.4.2-.4.8.5.8,1.79,0,.7-.4,1.2-1,1-1.2s.1-.5.6-.6.8-.4.6-.8-.1-.5.1-.4.4-.4.4-1.2c0-1.1-.1-1.4-.7-1.4a.73.73,0,0,1-.8-.8c0-.4.2-.8.6-.8a1.52,1.52,0,0,0,1-.6c.2-.3.6-.5.8-.4.4.2.9-.9.9-2.1,0-.5.1-.8.3-.7s.5-.1.8-.4c.4-.5.4-.6,0-.6s-.4-.1,0-.5c.7-.7.6-1.1-.3-1.1a1.52,1.52,0,0,0-1.2.7c-.2.4-.4.5-.4.3s-.4.1-.9.7a1.7,1.7,0,0,1-1.59.9C53,73.43,52.68,73.63,52.48,74.23Zm-.3,2.8c-.4,0-.6-.3-.4-.6s.4-.6.6-.6.4.3.4.6A.64.64,0,0,1,52.18,77Zm3.69-4.2c.2-.1.4-.1.4.2a.37.37,0,0,1-.4.4c-.2,0-.4-.1-.4-.2S55.67,72.93,55.87,72.83Z" transform="translate(0)"/><path d="M47.3,70.84c-.6.2-1,.4-1,.7s-.3.2-.6-.1-.6-.3-.6-.1-.2,0-.4-.4c-.4-.8-1.2-.9-1.2-.3,0,.2.2.3.5.1s.4.2.2,1.3c-.2,1.5-.1,1.6.8,1.6.7,0,.9-.2.8-.6s0-.5.5-.3.9.3,1.1.4a6.29,6.29,0,0,1,.9.4c.3.2.6,0,.7-.4.3-.6.3-.6.5,0,.1.4.4.5,1,.2,2.09-.8,3.59-3.2,2-3.2-.3,0-.5-.4-.4-1,.1-.9,0-1-.7-.8-.5.2-.7.1-.5-.2s0-.4-.3-.4a1.48,1.48,0,0,0-.9.4,3.06,3.06,0,0,1-1.2.8c-.5.2-1,.6-1,.8s.2.3.4.2.4-.1.4.2S47.9,70.64,47.3,70.84Z" transform="translate(0)"/><path d="M25.48,88.92c-.8.7-1.1,2.7-.4,3.1.2.1.4.1.4-.2s.2-.4.5-.4.2.3-.2.7c-.8.9-.8,1.3,0,1.3.6,0,.6.1-.2.8-1.1.9-1.2,1.6-.3,1.6.6-.1.7-.3.5-.7s0-.7.5-.8a1.63,1.63,0,0,0,1-2.1c-.1-.2-.1-.4.2-.4a.43.43,0,0,0,.4-.4c0-.2-.3-.4-.6-.4s-.6-.2-.4-.6a.72.72,0,0,0-.2-.8.72.72,0,0,1-.2-.8C26.77,88.12,26.48,88.12,25.48,88.92Z" transform="translate(0)"/><path d="M41.22,85.12a1.48,1.48,0,0,0,1.49-.5c.2-.4.4-.5.6-.1s1,.6,1,.1a4,4,0,0,0-.8-1.2c-1-1-.9-2.5.1-2.5.4,0,.7-.2.7-.4,0-.7-3.39-.2-4.48.6s-1.39,1.6-.5,1.2c.7-.3,1,.5.6,1.4-.2.5-.2.7.1.7s.3.2.2.4S40.52,85.22,41.22,85.12Zm-.3-3.8c.3,0,.6.2.6.4s-.3.4-.6.4-.6-.1-.6-.4S40.62,81.32,40.92,81.32Z" transform="translate(0)"/><path d="M31.36,91c.6-.4.7-2.2.1-1.8-.3.2-.4,0-.2-.4s.1-.7-.1-.9-.4.1-.5.6,0,.8.2.9.3.4-.1,1C30.36,91.31,30.56,91.61,31.36,91Z" transform="translate(0)"/><path d="M29.66,97.81q-1,.3-.6.9c.3.5.4.5.8,0,.6-.9.9-.2.4.8a3,3,0,0,0-.23.5H40a1.24,1.24,0,0,1,.1-.3c.4-.8-.6-2.1-1.3-1.7-.2.2-.3.1-.2-.2a.62.62,0,0,0-.1-.7,1.42,1.42,0,0,1-.4-1.1c0-.7-.1-.7-.5-.4-.6.6-1.1.6-1.1,0s2.49-2.3,3.29-2.3c.3,0,.4-.1.2-.3a.69.69,0,0,1,.2-.8.69.69,0,0,0,.2-.8,1.75,1.75,0,0,1,.1-1.2c.2-.6.2-1,0-1-.7,0-.4-.7.4-.9.6-.1.8,0,.8.5s.1.5.2.2a.89.89,0,0,1,.8-.5c.3,0,.6-.2.6-.4s-.2-.3-.4-.2-.4-.1-.4-.5c0-.6-.1-.6-.3-.2s-.6.4-1.59-.1c-1.79-.9-2.59-.9-2.09.2.3.6.3.8-.2.8a3.66,3.66,0,0,0-1.49.8c-.8.7-.8.8-.2,1a2,2,0,0,0,1.3-.2c.7-.6,1.79-.3,1.79.5q0,.6-.3,0c-.2-.4-.5-.3-1,0s-.6.6-.4.8-.1.2-.6.1-.8-.1-.7.3,0,.6-.3.6-.4.2-.2.4-.1.4-.6.4a1.35,1.35,0,0,0-1.1.6,1,1,0,0,1-.8.6c-.3,0-.6.2-.6.4s-.2.3-.4.2c-.5-.3-2.49,1.8-2.29,2.4C30.56,97.31,30.26,97.61,29.66,97.81Zm3.09,1.3a1.79,1.79,0,0,1,1-.6c.3,0,.6-.4.8-.8a1.2,1.2,0,0,1,1.2-.8c.5,0,1-.2,1.1-.5s.2-.4.2,0a.67.67,0,0,1-.4.7c-.6.4-.5,1.1.2.9.5-.2.5-.1.1.5a2.08,2.08,0,0,1-1.69.7,1.9,1.9,0,0,0-1.39.4c-.1.2-.5.3-.9.2S32.45,99.5,32.75,99.1Z" transform="translate(0)"/><path d="M7.25,98.91a9.19,9.19,0,0,0,1-.3,1.83,1.83,0,0,0,1.1-1c.1-.4.4-.6.6-.5.4.1,1.89-1.4,2.19-2.2.2-.4.1-.6-.3-.4a.77.77,0,0,1-.8-.2c-.1-.2.1-.4.4-.3s.7-.1.8-.4-.3-.5-1-.5c-1.2,0-2.69,1.3-2.29,1.9.1.2-.1.7-.6,1.2s-.6.8-.4.8.1.3-.2.6C7.25,98.11,6.85,99,7.25,98.91Z" transform="translate(0)"/><path d="M52.68,61.85c-.5,0-2.69,2-2.29,2,.2,0,1.1.1,2.09.2l1.69.1-.6-1.2C53.28,62.34,52.88,61.75,52.68,61.85Zm.2.8c-.1.2-.3.4-.4.4s-.2-.2-.2-.4a.43.43,0,0,1,.4-.4C52.88,62.24,53,62.44,52.88,62.64Z" transform="translate(0)"/><path d="M45,59c-.6-.6-.7-.5-1.1.5a11.9,11.9,0,0,0-.4,1.4,2.75,2.75,0,0,1-.8.9l-.8.6.8.4c.9.6,1,.6,1.3.3a1.07,1.07,0,0,0,0-.8c-.1-.4.1-.6.8-.6s1-.2.9-1A4.36,4.36,0,0,0,45,59Z" transform="translate(0)"/><path d="M39.73,72.53c0,.4-.3.6-.9.5s-2.29,1-1.59,1.1c.1,0,.8.1,1.39.2,2.19.2,2.39.3,2.39.6.1.6.5.5,1.79-.2s1.3-.7.4-1.6c-.6-.6-.6-.7-.1-1,.7-.4.4-.8-1.1-1C40.72,70.94,39.73,71.63,39.73,72.53Z" transform="translate(0)"/><path d="M.57,66.94c.3,0,.3.1-.1.4-.7.5-.4.7.7.5A2.47,2.47,0,0,0,2.57,67c.5-.5.4-.6-.3-.4-1.1.4-2-.3-1.69-1.3.1-.5.1-.8-.1-.8s-.4.5-.4,1.2S.27,66.94.57,66.94Z" transform="translate(0)"/><path d="M1,55.55c.5-.3,2,.2,1.69.6-.3.6.2.5,1.1,0a4.46,4.46,0,0,0,1.3-1.6c.5-1.1.5-1.2-.2-1.4-.4-.1-.8-.4-.8-.6,0-.4.7-.5.9-.1.1.2.1.1.1-.2a.61.61,0,0,1,.3-.7c.3-.2.3-.4-.1-.6s-1.3.1-2.19.6a4.22,4.22,0,0,1-1.89.7c-.1-.1-.4.3-.6.9C.07,54.35.37,56,1,55.55Z" transform="translate(0)"/><path d="M47.1,55c.2-.1.3.2.3.5a.84.84,0,0,1-.4.7c-.2.1,0,.4.4.6.6.4.8.4.7,0s.5-.5,1.3-.6a3.55,3.55,0,0,0,1.69-.6c.3-.4.4-.3.7.2.4.7,1.69.9,5.18.8a4.74,4.74,0,0,1,2.39.5c.6.6,1.69.3,1.69-.4,0-.2.4-.3.8-.2s.7,0,.6-.3a.48.48,0,0,0-.6-.2c-.2.1-.3-.1-.1-.4.3-.7-.5-.9-.8-.2-.1.2-.2.2-.1-.1s.5-.6,1-.8c.7-.3,1-.2,1.3.6.2.5.4.7.4.5s.6-.4,1.2-.5c.8-.1,1.1.1,1,.4-.2.6.9,1.2,1.49.8.3-.2.3-.1.1.2-.5.7-1.3.5-2-.4-.3-.5-.6-.7-.7-.5a11.3,11.3,0,0,0-.2,1.4c-.1.5-.1.8,0,.5s.5-.4,1-.3c.8.2,1,.7.4,1.1-.2.1-.4,0-.4-.2s-.3-.3-.7.2a2.38,2.38,0,0,1-1.1.7c-.2,0-.4.5-.4,1.2,0,.9.2,1.1.6,1s.5-.1-.1.4a1.72,1.72,0,0,0-.7,1.1c0,.3-.2.3-.5.2s-.4-.1-.2.4.1.7-.1.7-.3.3-.1.6a1.38,1.38,0,0,1-.3,1.2c-.4.5-.4.7.3,1.2.5.4.6.6.2.6s-.4.3-.3.6a.6.6,0,0,1-.4.8c-.4.1-.6.8-.6,1.7a7.1,7.1,0,0,1-.6,2.6c-.5.9-.5,1.2-.1,1.8.3.4.7.6.9.4.6-.3,1.39.8,1.1,1.4a4.68,4.68,0,0,0-.4,1.4c-.1.8,0,.9.5.6a1.42,1.42,0,0,1,1.49.2,2,2,0,0,0,1.3.4c.2-.1.3.1.2.6-.1.8-.1.7,1.49-.4,1-.7,1.2-1.1,1.1-1.9a13.13,13.13,0,0,1-.3-1.5c0-.3-.4-.7-.7-.9s-.4-.4-.2-.4.1-.3-.2-.7c-.5-.6-.4-.6.8-.5.8.1,1.39,0,1.49-.3s.5-.4,1-.3.8,0,.8-.3-.2-.4-.4-.2-.4,0-.4-.2-.2-.3-.4-.2-.5,0-.6-.4a.6.6,0,0,0-.5-.5c-.1.1-.3-.2-.3-.6s.2-.7.4-.7a.74.74,0,0,0,.6-.5c.1-.4,0-.5-.4-.3-1,.4-.8-.1.3-1,.6-.4.9-.9.8-1.1s.2-.3.7-.3a1.42,1.42,0,0,0,1.1-.5c.2-.3.3-.3.5,0,.2.7,2.69-.1,3.59-1.2s.9-2.6.1-2.2c-.3.1-.6.1-.6-.2s.3-.5.6-.6c.9-.4,0-1.2-1.69-1.5a2.49,2.49,0,0,0-2,.2,1.64,1.64,0,0,1-1.39.3c-.4-.1-.9,0-1,.2s0,.4.2.4a.43.43,0,0,1,.4.4c0,.6-.8.5-1.49-.2-.5-.5-.5-.6,0-.6a1,1,0,0,0,.8-.6q.15-.6-.3-.6c-1.1.1-1.49-.1-1.49-.9q0-.75.3-.6c.2.1.6-.3,1-.9s.5-1.2.3-1.4a.72.72,0,0,1-.2-.8c.1-.3,0-.6-.2-.6a.43.43,0,0,0-.4.4c0,.2-.3.4-.6.4s-.2-.3.6-1,1.1-1.2,1-1.4c-.3-.5-1.39,0-1.39.6,0,.3-.4.7-.8,1s-.7.3-.6.1.1-.4-.2-.4-.3-.2-.1-.7a1.81,1.81,0,0,0,.2-1.2c-.2-.6.4-.7.9-.1s1.1,0,1.69-1.6c.7-1.9.6-2-.4-1.7s-1.1.2-3.69-.1c-2.19-.3-3.79.2-3.79,1.2,0,.7.5.8,1.1.1.3-.3.5-.3.5-.1a1.52,1.52,0,0,1-.4.8c-.3.3-.3.7,0,1.3.5,1,.3,1-.8.3-.7-.4-.9-.4-1.2.2s-.5.6-1.49.2c-.6-.3-1.3-.5-1.59-.3s-.4,0-.3-.3,0-.6-.3-.7c-1-.4-.8-1.5.3-1.1a4.18,4.18,0,0,1,1.2.7.48.48,0,0,0,.7.1c.4-.2.4,0,.2.6s-.1.7,0,.4.6-.5,1-.5.7-.2.5-.4a.48.48,0,0,0-.6-.2c-.2.1-.4,0-.4-.2s.3-.3.8-.2.7.1.5-.6-.4-.7-.6-.4-.7.3-1.2,0-.9-.3-1.1.1-.6.4-1.2.2a1.59,1.59,0,0,0-1.49.2c-.5.4-.5.4-.3-.3s.2-.7-.3-.3c-.8.8-1.3.6-.8-.3.4-.7.3-.8-1.39-.7-1,0-1.79.2-1.79.4s.2.2.5,0,.4-.1.2.3a1.15,1.15,0,0,0,.4,1.2c.5.4.6.4.4,0-.4-.7,0-.6.7.1a2.23,2.23,0,0,1,.6,1.3c0,.6-.1.6-.7,0s-.9-.6-2.69.3a11,11,0,0,1-2.89,1c-.8,0-1.1.3-.8,1.1C46.8,55,46.9,55.05,47.1,55ZM64.83,65.64c-.7.9-1,1.1-1,.8a3.42,3.42,0,0,1,.9-.9l.9-.8Zm4.28-2.2c1.1-.1,1.1-.1.4.7S68,65,68,64.14C68,63.84,68.52,63.54,69.12,63.44ZM67.22,69c-.1.2-.3.4-.4.4s-.2-.2-.2-.4a.43.43,0,0,1,.4-.4C67.22,68.64,67.32,68.84,67.22,69Zm.3-6.39c-.3.4-.9,0-.9-.5,0-.2.3-.4.6-.4C67.82,61.75,68,62.24,67.52,62.64ZM65.33,51.46a2,2,0,0,0,.6-.9c.2-.4.5-.6.9-.4s.5.3.1.6-.4.3-.2.3,0,.3-.4.6-.9.5-1.1.3A.35.35,0,0,1,65.33,51.46Zm-6.67-1c.2-.1.4-.1.4.2a.37.37,0,0,1-.4.4c-.2,0-.4-.1-.4-.2S58.46,50.56,58.66,50.46Zm-5.58,3a1.08,1.08,0,0,1,.2.9q-.6.75-.6-.6C52.68,53.05,52.78,53,53.08,53.45Zm-1.59-.4a.37.37,0,0,1,.4.4c0,.2-.1.4-.2.4s-.3-.2-.4-.4S51.18,53.05,51.48,53.05Z" transform="translate(0)"/><path d="M88.84,54c.1,1.2.2,1.2,2.09.5,1-.3,1.39-.7,1.49-1.5.1-.5,0-.8-.1-.5-.3.7-.9.6-.9-.1,0-.3.4-.6.8-.6s.8-.2.8-.4-.3-.3-.7-.2c-2.29.6-2.69.8-3.19,1.3A1.51,1.51,0,0,0,88.84,54Z" transform="translate(0)"/><path d="M91.33,56.15c-.4-.1-.5-.1-.3.1a1.6,1.6,0,0,1,.5,1c.2,1.2,1.2,2.8,1.49,2.4a1.13,1.13,0,0,0,.1-.8c-.1-.2,0-.3.4-.3s.5.1.4.3.1.3.4.3.5.2.4.4c-.5.6,0,.3.9-.7.6-.6.7-1,.4-1.1-.6-.2.4-1.5,1.1-1.4.3.1,1-.4,1.59-1,1.2-1.3.8-2.1-1.2-2.1a6.61,6.61,0,0,1-2.09-.3c-.6-.2-.9,0-.9.4a.67.67,0,0,1-.7.6c-.4,0-.5.1-.4.3C93.92,54.75,92,56.35,91.33,56.15Z" transform="translate(0)"/><path d="M71.11,54.45c.7-.4.8-.4.4.4s-.3.8.3,1.1.7.5.6.8c-.4,1,.6,1.8,2.09,1.6.7-.1,1.39,0,1.39.2a.43.43,0,0,1-.4.4.43.43,0,0,0-.4.4c0,.2.3.3.6.2s.6,0,.6.6a1.6,1.6,0,0,0,.4,1.1c.2.2.4.1.3-.1s.1-.3.3-.3.3.2.3.4a2.18,2.18,0,0,0,.2,1,5.36,5.36,0,0,1,.41,1.27c1.37-.89,3.07,0,2,1.33-.4.5-.4.6,0,.6s.4.1.3.2c-.4.4-1.49-.3-1.3-.7.2-.2.1-.3-.2-.1a1.19,1.19,0,0,0-.5.9c0,.5-.2.4-.7-.3a2.44,2.44,0,0,1-.44-.84,1.29,1.29,0,0,0,.34,1.14,1.59,1.59,0,0,1,.6.9c0,.6-1.49.6-1.69,0-.3-.8-1.1,0-1.1,1a2.72,2.72,0,0,1-.8,1.6,2.49,2.49,0,0,0-.8,1.2c0,.2.3.1.6-.3a1.21,1.21,0,0,1,1.2-.5c.3.1.6.1.6-.1s.5-.4,1-.4.9-.2.7-.4.1-.4,1-.2,1.2.2,1-.2c-.2-.2-.4-.3-.6-.2s-.3-.1-.1-.4c.2-.5.3-.5.6-.1s.5.4.6.2c.5-.5,1.3.5,1.1,1.3s-.4.8-1.1.8c-.29,0-.8.6-1.13,1.18a.64.64,0,0,1,.33.52c0,.3,0,.6-.1.6s-.26-.24-.5-.5a.51.51,0,0,0,0,.4c.5.5-.7,1.8-1.59,1.9-.4,0-.2.2.4.5s1,.7.9,1.2,0,.6.4.4a4.61,4.61,0,0,1,2-.4c1.3,0,1.39,0,.9.5a2.82,2.82,0,0,1-1.59.6,1.61,1.61,0,0,0-1.3.6.68.68,0,0,1-.8.4c-.3-.1-.5,0-.5.2s-.3.4-.8.4c-1,0-1.3,1.3-.5,2,.5.4.6.4.9,0s.4-.4.6-.1.1.4-.1.4-.4.3-.4.6-.4.6-.9.7c-.8.2-.8.2-.1.2a5.3,5.3,0,0,0,2.49-1.5c1.69-1.7,3.49-2.2,3-.9-.2.4-.3.5-.4.2-.2-.7-.9-.2-.9.7a1.33,1.33,0,0,1-.6,1c-.3.1-.5.4-.4.6s0,.4-.3.5-.4.4,0,1.5.4,1.2-.1.8-.6-.3-.8,0,.2.6,1,.9a6.31,6.31,0,0,1,.78.39,2.32,2.32,0,0,1,1.91-.89c1.1,0,1.1.1.6.7-.8.9-.8,1.8,0,1.5.4-.1.5-.1.4.2a1,1,0,0,1-.8.4c-.4,0-.5.3-.2,1.1.4,1.2.1,1.8-.8,2.1-.7.1-1.69-.1-1.69-.5a4.27,4.27,0,0,1,.9-1.2c.7-.8.8-.9.2-.7-.8.3-1-.3-.2-.8.3-.2.2-.4-.2-.6a.75.75,0,0,1-.32-.31.94.94,0,0,1-.68-.09,1.63,1.63,0,0,0-1.2-.2c-.4.1-.7-.1-.7-.3s-.2-.3-.5-.1a4.21,4.21,0,0,1-1.2.4c-1.1.1-.7-1.3.5-1.8.6-.3,1.1-.7,1.1-1.1s-.1-.5-.5.1a.78.78,0,0,1-1.1.4c-.4-.2-.4-.4.1-.7a1.27,1.27,0,0,0,.7-.8c0-.3-.2-.3-.5,0-.5.4-.8.4-2.49-.2a6.76,6.76,0,0,0-2.29-.4c-1.3-.1-1.39-.1-1.3.6.1.5,0,.8-.3.8s-.3.2-.2.5-.1.2-.5-.2a3.1,3.1,0,0,0-1.79-.7c-1.69,0-3.49.5-3.29.8.4.6-.5.4-1-.2-.6-.8-1-.8-1.79.1a3.28,3.28,0,0,1-2.09.7,3,3,0,0,0-1.89.6c-.4.4-.4.4,0,.2s.5,0,.5.4.3.6,1,.5,1.1,0,1.2.4.4.6.6.6.3-.2.1-.4,0-.4.4-.4.6.2.2.8a1.51,1.51,0,0,1-1,.8c-.5,0-1,.8-1,1.6,0,.2.3.4.7.4.6,0,.6.1.1.4a.71.71,0,0,0-.3.8,1,1,0,0,1-.2,1,1.32,1.32,0,0,0-.3,1.2c.2.6-1.1,1.3-2.09,1.1-.3-.1-.8.2-1.1.5-.3.5-.6.5-.8.2a.54.54,0,0,1,.2-.8.54.54,0,0,0,.2-.8c-.2-.3-.1-.4.2-.4,1.3.2,1.49,0,1.1-1-.6-1.6-.5-2.5.3-2.4a.85.85,0,0,0,.8-.7c.1-.8.1-.8-.4,0s-.6.7-1.49-.3a3.5,3.5,0,0,0-1.39-1.1.86.86,0,0,1-.7-.5c-.2-.4-.3-.4-.6.1a1,1,0,0,1-1,.3c-.4-.2-.6,0-.7.4,0,.6-.1.6-.6-.1s-.6-.7-.9.4c-.2.7-.1,1.2.2,1.3.6.2.6.9,0,.8s-.6,1,.1,1.6c.5.5.5.5-.1.3a1.1,1.1,0,0,0-1.1.4c-.3.3-.4.6-.2.6s0,.4-.2.9-.5,1-.4,1.2a.26.26,0,0,1-.3.3c-.7,0-.2,1.4.9,2.5.65.65.87,1,.84,1.29h1c.09-.13.19-.26.3-.4.5-.6,1-1,1-.8s.3-.1.6-.5c.6-.8.6-.8.4.1-.2.7.1,1,1,1.4l.44.2h3.94a1.37,1.37,0,0,0-1.19-.5c-.7.4-.5-.4.2-1,.5-.4.6-.4.6.2s.5.8,1.3.7c.2,0,.2.2.1.6h7.2a2,2,0,0,1,1-.5c1.59-.6,1.59-.6,1.59.3a1.26,1.26,0,0,1,0,.2H95.93a1.05,1.05,0,0,0-.41-.1c-.6,0-.7-.2-.6-1.1.1-.6.3-1.1.6-1.1a1.38,1.38,0,0,0,.9-.5c.6-.6,2.59-.7,3,0,.2.3.1.4-.1.2s-.3.1,0,.7c.4.8.5-.2.6-5.49.1-4.89,0-6.49-.4-6.79s-.4-.3,0-.3a.46.46,0,0,0,.5-.4c0-.2-.2-.3-.4-.2s-.4,0-.4-.3c0-.6-1.49-2.5-1.69-2.2a4.77,4.77,0,0,0-.6,1.1l-.5.9-.8-.9c-.9-1-1-1.6-.3-1.6.4,0,.4-.1,0-.5s-.2-.7.7-1.4a3.77,3.77,0,0,1,1.59-.9c.3,0,.1-.3.1-.5s.4-.4,1-.4,1-.2,1-.8c0-.8-.6-1.1-1-.5-.3.4-1.59.3-2.29-.2-1.1-.9-1.49-.9-2.09-.3s-.5.7-.2,1-.2.3-.9.3c-1.3,0-1.39-.1-1.3-1.2.2-1.3.6-2,.6-.9,0,.4.6.1,1.89-1.1,1.49-1.5,2.09-1.7,3-1.6a1.36,1.36,0,0,0,1.69-.7c.8-1.1.4-1.7-.3-.6-.3.4-.6.6-.8.3s-.6-.3-1-.2c-.7.2-.8.1-.5-.5s.2-.7-.3-.2-1.59.7-1.49.2c.1-.9-.1-1.4-.7-1.1-.4.2-.4-.1.3-.9a12.87,12.87,0,0,0,1.3-1.8c.2-.4,1.1-.7,1.89-.8,1.39-.2,1.39-.1,1,.8-.2.5-.6.8-.9.7s-.1.1.3.6a2.4,2.4,0,0,1,.7,1.3c0,.4.1.4.5.1a6.15,6.15,0,0,0,.6-2.6c.1-2.1.1-2.2-1.1-2.4-1.69-.4-3.49.4-5.38,2.5a13.82,13.82,0,0,1-1.89,1.7c-.5,0-.5-1.5.1-2.1.4-.5.4-.7.1-.7s-.4-.2-.3-.4.1-.5-.1-.6c-.5-.3-2,1.7-2,2.7q0,.9-.3.3c-.3-.4-.4-.4-.7,0s-.4.3-.6-.4-.5-.8-.9-.6-.6,0-.6-.3-.1-.4-.3-.1a3.67,3.67,0,0,1-3.69,1,1.15,1.15,0,0,1-.8-.9c0-.3.2-.3.4-.2.6.3,1.69-.2,1.49-.7-.1-.2.1-.7.4-1s.5-.4.5-.2.3,0,.6-.2.5-.7.2-1c-.4-.5.9-1.6,1.3-1.1s.2.9-.4.6-.6-.1-.4.4a7,7,0,0,1,.3,1.4c0,.5.4.7,1.59.8,1.69.1,2.49-.1,2.19-.7-.1-.2-.6-.2-1.1,0a1.53,1.53,0,0,1-1.59-.2c-.6-.5-.6-.6.3-1.2a2,2,0,0,1,1.49-.4c.7.4,1.89.5,1.89.1,0-.2-.2-.4-.5-.5s-.3-.4-.2-.7a2.56,2.56,0,0,1,2.89-.8c.5.2.9.2.9-.1s.3-.4.6-.4a1.48,1.48,0,0,0,.9-.4c.2-.3,0-.3-.7-.1-1.2.4-3.89.5-3.69.1q.15-.3-.3-.3c-.3,0-.4-.3-.2-.6s.1-.5-.1-.4-.4-.1-.5-.5c-.2-.6-.2-.6-.2,0s-.3.7-.6.5c-.9-.4-2.69.6-2.49,1.4s-.2.9-1.3.7q-.6,0-.3.6a.82.82,0,0,1,0,.7,5.72,5.72,0,0,0-1,.2c-.5.1-.7,0-.5-.5.5-1.2.4-1.5-.3-1.4-.4.1-.7-.1-.7-.3s.4-.4,1-.4,1-.2.9-.5.2-.5.8-.4a1.13,1.13,0,0,0,1.1-.3c.1-.2,0-.4-.4-.4s-.6-.2-.6-.4c0-.4.8-.6,2.09-.5.5,0,.6-.2.6-1s-.2-1-.7-.8-.6-.1-.6-1.1c0-1.4,1.59-3.2,2.29-2.8.3.2.4.1.2,0s0-.6.4-1c1.39-1.6,1-2-2.09-2-2.09,0-3.09.2-3.39.6a2,2,0,0,1-1.1.6c-.6,0-.6.1-.1.4.3.2.4.4.1.4a.84.84,0,0,0-.7.7c-.2.5-.2.6.4.2.4-.3.6-.3.6-.1a1.27,1.27,0,0,1-.4.7.48.48,0,0,0-.1.7c.2.3.1.3-.4,0s-.7-.4-1.3.1c-.4.4-.6.4-.6.2a.43.43,0,0,0-.4-.4c-.7,0-.4,1,.4,1.5.5.3.9.3,1,.1.3-.5,1-.5,1,0,0,.2-.3.4-.6.4a.56.56,0,0,0-.6.5q0,.6-.3,0c-.3-.5-2.19-.5-2.69,0a2,2,0,0,1-1.3-.3c-.6-.3-1.2-.5-1.3-.4s-.5-.1-.8-.5c-.5-.6-.5-.6.1-.4.8.3,2.29-1.5,2.29-2.7a.67.67,0,0,0-1.3-.2,2.86,2.86,0,0,1-1.79.4c-.9,0-1.79.1-1.89.4s-.7.4-1.2.4c-.8,0-.9.1-.6.7s.3.9-.1,1.2C69.51,55.05,70,55.05,71.11,54.45Zm-16.44,38c.4-.4.4-.3.2.2s-.4.6-.5.5S54.37,92.71,54.67,92.41Zm.6,5.69c-.3.3-.5.7-.3.9s.1.3-.2.1-.5-.6-.5-1.2-.2-1-.4-1-.1-.3.3-.7c.6-.6.8-.6,1.2-.2A1.31,1.31,0,0,1,55.27,98.11ZM62,84.52c-.4.7-.6.5-.3-.2.1-.3.3-.5.4-.4A.48.48,0,0,1,62,84.52Zm2.29,7.29c-.3-.1-.3-.4-.2-.8a2.55,2.55,0,0,1,.8-1.2q.6-.6.6.3C65.53,90.91,64.83,91.81,64.33,91.81Zm4.28-5.19c-.2-.1-.2-.4-.1-.9s.3-.7.5-.3C69.32,86,69.12,86.62,68.62,86.62Zm2.79,7.09a.37.37,0,0,1-.4-.4c0-.2.1-.4.2-.4s.3.2.4.4S71.71,93.71,71.41,93.71Zm2.39-7.49c-.2,0-.4-.1-.4-.2s.2-.3.4-.4.4-.1.4.2A.37.37,0,0,1,73.8,86.22Zm1.59,5.59c-.6.3-1.2.1-1.2-.4,0-.2.3-.3.7-.2a8.1,8.1,0,0,0,.9.2C75.89,91.41,75.69,91.61,75.39,91.81Zm.6-2.4c-.2.3-1,.5-1,.2,0-.1.3-.3.6-.4S76.09,89.12,76,89.42Zm13.75-7.09c-.4.1-.8.4-.8.6a.43.43,0,0,1-.4.4c-.2,0-.4-.1-.4-.3a1.94,1.94,0,0,1,1.39-1.5C90.54,81.42,90.73,82,89.74,82.32Zm3.69-11a1.16,1.16,0,0,1,.6-.6c.3-.1.4.1.2.5C94,71.83,93.23,72,93.42,71.34Zm-4,.1c.5-.5.8-.6,1.2-.2a3.37,3.37,0,0,0,1.49.6c.5.1,1,.2,1.1.2s0,.2-.1.4c-.3.6-2.19.5-2.19,0,0-.2-.2-.2-.4.1s-.4.4-.4.1-.3-.5-.7-.5C88.84,72.13,88.84,72.13,89.44,71.43Zm.9,2a4.13,4.13,0,0,0,1.3-.3c.6-.3.6,1,.1,1.6a3.17,3.17,0,0,0-.5,1.4c-.1.6-.4,1.1-.9,1.1s-.7-.1-.6-.4c.1-.6-.9-2.3-1.39-2.3-.2,0-.1.3.1.6a1,1,0,0,1,.1,1.3c-.2.4-.4.9-.3,1s-.1.1-.3-.1-.2-.5.1-.9.3-.6-.3-.8c-.4-.1-.8-.4-.8-.6C86.95,74.63,89.24,73.53,90.34,73.43Zm-3.69-2.6c.8-.8,1.2-.2.6,1.2-.4,1.1-.5,1.1-.9.3C86.15,71.63,86.15,71.24,86.65,70.84Zm-.1,6.29a.82.82,0,0,1,.4.6c0,.2-.2.3-.4.2a.82.82,0,0,1-.4-.6C86.15,77.13,86.35,77,86.55,77.13Zm-6-5.89c.2-.1.4-.1.4.2a.37.37,0,0,1-.4.4c-.2,0-.4-.1-.4-.2S80.37,71.34,80.57,71.24ZM83.36,85c-.2-.1-.4-.2-.4-.4,0-.5.8-1,1.1-.7S83.86,85,83.36,85Zm-1.2-12.79c0-.2.4-.4.9-.6a8.23,8.23,0,0,0,1.59-.9c.4-.3.8-.5.9-.4s-.1.4-.6.7a1.44,1.44,0,0,0-.8,1.3c0,.5.2.7.4.6s.4.1.4.6.2.8.4.8.3.2.1.5-.4.3-.8-.2c-.3-.7-.5-.7-.9-.3s-.4.3-.2-.2c.3-.7-.4-1-.8-.3a.72.72,0,0,1-.8.2.72.72,0,0,0-.8.2c-.5.8-1.1.5-.6-.4.3-.5.3-.8,0-.8a.43.43,0,0,1-.4-.4c0-.3.4-.4,1-.3S82.17,72.33,82.17,72.23Zm-.6-8.79c-.1.2-.3.4-.4.4s-.2-.2-.2-.4a.43.43,0,0,1,.4-.4C81.57,63,81.67,63.24,81.57,63.44ZM79.38,59c.6-1.1.9-1.2,1.59-.8.4.3.4.4.1.4s-.4.2-.3.4-.4.6-1.49.8C79.08,59.75,79.18,59.45,79.38,59Zm-4.68-6.49c.3-.4.6-.6.6-.4.2.7-.3,1.7-.7,1.4C74.4,53.45,74.4,53.05,74.69,52.56Zm-.9,2.1a.4.4,0,1,1-.4.4A.43.43,0,0,1,73.8,54.65Z" transform="translate(0)"/><path d="M7.45,84.32c.2.3,0,.4-.3.2A1.29,1.29,0,0,0,6,85c-.7.8-.8,2.1-.2,1.9a1.6,1.6,0,0,1,1.1.2c.5.3.6.1.4-.7s-.1-1,.6-.6a1.6,1.6,0,0,0,1.1.2c.2-.1.3-.1.3.2s-.3.5-.6.7a.73.73,0,0,0-.4.8,1.28,1.28,0,0,1-.4,1.1,1.79,1.79,0,0,0-.6,1,6.15,6.15,0,0,1-2.49,2.8,2.45,2.45,0,0,0-1.1.4c-.5.3-.5.3,0-.3s.5-.8,0-1.4-.5-2.1.1-2.1c.2,0,.4-.3.4-.6a.64.64,0,0,0-.6-.6c-.6,0-1.2-1.1-.8-1.6.1-.2,0-.4-.3-.4s-.9-.1-1.39-.1c-.9-.1-.9-.1-.9,5.79a45.38,45.38,0,0,0,.2,5.89c.1,0,.1-.5.1-.9s.2-.5.4-.4.7-.3,1-.9c.4-.8.6-.9.6-.4s.2.7.5.7.3-.3.2-.6.1-.6.9-.6a2,2,0,0,0,1.69-.8c.3-.4.7-.7.8-.6s.6,0,1-.3c.6-.4.7-.7.4-1.1s-.4-.5-.7,0-.4.4-.5,0a1,1,0,0,1,.3-1c.4-.4.6-.3,1.1.4.3.5.7.8.9.6s.1-.5-.2-.8-.2-.8.9-1.6,1.3-1.3,1.2-1.8-.4-.7-.7-.6c-.7.3-.6-1.1,0-1.9.5-.6.5-.7-.1-.9-.3-.1-.6-.1-.6.1s-.5.2-1.2,0C7.45,84,7.25,84,7.45,84.32Z" transform="translate(0)"/><path d="M10.24,53.75a4.24,4.24,0,0,1,3.19.7c.5.7,1,.9,1,.7v-1c0-.4.3-.8,1-.9,1-.2,1.2-.8,1.1-2.3a1.07,1.07,0,0,1,.7-.9c.4-.1.8-.4.8-.7s-.1-.4-.6,0-.6.3-.8-.1-.5-.1-1.2.7A3.17,3.17,0,0,1,14,51.16c-.2,0-.6.1-.8.1s-.4.3-.4.6a.64.64,0,0,1-.6.6c-.3,0-.6.2-.6.4s-.2.3-.6-.1a1.25,1.25,0,0,1-.4-1.3c.2-.6.1-.7-.1-.3a1,1,0,0,1-1,.3c-.4-.1-.7-.1-.7.2a.74.74,0,0,0,.5.6c.4.2.4.2,0,.2a1.2,1.2,0,0,0-.9.7C8.14,53.75,8.24,53.85,10.24,53.75Z" transform="translate(0)"/><path d="M17.11,57.85c.1-.1.8-.3,1.39-.7s1.1-.8,1.1-1,.2-.3.4-.2.8-.6.8-1.4c0-.6-1.79-.4-2.69.4S16.51,57.85,17.11,57.85Z" transform="translate(0)"/><path d="M1.17,64.94c-.2.5-.3.9-.2.9a2.37,2.37,0,0,1,.7-.3,3.81,3.81,0,0,0,1.1-.8,1.81,1.81,0,0,1,1.1-.5c.3,0,.6-.2.6-.3A2.57,2.57,0,0,0,3,63.84C2,64,1.37,64.34,1.17,64.94Z" transform="translate(0)"/><path d="M20.7,53.55c.2-.1.4,0,.5.3s.2.2.2-.2.2-.7.4-.7c.6,0,1.69,1.2,1.39,1.6-.1.2,0,.4.2.4.4.1.5-.5.3-1.4-.2-1.2-.1-1.5.6-1.7,1.2-.3.9-1-.5-1.2a5,5,0,0,1-1.59-.5c-.5-.5-1.49-.5-1.49,0,0,.2.2.3.4.2.4-.2.4.1-.2,1.6C20.4,53.25,20.4,53.75,20.7,53.55Z" transform="translate(0)"/><path d="M42.42,53.65c.7-.3.7-.2.1.7s-.6,1,.2,1.9c1.1.8,1.89,1.1,1.39.3-.2-.3-.1-.4.3-.2.7.3,1.69-.6,1.2-1-.1-.1,0-.5.2-.8s.4-.8.2-1,0-.4.2-.4.4-.1,0-.5c-.2-.3-.3-.7-.1-.9s0-.1-.4.2c-.6.4-.7.4-1.1-.2-.5-1-1.69-.5-1.39.6.1.6,0,.8-.4.8a1.48,1.48,0,0,0-.9.4C41.82,53.75,41.92,53.85,42.42,53.65Z" transform="translate(0)"/><path d="M36.64,53.65c.5.6.9.7,1,.3v-.6c0-.3.6-.5,1.3-.3.2,0,.3-.4.3-1s-.2-1-.6-1c-.9,0-2.19.8-2,1.2a.48.48,0,0,1-.2.6C36.14,53.05,36.24,53.35,36.64,53.65Z" transform="translate(0)"/><path d="M25.48,53.85c.7-.2.9-.1.7.4a1.72,1.72,0,0,0,.2,1.2,1.47,1.47,0,0,1,.2,1.1c-.1.3-.2.6-.1.6.1-.2.5-.3.9-.4s1.1-.3,1.39-.4a4.23,4.23,0,0,1,1.1-.2,2.12,2.12,0,0,0,1.2-.4c.7-.4.7-.4,0-.2-.5.1-.7,0-.7-.4s.5-.7,1.2-.8,1.2-.4,1.2-.6-.3-.3-.6-.1c-1,.4-1.49-.2-.8-.9s.6-.7-.5-1a18.35,18.35,0,0,0-2.29-.4,6.5,6.5,0,0,1-2.09-.4c-.6-.2-.9-.2-.7.1a.53.53,0,0,1-.2.7.77.77,0,0,0-.2.9,1,1,0,0,1-.3,1C24.78,53.85,24.88,54,25.48,53.85Z" transform="translate(0)"/><path d="M31.06,59c.1.5-.1.9-.5.9s-.5-.2-.4-.4c.3-.5-.3-.5-.9,0a.76.76,0,0,1-1,.1c-1.39-.9-3.09-.1-3,1.4s.9,1.9,1.3,1.2a1.79,1.79,0,0,1,1.3-.4c1.1,0,1.1,0,.3-.7-.6-.5-.7-.6-.1-.4.4.1.8.1.9-.2a.46.46,0,0,1,.7-.1c.8.6,2.29.5,2.29-.1,0-.3.2-.5.5-.4a.68.68,0,0,0,.8-.4c.1-.4.1-.5-.1-.4-1.2.7.1-.8,1.79-2.2.7-.6.7-.5.4.4a4,4,0,0,1-1,1.5c-.6.4-.6.5,0,.5h1c.2,0,.1.3-.2.7-.9,1.1-.9,1.2-.6.4.2-.4.1-.6-.1-.5-.5.3-.5,1.4,0,1.4a.82.82,0,0,0,.6-.4.72.72,0,0,1,.8-.2c.4.2.5,0,.4-.4s.1-.7.6-.9a1,1,0,0,0,.8-.7c0-.2.1-.3.3-.2.4.4,1.79-.5,1.49-1a1.3,1.3,0,0,1,.2-1c.3-.3.3-.6.1-.6s-.1-.2.3-.4.3-.4-.5-.2c-1,.2-1.1.2-.7-.6.6-1.2-.5-1.1-2.19.2a5.2,5.2,0,0,1-2.19,1c-.6,0-.8.2-.8.7s-.3.8-1.3,1.1S31,58.45,31.06,59Z" transform="translate(0)"/></g><g id="layer1-2" data-name="layer1"><path d="M14.32,17.71c-.6-.6-4.18-1.1-4.48-.6a1.79,1.79,0,0,1-1.3.4H7.45l.9.6c.7.5.8.8.5,1.4s-.3.7.4.5.8,0,.8.9-.2,1-.6.9c-.6-.2-1.59.6-1.2,1.1.1.1.1.3-.2.3-.6,0-.6,1.2.1,2.5s.7,1.5,0,1.5c-.3,0-.5.2-.4.6a2.89,2.89,0,0,0,2.69-.2c.5-.2.9-.6.9-.9a.46.46,0,0,1,.4-.5c.2,0,.3-.4.2-.9a1.7,1.7,0,0,1,.8-1.6c.9-.7.9-.8.4-1.4a2.19,2.19,0,0,1-.6-1c0-.2-.2-.3-.3-.2s-.7,0-1.1-.3c-.7-.5-.7-.6.2-.9a2.25,2.25,0,0,1,1.3-.2c.1.1.5-.1.7-.4a1.79,1.79,0,0,1,1-.6C15,18.71,15,18.41,14.32,17.71ZM10.24,26.1c-.4.6-.9.5-1.2-.2-.1-.4-.2-.7-.1-.9s.3.1.5.5a.5.5,0,0,0,.7.4C10.34,25.7,10.44,25.8,10.24,26.1Zm.1-7c-.4-.1-.6-.4-.5-.5s.4,0,.7.3S10.83,19.31,10.34,19.11Z" transform="translate(0)"/><path d="M18,22.4c.4,0,.8-.3.8-.5a.75.75,0,0,1,.5-.7c.3-.1.1-.2-.4-.2a1.41,1.41,0,0,1-1.1-.4c-.1-.2.1-.3.5-.2.6.2.6.1-.1-.4a2.69,2.69,0,0,0-1.59-.5,6.49,6.49,0,0,1-1.1.2c-.2,0-.3.2-.3.5s.2.3.6-.1.6-.4.4.2c-.1.4-.1.7.2.7s.3.2.2.5-.1.4.3,0c.6-.4.6-.4.5.2S17.41,22.4,18,22.4Z" transform="translate(0)"/><path d="M28.37,5.82A2.23,2.23,0,0,1,27,4.92c-.5-.8-.7-.8-1-.3s-.4.5-.4,0-.1-.5-.4,0a.67.67,0,0,1-.8.3.61.61,0,0,0-.7.1c-.1.2-.5.3-.7.3s-.4,0-.2,0,0,.4-.3.8c-.8.8-.6,1.4.6,1.6.7.1.9,0,.7-.4s-.1-.5.7-.1.9.6.6,1.1a2,2,0,0,0-.1,1.3c.4.4.6.4,1.89-.4C29.36,7.72,30.26,5.82,28.37,5.82Z" transform="translate(0)"/><path d="M4.26,20.71a1.2,1.2,0,0,1-1.2-.4c-.3-.3-.8-.5-1-.4a.36.36,0,0,1-.5-.2.72.72,0,0,0-.8-.2c-.6.2-.7.8-.7,3.2a15.09,15.09,0,0,0,.1,2.9c.1.1.5-.2,1-.4l.9-.5-.9-.7-.9-.7.9.3c.6.2.9.1.9-.2,0-.7,1-1.5,1.79-1.5a.85.85,0,0,0,.9-.7C4.86,20.61,4.76,20.51,4.26,20.71Z" transform="translate(0)"/><path d="M62.64,26.3c-.5-.2-.8-.1-.8.2s.2.3.4.2.4-.1.4.1c0,.5,3.09.6,3.39.1.1-.2,0-.4-.2-.4s-.3-.2-.2-.4c.4-.6,2.19-.5,2.49.2s1,.4.9-.3c-.1-1,.1-1.9.4-1.7s.6-.1.9-.6a1.84,1.84,0,0,1,1.2-.8c.5,0,.5-.1,0-.4s-.5-.4,0-.3a1.61,1.61,0,0,1,.8,1.1c.1.5.5.9.7.9s.4,0,.4.2c-.2,1.2.1,1.4,1,.7.5-.4,1-.6,1-.5s.6-.2,1.3-.6,1.79-1,2.29-1.2c.8-.3,1-.7.9-1.4a1.35,1.35,0,0,1,.3-1.2c.6-.4,0-.9-.9-.7-.6.2-.7.3-.4.7s.3.6-.2.7a1.06,1.06,0,0,1-.8,0c-.4-.4-.3-1.6.3-1.8.3-.1.4-.3.3-.4-.5-.5-1.59.2-1.39.9.2.5.1.5-.2.2s-.3-.7,0-1.4.4-.9-.1-.5-2-.2-2-1c0-.3-.2-.4-.4-.2a.62.62,0,0,0-.2.7c.1.3-.1.5-.5.5a.87.87,0,0,1-.9-.6c-.2-.6-.2-.6-.2,0a.68.68,0,0,1-.5.7c-.3,0-.3.1.1.4s.8.3,1,.1.3,0,.1.5a9.25,9.25,0,0,0-.3,1c0,.2-.4.4-.8.5s-.8,0-.7-.2c.2-.6-1.39-2.1-2-2A.35.35,0,0,1,69,18c0-.6-1.3-.5-2.09.2-.6.6-.7.7-.1,1.1s.5.6,0,2.2c-.3.9-.4,1.6-.2,1.5s.2.1-.1.6c-.6.9-2.79,1.6-3.09.9a.66.66,0,0,0-.5-.4c-.2,0-.3.2-.1.4s0,.4-.4.4-.6.2-.6.4.4.4.8.4.8.2.8.4S63.14,26.4,62.64,26.3Z" transform="translate(0)"/><path d="M74.4,12.32c-.5.1-1.1,0-1.2-.2s-.5-.3-1,0a1.6,1.6,0,0,1-1.1.2c-.2-.1-.4.2-.5.8-.2,1.2.2,1.4,2.19,1,.8-.2,1.39-.1,1.3,0s.3.3.8.2a1.61,1.61,0,0,0,1.39-.7c.3-.6.2-.7-.5-.7-.5,0-.7-.2-.6-.4S75,12.22,74.4,12.32Z" transform="translate(0)"/><path d="M98.11,17.11c-.2.1-.3,0-.1-.4s.1-.6-.7-.4-.9.3-.2-.4.6-.8-.6-2-1.89-1.4-4.58-1.1c-.7.1-.2,1.2.8,1.5.6.2.7.5.5,1.3a6.14,6.14,0,0,0-.3,1.6c0,.3-.1.5-.3.5s-.4.3-.5.7-.1.6.3.2.6-.3.5.2.3.7,1.59.8a5.32,5.32,0,0,1,2.19.4c.1.1.2.1.1-.2s.2-.8.7-1.4C98.51,17.51,98.9,16.61,98.11,17.11Z" transform="translate(0)"/><path d="M69,35.39l.8-.8-1-.2c-1-.2-1.69.2-1.1.7.2.1.3.7.1,1.3s-.1,1,.2.8a.48.48,0,0,1,.6.2c.2.3.4.1.5-.4s.1-.9,0-.8C68.32,36.29,68.22,36.09,69,35.39Z" transform="translate(0)"/><path d="M95.18,0H55.4l-.13.13c-.3.3-.5.7-.3.9s.1.3-.2.1S54.29.57,54.28,0h-.91c0,.11,0,.25-.09.43-.2.7.1,1,1,1.4,1.39.6,1.49.8.8,1.9-.4.6-.8.7-1.79.5-.8-.1-1.3-.1-1.3.2-.1.6-.9.7-1,.1,0-.2-.1-.6-.1-.9a1.14,1.14,0,0,0-.3-.7c-.1-.1.2-.7.7-1.3s1-1,1-.8.3-.1.6-.5L53.13,0H48.58a5.64,5.64,0,0,0,.61.73c1,1,1,1.2.6,1.9a5.32,5.32,0,0,1-1.59,1.3c-.6.3-1,.6-.9.8s0,.3-.3.3-.4.1.1.5A1.54,1.54,0,0,1,46,8.22c-.5,0-1,.2-1,.4s.3.3.7.1c.6-.2.5-.1-.1.5s-.8.7-1.3.2a2.08,2.08,0,0,1-.5-1.2q0-.75.3,0c.3.4.4.4.5-.2a1.13,1.13,0,0,0-.6-1.2c-.7-.4-.7-.5.1-1.3l.8-.9-1.39-.8c-.8-.5-1.3-1-1.2-1.2.4-.6-.2-.4-.9.2-.8.8-1.79-.1-1.3-1.1A1.41,1.41,0,0,0,39.32,0h-.38a.52.52,0,0,0-.11,0c-.15.15-.25.13-.24,0H37.22a1.48,1.48,0,0,1-.28.53,2.08,2.08,0,0,1-1.69.7,1.9,1.9,0,0,0-1.39.4c-.1.2-.5.3-.9.2s-.5-.3-.2-.7a1.79,1.79,0,0,1,1-.6c.23,0,.46-.24.64-.53H29.23a.43.43,0,0,0-.17.73c.3.5.4.5.8,0,.6-.9.9-.2.4.8-.4.7-.4,1,0,1.2s.4.4.3.6.3.5.8.6.9.2.9-.1.2-.3.4-.2a.44.44,0,0,0,.6-.3c.1-.3.1-.1,0,.4-.3,1.1.5,1.6,1,.6a1.14,1.14,0,0,1,1.3-.6,1.17,1.17,0,0,0,1.2-.3c.3-.5.4-.5.9,0a7.67,7.67,0,0,0,1.3,1.2c.7.5.8.5.5-.1s-.1-.7.4-.7.6.3.4,1,0,1.1.2,1.2.2.4.1.6a.48.48,0,0,1-.6.2c-.2-.1-.5.1-.6.6s-.5.7-1.59.6-1.39,0-1.59.8c-.1.5-.4,1-.6,1s-.4.3-.4.7c0,.6-.1.6-.8-.2s-.8-.8-1.2-.4a1.72,1.72,0,0,0-.2,1.2c.1.4.1.8-.2,1s0,.7,1,1.4,1.39,1.3,1.2,1.7,0,.4.8-.1c.5-.4.9-.8.8-1s.2-.4.6-.4c.7,0,.8-.2.7-1.2s0-1.3.9-1.8a5.34,5.34,0,0,1,1.89-.5c.8.1,1,.6.8,2.2,0,.2.3.4.7.6.7.3.7.3,0,.3q-.75,0-.6.9c.1.5.4.9.6.8s.6.2.7.5a.68.68,0,0,0,.8.4c.3-.1.5-.4.3-.6s-.1-.3.1-.3c1,.2,2.09-.1,1.89-.4s0-.4.2-.4a2.17,2.17,0,0,0,1.59-1.6c0-.4,1.1-.6,2.69-.5.6,0,.8-.1.7-.3s0-.4.4-.4.6.2.6.4.2.3.6-.1c.9-.7,3.79-.9,3.79-.2,0,.4-.4.5-1.39.3s-1.39-.1-1.2.2,0,.4-.4.4a.64.64,0,0,0-.6.6c0,.5.3.6,1.2.4s1.2-.1,1.2.3.1.8.1,1.1.1.4,0,.2-.5-.3-.9-.3a1.33,1.33,0,0,1-1-.4,1,1,0,0,0-.7-.4q-.45,0,0,.3a.91.91,0,0,1,.3,1c-.3.7.4,1.3.8.7a.57.57,0,0,1,.7-.2,6.83,6.83,0,0,0,3.09.2,1.79,1.79,0,0,0-.5-.7c-.4-.4-.2-.6.6-.9.6-.2,1.1-.6,1.1-.8s.6-.3,1.39-.3,1.39-.1,1.59-.4a.63.63,0,0,1,.8-.3c.4.2.6,0,.6-.4s.2-.5.7-.4.6.1.4-.4,0-.7.5-.9.8-.4.8-.5a5.28,5.28,0,0,1,1-1.4c1-1.1,1-1.1,1-.2a3.14,3.14,0,0,1-.6,1.6c-.6.7-.6.7.2.5a.94.94,0,0,0,.8-.8,3.69,3.69,0,0,1,2.69-2.7c.5,0,.8-.1.7-.3s-.4-.2-.7-.1-.2,0,.1-.4c.9-.9,2.59-1.3,2.29-.6a.57.57,0,0,1-.7.4c-.4-.1-.5,0,0,.4.7.7.6,1.1-.1,1.1-.3,0-.6.2-.6.4a.46.46,0,0,0,.5.4c.3,0,.1.3-.3.6-.6.5-.6.6-.2.6a2.11,2.11,0,0,1,1.2.8c.7,1,2.49,2,3,1.6.2-.1.4-.6.5-1,.1-.6-.2-.7-1.3-.7s-1.39-.1-1.2-.6a4.5,4.5,0,0,0,.2-.8c0-.1.3-.2.6-.2a1.19,1.19,0,0,0,.9-.5c.2-.3.1-.4-.2-.2s-.4.1-.2-.3c.3-.7,1.79-.9,1.79-.2a2.19,2.19,0,0,1-.6,1c-.7.7-.8,1.5-.2,1.1.2-.1.4-.1.4.1,0,.5,2.39.2,3-.4.3-.3.3-.4-.1-.1s-.5.2-.3-.3.1-.6-.3-.4-.8-.2-1-.7-.3-.8-.1-.6,1-.5,1.79-1.4c1.69-1.9,2.09-2,2.79-.6.4.9.3,1.1-.6,2-1.1,1-1.69,2.7-1.3,3.4.1.2-.3,1-1,1.6s-1.1,1.2-1,1.2.1.2-.1.5a.9.9,0,0,0-.1,1.1,1.24,1.24,0,0,1-.1,1.3,1,1,0,0,0,.2,1.4c1,.8,1,.8,1.2,0a1.81,1.81,0,0,1,1-1.1c.5-.1.7-.4.5-1.1s-.1-.8.3-.6.4.1,0-.6-.4-.8,0-.6.8,0,1.2-.3a2.25,2.25,0,0,1,1.49-.5c.7.1,1.49-.7,1.3-1.3-.2-.4,1.49-1.1,1.89-.8s1,.1,2.09-.3c1.49-.6,1.59-.8,1-1.4s-.5-.7.5-.9c.7-.2,1.2-.1,1.3.2a.66.66,0,0,0,.5.4c.2,0,.3-.3.1-.6-.3-.8.6-2.3,1.39-2.1a.56.56,0,0,0,.7-.6,1,1,0,0,1,.8-.9,2,2,0,0,0,1.1-.6,1.42,1.42,0,0,0-1.2-1.9c-.6,0-.7-.2-.6-1.1A2.55,2.55,0,0,1,95.18,0ZM42.71,8.22c-.2,0-.4-.1-.4-.2s.2-.3.4-.4.4-.1.4.2A.43.43,0,0,1,42.71,8.22Zm10-.4c-.8,0-.9-.2-.5-.5s.6-.4,1,0S53.47,7.82,52.68,7.82Zm.9-2.7c-.1.3-.4.5-.6.4a.61.61,0,0,1-.1-.6C53.28,4.32,53.87,4.52,53.57,5.12ZM57.66.53c.5-.4.6-.4.6.2s.5.8,1.3.7c.2,0,.2.2.1.6s-.3.5-1,0a1.37,1.37,0,0,0-1.2-.5C56.76,1.93,57,1.13,57.66.53Zm.1,6.89c-.3,0-.4.1-.2.2.4.4-.7,1.3-1.3,1.1a5.36,5.36,0,0,0-1-.3c-1.39-.3-1.3-.8.5-2.7,2-2.1,2.49-2.3,1.69-.7-.4.9-.4.9.2.1s.7-.7,1-.2a1.08,1.08,0,0,1,.2.9c-.1.2.1.2.5.1.6-.2.6-.1-.2.6A2.89,2.89,0,0,1,57.76,7.42Zm1.39,4.3a7.36,7.36,0,0,0,.2-.8c.2-.8.6-1,1-.5C60.55,10.62,59.65,11.62,59.15,11.72ZM61.84,6c-.7,0-.7-.1-.2-.6a1.25,1.25,0,0,1,1.3-.3c.6.2.6.3.2.6A2.75,2.75,0,0,1,61.84,6Zm1.1,4.6c-.8.3-.8,0-.1-.7.5-.5.6-.6.6-.1A.89.89,0,0,1,62.94,10.62ZM62,4.22c-.3-.4.9-.8,1.69-.5.3.1.5.3.5.5C64.23,4.62,62.34,4.72,62,4.22Zm7-1.6c-.2,0-.3.3-.1.7s.1.6-.2.4c-.5-.3-1.79,2-1.49,2.5.1.2-.5.3-1.3.2-1-.1-1.49-.4-1.59-.8-.1-.6.3-.9,1.2-.7.2,0,.1-.3-.1-.7-.3-.6-.3-.8.2-1,.3-.1.8-.2,1,0s.2-.1.1-.5c-.1-.6.1-.9,1.1-1.2,1.59-.6,1.59-.6,1.59.3C69.41,2.23,69.22,2.63,69,2.63Zm8.57,2.5c-.1.3-.3.6-.4.6s-.2-.2-.2-.6.2-.6.4-.6S77.68,4.82,77.58,5.12ZM79,3.53c-.3.6-.8,1-1.1.8a4.27,4.27,0,0,0-1.2-.2c-.3,0-.5-.2-.3-.4a.48.48,0,0,1,.6-.2c.2.1.4,0,.4-.2,0-.8,1-1.5,1.59-1.2S79.48,2.63,79,3.53Zm7.27,2.9c-.8-.1-1.49-.3-1.59-.6a.35.35,0,0,1,.3-.5c.3,0,.4-.1.2-.3s1.69-1.7,2.39-1.7c.3,0,.5.4.5.8s-.2.8-.4.8-.4.3-.2.8S87.45,6.42,86.25,6.42Zm1.49,2.9a2.26,2.26,0,0,1-.4-.9c0-.8.6-.2.7.6S88,9.82,87.75,9.32Z" transform="translate(0)"/><path d="M80.87,25.8c.5.3,2.19-1.1,2.29-2,0-.4,0-.6-.1-.3-.3.7-1,.6-1-.1,0-.3.4-.6.8-.6s.8-.2.8-.4-.4-.3-.8-.2a15.34,15.34,0,0,0-1.69.5c-1.3.4-1.79,1.1-1.49,1.9.2.6-.1,1-1.2,1.8-1.49,1.1-2.59,1.1-2.19.1.2-.5.1-.5-.7-.1a6.63,6.63,0,0,1-1.1.6c-.1,0,0,.3.1.5s.4.3.6-.1c.5-.8,1.3.2,1.3,1.5.3,1.6,1,1.8,2.79,1,.7-.3,1.3-.7,1.3-.9s.4-.5.9-.6c1.2-.3,1.3-1.4.1-1.2-.6.1-.9-.1-.9-.7S80.77,25.7,80.87,25.8Z" transform="translate(0)"/><path d="M86.85,27.9a1.44,1.44,0,0,1,1.2-.3c.9.3.6-.3-.7-1.5a4.13,4.13,0,0,1-1.2-1.8c0-.3-.2-.6-.4-.6s-.4.3-.4.6a.64.64,0,0,1-.6.6c-.3,0-.5.2-.4.4a2.47,2.47,0,0,1-.4,1.4c-.6.9-.6,1,0,1,.4,0,.6-.2.6-.4a.43.43,0,0,1,.4-.4c.2,0,.3.2.1.4s0,.6.3.8.4.5.3.6-.6,0-.9-.2c-.8-.7-1.2-.3-.4.5.4.4.5.7.2.9s-.4.1-.4-.2a.43.43,0,0,0-.4-.4c-.6,0-.5,1.1.1,1.3.4.2.4.2,0,.2s-.7.4-.9.8c-.3.6-.2.8.8,1.2a1.65,1.65,0,0,0,2.09-.3c1.1-.9,1.69-3.5.8-3.9C86.25,28.4,86.25,28.3,86.85,27.9Z" transform="translate(0)"/><path d="M38.53,36.79c.7-.5.6-.5-.1-.7s-.8-.1-.6.3,0,.6-.2.6-.4.3-.4.8-.2.8-.5.9-.2.3.2.4.5.1.4-.1.1-.5.4-.6a.57.57,0,0,0,.4-.7A.78.78,0,0,1,38.53,36.79Z" transform="translate(0)"/><path d="M83.26,17.21c-.3,0-.7.5-.9,1-.4.9-.4,1,.4,1a2.16,2.16,0,0,1,1.39.5c.3.5.4.5.2-.1-.2-.4-.1-.7.2-.7s.4-.2-.1-.7-.4-.6.4-.4.9.2.8-.2a2.56,2.56,0,0,1,.1-1.2c.2-.4.1-.6-.2-.6s-.4.2-.3.5c.3.7-.7.7-1.49,0-.4-.4-.5-.4-.3.2C83.56,16.91,83.46,17.21,83.26,17.21Z" transform="translate(0)"/><path d="M72.1,30.5c1.2-.1,1.69-.3,1.79-.7.2-.9-.9-2-2-2-.8,0-.9-.2-.7-.8s.1-.8-.6-.8c-1,0-1.1.9-.2,1.6.5.4.5.6-.2,1.3C69.12,30.1,69.81,30.6,72.1,30.5Zm-.9-.7a.53.53,0,0,1-.4.3c-.1,0-.2-.1-.4-.3s0-.3.4-.3S71.31,29.6,71.21,29.8Z" transform="translate(0)"/><path d="M72.9,36.39c.4,0,1.39-.1,2.19-.2,1.2-.1,1.49-.3,1.39-.9-.1-1-.7-1-.7-.1,0,.4-.1.5-.2.2-.2-.6-1.49-.6-2.59-.1S72,36.49,72.9,36.39Z" transform="translate(0)"/><path d="M7.85,47.48c-.3.1-.4-.2-.3-.5s0-.4-.2-.3a1.14,1.14,0,0,0-.3.8c0,.3-.4.5-.8.6a4,4,0,0,0-1.49.9,2.47,2.47,0,0,1-1.49.8,1.17,1.17,0,0,0-1,.6c-.2.5.1.6,1.39.6.9,0,1.59-.2,1.59-.4,0-.5,1.69-.5,2.19,0,.3.2.4-.1.4-.8s.1-1.1.4-1,.5,0,.3-.6C8.44,47.78,8.14,47.38,7.85,47.48Z" transform="translate(0)"/><path d="M15,14.61a1.14,1.14,0,0,1,1-1.3c.1,0,.2.4.1.9s-.1.6.1.3a4.35,4.35,0,0,1,.9-1.1c.3-.3.4-.4.2-.3s-.6-.1-.8-.4c-.4-.7-2.09-.5-2.09.3,0,.2-.3.1-.6-.3-.5-.7-.6-.7-.9.4-.2.8-.1,1.2.1,1.3a.57.57,0,0,1,.2.7c-.1.7.2.8.6.2a.72.72,0,0,1,.8-.2C14.92,15.21,15.12,15,15,14.61Z" transform="translate(0)"/><path d="M13.42,49.58a2.86,2.86,0,0,0-1.79.4c-.1.5,1.49.6,1.79.1a.72.72,0,0,1,.8-.2c.3.1.6.1.7-.1S14.32,49.48,13.42,49.58Z" transform="translate(0)"/><path d="M11.93,40.39a5.76,5.76,0,0,1,1.3-.4c1.1.1,1.39-.1,1.3-.7-.1-.4-.4-.7-.8-.6s-.7-.1-.7-.3a.46.46,0,0,1,.5-.4c.4,0,.4-.1,0-.5s-.9-.3-2-.1c-1.49.4-1.59.4-1.39-.6a3.85,3.85,0,0,1,.8-1.7c.3-.4.5-.7.3-.7s-.1-.2.1-.5c.6-.6.6-1.1.1-1.1-.2,0-.4.2-.3.4.2.8-.7.8-1.2-.1-.4-.7-.4-.8.2-.7,1.1.2,1.2-1.2.1-1.7a8.23,8.23,0,0,1-1.59-.9c-.6-.4-.8-.4-1.1.1a1.64,1.64,0,0,0-.2,1.2c.1.4.1.5-.1.2-.5-.7-1.69-1-1.89-.4-.1.3-.2.3-.2,0,0-.5-2.39-.2-2.39.3a.46.46,0,0,1-.5.4c-.3,0-.7.4-1,.8-.4.7-.4.8,0,.5s.4-.2,0,.3-.3.8-.1,1,.1.6-.3,1c-.6.5-.6.5-.4-.1.2-.4.1-.6-.1-.5-.5.3-.5,6.59,0,6.59a.46.46,0,0,0,.4-.5c0-.3.3-.1.6.5a2.06,2.06,0,0,1,.4,1.3c-.1.2.4.2,1,.1,1-.2,1.2,0,1.2.5.1,1.6.7,1.8,1.89.8.7-.5,1.1-1.1.9-1.2-.3-.3.4-1.1,1.49-1.5.6-.2.7-.4.2-.7-.3-.2-.7-.3-.8-.2s-.5-.1-.8-.5c-.7-.8.2-1.5,1.3-.9.5.3.7.2.7-.1s.2-.2.4.2.6.6.8.4.3-.1.2.1C9.74,40.19,11,40.88,11.93,40.39Zm-7.67,1.8c-.5-.1-1-.2-1-.4,0-.7,1.1-.8,1.59-.2S5.16,42.18,4.26,42.18Zm1.89-6.29c-.7,0-1.1-.1-1-.3s0-.3-.2-.3c-.6,0-.5-1,.2-1.6.5-.4.6-.4.6,0s.1.4.6,0,.6-.4.6,0a.43.43,0,0,0,.4.4c.2,0,.3-.2.2-.4s.1-.5.4-.7c.7-.3,1.39.4,1.39,1.3C9.34,35,7.45,35.89,6.15,35.89Z" transform="translate(0)"/><path d="M19.3,48.78c.4-.2.4-.2,0-.2a.73.73,0,0,0-.7.6c-.2.4-.4.5-1,.2a3.79,3.79,0,0,0-1.3-.4c-.3,0-.2.2.2.3.7.3.7.3.1,1s-.6.7,0,.7a.56.56,0,0,0,.6-.5c0-.3.1-.4.3-.1a1.17,1.17,0,0,0,1.89-.2c.1-.3,0-.4-.2-.3s-.4,0-.4-.3A.89.89,0,0,1,19.3,48.78Z" transform="translate(0)"/><path d="M72.5,44.68c-.2-.2-.6.1-1.1.6s-.8.7-.8.4-.6-.5-1.3-.5c-1.1,0-1.2.1-.6.4.9.7,3.39,1.1,3,.7-.2-.2,0-.5.4-.8S72.7,44.88,72.5,44.68Z" transform="translate(0)"/><path d="M69.61,46.88c-3-.6-3.59-.9-3.69-1.7a2.22,2.22,0,0,0-2.29-1.6,1.81,1.81,0,0,0-1.1.4c-.2.2-.6.1-1-.3-.6-.6-.6-.8-.1-1.1s.5-.4,0-.4a2.07,2.07,0,0,0-1.2.5c-.3.3-.2.1.3-.5a9.42,9.42,0,0,0,1.1-1.7,1.27,1.27,0,0,1,.8-.8c1.89-.2,2.69-.1,2.69.1s.2.3.4.3.4-.3.4-.6.2-.5.6-.4.6,0,.6-.2c0-.6-2.09-.6-2.79.1-.4.4-.5.3-.3-.4.3-1.3-.8-1.5-1.89-.3-.9.9-2.09,1-1.59.2.3-.5-.9-.8-1.69-.5-.4.2-.6.1-.4-.2s.1-.6-.1-.7-.4-.1-.4.2a.43.43,0,0,1-.4.4c-.2,0-.4-.4-.4-.9,0-.7-.1-.8-.4-.3-.4.7-.1,2.4.4,2.4.2,0,.4-.2.5-.5.3-.7,1.1.5,1,1.5s1,1.3,1.89.4c.6-.6.6-.6.6.2s-.3.8-1.39.8c-1.49,0-3,1-2.09,1.3.3.1.4.3.1.5-.6.5-.7,1.3-.2,1.3.3,0,.3.3.2.8a.9.9,0,0,0,.3,1.2c.4.3.3.4-.4.6l-.9.3,1.1.7c1.49.9,3.29,1.4,3.29.8s.8-.4,1.39.2c.3.3.3.6.1,1.1s-.1.7,2.19.7,2.59,0,3.19-.9c.4-.5,1-1,1.3-1s.5-.1.2-.2c-1-.4-.5-1,.7-.8.9.2,1.2.1,1.1-.2S70.41,47.08,69.61,46.88ZM59.55,40.09c-.2,0-.3-.3-.3-.8.1-1.2.6-1.5.6-.3C59.85,39.59,59.75,40.09,59.55,40.09ZM65,44.88a.37.37,0,0,1-.4-.4c0-.2.1-.4.2-.4s.3.2.4.4S65.33,44.88,65,44.88Z" transform="translate(0)"/><path d="M57.36,27.8a.74.74,0,0,0,0-1.4c-.3-.1,0-.4.6-.7s1.1-.8,1.1-1.3-.1-.7-.8-.3a3.72,3.72,0,0,1-1.1.4c-1-.2-2.09.1-1.89.4a.72.72,0,0,0,.8.2.72.72,0,0,1,.8.2c.1.2,0,.5-.4.7C55.27,26.4,56.16,28.3,57.36,27.8Z" transform="translate(0)"/><path d="M99.1,26.2c.8.4.8.4.8-2.9a13.5,13.5,0,0,0-.4-3.9c-.5-.8-3,2.9-2.69,4.1a2.41,2.41,0,0,1-.2,1.5c-.3.4-.3.3-.2-.2s0-.7-.2-.7-.3-.4-.2-1c.2-.8.1-1-.5-1-1.39.1-2.19.6-2.29,1.7a3.71,3.71,0,0,1-.8,1.8,1.79,1.79,0,0,0-.4,1.7,5.41,5.41,0,0,1,0,1.8c-.3.8-2.59,2.4-2.59,1.7a.46.46,0,0,0-.5-.4c-.3,0-.2.2.2.7.6.6.8.6,1.3.1.7-.6.8-.5,1.2.7.2.5.1.9-.2.9a.46.46,0,0,1-.4-.5c0-.3-.4-.1-.8.4s-.8.8-.8.6-.3,0-.7.5a11.74,11.74,0,0,1-2.49,1.7c-1.69.8-1.79,1-1.69,2.1.1.9,0,1.3-.5,1.4a.84.84,0,0,0-.6.8c0,.9,1.69.3,2.49-.8,1-1.3,2.09-1.4,1.39-.1-.4.7-.4.9,0,1a.75.75,0,0,1,.5.7c0,.3.2.5.4.3s.4,0,.4.2.1.4.5,0a.89.89,0,0,1,1.1-.1c.4.3.4.4.1.4a.56.56,0,0,0-.5.6c0,.7-.7,1.2-1.1.8-.1-.1,0-.4.3-.6.5-.3.5-.4-.1-.4a10.94,10.94,0,0,0-2.89,1.1c-1.2.6-2.29,1-2.49.8-.7-.6-2.49.1-2.69,1.1s-.8,1.3-1.2.3c-.2-.4-.5-.5-1-.4s-.9.1-1-.2,0-.4.3-.4a1.19,1.19,0,0,0,.9-.5c.2-.3.1-.4-.2-.2s-.5.1-.5-.1a1.27,1.27,0,0,1,.4-.7.67.67,0,0,0,.3-.7.87.87,0,0,1,.4-.9c.5-.4.3-.7-1.3-1.7-2.19-1.5-2.39-1.5-2-.5a1.13,1.13,0,0,1-.6,1.4c-.5.3-.7.8-.6,1s0,.4-.4.4c-.7,0-.8.6-.1,1,.3.1.1.1-.4,0-1-.2-1.69.5-.8.9s.7,2.6-.3,2.9c-.8.2-.9.5-.2,1.2s1.3.6.9.1c-.1-.2,0-.4.4-.4s.6-.2.4-.8c-.2-.8-.2-.8.6-.3a2.62,2.62,0,0,1,.46.35,1,1,0,0,1-.36-.65c0-.6,1.3-1,2-.6.4.3.4.4,0,1-.6.7-.5.7-1.39.4a.72.72,0,0,1-.21-.12,1.07,1.07,0,0,1,.31.42c0,.1.2.2.4.1s.4-.1.4.2.8.4,1.89.3c1.59-.1,1.89-.2,2-1a1.47,1.47,0,0,1,.9-1.1c.4-.1.7-.4.5-.5s.1-.2.4-.1c.5.2.5.3.1.6s-.4.4.1.7c.3.2.5.4.3.4a1.84,1.84,0,0,0-.7.2,1.69,1.69,0,0,1-.7.1c-.2,0,.1.3.5.6s.9.5,1.1.4.3,0,.2.3.2.5.8.5c1.1,0,1.1,1.1-.1,1.5-.6.2-.5.3.5.3.7,0,1.3-.1,1.3-.4a.43.43,0,0,1,.4-.4c.2,0,.3.2.2.4-.3,1.2,4.88.9,6.08.1l1.1-.7-1.2-.5c-.8-.3-1.39-.4-1.69-.1-.7.6-3.29.8-3.69.3-.9-1,.2-2.3,1.3-1.4a.9.9,0,0,0,1.1.1,2.84,2.84,0,0,1,.8-.4.76.76,0,0,0,.5-.2c.1-.1.4-.1.7-.2.7-.1.9-1.4.2-1.4a.89.89,0,0,0-.8.5c-.1.3-.4.3-.8-.3s-.5-.9.1-1.7a1.85,1.85,0,0,0,.5-1.4c-.2-.3,0-.3.4-.2.7.3.8-.1.7-1.3-.1-.5,0-.5.6,0s.6.4.4-.1a2.49,2.49,0,0,1,.8-1.8c.6-.6.9-.8.8-.5a1.09,1.09,0,0,0,.2,1c.3.2.4.1.2-.1-.4-.7.8-1.5,1.49-.9.4.4.6.3.8-.3s.3-.7.8,0c.3.4.5.9.4,1.1s.1.2.5.1.6-.1.4.4-.1.8.1.9c.5.3.8-.9.8-3.5v-2.5l-1.89.1a7.22,7.22,0,0,0-2.09.2c-.1,0-.3.1-.5,0s-.3.1-.3.3-.2.3-.5.2-.8.3-1.1.8c-.5.9-.6,1-1,.4s-.5-.5-1.1.3c-.4.6-.7.8-1,.5s-.2-.7.4-1.3c.4-.5.8-.8.8-.7s.4,0,.9-.2a2.14,2.14,0,0,1,1.39-.4c.3.1.5-.2.5-.5a.64.64,0,0,1,.6-.6c.3,0,.6-.2.6-.4s.3-.4.7-.3.7,0,.7-.6c0-.4-.2-.7-.5-.7a.47.47,0,0,0-.5.5c0,.3-.2.1-.5-.3-.5-.6-.4-.9.1-1.9.4-.6.9-1.1,1.1-1.1s.4-.4.3-1.1c-.2-1-.1-1,.4-.4a2.16,2.16,0,0,0,1.59.7c1.1,0,1.39-.5.6-1-.3-.2-.4-.1-.2.2.3.5-.1.6-1.1.2-.8-.3-.8-1.4,0-1.4.4,0,.5-.2.4-.4S98.51,25.9,99.1,26.2Zm-4.38,11a6.55,6.55,0,0,1,1,.3c0,.1-.4.2-1,.2s-1-.1-1-.3S94.12,37.09,94.72,37.19ZM92.93,28.1c-.7-.5-.1-.5,1,0,.5.2.6.4.2.4A2.83,2.83,0,0,1,92.93,28.1Zm1.2,1.6a.37.37,0,0,1-.4-.4.4.4,0,1,1,.4.4Zm1.79-2.5c-.3,1-.5,1.1-1.3.6-.4-.3-.4-.5.3-.9.5-.3.7-.7.6-.9s-.1-.3.2-.3C96.21,25.7,96.31,25.9,95.92,27.2Z" transform="translate(0)"/><path d="M53.37,50.17a3.49,3.49,0,0,0-2.19.3c-.1.2.6.4,1.79.4s2.09-.1,2.19-.3S54.47,50.27,53.37,50.17Z" transform="translate(0)"/><path d="M30.86,46.18a2.56,2.56,0,0,1-1.2.7c-.2,0-.4.3-.4.6,0,.5-.1.6-.6.1s-.5-.6-.1-.8c.7-.5,0-.4-.9.1-.5.3-.8.3-1-.1s-.1-.4.2-.1.4.1.3-.2-.6-.5-1.39-.4c-1,.1-1.1,0-.6-.4,1-.9.8-1.4-.7-2.1-1-.5-1.3-.8-.9-1,.6-.4.1-.7-1-.6s-3.09,3.7-2.69,5c.1.5.4,1.1.6,1.1s.1.6-.1,1.1c-.3.8-.3,1,.1.8a.67.67,0,0,0,.4-.7c-.1-.4,0-.4.5,0s.5.6.1.9-.3.3.2.3c.8,0,.9-.8.2-1.5-.3-.3-.3-.5-.2-.5s.1-.3-.1-.6c-.7-.8.9-1.7,1.79-1,.4.3.6.3.8,0a1.26,1.26,0,0,1,.9-.4c.5,0,.5.1-.1.6s-.7.7-.2,1,.4.4-.2.6-.4.2.4.3c1,.1,1.1.1.5.5-.4.2-.9.3-1.1.1s-.2.1.1.6c.5.7,1.89,1.1,1.89.3,0-.6,1.69-1.6,3.09-1.9a4.92,4.92,0,0,0,1.79-.8,5.55,5.55,0,0,1,1.89-1c.7-.2,1.2-.6,1.1-.9C33.95,45.18,31.76,45.38,30.86,46.18Zm-8.67-1.3a.82.82,0,0,1-.6.4.43.43,0,0,1-.4-.4c0-.2.3-.4.6-.4S22.29,44.68,22.19,44.88Z" transform="translate(0)"/><path d="M38.33,43.78A6.62,6.62,0,0,1,35.44,45c-.2,0-.2.1-.1.4s.4.3.8,0,.6-.3,1,.1c.3.2.4.2.4,0s.5-.6,1-.7c.8-.2.9-.3.5-.8C38.73,43.68,38.43,43.58,38.33,43.78Z" transform="translate(0)"/><path d="M44,18.51c-.2-.2,0-.6.3-.8s.4-.4-.1-.2a1.38,1.38,0,0,1-1.1-.2c-.5-.5-1.39.2-1.69,1.3a1,1,0,0,1-1,.6c-2.49.1-2.49.1-2.49,1.6s.1,1.4,2.79,1C42.32,21.51,44.51,19.31,44,18.51Z" transform="translate(0)"/><path d="M45.11,33.39a5.3,5.3,0,0,1,1.59-2.1c.9-.8,1.49-1.5,1.3-1.5-.4,0,1.2-1.2,1.59-1.2.2,0,.2.2.1.4s0,.4.4.4.6-.2.6-.4c0-.5-1.2-.9-1.59-.6-.2.1-.4,0-.4-.2,0-.4,1.3-1.3,1.69-1.1.1,0-.1-.1-.4-.4-.8-.7-1.39-.6-1.1.1.1.3.1.6-.2.6s-.4.3-.4.7-.1.5-.6-.3-.4-1.1-.1-1.5.3-.5.1-.5c-.4,0-1.79,1.9-1.89,2.6a1.93,1.93,0,0,1-.8,1.1,1.06,1.06,0,0,0-.5,1.2c.1.4.1.6-.1.5s-.5.1-.6.4-.1.5.2.4.3,0,.2.4-.4.5-.6.4-.4,0-.4.2-.3.4-.6.4-.6.2-.6.4.2.3.5.1.4-.2,0,.3c-1.2,1.2-.6,1.4,1.3.4C44.51,34.19,45.11,33.69,45.11,33.39Z" transform="translate(0)"/><path d="M36.54,34.29c.4.1.4,0-.1-.4s-.6-.7-.3-1,.2-.6-.3-1.1-.8-.5-.9-.3a1.42,1.42,0,0,1-1.1.5c-.7,0-1,.3-1.3,1.3-.2.7-.6,1.4-.9,1.5s-.5-.1-.3-1.3.1-1.5-.4-1.5-.5-.1-.1-.6c.3-.3.6-.5.8-.4s.4-.3.6-.9a5.38,5.38,0,0,1,1-2c.8-.9.8-.9-.1-1.1-.5-.1-.7-.4-.6-.6.5-.8-1.69-.1-3.09,1s-1.39,1.2-.9,1.5c.9.5.8,1.7-.1,1.3A8.28,8.28,0,0,0,27,29.8a.89.89,0,0,1-.9-.9c-.1-.5-.3-.9-.5-.9s-.3.3-.2.7a1.65,1.65,0,0,1-.6,1.5q-.75.6-.6.3c.4-.7-.4-.6-1.1.1a2.68,2.68,0,0,1-.9.6,1.45,1.45,0,0,0-.8.5c-.4.4-.3.6.4,1.2.9.8.9.8.1,1.3a3,3,0,0,1-1.3.6c-.3,0-.5.1-.5.3,0,.5-2.39,1.7-2.59,1.3a2,2,0,0,1,0-1.1c.2-.6.1-.5-.4.2a2.23,2.23,0,0,1-1.39.9.76.76,0,0,0-.4,1.4c.2.1.4.1.4-.2s.2-.3.5-.2.5.7.5,1.4-.1,1.1-.5,1-.4,0-.3.2a1,1,0,0,0,.8.4c.3,0,.5.2.4.4-.3.5.8.9,1.49.6a.51.51,0,0,1,.7.3,1.29,1.29,0,0,0,1.2.5c.7-.1,1-.9.4-.9-.2,0-.3-.3-.3-.6s.4-.6.9-.6.9.2.9.7.1.6.7-.1c.8-.9,1.3-1,2.19-.1.5.5.5.7.2.9s0,.2.6.1c1-.1,1.59-.7.7-.7a.35.35,0,0,1-.3-.5c.1-.3-.1-.5-.4-.4-.7.1-1.1-1-.5-1.7s2.19-.5,2.29.5,1.69,1.3,1.69.5c0-.2-.3-.4-.6-.4-.5,0-1.3-1.2-1-1.4.1,0,.8-.2,1.59-.4l1.49-.3-.3,1.4c-.3,1.4-.2,1.4.7,1.1a8.16,8.16,0,0,1,1.1-.4c.8-.1,1.59-.6,1.39-.9s.1-.4.4-.4.6-.2.6-.4a.43.43,0,0,0-.4-.4c-.7,0-.5-.6.5-1.7C35.54,34.59,36.24,34.19,36.54,34.29Zm-8.87,2.9c-.1.2-.4.2-.5-.1s-.4-.6-.6-.5c-.6.2-2.19-.5-2.19-.8s.4-.4.8-.5c.7-.2.7-.1.3.4s-.3.6.6.3C27.17,35.69,28.07,36.39,27.67,37.19Zm1.69-3.8c-.1.2-.3.4-.4.4s-.1-.2,0-.5,0-.4-.2-.4-.4-.1-.3-.2C28.87,32.29,29.56,32.89,29.36,33.39Zm-.3-1.5a4.18,4.18,0,0,0-.5.2,5.11,5.11,0,0,0-.1-.9c0-.5,0-.7.1-.4a.44.44,0,0,0,.6.3c.2-.1.4-.1.4.2A.74.74,0,0,1,29.07,31.89Z" transform="translate(0)"/><path d="M49.09,36.69c.6-.1.7-.4.5-1-.3-1-.7-1.1-1.59-.1-.5.5-.6,1.1-.5,2.3.3,1.6.3,1.6.7.6a2.58,2.58,0,0,0,.3-1.3C48.39,37.09,48.69,36.89,49.09,36.69Z" transform="translate(0)"/><path d="M54.37,43.08c.2-.6.2-.6-.2-.2a2.09,2.09,0,0,1-1.3.5q-.9,0-.3-.3c.4-.2.4-.4.1-.6a.6.6,0,0,0-.8,0c-.2.1-.4.1-.4-.2s.2-.4.5-.5a6.29,6.29,0,0,0,2.09-.4,3.88,3.88,0,0,0,.3-1.1c.2-.8.1-1-.7-1.1s-.9.1-.7.8.1.8-.4.6-1,.2-1.89,1.7c-.3.5-.5.5-1.3-.3-1-.9-1.89-1.2-1.89-.5,0,.2-.3.4-.6.4s-.7.4-.8,1-.4.9-.6.8a3.2,3.2,0,0,0-1.59.4c-1.1.5-1.3.8-1.39,1.9l-.1,1.4,2-.2c1.3-.1,2,0,2,.3s.4.5.8.5c.4-.3.6-.4.5-.6s.1-.5.6-.6a1.19,1.19,0,0,0,.8-1c0-1.1,1.89-2.2,3.59-2.1C53.77,43.78,54.17,43.58,54.37,43.08Z" transform="translate(0)"/><path d="M20.2,23.9c.4.2.4.2,1.49,0,.4-.1.7-.3.7-.6s.3-.4.7-.4.5-.1.2-.2-.4-.3-.1-.8.3-.6-.4-.6a1.59,1.59,0,0,1-1.1-.4c-.3-.5-1.39-.5-1.39,0,0,.2.2.3.4.2.6-.3.5,0-.2,1.4C20.2,23.1,20,23.7,20.2,23.9Zm.8-1a1,1,0,0,1,.7-.4c.3,0,.2.2-.1.4C20.8,23.4,20.7,23.4,21,22.9Z" transform="translate(0)"/><path d="M28.27,22.9c.3.3.5.3.7,0a.48.48,0,0,1,.6-.2,1.07,1.07,0,0,0,.9-.2c.5-.3.5-.4-.1-.2-.4.1-.7.1-.7-.2s-.4-.4-1-.4C27.57,21.71,27.37,22.2,28.27,22.9Z" transform="translate(0)"/></g></svg>