<svg id="svg2" xmlns="http://www.w3.org/2000/svg" viewBox="0 0 340 60"><title>roads</title><g id="layer1"><path d="M152,2.73c.5.42,1.9,0,1.6-.52-.2-.31.4-.63,1.5-.63s1.8-.31,1.8-.63-1.2-.63-2.6-.63c-2.5,0-2.7.1-2.6,1.68.07.29.12.52.14.69A.32.32,0,0,1,152,2.73Z"/><path d="M137.72,3.46c.3-.21.9.21,1.3.84.6,1.15.8,1,2.3-.63.9-.94,1.8-1.78,2.1-1.78s-.1.73-.9,1.57L141.12,5l1.7-.63c2.3-.94,2.6-.94,3,.63.2.94.6,1.26,1.3.94s.9-.1.7.84c-.2.73-.1,1.26.2,1.26a.66.66,0,0,0,.6-.52V6.61a.48.48,0,0,1,.5-.52c.4,0,.5-.42.3-.94s1.28-2.14,2.15-2.42c-.07-.11-.15-.24-.25-.41a1.46,1.46,0,0,0-1.8-.73c-.6.21-1.1.1-1.1-.31,0-.94-2.2-.73-2.6.31-.2.52-.6.94-1,.94s-.5-.42-.3-.94c.3-.73-.2-.94-2.6-.84-1.7,0-2.9.21-2.7.52a.74.74,0,0,1-.3.94c-.3.21-.6-.1-.6-.63s-.3-.94-.6-.94-.6.73-.6,1.57S137.42,3.67,137.72,3.46Z"/><path d="M164.34,6.19c.9-.1,1,.1.7,1.15-.5,1.68-.3,1.57,1-.21a4.9,4.9,0,0,1,2.8-1.89c2.2-.52,2.3-1.57.4-3.46a4.55,4.55,0,0,0-3.9-1.36c-2.8.1-2.5,1,.5,1.47,1,.1,1.9.31,1.9.63s-1.1.31-2.4.1c-2-.31-2.3-.31-2,.63a2.38,2.38,0,0,1-.4,2C162.14,6.19,162.44,6.4,164.34,6.19Zm.4-2.73a11.69,11.69,0,0,1,2.2.31c1.3.31,1.3.42.3,1.15-1.1.94-3.2.21-3.2-.94C164,3.67,164.24,3.46,164.75,3.46Z"/><path d="M167.15,11.54a2.73,2.73,0,0,0,1.8-1c1.3-1.57,2-2.94,1.2-2.41-.3.21-.7,0-.9-.42a.37.37,0,0,0-.1-.21c-.1,0-.2.21-.2.73a3.56,3.56,0,0,1-1.4,2.31C166.55,11.23,166.45,11.54,167.15,11.54Z"/><path d="M48.54,4.83a2,2,0,0,0-1.6.73c-1.2,1.15-.6,2.52.6,1.47a1.78,1.78,0,0,1,1.7-.42c.6.21.8,0,.6-.52-.3-.84,2-2.62,3-2.31.3.1.3-.42.1-1.15-.3-1-.2-1.26.4-.84a2.89,2.89,0,0,0,1.5.52.69.69,0,0,1,.7.52c0,1.89-.1,2.1-.6,1.15s-.6-.84-.6,0a2.78,2.78,0,0,0,.6,1.68c.9.84.1,2.73-.9,2.31-.5-.21-1.2.31-1.6,1.36-.7,1.68-.8,1.68-1.2.42-.6-1.68-1.9-1.68-1.4,0,.3.73.1,1.26-.4,1.26s-.1.31.6.63a3.91,3.91,0,0,0,2.4.21c.8-.31.9-.21.3.42a3.05,3.05,0,0,1-1.8.94c-1.7.21-3.7,1-3.7,1.57,0,.31.6.42,1.3.21s1.1-.21.9.1a4.51,4.51,0,0,1-1.9.63c-1.2.21-1.5,0-1.3-.94s0-1-.6-.84-.8.52-.6.84-.3.73-1,.94l-1.3.42,2.8.63L44,18.05a4,4,0,0,0-1.5,2.41,2.25,2.25,0,0,1-.6,1.57c-.8.52-2.5-.84-2.1-1.57.2-.31-.3-.42-1-.21-1.3.31-1.3.31-.2-.63a2.32,2.32,0,0,0,.7-2.62c-.4-1.47-.6-1.57-1.6-.84a2.66,2.66,0,0,0-1.2,1.26c0,.21.3.21.7,0s.5-.1-.1.63c-.5.52-.6,1-.4,1s.2.42-.2.84-.5,1-.3,1.26,0,.42-.4.42a2.88,2.88,0,0,0-1.6,1.15c-.5.63-.7.63-.4.1s.1-.63-.8.21c-.7.63-1.4.94-1.6.63s-1.4-.42-2.7-.31c-1.5.1-2.3.42-2.1.84a.94.94,0,0,1-.4,1.15c-1.4.84-.1,1.78,1.6,1.26,1.1-.31,1.6-.84,1.5-1.68-.1-.63,0-.84.2-.42s.9.63,1.9.31a18.87,18.87,0,0,1,3.5-.42c1.3,0,1.7-.21,1.5-.84s0-.73.4-.42.7,0,.7-.84c0-.63.3-1.26.7-1.26s.6.63.3,1.68c-.4,1.57-.3,1.68.6.84s1-.73.7.52c-.2.73-.1,1.57.3,1.78s.5.21.3-.1c-.5-.63.7-3.15,1.2-2.62.2.21.7-.21,1.1-1s.8-1.15.8-.84c0,.84,2.8,1.15,3.3.31a1.33,1.33,0,0,1,.9-.63c.3,0,.1.63-.5,1.47s-1.3,1.36-1.5,1.26-.6.1-.8.42c-.7,1.15,1.2.63,2.5-.63a4.14,4.14,0,0,1,2.1-1.26,2.52,2.52,0,0,0,1.5-.73c1.2-1.26,2.9,1,2.6,3.46l-.3,2.1,1.5-1.47c.8-.84,1.7-1.26,1.9-1,.7.73.4,1.47-.5,1-1.1-.42-1.2.52-.2,1.57.5.52.5.73-.1.73s-.6.31-.2.84c.9,1.36.9,4.93-.1,4.93a1.55,1.55,0,0,0-1.3.73q-.45.79.6.31c.7-.31,1.2,0,1.7,1.15.4.84,1,1.47,1.4,1.26a1.51,1.51,0,0,1,1.4.42c.5.52.7.52.7,0a.7.7,0,0,0-.7-.73c-.6-.1-.5-.31.1-.84,1.2-1,1.5-5.14.3-4.62a1,1,0,0,1-1.2-.21c-.2-.31.1-.63.7-.63s.5-.31-.7-.84c-1.6-.73-1.6-.94-.7-1.47s.9-.94.4-2.41c-.9-2.41-.8-3.57.3-3.57.5,0,.8-.21.6-.52s-1-.31-1.8.1-1.4.84-1.2,1.15-.1.52-.6.52a.83.83,0,0,1-.9-.84c0-1,1.6-2.41,2.3-2,.3.21,1.1-.21,1.7-.94,1.1-1.26,1.1-1.26-.4-.84a14,14,0,0,0-2.8,1.36c-1.3.84-1.3.73-.8-.73.3-.84.3-1.57,0-1.57-1.1,0-2.4.84-2.4,1.57s-2.9,2.52-3.4,2c-.3-.21.8-3.36,1.4-4.2.1-.21.5.1.8.63.4.73.9.52,2.4-1.26a7.22,7.22,0,0,1,2.3-2.2,1.57,1.57,0,0,0,1-.52c.3-.31,0-.42-.8-.21-2.3.63-1.7-2.31,1.2-5.35,2.2-2.31,2.5-3,2.6-5.35.1-2.62,0-2.73-1.6-2.73-.9,0-1.7,0-1.7.31a.66.66,0,0,1-.6.63c-.3,0-.5-.21-.3-.52s-1.4-.42-3.5-.42-3.6.21-3.5.42-.1.52-.6.73-.7,0-.5-.73c.3-.94.2-.94-.3-.1a6.16,6.16,0,0,0-.6,2.52c0,1.57,0,1.57,1.8-.52,1-1.15,2-1.89,2.2-1.68s0,.63-.5.94-.6.63-.3.63a2.3,2.3,0,0,0,1.4-.73c.6-.63.7-.52.3.52C51,3.88,49.44,5.14,48.54,4.83ZM53,11a.63.63,0,1,1,.6-.63A.66.66,0,0,1,53,11Z"/><path d="M62.85,3.57c1.4-1.68,2.2-2.2,4-2.31,3.9-.21,2.4-1-1.7-.94-2.2.1-3.6.31-3,.42.5.42.4.63-.4.84-1,.31-1,.31-.1.42.5,0,1,.31,1,.73a.51.51,0,0,1-.8.42c-.5-.21-.8.21-.9,1.15s-.1,1.47,0,1.47S61.85,4.83,62.85,3.57Z"/><path d="M45.13,29.28a13.48,13.48,0,0,0-1.8,1.89c-1.9,2.1-1.9,2.2-.3,1.26C43.93,31.8,45.63,29.28,45.13,29.28Z"/><path d="M67.76,4.83c-.3-.21-.3-.1-.1.31.5.94.5.94,1.3.31a4.81,4.81,0,0,0,1-2.31l.4-1.89-1,2C68.76,4.41,68.06,5.14,67.76,4.83Z"/><path d="M48.74,36.52a.36.36,0,0,0-.3-.1c-.7-.1-2,1.15-2,2.1,0,.42.5.94,1,1.15.7.31.9.21.6-.63a1.45,1.45,0,0,1,.4-1.57C48.84,37.15,48.94,36.73,48.74,36.52Z"/><path d="M65,6.19c-.9.1-1.9-.21-2-.52a.37.37,0,0,0-.1-.21c-.1,0-.2.21-.2.52,0,.63.3,1.15.6,1.15s.4.31.2.73-.1.63.4.42a2.48,2.48,0,0,1,1.9.21c.8.52,1,.31,1-.94S66.45,6.09,65,6.19Z"/><path d="M61,47.44c.2.52.4.73.5.73s.8-.21,1.7-.31a3.78,3.78,0,0,0,2.3-1.15c.3-.42.4-.63.2-.63a8.09,8.09,0,0,0-1.8.63c-1.4.42-2.7.63-2.9.42S60.85,47,61,47.44Z"/><path d="M67.05,27.08c1.5.42,3.2-.52,2.2-1.15a2.33,2.33,0,0,1-.7-1.89,2,2,0,0,0-1-1.89,1.38,1.38,0,0,0-.7-.21c-.1,0,0,.21.4.63,1.7,1.78-1.8,5.35-3.7,3.67a1.66,1.66,0,0,0-1.6-.42c-.5.21-.2.42.6.73s1.3.63,1.3.94c0,.84,1,.73,1.5-.1A1.72,1.72,0,0,1,67.05,27.08Z"/><path d="M63.75,32.32c.1-2,0-2.94-.3-2.94s-.4.42-.7,1a3.68,3.68,0,0,0,.2,3l.8,1.89Z"/><path d="M70,16.48c-.5-.1-.6,0-.4.42a1.08,1.08,0,0,1-.4,1.26c-.6.42-.7.73-.2,1.26s.8.42,1-.21c.6-1.78,8.31-3.25,9.71-1.78.4.42.6,0,.4-1.47a7,7,0,0,1,.8-3.78c1-1.68,1-1.68-.1-1.26s-1,.31-.3-.63c.5-.52.7-1.26.5-1.57s0-.94.5-1.36c1.3-1.15,1.1-2.1-.4-1.57q-1.35.31-.9-.31c.2-.42.1-.73-.3-.73-.7,0-3.5,3-3.5,3.88,0,.31-.3.42-.6.21s-.5.21-.2,1.36c.4,1.47.3,1.68-.5,1.36-.6-.31-1.4.42-2.6,2.41C71.46,15.64,70.46,16.69,70,16.48Zm8.21-5.88h.2a1.3,1.3,0,0,1,.5.84q.6,1.26-.3.31C78.17,11.33,78,10.81,78.17,10.6Z"/><path d="M68.56,29.6a4.55,4.55,0,0,1,2.4,0c.4.21.6,0,.5-.63s-.1-.84-.6-.94a9.2,9.2,0,0,0-3.1.73c-2.3.31-2.6.52-2.5,1.89,0,.84.4,1.47.8,1.47,1.3,0,1.9,2.62,1,4.2s-1,2.1-.2,2.1c.4,0,.5-.31.3-.63a.94.94,0,0,1,.4-1.15A28.92,28.92,0,0,0,70.06,34l1.8-2.1-1.8.31c-1.4.21-1.9,0-2.5-.94C66.85,30.12,67,29.91,68.56,29.6Z"/><path d="M85,8.92c-1.5.73-1.5.84-.4,2.1s1.1,1.36-.1.94a2.94,2.94,0,0,0-2.4.52c-1.1.94-1.1.94.7.84a5.17,5.17,0,0,0,3-.94c.6-.52,1-1.15.9-1.47-.2-.73,1.4-4.3,2.7-5.77.7-.84.8-1,.4-.94-.2.1-.4.21-.6.1-2.6,1-4.1,2.1-3.1,2.1C87.57,6.51,86.87,8,85,8.92Z"/><path d="M138.52,13.75c.3-.1.8.21,1.2.84.6,1,.6,1,.2-.1a8.11,8.11,0,0,1-.5-2.62c-.1-.73-.3-1.15-.5-1-.6.42-1.2-2.2-.8-3.57.3-.84.1-1.26-.4-1.26a10.67,10.67,0,0,1-2.3-.31,2.9,2.9,0,0,0-1-.21c-.1,0,.1.21.7.31,1.2.84,1.3,2.2.1,1.68-.5-.21-.9-.1-.9.21a.66.66,0,0,0,.6.63.69.69,0,0,1,.6.73c0,.52-.3.42-1-.21a15.64,15.64,0,0,0-3.7-1.89c-1.4-.52-2.3-1-1.9-1.26s.4-.31-.1-.21c-1.1.21-.9,1.78.2,2a9.13,9.13,0,0,1,5.3,2.52,7,7,0,0,0,2.7,1.68,1.42,1.42,0,0,1,1.1,1.36C138,13.54,138.22,14,138.52,13.75ZM136.62,11a.63.63,0,1,1,.6-.63A.66.66,0,0,1,136.62,11Z"/><path d="M41.43,11.54c.1-.21.2-.42.1-.42a.75.75,0,0,0-.3.1.81.81,0,0,0,.7,1.47,2.37,2.37,0,0,1,1.8.31c.8.52,1,.42.8-.21a1.77,1.77,0,0,0-1.9-.73C41.63,12.17,41.13,12,41.43,11.54Z"/><path d="M133.52,13.75c-1.2-1.47-1.3-2.52-.3-2.94a.45.45,0,0,0,.3-.73c-.1-.1-.2-.21-.3-.21-.7-.21-1.8,1.26-1.6,2.31a4.27,4.27,0,0,0,1.6,2C134.52,15,134.52,15,133.52,13.75Z"/><path d="M0,12.68V14.8c.89,0,1.09.32.89.94s0,.94.5.94.7-.42.5-.94-.2-.94.2-.94S2.7,14,2.7,13c0-1.26-.3-1.78-1-1.78s-.9.21-.8.42S.62,12.33,0,12.68Z"/><path d="M22.21,15.53c.9-1,.9-1.26,0-2.2a2.91,2.91,0,0,0-1.3-1c-.2,0-.1.21.1.42s.1.84-.3,1.26c-.5.63-.5.84.1.84s.6.21,0,.94C19.71,17.11,21,16.9,22.21,15.53Z"/><path d="M20.71,9.76c1.1-1.15,1.8-.94,1.4.42a1.37,1.37,0,0,0,.7,1.78c1,.52,1.1.31,1.1-1.36s.2-2,1.2-1.89a4.51,4.51,0,0,0,2.1-.21c1.8-.73,3.1-.84,4.1-.21s1,.63,0,.63c-.6,0-.9.31-.7.84a2.46,2.46,0,0,1-.5,1.78c-2.4,2.73-2.4,3-.5,2.94,1-.1,1.8-.52,1.8-.94,0-1.15,4.9-1.26,5.3-.1a.93.93,0,0,0,.9.52c.5,0,.5-.21,0-.73-1-1-.9-1.78.2-1.36,1.4.63,1-.84-.6-2-.8-.63-1.4-1.26-1.2-1.57s-.4-.63-1.2-.84c-1.8-.42-1.9-2.2-.1-2.2,1,0,1.1.1.4.63s-.7.63-.1.63c.4,0,.9-.52,1.1-1.26.3-1.36,1.6-1.68,2.3-.52.3.42.1.52-.5.31s-.8-.1-.7.63a13.76,13.76,0,0,1,.2,1.57c0,.31.3.52.7.52s.4-.31-.1-.94-.5-.94.2-.94a1.41,1.41,0,0,0,1.2-.94,1.05,1.05,0,0,1,1.4-.52c.9.31.9.21.2-.31a1.26,1.26,0,0,0-1.4-.31c-.3.21-.4,0-.2-.63.3-.84,0-.94-1.5-.63s-1.7.31-1.4-.84.1-1.26-5-1.36h-2.9c-2.2,0-2.5.31-2.9,1.15a2.6,2.6,0,0,0,0,1.78c.2.21.5-.1.7-.84.3-1.26,2.6-2.1,2.6-.94C29,2.2,27.32,4,26.62,4c-.4,0-.6.31-.6.73s.2.52.8,0,.9-.52,1.2.31c.6,1.78-.2,2.2-1.6.84l-1.3-1.26-.2,1.26a1.5,1.5,0,0,1-1.3,1.26c-1.1,0-3.6,2-3.6,2.83C20,10.28,20.31,10.18,20.71,9.76ZM35,10.07c.2,0,.3,0,.4.1.5.21.9.52.9.63s-.4.21-.9.21-.9-.31-.9-.63S34.72,10.07,35,10.07Z"/><path d="M38.63,36.21a1.51,1.51,0,0,0,1-.63c.2-.42.9-.52,1.5-.31s1.1.1,1.1-.21c0-.73-.3-1-.8-1a3.18,3.18,0,0,0-1.9.94C38.73,35.58,38.23,36.21,38.63,36.21Z"/><path d="M37.13,30.85c.5-.21.9-.52.7-.84a.75.75,0,0,0-.7-.42,1.9,1.9,0,0,0-1.9,1.78q0,1.26.9.94a.74.74,0,0,1,1,.63c.1.73.3.73.9.1q1.65-1.73-.6-1.89Q35.93,31.17,37.13,30.85Z"/><path d="M128.91,4.09c.3.42.6.52.8.1s0-.94-.5-1.36-.7-.42-1-.31a3.66,3.66,0,0,0-1.2.94l-1.4,1.36,1.4-.73C128.11,3.46,128.61,3.46,128.91,4.09Z"/><path d="M134.42,20.25a3.27,3.27,0,0,1,2.2-.31c.6.21,1,.1.8-.21a1.77,1.77,0,0,0-1.4-.52,2.77,2.77,0,0,1-1.7-.73c-.2-.21-.4-.42-.6-.42h-.5c-.3.31-.1.63.3.84.6.21.6.52.1,1.15C132.72,21.09,132.92,21.2,134.42,20.25Z"/><path d="M121.41,1.47c2.2.94,3.3,1,3.3.21a.66.66,0,0,1,.6-.63c.4,0,.5.31.3.63-.4.73.3.73,1.5,0a1.17,1.17,0,0,1,1.6,0,3.18,3.18,0,0,0,2.1.42c1.2-.21,1.4.1,1.4,1.78,0,1.47-.2,1.89-.9,1.57s-.8-.21-.1.73c1,1.26,3.3,1.47,2.9.21a3.9,3.9,0,0,1,.5-2.41c.6-1.15.8-1.26.8-.42,0,.63.3,1.15.6,1.15s.4-.52.2-1.26c-.3-1.47-1.2-1.68-1.7-.31-.6,1.57-1.3,1-1.1-.84l.2-1.78h-7C120.3.42,119.8.52,121.41,1.47Z"/><path d="M89,44.5c-.4,0-.8-.31-.8-.63a.58.58,0,0,0-.5-.63c-.3,0-.2.63.1,1.47.4,1,.8,1.36,1.1.84s.7-.52,1.1.31c.4.63.9,1.15,1.3,1.15s.2-.52-.4-1.26A3.43,3.43,0,0,0,89,44.5Z"/><path d="M84.44,60a3.39,3.39,0,0,0-1.77-1c-.5,0-.9-.21-.9-.63a.38.38,0,0,0-.4-.42c-.1,0-.2,0-.2.21a2.64,2.64,0,0,0-.6,1.78s0,.05,0,.07Z"/><path d="M98.18,13.75a2.31,2.31,0,0,0-1.2-.42c-.3,0-.6,0-.6.31-.2.31.1.63.7.63.8,0,.9.1.3.73-.9.94-.9,1.78,0,1.78.4,0,.5-.21.3-.42s.1-.73.8-1.15C99.68,14.48,99.68,14.48,98.18,13.75Z"/><path d="M63.25,57.3q1.35.47.9-.31a1.38,1.38,0,0,0-1.2-.73c-1,0-.9-2.52.1-3.67a3,3,0,0,1,2.2-.84c1.5,0,4.2-2.83,3.6-3.88a1.41,1.41,0,0,0-.17-.27,1.7,1.7,0,0,0,.77.17,4.2,4.2,0,0,0,.1-1.47,7.06,7.06,0,0,0-.8-2.83c-.7-1.26-.6-1.36.3-1s.9.21.1-.52a9.35,9.35,0,0,1-1.5-2c-.3-.42-.5-.73-.7-.73s-.6.1-1,.63c-1.4,1-.7,3.57,1,3.57,1.1,0,1.2.31,1,1.89a2.3,2.3,0,0,0,.39,2.1c-.44-.14-.89.37-.89,1.26,0,1.47-1.9,2.52-2.3,1.36s-1.4-1-1.2,0a.65.65,0,0,1-.7.84,3.79,3.79,0,0,0-2.1,1.26c-1.2,1.26-1.2,1.26-1.4,0a4.58,4.58,0,0,0-.7-1.89c-.6-.84,0-3.46.7-3,.3.21.5-.1.5-.63s-.2-.94-.5-.94-.8-.94-1.1-2c-.7-2.62-1.6-2.83-2.9-.73-.7,1.15-.8,1.57-.2,1s1.2-.63,1.6-.31c1,.63.2,2.73-.9,2.31a9.69,9.69,0,0,0-1.7-.31c-1.1,0-1-1.15.2-2.62.8-1,.9-1.26.1-1.78s-.7-.63-.1-.63c.4,0,.6-.31.4-.63a.74.74,0,0,1,.3-.94,1.16,1.16,0,0,0-.6-2.2c-.9,0-1.2.42-1.1,1.47v2.2c-.1,1-1.9.21-1.9-.84s-1.6-.42-2.1.84c-.2.84-.2.84.6.21.6-.52.9-.52.9-.1a1.83,1.83,0,0,1-1,1.36c-.6.31-.7.63-.4.63a2.36,2.36,0,0,0,1.3-.73c.3-.42.8-.63,1.1-.31s.1.73-.4,1a2,2,0,0,0-.9,1.26,10.86,10.86,0,0,1-2.2,2.73c-1.2,1.26-2.1,2.31-1.9,2.52s-.6.31-1.9.1a26.31,26.31,0,0,0-3.4-.31c-.9,0-1-.21-.3-1s.6-.84-.6-.21c-1.7,1-1.7.31,0-1.26,1.3-1.15,1.4-1.15,1.7-.1s.4,1,1,0a2.57,2.57,0,0,1,1.8-1.26c.7-.1,1.1-.31,1-.52s-1.1-.31-2.1-.1c-1.6.31-1.9.1-1.7-.84.2-1.68-1.4-1.57-2.4,0-.8,1.26-.8,1.26-.4,0,1-3.15,1-3.15-.7-3.15a5.69,5.69,0,0,0-2.3.42c-.7.52-2.3-.63-2.8-2-.2-.63-.4-.42-.4.52,0,1.68-1.2,2-1.2.31s1.5-3.57,2.3-3a1.86,1.86,0,0,1,.3,1.68c-.3.84-.1,1,.5.84,1.1-.42,1.1-3.15,0-4.09-.6-.52-.8-.52-.8,0,0,.84-1.9.1-2.8-1.15-.2-.31-.4-.52-.5-.52s-.2,0,.2.42a3,3,0,0,0,.8,1.57c1.4,1.36-.6,4.3-3,4.3-1.4.1-1.5,1.89-.2,3.57.8,1,.7,1-.6.63s-1.4-.31-1.1.84c.4,1.47-.6,1.78-1.1.31a1,1,0,0,0-1.2-.63c-.4.21-1.2-.1-1.8-.73-.7-.84-.9-.84-.7-.21s1.2,1.47,2.3,2.1c3,1.78,3.7,3.15,1.9,3.88q-1.05.31-2.1-.94l-1-1.36-.7,1.26c-.4.63-.5,1.26-.2,1.15s1.4.21,4.2,1.36c1.2.52,1.5.31,1.9-.84a2.52,2.52,0,0,0-.5-2.62c-1-1.15-1-1.26,0-.84a1.24,1.24,0,0,0,1.4-.21.6.6,0,0,1,.9-.31c.3.21.7,0,.9-.31s1.5-.63,2.9-.63c2.3,0,2.4.1,1.3.94q-1.2.94-.3.94c.6,0,.3.63-.7,1.68-1.3,1.47-1.7,1.57-2.5.84a1.61,1.61,0,0,1-.7-1.68c.2-.42.1-.84-.3-.84s-.6.73-.4,1.68a3.26,3.26,0,0,1-.7,2.73,2.34,2.34,0,0,0-.8,1.78c.2.63,1.7,0,8-3.36,1.5-.73,1.9-.73,3.9.31,1.6.84,2.6,1,3.6.63s1.3-.31,1,.1,0,1,.4,1.57c.6.73.5,1.15-.5,2.1-.7.63-1.4,1-1.6.84s-.4-.1-.4.31a1.26,1.26,0,0,0,.7,1c.5.1.4.31-.2.31a2.25,2.25,0,0,1-1.7-.84c-.5-.73-3-1.26-3-.63A21.2,21.2,0,0,0,41.53,57c2.4,1.57,3.9,1.26,3.9-.73,0-1.36,0-1.36.9-.21a4.47,4.47,0,0,1,.9,2.31c0,1.47,2.5,1.47,3.8-.1,1-1,1-1.15,0-1.57a1.3,1.3,0,0,0-1.5.42c-.4.63-.5.63-.5,0s-.3-.63-.7-.42-1.1,0-1.5-.63c-.7-.94-.7-1.26,0-2a2.89,2.89,0,0,1,1.4-.84,1.07,1.07,0,0,1,.7,1.89c-.5.31-.2.52.7.52s1.4-.31,1.5-1.15c.1-.63-.1-1.15-.4-1.15s-.6-.52-.8-1.26-.1-1.26.2-1.26a.48.48,0,0,1,.5.52c0,.31.3.52.7.52,1.8-.1,2.8.21,2.8.73s-.4.52-1,.31c-.8-.31-.8-.31-.1.21,1.4.94,3.9.42,3.8-.73-.1-.63.3-1,1-1s1.1.21,1.1.52c0,.94-2.2,2.73-2.9,2.31-.3-.31-.6-.21-.6.21,0,.84,2,.84,2.9-.1.5-.63,1-.42,1.9.63l1.2,1.36h-1.2c-.7,0-1.2.31-1.2.63,0,.63.8.94,1.9.73.2-.1.4.21.4.52a.66.66,0,0,0,.6.63c.4,0,.5-.42.3-.94S62.25,57,63.25,57.3ZM31.62,43.76c-.1,0,0-.21.2-.52a.74.74,0,0,0-.3-.94,1.62,1.62,0,0,1-.6-1.15.37.37,0,0,1,.1-.21c.1,0,.4.21.8.63.5.84.9.94,1.2.42.4-.84,2.1-.94,2.1-.21C35.13,42.19,33.62,43,31.62,43.76ZM53,51.42a.63.63,0,1,1,.6-.63A.66.66,0,0,1,53,51.42Zm-.1-2.52a10.35,10.35,0,0,1-1.6.52,1.32,1.32,0,0,1-.1-.52c0-.52,1-1,1.8-1a1.13,1.13,0,0,1,.7.21C54.14,48.28,53.84,48.59,52.94,48.91Zm3.6,1.26c-.6,2.31-.8,2.52-1.2,1.26a2.12,2.12,0,0,1,.4-2.31,3.12,3.12,0,0,0,.9-1.68c0-.31.1-.42.2-.42l.1.1C57.15,47.33,56.95,48.7,56.55,50.17Z"/><path d="M25.72,59.61a2.18,2.18,0,0,1,.92.39h4.15c0-.09,0-.19-.07-.28-.2-1-.8-1.78-1.3-1.78s-.9.31-.9.52-.8.42-1.7.42c-1.4-.1-1.6-.31-1.5-1.57a1.69,1.69,0,0,0-.1-1.15c-.1-.1-.2-.1-.2-.21a2.79,2.79,0,0,0-.5,1.89C24.52,59,24.82,59.51,25.72,59.61Z"/><path d="M77.76,30.54c.3.52,1.1.63,1.9.42,1.5-.42,2.1.52.7,1-.6.21-.6.42,0,1.15.5.42.8.52.7.21-.2-1.36.1-1.68,1.1-.84s.9.84.2-.21c-.5-.73-.5-1.15-.1-1.15.8,0,.9-2.31,0-2.83a.36.36,0,0,0-.3-.1,2.87,2.87,0,0,0-1.3,1c-.6.94-1.2,1.26-2.1.94S77.46,30,77.76,30.54Z"/><path d="M77.06,55.2a2.5,2.5,0,0,1,1.8.52,3,3,0,0,0,1.4.84c.8.21,1.1,0,1.1-.84a1.05,1.05,0,0,0-.9-1.15c-.6-.1-.7-.21-.3-.52.8-.63.6-4-.3-3.78-.4.1-.8-.42-.6-.94.8-2.52.2-7.45-.9-7-.5.21-1.1-.42-1.5-1.26-.6-1.36-.6-1.57.5-1.57s1.1-.21.6-1.26c-.8-1.68-.8-2.73.1-2.2.5.31.6.21.2-.42a6,6,0,0,1-.5-1.78,1.46,1.46,0,0,0-.9-1.26.73.73,0,0,0-.4-.1c-.3,0-.2.21.4.73.6.84.5,1.36-.7,3.25-1,1.68-1.2,2.41-.7,2.62s.5.52-.2,1-.8.73.1.42,1,0,1,1.47c0,1,.2,1.89.5,1.89s.4.52.2,1.15a4.88,4.88,0,0,0,.3,2.41c.9,1.68.3,2.73-1.4,2.73-1,0-1.4.21-1.1.73a1.32,1.32,0,0,1-.5,1.47c-1.6,1.26-2.9,3.78-2.3,4.72.5.73.7.73,1.6,0s1.1-.73,1.3-.1c.4,1.26,1.2.84.9-.52C75.56,55.41,75.86,55.2,77.06,55.2Zm0-2.52a8.34,8.34,0,0,1,1.3.31c.5.21.9.63.9.94,0,.84-1,.63-1.8-.42C77.06,53.1,77,52.79,77.06,52.68Z"/><path d="M66.25,58.67c-.4.42-.1.63.7.63s2,.31,2.9.52l.71.18h.51c.22-.12.11-.55-.22-1.54-.5-1.57-.8-1.78-3.4-1.78-1.5,0-2.3.11-1.7.21C67,57.2,67.05,57.72,66.25,58.67Z"/><path d="M162.34,23.3l1.4.73c1.1.42,1.6.52,2.1,0a3.42,3.42,0,0,0,.6-1.78,2,2,0,0,1,.6-1.47c.3-.21.4.1.2.63s-.1.94.3.94.7-.52.7-1.26-.2-1.15-.6-1.15-.9.31-1.6,1a7.58,7.58,0,0,1-2.4,1.78Z"/><path d="M163.24,31.9a4.33,4.33,0,0,1-1.7,2.31l-1.4.73h1.3c.7,0,1.3-.31,1.3-.52s.5-.73,1.2-.84,1.2-.1,1.2.21,1.2.52,2.7.52l2.7.1V32.11c0-1.89-.1-2.1-.9-1.47s-.9.63-1.2-.21a2.12,2.12,0,0,1,0-1.57c.4-.73-3.4-3.36-4.5-3.15a.48.48,0,0,1-.6-.63.76.76,0,0,0-.8-.84c-.8,0-.8.21,0,1.57.6.84,1.2,1.47,1.5,1.26.9-.63,1.3,1,.4,2.1A9.59,9.59,0,0,0,163.24,31.9Zm2.9-1.36a1.51,1.51,0,0,1,1.1-.63c.4,0,.4.31-.2.63C165.85,31.27,165.65,31.27,166.15,30.54Z"/><path d="M146.93,56.78a5,5,0,0,1,1.6,2.52.84.84,0,0,0,.42.7h1.74a6.32,6.32,0,0,0-.76-.7c-1.1-.94-1.1-.94.2-.94,1,0,1.3-.21,1-.94-.3-.52.1-1.26.7-1.78,1-.73,1.3-.63,2.5,1.15,1.7,2.41,2.8,3.15,4.3,2.62,1-.31,1.2-.94,1.2-3.67a10.31,10.31,0,0,1,.6-4c.4-.52.3-1-.3-1.68s-.7-1.15-.5-1.36c.6-.63,2.1,2.1,1.6,2.94a14.18,14.18,0,0,0-.6,3.46c-.1,2.73-.1,2.73,1.1,1.47,1.1-.94,1.2-1.36.6-2.52a3.2,3.2,0,0,1-.2-2.1,4.27,4.27,0,0,0,.3-2.41,3.65,3.65,0,0,1,.8-2.41,1.32,1.32,0,0,0,.5-1.47c-.2-.42-.1-.52.2-.31a1.43,1.43,0,0,0,1.4-.21c.7-.52.5-.63-.7-.63a5,5,0,0,1-3-1.57c-1-1.15-1.6-1.57-2-1.57-.2,0-.3.21-.4.52a2.35,2.35,0,0,1-1,1.57c-1,.73-1,.84,0,.84,1.3,0,1.5,2.52.2,2.52a1.49,1.49,0,0,0-1.1.84c-.2.52-.6.31-1.3-.52-1-1.15-1-1.15-.6.21.3,1.15.1,1.47-.8,1.47a1.72,1.72,0,0,0-1.5,1.36c-.2.73-.6,1.15-1,.94q-1.2-.79,0,1.57c.4.94.3,1.36-.6,1.89-1.4.84-2.6.84-2.1,0,.2-.31-.1-.63-.6-.63a1,1,0,0,0-.9,1c0,.73-.3.84-1.3.63C145.43,55.31,145.43,55.41,146.93,56.78Zm7.91-1.57c-.1,0-.4-.31-.6-.63a.39.39,0,0,1,.3-.63.66.66,0,0,1,.6.63C155.14,54.89,154.94,55.2,154.84,55.2Zm-1-4.3c.4-.11.7.21.7.84,0,1,.9.73,1-.42,0-.31.1-.84.1-1.15s.6-.63,1.2-.84a1,1,0,0,1,.5-.1c.4,0,.5.21.4.52-.3.63-.1.84.6.52s1,0,1,.42-.6.73-1.7.52c-1.5-.21-1.7-.1-1.4,1a4.85,4.85,0,0,0,1.1,1.89c.7.63,1.1,2.2.9,4,0,.52-.6.21-1.6-.63-.8-.73-1.2-1.47-.9-1.57.9-.42,0-2.1-1.6-2.73S152.53,51.32,153.84,50.9Z"/><path d="M169.55,12.59a2.31,2.31,0,0,1-3.9-.84c-.3-1.47-1.3-1.57-1.8-.21-.2.52-.1.84.2.63s.9.1,1.2.84c.7,1.36.3,1.89-1.9,2.31-1.3.21-1.3.1-.3-.63s.9-.94.1-1.26a1.62,1.62,0,0,1-.9-1.36c0-.52-.3-.94-.6-.94s-.6.73-.6,1.68c0,2.31-.6,1.36-.7-1-.1-2.1-2.5-4.83-3.6-4.09-.3.21-.3-.21.1-.94s.6-1.15.4-1.26a7.55,7.55,0,0,0-2,.31c-.8.42-1.4,1-1.2,1.57s-.3.84-2,.84-2.2.21-2,.84a1.13,1.13,0,0,1-.4,1.36c-.4.31-.5.21-.2-.31s.2-.63-.3-.31a.93.93,0,0,1-1.2-.31c-.4-.63-.7-.63-1.6,0s-1,.73-.1.42c.5-.1,1,0,1,.31a.68.68,0,0,0,.7.63,6.72,6.72,0,0,1,2.5.94,6.15,6.15,0,0,0,4.2.52c2.3-.42,2.4-.31,1.7.63-.5.52-.6,1-.3,1s.1.31-.4.63-.6.63-.1.63,1-.73,1.4-1.57,1.1-1.57,1.6-1.57.7.21.3.52c-1,.63-1.5,3-.8,3.57.4.21.6,0,.5-.42a1,1,0,0,1,.9-1c.8-.1,1.1.1.9.94a1.34,1.34,0,0,1-1.4,1c-4.3-.21-4.4-.21-4.8-1.78-.2-.94-.6-1.47-.9-1.26s-.4.73,0,1.15c.8.94-.1,2.62-1.1,2-.6-.42-.6-.63-.1-.94.9-.52-1.6-2.83-3.2-2.94-1.2-.1-1.2-.1-.1.73,1.4,1.15,2.6,3.57,2.3,4.62-.4,1.26-1.3.94-1-.31.2-.63,0-.42-.4.31-.7,1.47-2.3,2-2.3.84a.66.66,0,0,0-.6-.63c-.3,0-.4.31-.2.73s-.2.63-1.9.42l-2.3-.31,1.8.84c1,.52,1.4.94.9.94s-1.2.73-1.6,1.68c-.7,1.57-.7,1.57.3.63,1.5-1.47,3.9-1.15,3.5.31a1.58,1.58,0,0,0,.9,1.78,1.41,1.41,0,0,1,.8,1.89c-.3.73-.1,1.26.3,1.26s.6.42.4.94a1,1,0,0,0,.4,1.26c1,.42-.9,1.78-1.9,1.36a3.11,3.11,0,0,0-2,.42c-1.2.73-1.2.73.2,1.57,1.6.94,3.1,1.15,1.7.21-1.9-1.26.8-.63,2.8.63,1.7,1,1.9,1.47,1.6,3.15-.4,2.1.2,2.52,1.5,1.15.6-.63.7-.52.4.52-.4,1.26-.4,1.15.5,0,1.4-1.89,1.1.1-.3,2.62-1,1.89-1.5,2.1-4,2.1-2.3,0-2.6.21-1.5.63a3.91,3.91,0,0,0,2.4.21c.8-.31.8-.21.3.21a1.75,1.75,0,0,0-.4,1.78c.3.84.2.94-.2.31s-.7-.63-1-.1a1.79,1.79,0,0,0,.3,1.68c.8.94,2,1.26,1.5.31-.5-.73.7-4,1.6-4.62a3.07,3.07,0,0,1,2-.1c.7.21,1.3.1,1.3-.31s-.4-.52-.9-.31-.9.1-.9-.31a.69.69,0,0,1,.6-.73c.3,0,.6-.31.6-.84a2.55,2.55,0,0,1,.9-1.68c.6-.52.9-.63.9-.1a.69.69,0,0,0,.6.73c.3,0,.6-.42.6-.94s.3-.94.6-.94.6.42.6.94a.84.84,0,0,0,.8.94,2.37,2.37,0,0,1,1.6.94c.5.52.9.84,1.1.63s-.4-1-1.3-1.89c-1.2-1.15-1.6-2-1.4-3.15.2-.84.1-1.68-.2-1.89s-.5-.1-.5.31-.4.63-.9.63a.9.9,0,0,1-.9-.73c0-.31-.4-.52-.9-.31a1,1,0,0,1-1.2-.21c-.2-.31-.1-.63.2-.63s.5-.52.5-1.15a1,1,0,0,1,.8-1.15,10,10,0,0,1,1.5-.21c1-.1,2.8-4.3,2.4-5.35-.5-1.36-1.9-.84-1.7.52.1.84-.2,1-1.3.94l-1.5-.1,1.3-2.41c.7-1.36,1.6-2.41,2.1-2.41.7,0,.7-.21.2-.84s-.4-1.15.2-2.1c.5-.63.9-.94.9-.63,0,1.26,1.8-1.15,1.8-2.52,0-1.89,1-2.52,2.3-1.26,1,.94,1.1.94,1.8-.21s.6-1.26-.1-1.26a1.13,1.13,0,0,0-1.1.73c-.2.63-.4.63-.7,0-.4-.84-.1-1,2.8-1.68.9-.21,1.6-.73,1.6-1.36C170.65,11.65,170.55,11.65,169.55,12.59ZM151.83,11c-.1,0-.4-.31-.6-.63a.39.39,0,0,1,.3-.63.66.66,0,0,1,.6.63C152.13,10.7,151.93,11,151.83,11Zm6.91,27.18q.6,0,.3.63c-.2.31-.5.63-.6.63s-.3-.31-.3-.63A.66.66,0,0,1,158.74,38.2Zm-4.8-20.57c0-.1.1-.1.2-.1a.38.38,0,0,1,.4.42.66.66,0,0,1-.6.63c-.3,0-.6-.21-.6-.31S153.63,17.84,153.94,17.63Zm-5.61,4a1.64,1.64,0,0,1,1.5-1,2.17,2.17,0,0,0,1.7-1.15c.3-.52.4-.73.5-.73s.1.21.1.52c0,.84.4.94,1.6.73,1.4-.31,1.6-.21,1.3.94-.2.94.1,1.36,1,1.68,1.3.42,1.3.42.1,1.36s-1.3.84-1.7-.94c-.3-1-.9-1.89-1.4-1.89s-.7.31-.5.73,0,.63-.8.31a3.51,3.51,0,0,0-2.5.31C147.83,23.19,147.73,23.19,148.33,21.62Zm7.11,12c-.7-.31-1-.1-1,.84s-.3,1-.9.84-.9-.63-.9-.94a.47.47,0,0,0-.4-.52c-1.3.21-2.5-.21-2.2-.73.2-.31,1.3-.42,2.4-.31s2.1,0,2.1-.31-.4-.63-.9-.63-.9-.31-.9-.63.1-.31.3-.31a4.67,4.67,0,0,1,2.6,2C156.34,33.9,156.34,33.9,155.44,33.58Zm2.6-9.13c0,.94-.3,1.68-.6,1.68s-.6.63-.6,1.26a2.25,2.25,0,0,1-.6,1.57c-.3.21-.6,0-.6-.42,0-.63-.1-.63-.5,0a1.16,1.16,0,0,1-1.4.42,1,1,0,0,0-1.3.31c-.6,1-1.7.73-1.3-.31.2-.52.1-.84-.2-.63s-.6-.21-.8-.84c-.3-.84,0-1,1.1-.94.8.1,1.3-.1,1.1-.42a1.47,1.47,0,0,0-1.2-.52,1.41,1.41,0,0,1-1.2-.94c-.2-.52-.6-.73-1-.52s-.5.1-.1-.31c1-1,3.7-.1,4.2,1.36a5.94,5.94,0,0,1,.4,1.78c-.2.94.5.42,2.6-1.78l2.1-2.31Zm3.8-5.35a1.21,1.21,0,0,1-1-.63c-.4-.52-.4-.84-.2-.84a2.9,2.9,0,0,1,1,.63C162,18.68,162.14,19.1,161.84,19.1Zm1-1.78a.66.66,0,0,1-.6-.63c0-.31.2-.63.3-.63s.4.31.6.63A.39.39,0,0,1,162.84,17.32Z"/><path d="M169.95,52.37c.7-.84.3-2.83-.6-2.83-.7,0-.6,1,.1,1.47q.75.47-.3,1.26c-.6.42-.8.94-.5,1.15a2.33,2.33,0,0,1,.3,2c-.3,1.57.6,2.2,1.3.94a2.33,2.33,0,0,0-.3-1.89C169.45,53.52,169.45,53,169.95,52.37Z"/><path d="M170.35,37.36a4.23,4.23,0,0,0-1.5.63c-1.3.73-1.6,1.26-1.4,2.2a2.87,2.87,0,0,0,.9,1.68c.4.21.5-.1.3-1-.3-1.15-.1-1.57.8-1.78.7-.21,1.2-.73,1.2-1.15S170.65,37.36,170.35,37.36Z"/><path d="M169.25,43.45c-.2.52-.7.21-1.5-.84-.5-.73-.8-1-1.1-1.15s-.6,0-.8.42c-.7.63-.6.84.4,1.15,1.2.31,1.3.94,1,4.83-.1.63-.4,1.15-.7,1.15s-.5-.73-.3-1.78c.3-1.57.3-1.57-.5-.63-.5.63-1,.94-1.1.84s-.3.94-.3,2.52a8.28,8.28,0,0,0,.1,2.73,10.35,10.35,0,0,0,1.4-1.36,6,6,0,0,0,1.2-1.89c0-.21.7-.84,1.6-1.26,1.4-.63,1.7-1.15,1.7-3.15C170.35,42.71,169.85,42,169.25,43.45Z"/><path d="M90.08,23.61a1,1,0,0,0-1.1.73c-.2.52,0,.73.3.52s1.1,0,1.7.52c.9.73,1,1,.3,1.47-.4.31-.6.63-.3.84,1.4.73,2.6.94,2.9.42.2-.31.1-.63-.2-.63s-.7-.42-.9-.94-.1-.84.2-.63c1.2.73.6-.73-.9-2.41-1-1.15-2.1-1.89-2.4-1.78s-.1.31.4,1S90.68,23.82,90.08,23.61Z"/><path d="M106.7,60a2.66,2.66,0,0,1-1-2.07,3.57,3.57,0,0,0-1.2-2.62,3.35,3.35,0,0,1-1.2-1.89c0-.73-.1-.73-.3-.21-.5,1.15-1.2.94-1.6-.52a4.62,4.62,0,0,0-2.6-2.31c-2-.84-2.1-1-1.1-1.47s.7-.52-1-.73c-2-.21-2.1-.21-1.5.84.3.63.9,1.15,1.1,1.15.8,0,.5,2.41-.3,2.73-.4.1.4.52,1.8.73,2.8.52,3,.73,1.5,2-.9.73-.9.73.5.52,1.2-.21,1.7.1,2.6,1.68.66,1.17.87,1.62.64,2.17Z"/><path d="M72.06,26.76c.4,1.57,1.1,1.68,1.6.31.2-.52.6-.73,1-.52s.2.73-.5,1.26c-1.5,1-2.2,4.3-.9,3.78.5-.1,1-.31,1.1-.31a3.81,3.81,0,0,0,.2-1.68c0-1.26.2-1.57.9-1.26l1.8.73c.8.31.9.11.4-1.15-.7-1.89.1-3.25,1.6-2.73a2.24,2.24,0,0,0,2.2-.84,6.1,6.1,0,0,1,2.6-1.89c1.7-.73,7.21-1.68,8.11-1.47.3.11.8-.31,1.2-.84a1.76,1.76,0,0,1,2-.63c1.6.42,1.8,1.47.3,1.47-.9,0-1,.1-.2.63s.7.73.1,1.36c-1,1-1,2.2,0,1.36,1.4-1.26,5-1.47,5.81-.42.6.84.6,1-.1,1.57a2,2,0,0,1-1.7.31c-1.3-.42-2.7.63-2.1,1.57.3.52.2.63-.2.31s-.7,0-.7.84a5.44,5.44,0,0,1-1.4,3.36c-.9.73-1.4,1.68-1.2,2s0,1.15-.5,1.68c-.7.73-.9.73-.9.1s-.1-.63-.5,0a5.48,5.48,0,0,1-2.2,1.26c-2,.63-2.4,2.31-.8,4,.7.73,1,1.57.8,2s-.2.52.3.21a2.36,2.36,0,0,0,.4-2.2c-.3-1.47,0-1.89,1.4-2.83,1-.63,1.8-.84,1.8-.63s1.2-.84,2.7-2.52S99.38,32,99.68,32c.6,0,1.3,2.94.9,4.3a3.37,3.37,0,0,0,.6,2.31c.9,1.26.9,1.26.9-.31a36.91,36.91,0,0,0-.5-4.72,9,9,0,0,1,.5-5.67,38.78,38.78,0,0,0,1.5-3.78c.3-.94.5-1,.9-.42a1,1,0,0,0,1.2.42c.4-.21.7,0,.7.52s.7,1,1.5,1.26c1.1.31,1.4.1,1.2-.52s.1-.73,1.3-.42c1.4.42,1.5.31.7-.52-.5-.52-1.1-.84-1.4-.63s-.4-.1-.2-.63c.3-.73,0-1-.8-.94-.6,0-1,.42-.9.84s-.1.63-.7.52a15.13,15.13,0,0,0-1.5-.21c-1.1-.1-.2-1.15,1.8-1.89,1.5-.63,2.3-.63,2.4-.21a8.62,8.62,0,0,0,1.4,2.1,4.93,4.93,0,0,1,1.2,2.2c0,.84-1.5,2.31-1.9,1.89-.2-.21-.3.21-.3.94,0,1,.3,1.15,1.7.84s1.7-.21,1.7.73a14.09,14.09,0,0,0,.4,2.62c.3,1,.2,1.47-.2,1.15a1.2,1.2,0,0,0-1.4.52c-.7.73-.6.84.2.52.6-.31.9-.1,1,.73.2,4.62-.9,8-2.5,7.45a1.58,1.58,0,0,0-1.7.52c-.6.73-.5.94.3.84a1.14,1.14,0,0,1,1.3.73,1,1,0,0,1,.06.24l0,0a7.51,7.51,0,0,1,2.1-1h.2c.2.21-.1.73-.8,1.26s-1.1,1.26-.9,1.57.7.1,1.1-.52c.7-.94,1.1-.94,2.8-.42,1.1.31,1.6.73,1,.73s-1,.31-1,.73-.3.52-.6.31a1.26,1.26,0,0,0-1.4.31,1.82,1.82,0,0,1-1.8.31c-1-.42-1-.31-.3,1,1,2,1.3,3.88.5,3.36a1.14,1.14,0,0,1-.3-1.26c.2-.52-.4-1.68-1.3-2.62s-1.2-1.57-.7-1.26c.8.42.8.31.2-.31s-.34-1,.84-1.92a.67.67,0,0,1-.14-.08c-.4-.31-.7-.1-.7.31s-.7.1-1.5-.73-1.5-1.26-1.5-.94-.2.31-.4,0a10.64,10.64,0,0,0-1.8-1.36c-1.5-.84-2.4-.1-1.6,1.26.7,1,.7,2.52,0,3-.9.73.1,2.62,1.2,2.2.8-.31.9-.1.6,1.26s-.3,1.57.5.84,1.1-.73,1.9,0,.9.73.6-.21a1.4,1.4,0,0,1,.2-1.47,1,1,0,0,0,.2-1.15c-.2-.42.2-.1,1,.63,1.3,1.36,1.3,1.47.3,2.62a2.21,2.21,0,0,1-1.9.94,2.11,2.11,0,0,0-1.6.21c-1.2.84,4.9,2.2,6.21,1.47s2.4-.21,1.9.73a.39.39,0,0,0,.3.63c.4,0,.6.84.6,1.78s-.1,1.36-.3.94a1.15,1.15,0,0,0-2.2.21c-.6,1.68-1.7,1-1.3-.63.3-.94.2-1.57-.2-1.57s-.6.52-.6,1.26-.2,1.15-.5.94a2.59,2.59,0,0,0-1.9.21c-.8.31-1.1.63-.6.63s.65.2.51.39h8.81c.15-.24.31-.39.48-.39a2.4,2.4,0,0,1,1,.39h2.89c-1.09-.1-1.38-.45-1.38-1.33,0-2.62,2.2-3.57,3.9-1.78.5.52,1.1.84,1.3.63s-.1-.84-.6-1.36c-.9-1-1.2-2.2-.6-2.2a3.53,3.53,0,0,1,1.4,1.15c1.3,1.36,2.3,1.68,2.2.84q-.3-1.73.9-.63c1.1,1,.6,2.41-1,2.41-2.3,0-3.9.73-3.6,1.57.18.38.06.61-.41.7h4a.54.54,0,0,1-.22-.39c0-.73.7-.73,1.8,0,1.4.94,1.8-.63.9-2.94-.8-2-.8-2.2.4-3,1-.73,1.5-.73,2.1-.21.4.31.6.84.3,1a3.76,3.76,0,0,0-1.1,4.51,4.54,4.54,0,0,1,.43,1h1.65c.07-.09.14-.19.22-.28.6-.73.6-.73,0-.42-.4.21-.7.1-.7-.21s.5-.63,1.2-.63c1,0,1.2.31.9,1.26,0,.1-.06.2-.08.28H141l.22-.7.36.7h2c0-1.71-.32-3.93-.86-4.38s-.8-.52-.8,0a.69.69,0,0,0,.6.73c.3,0,.4.42.2.94s-.8.84-1.4.84-1-.31-.9-.42a30.16,30.16,0,0,0,.9-3c.7-2.62.8-2.73,2-1.89,1.9,1.26,5,.84,5.41-.73s.2-1.47-1-.21c-.8.84-1,.73-1.8-1.15-.6-1.26-.8-1.57-.7-.73.2,1-.1,1.36-.9,1.26s-1.1-.52-1.1-1.36A2.66,2.66,0,0,1,146,47c.8,0,1.4-.31,1.4-.73s-.6-.52-1.4-.31a4.5,4.5,0,0,1-3-.52c-.9-.52-1.6-.63-1.6-.31a.66.66,0,0,0,.6.63c.3,0,.6.42.6.73s-.4.52-.9.31a.77.77,0,0,0-1.1.42c-.1.52-.5.52-1.2-.1s-1-.63-1-.21a.77.77,0,0,0,.7.73c.3,0,.5.42.3.94s0,.94.4.84a.48.48,0,0,1,.6.63c-.1.52.1.84.4.84s.6-.42.6-1c0-.94.1-.94.7-.31s.4,1.15-1.3,2.62c-2.6,2.31-2.8,2.2-2.5-.1.2-1.47.1-1.78-.7-1.47-1.1.42-1.3,1.47-.3,1.47.4,0,.5.11.3.42s-1.2,0-2.2-.42c-1.8-.84-2.3-2-1.2-2.73a.65.65,0,0,0,.3-.94c-.2-.31-.1-.63.2-.63s.7.42.9.94a1.13,1.13,0,0,0,1.5.52c.7-.21,1.1-.73.9-1.15s-.8-.73-1.4-.52a1.14,1.14,0,0,1-1.5-.73c-.2-.52-.5-.94-.8-.73-.7.42-1.3-5.56-.7-6.19.3-.31,1,.73,1.6,2.62,1.1,3.36,2.6,4.3,2.6,1.68,0-1.57,1.7-2.83,2.3-1.78s3,2.1,3,1.36a.58.58,0,0,0-.5-.63,10.38,10.38,0,0,1-2.4-1.89c-1.5-1.47-1.9-2.31-1.8-4,.1-3.36,0-4.41-.6-4-.3.21-.7,0-.9-.31s0-.63.5-.63a1.48,1.48,0,0,0,1.2-.84c.1-.42.3-.11.3.63s.4,1.47.7,1.47.4.31.2.73-.1.63.3.31a1.66,1.66,0,0,0,.7-1.36c0-.63.6-.94,1.6-.94s1.3-.21,1-.52c-.8-.84-5-1.26-5.4-.63-.7,1.15-1.4.52-.8-.73.4-.73.9-1.15,1.1-1a3.35,3.35,0,0,0,1.6-.21c1-.31.7-.52-1.1-.73-1.6-.21-2.6,0-3.2.63-1,1-1.2.84-1.6-1.36-.2-1.26-.1-1.68.5-1.57.4.1.8-.1.8-.42s-.4-.52-.9-.42-.7-.1-.5-.52,0-.63-.6-.63c-.9,0-.9.21-.3.94s.5.94-1,.94c-1.7,0-1.7.1-.4.73,1.5.84,1.6,1.36.4,2.41a2.78,2.78,0,0,0-.9,1.78c0,.94-.1.94-.6.1s-.9-.42-.7.84c0,.21-.2.42-.6.42s-.5-.42-.3-.94c.4-1.15-.8-2-1.4-.94-.3.42-.7.73-1,.63a.74.74,0,0,0-.6.63c-.1.42,0,.42.2,0,.4-.73,1.4-.31,1.4.63,0,.31-.5.63-1.2.63s-1.2.31-1.2.63c0,.73,2.9.73,4.1,0a1.43,1.43,0,0,1,1.4-.21c.6.31-2.6,3.15-3.4,2.83-.3-.11-.7.21-1,.63s.1.84,1.7,1.15c2.2.42,2.2.42.7,1.15-1.3.73-1.3.73-.1.52.9-.21,1.3,0,1.3.63s.3.73.6.52c1.1-.73,1.8.42.9,1.36a4.56,4.56,0,0,0-.9,2.62,3.31,3.31,0,0,1-1,2.41c-.8.63-.9.94-.3,1.68.4.52.5,1.15.3,1.36a2.81,2.81,0,0,0-.4,1.47c0,.52-.3,1.15-.7,1.26s-.6-.31-.4-1.26l.3-1.47-.6,1.47c-.7,1.47-.7,1.47-3.2,1.68-1.2.1-1.6-.21-1.6-1,0-1.57-1.9-3.46-3.2-3.15a2.2,2.2,0,0,1-1.8-.52c-.5-.52-.4-.52.5-.21s1.1.42.4-.52a2,2,0,0,1-.1-2.31,9.62,9.62,0,0,0,.6-3,8.36,8.36,0,0,1,.6-2.73,2.25,2.25,0,0,0-.1-2.1c-.4-.84-.4-1.15,0-.84s.7,0,.9-.42c.2-.63.4-.63.9.1s.4,1-.1,1.36-.4.42.2.42a5.83,5.83,0,0,0,2.4-.94c.9-.63,1-.84.4-.63-.8.31-1.8-.31-3.5-2.2-1.8-2.1-2.5-2.41-2.9-1.78s-.5.63-.6-.21a7.88,7.88,0,0,0-.2-1.78,6.64,6.64,0,0,1-.2-1.57c0-.52-.8-1.36-1.7-1.89-1.4-.84-1.5-.94-.6-1.36.5-.31.8-.73.6-1.15s-.1-.52.6-.21a3,3,0,0,0,2.1-.21c.8-.42,1.3-.31,1.9.63.9,1.36,2.2,1.68,2.5.52.1-.42,1-.73,2-.84s2.9-.42,4.3-.63c2.2-.42,2.4-.63,1.9-1.68s-.4-1.26.2-1.26.3-.31-.3-.73c-.8-.42-1-1-.7-2.31,1-4,1-4.62-.2-4.93-1.6-.42-2.1-2.62-.8-3.36.8-.52.8-.63-.4-.63-.7,0-1.3-.42-1.3-.84,0-.63-.6-.84-1.7-.84-1.3.1-1.6.31-1.2.84s.1.73-1.3.73a3.28,3.28,0,0,1-2.2-.63c-.2-.42-.5-.31-.8.1s-.5.42-.8-.31c-.2-.52-.1-.84.2-.63a.63.63,0,0,0,.9-.21c.2-.31-.2-.73-.8-.94s-1.1-.1-1.1.1c.1,1.15-.2,2-.7,2-.3,0-.4-.42-.2-1,.3-.84.1-.84-1.3.31-2,1.57-2.7,1.68-2.7.42,0-1.47-1-1-2,.84-1.2,2.41-1.2.1,0-2.41.7-1.57,1.1-1.78,2-1.26a1.23,1.23,0,0,0,1.8-.31c.4-.52.9-.84,1.2-.63s.6.1.8-.21A1.41,1.41,0,0,1,118.7,4a1.41,1.41,0,0,0,1.5-.31c.2-.31,1-.42,1.7-.31s.5-.11-.7-.73c-1.8-.94-4.4-.73-4.1.21.1.42-.4.73-1.3.73-.3,0-.8-.73-1.2-1.57-.7-1.47-1-1.57-5.81-1.57-2.8,0-5.1.21-5.1.52s.9.42,2,.31c1.5-.21,2,0,2,.73s-.4.84-1.1.63a1.45,1.45,0,0,0-1.4.31c-.4.73-4.2.73-4.7-.1-.2-.31,0-.63.5-.63a2.37,2.37,0,0,0,1.6-.94c.4-.52.5-.94.1-.94s-.7.21-.2.31a4,4,0,0,1-2,.94c-1.7.42-1.7.42-.6-.52S101,.1,98.78.1s-2.3.1-1.4,1.15c.7.94.8,1.36.2,2s-.4.73,1.3.42,1.9-.31,1,.52-.9,1-.2,1.68.8.52,1-.31.6-.31,1.3,1.26.8,2.31.3,2.1-1.4.52-2.1,1.36c-1.1,1.36-1.5,1.47-2.4.84-2-1.47-2.7-1.57-3.4-.63a4,4,0,0,1-2.1,1.36c-1.5.42-1.5.42.1-.52.9-.52,1.6-1.26,1.6-1.57,0-.84-1.4-1.15-2.6-.52a3,3,0,0,1-1.8.31c-.4-.1,0-.52.9-.94A3.73,3.73,0,0,1,93,8.29c.5.1.9,0,.9-.42s.5-.52,1.3-.31c1,.31,1.1.21.4-.31A3.5,3.5,0,0,0,93,6.93a3.16,3.16,0,0,1-2.6-.52c-.6-.52-.9-.52-.6-.1s-.3,1.47-1.1,2.41-1.4,1.89-1.2,2.2-.4,1.15-1.2,1.89c-1.3,1.15-1.4,1.47-.8,2.31s.6,1.15-.1,1.57a3.87,3.87,0,0,1-1.6.63.68.68,0,0,0-.7.63c0,.31-.5.63-1.2.63s-1.2.21-1.2.63c0,.73-3.8,4.72-5.1,5.25-.5.21-.9,0-.9-.52S74.36,23,74,23s-.4-.31.1-.94c.7-.73.6-.84-.2-.52a1.58,1.58,0,0,0-1,1.47,3.7,3.7,0,0,1-1.3,2.2c-.8.52-1,.84-.6.63S71.86,25.92,72.06,26.76ZM113.7,59.61c-.5,0-.9-.31-.9-.63,0-.63.4-1,.8-.94a1.74,1.74,0,0,1,.6.63C114.4,59.19,114.2,59.61,113.7,59.61Zm23.12-2.31c-.2-.52-.3-.84-.2-.84s.3.21.8.63a3.42,3.42,0,0,0,1.9,1.15c.5,0,.9.21.9.52s-.9.52-2.1.52-1.8-.21-1.5-.42S137,57.93,136.82,57.3Zm-1.5-4.41a1,1,0,0,1,1,.52c.4.63-1,2.41-1.8,2.2-.3-.1-.6-.73-.6-1.36A1.53,1.53,0,0,1,135.32,52.89Zm.8-13.12a2.68,2.68,0,0,1,.4-1.47c.3-.42.5-.73.6-.73s.1.52-.3,1.47C136.52,39.57,136.32,40,136.12,39.78Zm1.6-.31a1.08,1.08,0,0,1,.6,2c-1.1.73-1.7.63-1.7-.1a.66.66,0,0,1,.6-.63c.4,0,.5-.31.3-.63S137.42,39.46,137.72,39.46Zm-2.3-8.92c.3,0,.6.42.6.94s0,.94-.2.94-.4-.42-.6-.94S135.12,30.54,135.42,30.54ZM133.62,37c.3-.63.4-1.36.2-1.57-.5-.52.8-1.78,1.7-1.89h.4c.6.21.6.42.1,1.15s-.5.84.3.52,1-.11,1,.63-.3.94-1.1.73a1.84,1.84,0,0,0-1.9.63C133.22,38.62,132.92,38.52,133.62,37Zm-.6,10.6c.6,1,0,2.73-.7,2a1.89,1.89,0,0,1-.1-1.68c.1-.31.3-.63.4-.63S132.92,47.33,133,47.65Zm-1.3-9.45a1.16,1.16,0,0,1-.2-1.26c.2-.42.5-.63.7-.63.4-.1.6.42.4,1.15C132.42,38.41,132.11,38.62,131.71,38.2Zm-14.81,19A.73.73,0,1,1,116,56c.1-.1.2-.1.4-.1a1.52,1.52,0,0,1,.6.31C117.5,56.57,117.5,56.78,116.9,57.2Zm.7-4c-.2.52-.6-.1-.8-1.47-.2-.94,0-1.57.4-1.57S118,51.84,117.6,53.21Zm-1.3-19.42c1.1,2.2,1.1,2.31,1.8,1.26.4-.73.5-.63.2.52-.2.94-.1,1.68.3,2,.9.63.1,2.52-.9,2.1-.5-.21-.9-.52-.9-.73-.3-1.89-.5-3.25-.8-4.83-.1-.94-.2-1.47-.2-1.47S116.1,33,116.3,33.79ZM112,2a1.17,1.17,0,0,1,.8-.42c.4.1.5.63.1,1.47s-.5.94-1,.42A1,1,0,0,1,112,2ZM99.79,20.46a1.32,1.32,0,0,1-1-.63c-.2-.31-.1-.63.2-.63a1.51,1.51,0,0,1,1,.63C100.19,20.15,100.19,20.46,99.79,20.46Zm26.12-12a.63.63,0,1,1-.6.63A.66.66,0,0,1,125.91,8.5Zm-7.71,5.77a2.23,2.23,0,0,1,1.8-1.15c.6,0,1.1.1,1,.31,0,.52-2,2.1-2.7,2.1S117.6,15.22,118.2,14.27ZM116.6,11c.1,0,.4.31.6.63a.39.39,0,0,1-.3.63.66.66,0,0,1-.6-.63C116.3,11.33,116.5,11,116.6,11Zm-7.41-9.45a.66.66,0,0,1,.6.63.6.6,0,1,1-1.2,0A.66.66,0,0,1,109.19,1.57Zm0,11c.9-1,1.2-1,2.3-.21,1,.63,1.1,1,.5,1.26s-.6.52.1,1c1.3.94,2.7.94,1.9-.1-.5-.63-.2-.84,1.3-.84,1.7,0,1.9.21,1.8,1.68-.1,1,.2,1.68.7,1.68s.8-.21.8-.52.3-.42.6-.21a.63.63,0,0,0,.9-.21c.3-.52,1.7-.73,5-.84,1.8,0,1.7-1.15-.1-1.15s-3-1.57-2.5-2.94c.2-.73.1-.94-.6-.63-.5.21-.8.1-.6-.21a3.09,3.09,0,0,1,2.3-.42c1.7.11,2.1.42,2.5,2.73a11,11,0,0,0,1.2,2.83c.6.42.7,2.52.1,2.52-.3,0-.2.73.1,1.68a5.81,5.81,0,0,1,.3,2.41c-.4,1-3.5,1.57-5.71.94-1.2-.31-1.8-.31-1.8.1s-.4.52-.8.31a1.77,1.77,0,0,0-1.6.21,1.77,1.77,0,0,1-1.6.21,4.77,4.77,0,0,0-1.6-.31c-.4,0-1-.73-1.2-1.47s-.5-1-.7-.63c-.7,1.78-3.2-2.73-3.2-5.77,0-.84-.3-1.68-.7-1.78S108.49,13.43,109.19,12.59Zm12.51,1.57a.66.66,0,0,1,.6-.63c.4,0,.5.31.3.63s-.5.63-.6.63S121.71,14.48,121.71,14.17ZM102.19,5.46c-.2-.52,0-.73.4-.42a.44.44,0,0,0,.7-.42c0-.21,0-.42.1-.42s.1,0,.2.42,1,.52,1.9.42c1.3-.21,1.4-.21.7.42s-.6.63.7.42,1.5-.1.9.94c-.4.63-.8.84-.9.52a1,1,0,0,0-.8-.63c-.3,0-.5.31-.3.84.4.94,0,1.68-.9,1.68-.3,0-.4-.31-.2-.63s.1-.63-.3-.63-.5-.42-.3-.94c.3-.73.1-.94-.6-.84A1.14,1.14,0,0,1,102.19,5.46Zm-15,8.82c.3-1,2.6-1,3.9.1.5.42.6.31.3-.52s-.2-1,.6-.73c.6.31,1.3-.11,1.9-.94.9-1.36.9-1.36,3-.31,2.5,1.26,2.7,1.26,2.7.31s1.8-2.41,3.1-2.41c.7,0,.9.31.6,1a1.41,1.41,0,0,1-1.2.94c-.4,0-.8.31-.8.63,0,.84,1.6.84,1.9-.1.1-.42.6-.52,1-.21a1.13,1.13,0,0,1,.4,1.36c-.1.42,0,.84.3.84a.66.66,0,0,0,.6-.63.68.68,0,0,1,.7-.63c.4,0,.1.52-.7,1.26s-1,1.26-.6,1.26-.1.73-1.2,1.57c-1.5,1.15-2.2,1.36-2.5.84s-.7-.52-.9-.31-.1.84.4,1.47c.7.94.7.94-.5.31-1.9-1.15-3.3-.31-2.5,1.36.5,1.15.4,1-.6-.21-.6-.84-1.5-1.68-1.8-1.68-1.3-.1-1.3-.21-.6-1.15.5-.63.5-.94.1-.94a1.21,1.21,0,0,0-1,.63,1,1,0,0,1-1.2.31.66.66,0,0,0-1,.31c-.5,1.57-2.7-.1-3.1-2.41-.3-1.78-.5-2.1-1-1.36S87,15.11,87.17,14.27Zm-4.1,4.93a2.57,2.57,0,0,1,1.5.63c.7.52.6.63-.7.63-.9,0-1.6-.31-1.6-.63S82.57,19.21,83.07,19.21ZM73.26,24a.9.9,0,0,1,.5-.31.22.22,0,0,1,.2.21c0,.84-.7,1.57-1.1,1.15C72.66,25,72.86,24.45,73.26,24Z"/><path d="M125.31,27.5c0-.63-1.2-1-2.2-.94-.3,0-.7.1-.8.31-.5.31-.6.52-.2.52s.6.42.6.94-.2.73-.7.31-.9-.31-1.5.42-.5.84-.1.63a.93.93,0,0,1,1.2.52.88.88,0,0,0,1.3.42,1.83,1.83,0,0,0,.6-1.68c-.2-.84.1-1.15.8-1C124.81,28,125.31,27.81,125.31,27.5Z"/><path d="M128.31,42.5c0-.52-1.1-.94-1.9-.94a.76.76,0,0,0-.7.31,4.64,4.64,0,0,1-2.2.21c-.8-.1-1.3,0-1,.31C123.11,43,128.31,43.13,128.31,42.5Z"/><path d="M93.48,30.64c-.6.31-.6.42.1.42a2.57,2.57,0,0,0,1.7-.94,1.8,1.8,0,0,0,.2-2.31l-.6-1.36-.1,1.36c0,.94-.4,1.47-1.1,1.47s-.8.1-.2.52S94.18,30.33,93.48,30.64Z"/><path d="M15.61,31.38c.1.31.5.21,1-.42.7-.94.7-1.36.1-1.36a2.63,2.63,0,0,0-1.6.73c-.9.63-1.3.94-.7.73S15.51,31.06,15.61,31.38Z"/><path d="M1.59,44.39c.5-1.47.9-1.89,1.7-1.68s1,0,.8-.63a2.07,2.07,0,0,1,.4-1.78c.9-1.15,2.2-1.26,1.4-.1S5,44,5.8,43.45a1.09,1.09,0,0,0,.3-1.26c-.1-.42,0-.84.3-.84,1.1,0,.6,2.1-1,3.88-1.9,2.1-1.5,2.94.7,1.47C7,46.18,8,45.76,8.4,46q.9.31,0,.31c-.4,0-.7.42-.7.94,0,1.15-2.6,1.26-4.2.21-1.4-.94-1.8-.63-2.1,1.89-.3,2.1.3,2.52,1.5.94.6-.84.6-1-.1-1.57s-.2-.42,1.2-.21c4.6.73,4.9.84,4.5,2s-.3,1,.4,0c.7-.84,1-.94,1.9-.21s1,.84-.5,1.26c-1,.31-1.6.94-1.6,1.68,0,1.36-1,2.2-1.5,1.26a1.72,1.72,0,0,0-1.1-.63c-.5,0-.5.21,0,.73s.4,1.26-.6,2.62-1.1,2-.6,2.2a.85.85,0,0,1,.52.6h3.5a2,2,0,0,0,.59-.7c.8-1.68,2.9-2,2.4-.42-.3.84-.1,1.15.7,1A1.35,1.35,0,0,1,13,60h1.84c0-.09,0-.19,0-.28,0-.94-.1-1.36-.2-.94a.77.77,0,0,1-1.1.42c-1.4-.52-1-1.36.9-1.78a3.68,3.68,0,0,0,2.2-1c.2-.42.1-.52-.3-.21a13.52,13.52,0,0,1-3.5.63c-2.5.1-2.7.1-1.6-.73.6-.42,1.1-.94,1-1.15-.4-.84.1-1.47,1.7-2.1s1.8-.52,1.6.42a1.31,1.31,0,0,1-1.2,1c-.6,0-1,.31-1,.63,0,.63,1.8.42,2.6-.42s1.7-.84,1.3-.1c-.2.31.1.52.5.52a.57.57,0,0,0,.5-.84c-.5-1.47.4-2.2,1.8-1.47,1.2.63,1.2.52.2-.31-1.2-1-.8-2.52.6-2,.5.21.7,0,.4-.42a1.39,1.39,0,0,1,.6-1.57c.8-.63.9-1,.4-2-.7-1-.7-1-.7,0,0,.63-.3.94-.6.73s-.7,0-.9.31c-.6.94-1.3.73-1.3-.31,0-.52.2-.84.5-.63.6.42.6-1,0-2.1-.4-.63-.8-.52-1.6.42s-.8,1.26-.3,1.26.6.21.1.84c-.4.42-.6.94-.4,1.15s-.1.73-.6,1.15-.9.52-.9.1a1.26,1.26,0,0,1,.7-.94c.5-.21.3-.42-.4-.42-1.1-.11-1.1-.21-.2-.73a1.36,1.36,0,0,0,.7-1.57,1.11,1.11,0,0,1,.6-1.36,1.67,1.67,0,0,0,1-1.36c0-.63.4-.84,1-.73s1,.63.9,1,.6.11,1.6-.63c1.6-1.26,2.5-2.31,1.2-1.47s-1.3-1.15,0-2.73c.8-.94,1-1.26.4-.84-.9.84-1,.63-1-1.68,0-3.57.9-5.77,2.2-5.56.6.11.7,0,.3-.1-1-.42-.9-.84.3-1.89.9-.84.8-.84-.4-.21-1.9.94-2.2.52-.7-1.15.6-.73,1.1-1.36.8-1.36s-.1-.42.3-.94.5-.94.2-.94S24,24.77,23.41,26A10.6,10.6,0,0,0,22,30.43c-.2,1.15-1.2.94-1.3-.31,0-.63-.1-2.1-.2-3.36-.1-1.78.2-2.31,1.4-2.94s1.3-.84.4-.84-1-.1-.3-1,.7-1-.5-.63c-.8.31-1.3.21-1.3-.21s-.4-.63-.9-.63-.9-.31-.9-.63a.66.66,0,0,1,.6-.63c.8,0,.8-2.1,0-2.94s-.2-2.73.7-2.73c.3,0,.5-.42.5-.94a.92.92,0,0,0-.9-.94c-1.3,0-1.7-2.31-.7-4.41.7-1.68.7-1.78-.1-1.47-.6.31-.8.21-.5-.31s.1-.73-.5-.73-.8.21-.6.52-.2,1.26-.9,2.1c-1.1,1.26-1.2,1.36-.8.21.2-.73.4-1.68.5-2.1a3,3,0,0,1,.8-1.57c1.2-1.26.8-2.83-.7-3.15a2.7,2.7,0,0,0-.8-.1c-.6,0-.6.42-.1,2.52A3.12,3.12,0,0,1,14,6.3c-1.1,1-2.8.84-2.1-.31a.63.63,0,0,1,.9-.21c.3.21.6-.1.6-.63s-.8-1.36-1.8-1.89C9.4,2,9.2,2,9.2,3.15a1.47,1.47,0,0,1-.7,1.26c-.5.21-.1.42.7.42,1.4.1,1.4.21.3.63-.8.31-1.3.21-1.7-.52-.5-1-2.1-2.62-2.7-2.62-.2-.1-.3.94-.2,2.1a4.41,4.41,0,0,1-.44,2.4.43.43,0,0,1,.24.43.66.66,0,0,1-.6.63.85.85,0,0,1-.41-.12,3.16,3.16,0,0,1-2.49.64A3.32,3.32,0,0,0,0,8.46v1.63a15.06,15.06,0,0,0,2.09.09c2.8-.11,3.6-.52,4.3-2.52.1-.31.5-.42.9-.31.7.31-.6,2-3.2,4.3-.6.52-.8,1-.4,1.47s1.3-.21,2.8-1.68c1.6-1.68,2.4-2.1,2.7-1.57a2.15,2.15,0,0,1,.1,1.57c-.2.42,0,.84.4.84s.5.31.3.63-.7.31-1.2-.21a1.59,1.59,0,0,1-.5-1.26c.4-.84-.8-.52-1.5.31s.1,2.94.8,2.2c.3-.21.7-.1,1.1.42a4.43,4.43,0,0,0,1.9,1.26c1.1.31,1.4.1,1.7-1.15.2-.84.7-1.57,1-1.57s.4.31.2.63,0,.63.4.73a8.92,8.92,0,0,0,1.4.21,10.94,10.94,0,0,1,1.8.84c1.1.63,1.1.73.1.73-.8,0-1,.31-.8,1.26a2.47,2.47,0,0,1-.5,2.2,3.66,3.66,0,0,0-.8,1.47c0,.84-7.31.42-8-.42-1-.94-1.6-.73-1.6.52A2.68,2.68,0,0,1,4.3,23a1.8,1.8,0,0,0-1,1.57c.2.42-.2,1.26-.9,1.89s-.9,1.15-.5,1.15a4.21,4.21,0,0,0,1.9-1.36c1-1,1.1-1.47.5-1.89-.4-.21-.6-.52-.4-.52,2.3-.52,4.2-.52,4.5,0,.4.73-.9,2.73-1.4,2.2s-1.9,1.78-1.9,3.15c0,1.15.1,1,1-.31a15.3,15.3,0,0,1,2.4-2.73,17.44,17.44,0,0,0,2.4-2.2c.6-.63,2-1,4-1a9.54,9.54,0,0,0,3.8-.52c.4-.31.7-.21.7.21,0,.73-.5.94-3.8,1.57-1.6.31-2.1.63-1.6.94a1.29,1.29,0,0,1,.4,1.47c-.2.52-.1.94.2.84A2.76,2.76,0,0,1,16,28.55c.9,1.26.9,1.26.7-.21a18.19,18.19,0,0,0-.6-2.73c-.2-.84-.1-1.26.6-1.26.5,0,.9.52.9,1.47a3.57,3.57,0,0,0,.7,2.2c.4.42.5.73.3.73s-.2.52.2,1.26c.5,1,.4,1.36-.9,1.89A3.41,3.41,0,0,0,16,33.48c-.4.84-3.5,2.83-4.5,2.83-.3,0-.6-.73-.7-1.68a2.49,2.49,0,0,0-1-2c-.6-.21-.7.1-.5,1.36.3,1.68-.8,2.41-1.6,1a1.33,1.33,0,0,0-.9-.63c-.6,0-.1,2.52.7,3.67.4.63.3.84-.4.84A1.55,1.55,0,0,1,5.8,38c-.5-1.36-1.4-1.15-2,.63s-1.5,2.1-.9.21c.3-1,.2-1.26-.6-.94a6,6,0,0,1-1.6.42c-.4,0-.5.84-.4,1.89.15,1.2.13,1.6-.29,1.5V46.4H.19C.59,46.39,1.19,45.44,1.59,44.39ZM8.7,58.25c-.5.84-2.9.1-2.6-.73A.93.93,0,0,1,7,57h.5C8.9,57.3,9.1,57.51,8.7,58.25Zm3.4-47.86c-.1,0-.4-.31-.6-.63a.39.39,0,0,1,.3-.63.66.66,0,0,1,.6.63C12.4,10.07,12.2,10.39,12.1,10.39Zm5.2,2.1c-.3,1.36-.4,1.36-1.2.52-.6-.63-1-.73-1.3-.21s-.6.21-.8-.73a2.61,2.61,0,0,1,.5-2.31c.4-.31.6-.52.8-.42a1.91,1.91,0,0,1,.6.84c.4.73.9,1.26,1.2,1S17.51,11.65,17.31,12.49Zm-3.7,36.42a.6.6,0,1,1,.6.63A.66.66,0,0,1,13.61,48.91Zm3.3,1.78c.5,0,.7.42.5.94-.4,1.26-.6,1.26-2.1-.42-.8-.73-1-1-.7-1,.1,0,.3.1.4.1A6.91,6.91,0,0,0,16.91,50.69Zm3.3-11.86a.66.66,0,0,1-.6.63c-.3,0-.6-.21-.6-.31s.3-.42.6-.63c0-.1.1-.1.2-.1S20.21,38.52,20.21,38.83Zm-8,.63c.5,0,.6.31.4.94s-.6.94-.8.94-.4-.42-.4-.94A.91.91,0,0,1,12.2,39.46ZM10.6,44a1.09,1.09,0,0,0,.3-1.26c-.2-.63.2-.84,1.6-.84s1.7-.21,1.2-.73-.5-1-.1-1.89.4-1.15-.3-1.15c-.5,0-.9-.31-.9-.63s.2-.63.4-.63a6.48,6.48,0,0,0,2.3-1.78,4,4,0,0,1,2.2-1.47c.2,0,.4.11.2,0a2.36,2.36,0,0,0,1.7.1c.7-.31.8-.1.5.73a8.66,8.66,0,0,0-.4,1.78c0,.42-.4.52-.9.31s-.8-.1-.6.21-.2,1-.9,1.68-1.1,1.47-.9,1.89a.9.9,0,0,1-.4,1.15c-.5.31-.5.42.1.73s.6.63.1,1.26a2.12,2.12,0,0,0-.3,1.89c.3.84.1.94-1.1.73s-1.4-.1-.9.52a.84.84,0,0,1-1.1,1.26c-.2-.21-.8-.1-1.3.21-1.3.84-1.5.1-.2-.94,1-.84,1-.94.1-.94C9.9,46.18,9.6,44.6,10.6,44ZM9.1,42.82a5.57,5.57,0,0,1,.9-2.2c.2-.1.3.42.1,1.78s-.5,2.2-.8,2.2S8.9,43.87,9.1,42.82Z"/></g><g id="layer1-2" data-name="layer1"><path d="M295.4,27c0-.21-.8-.52-1.8-.52s-1.6.1-1.4.42C292.6,27.6,295.4,27.6,295.4,27Z"/><path d="M237.35,4.51c-.3-.1-.5.1-.6.42-.2,1-1.7,1.68-2.9,1.26s-1.1-.31-.4.63.7.94-.3.63c-.6-.21-.3.21.8.94,2.1,1.47,2.6,2.73.8,2.2-1.2-.31-2.5,1.15-1.3,1.57.6.1.6.42,0,1.15s-.6.94.4.84c1.4-.21,3.3.63,3.3,1.36,0,.31-.6.84-1.3,1.26-1.1.52-1.4.52-1.9-.42s-.7-.84-1.1-.21a1,1,0,0,0,.2,1.36c.5.42.5.73-.2,1.15s-.8.63.1.63c.5,0,1-.21,1-.63s.5-.52,1.2-.31c.9.21,1.2.1,1.2-.63a.92.92,0,0,1,.9-.94c1.1,0,1.2,1,.2,1.36a.74.74,0,0,0-.3,1c.7,1,1.8.94,1.4-.21s.6-1.89,1.2-.84a7.35,7.35,0,0,0,1.5,1.68c.9.73,1,.73.6-.31-.3-.84-.2-1,.5-.73,1.2.52,1-1.36-.3-2.1-.7-.42-.8-.31-.6.73.5,2-.7,1.36-1.5-.84-.4-1.36-.5-2.2-.1-2.31.9-.31.7-1.36-.3-1.36a.92.92,0,0,1-.9-.94c0-.52-.3-.94-.6-.94-.8,0-.8,1.47.1,2.41s.3,1.68-1.2,1.15c-1.8-.63-1.9-1.68-.4-4.93a13.7,13.7,0,0,0,1.3-4.72,5.27,5.27,0,0,1,.5-2.73c.2-.42.4-.63.3-.63s-.3.1-.4.42a1.76,1.76,0,0,0-.7,1.78C237.75,4.3,237.65,4.62,237.35,4.51Zm-1.8,4c-.2,0-.3-.42-.1-.94a1.5,1.5,0,0,1,1.1-.94c.2,0,.3.21.3.52A1.53,1.53,0,0,1,235.54,8.5Z"/><path d="M231.54,3.36a4.13,4.13,0,0,1,3.7-2.1c1.2-.1,2.2-.31,2.2-.63s-1.5-.42-3.3-.31c-3,.21-3.6.52-3.2,2a2.72,2.72,0,0,1-.9,1.78c-.6.63-.8,1.15-.5,1.15S230.74,4.41,231.54,3.36Z"/><path d="M294.7,21.93c.9,1.15,2.2,1.36,2.7.42.2-.31,0-.42-.5-.21-1.3.52-2.5-.42-1.5-1,.4-.31.7-.63.5-.84s-.1-.1-.2-.1a3.57,3.57,0,0,0-.9.21C294.1,20.88,294.1,21.09,294.7,21.93Z"/><path d="M291.3,25.29c.3-1.26-.8-1.47-2-.31-.4.42-.6.52-.4.1s-.1-1.15-.7-1.78c-.5-.42-.8-.73-.9-.63s-.1.52,0,1.15a5.4,5.4,0,0,0,.5,2.2C288.39,27.08,291,26.55,291.3,25.29Z"/><path d="M292.4,21.93c.2.1,1.4,1.26,2.8,2.62s2.5,2.2,2.5,2c0-.63-4.3-4.83-5-4.83C292.4,21.72,292.3,21.83,292.4,21.93Z"/><path d="M290.29,29.49c1.6.42,1.7.42.6-.42a3.42,3.42,0,0,0-1.6-.63H289C288,28.86,288.09,29,290.29,29.49Z"/><path d="M285.09,24.77c-.3.1-.3.52.4,1.47s2.8,2.1,2.8,1.57a16.21,16.21,0,0,0-1.5-1.89C286,25.08,285.39,24.66,285.09,24.77Z"/><path d="M245.45,14.69c-.5-1-.7-1.15-.7-.31,0,1.36,2.2,3,3.9,3a3.92,3.92,0,0,0,2.3-1.26c1-1.26,5.4-1.68,6-.63.2.31,1.3.42,2.4.31,1.5-.21,2.1-.1,2.1.52s.6.94,1.3.94c2.7.1,4.7.52,5.1,1,.3.31.2.31-.2.1s-.8-.1-.9.21-.9.21-1.9-.31c-2.2-1.15-2.4-1.15-2,0a1.08,1.08,0,0,1-.2,1.26c-.2.21-.6.1-.7-.31s-1.3-.73-2.5-.73c-1.7,0-2.2-.21-2.1-.94a1.14,1.14,0,0,0-.6-1.26c-.6-.21-.7.1-.2,1.36s.4,1.78-.2,2a1.56,1.56,0,0,0-.8,1.26c0,.42.2.73.5.52.8-.52.6.63-.3,1.89-.7,1-.9,1-1.8.1-1.3-1.36-3.1-1-3.3.63-.2.94-.1,1,.4.31s1-.84,2.3-.31a3.84,3.84,0,0,0,3.6-.52c1.6-.94,1.9-1,1.9-.21,0,.52.2.94.5.94.8,0,.7-2.1-.1-3.15-.5-.63-.5-.73.1-.42.4.31.7.1.7-.52,0-.94.2-.94,1.5,0,.8.63,1.3,1.36,1.1,1.68s-.6.31-.9-.21-.5-.63-.3.1a1.21,1.21,0,0,0,1.2.84,1.44,1.44,0,0,1,1.3.84c.1.52,0,.73-.3.52s-.6.1-.5.73c.2,2.73-.1,4.62-.9,4.62s-1.6,1.68-2.5,4.93c-.2.73-.6,1.47-.9,1.47a4.12,4.12,0,0,0-1.2.21,5.74,5.74,0,0,1-1.2.21c-1,.1-.4,2.94.7,3.78a2,2,0,0,1,.7,2.1c-.2.73-.3,1.26-.1,1.26s.5-.52.7-1.26a4.92,4.92,0,0,0,0-2.41c-.2-.84.2-1.36,1.5-2a29.25,29.25,0,0,0,4.9-3.67c3.5-3.15,3.9-2.94,4,2,0,1.89.4,2.73,1.4,3.36s1.2.63.6,0a3.91,3.91,0,0,1-.7-2.31c0-1.26.2-1.36,1.5-1.15s1.4.1.8-.63a2,2,0,0,0-1.7-.73c-.7.1-1.1-.42-1.2-1.36s0-1.36.6-.94.7.31,0-.52c-.9-1.15-.7-4.62.2-4.62a6,6,0,0,0,1.8-.84c1.1-.73,1-.73-.6-.42s-1.8.31-.8-.73.9-1.15-.5-2.62c-1.8-1.78-1.7-1.89,1.3-2.31a6.41,6.41,0,0,0,3.4-1.36c1-.94,1.1-.94.7,0-.2.52-.1,1,.2,1s.8-.52,1-1.15c.2-.84.7-1,1.8-.84,1.6.42,1.9,1.15.7,1.68-.4.21-.1.42.6.42a3.19,3.19,0,0,1,2.2,1.36l.9,1.36.4-1.36c.4-1.15.6-1.26,1.3-.63.4.42.8.52.8.21s.6-.84,1.3-1.15,2-2,2.9-3.78c1.4-2.73,1.5-3.36.9-4.62-.4-.84-1-1.47-1.2-1.36s-.7-.42-.9-1.15c-.6-1.47,1.3-2.31,2.5-1.15.7.52.7.52.1-.31a2.49,2.49,0,0,0-2.5-.73c-1.4.21-2.2-.21-3.9-2.1-1.1-1.26-2.1-2.73-2.1-3.25s-.6-.84-2.4-.73c-2.5.1-3.5.73-2.4,1.47.9.52.8,1.57-.2,1.57-.4,0-.9-.52-1.1-1.15-.2-.94-.2-.94-.3-.1,0,.63-.7,1-2,1-1,0-2.4.1-3,.1a8.45,8.45,0,0,1-2.8-.73c-1.5-.73-1.6-.84-.7-1.57s.7-.84-1.5-.84c-1.4,0-2.2.1-2.2.52s.4.52.8.31c1-.42,1.8,1.78.8,2.41-.6.42-.5.52.2.52a1.81,1.81,0,0,0,1.4-.63c.6-.94,1.5-.84,1.5.21a1.46,1.46,0,0,0,.9,1.26c1.1.42,1.3,1.68.3,1.68-.4,0-.5-.31-.3-.63.5-.84-2.1-1.47-2.8-.73-.5.52-.9.42-1.5-.21-1-1-2-1.15-2-.21,0,.31.2.52.5.31s.8,0,1.2.52a1.4,1.4,0,0,0,1.5.52,2.26,2.26,0,0,1,1.8.73c.9.94.9,1.15-.1,3.36-.7,1.57-1.2,2-1.4,1.36a2.63,2.63,0,0,0-2.1-1.15c-1.1-.1-1.5,0-1.1.31s.2.73-1,1.26-1.8.52-1.8.1-.5-.42-1.3-.1a19.47,19.47,0,0,1-4.5.63c-2.2.1-3.6.42-4.5,1.36a7.52,7.52,0,0,1-2.9,1.68C246.45,16.06,246,15.85,245.45,14.69ZM258.67,20c-1.3,1.47-1.5,1.47-1.5.31a1.52,1.52,0,0,1,1.2-1.26,2.45,2.45,0,0,1,.7-.21C259.57,18.79,259.37,19,258.67,20Zm3.2,14.38c-.9.63-1.3.31-.8-.63a.67.67,0,0,1,.7-.42c.1,0,.2.1.3.1C262.47,33.79,262.37,34.11,261.87,34.42ZM281.49,1.26c.1.1.2.1.3.21a1.58,1.58,0,0,1-1,2.52,1.55,1.55,0,0,1-1.3-.73C279,2.41,280.59,1,281.49,1.26Zm-8.41,3.57c.4,0,.7.21.5.52s.4.52,1.2.52c1.1,0,1.4-.21,1.2-.84a1,1,0,0,1,.3-1.26c0-.1.1-.1.2-.1s.4.31.5.94.3.84,1,.42c1.4-.84,9.11,1.57,8.71,2.62-.1.21.2.84.7,1.36,1.3,1.36,1.2,2.1-.4,2.2-.9,0-1,.1-.4.31s1.2,1.15,1.4,2.83c.5,2.73-.1,3.46-3.2,4.3-2.6.73-3.1.63-2.9-.52a1,1,0,0,1,1.2-.94c.5,0,1-.21,1-.52,0-.94-1.4-.84-2.3.1-.6.52-.9.52-1.3-.21s-.6-.73-.6-.21c0,.94-1.9.31-2.6-.84a1.82,1.82,0,0,0-1.4-.84c-.7,0-.8-.21-.3-.84.8-.94.3-1.68-1.2-1.68s-2-1-1.2-2.1c.4-.52.5-1,.3-1.26s0-.84.4-1.36c.7-.73.6-.94-.1-.94a1.48,1.48,0,0,1-1.2-.84A.57.57,0,0,1,273.08,4.83ZM270.38,15c.1,0,.2,0,.4.21a4.87,4.87,0,0,0,1.7.31c.4,0,.8.31.8.63s-.6.63-1.3.63c-1.2,0-1.3.1-.3.84,1.1.94,1.4,2.31.4,2.31-.3,0-.6-.42-.6-.84s-.2-.52-.6.1-.6.73-.6-.31a27.06,27.06,0,0,0-.2-2.73C270,15.43,270.08,15,270.38,15Zm-1,3.88c.4.1.5.63-.1,1.15s-1.4.52-1.4-.1c0-.31.4-.73.9-.94A1.69,1.69,0,0,1,269.38,18.89ZM267.47,13c.1-.1.1-.1.2-.1.5-.1,1.4.73,1.3,1.26s-.3.42-.9-.1S267.27,13.22,267.47,13Zm-9.61,1.15a23.3,23.3,0,0,1,2.6-.1,12.46,12.46,0,0,1,3,.42c3.5.63,4,.84,3.6,1.57a1,1,0,0,1-1.8,0,1.81,1.81,0,0,0-1.4-.63C261.77,15.43,256.86,14.27,257.86,14.17Z"/><path d="M293.6,39.46q0-.31-.6-.31c-1.1-.1-3.3.31-3.8,1-.3.31-.4.52-.3.42s1.3-.1,2.5-.31S293.6,39.78,293.6,39.46Z"/><path d="M262.27,23.72a5.86,5.86,0,0,0-1.9,1.57c-1.5,1.47-1.7,1.47-2.4.42s-.7-.94-.4.31c.2.84.7,1.47,1.2,1.47s.8.21.8.52c0,.63,1.5.63,2.5,0,.6-.31.5-.52-.4-.52-1.2,0-1.2,0,0-1s1.1-1,0-.63-1.2.42-.1-.84C262.37,24,262.57,23.61,262.27,23.72Z"/><path d="M251.56,35.79c1.8.42,2.2-.94.7-2-1.2-.73-1.2-.84-.1-2.1.6-.73.8-1.15.4-.94s-.9-.31-1.3-1.15-.8-1.36-1.2-1.47-.8.31-1.4,1.15a1.46,1.46,0,0,1-1.9.84c-.9-.31-1.1-.1-.8.42a1.87,1.87,0,0,0,1.9.52c1.5-.31,2,.42.7.94-.6.21-.5.63.3,1.47,1,1,1.1,1,.7.1-.4-1.15.6-1.57,1.2-.52s-.3,2.62-1.1,2.2c-.3-.21-.1.21.5.94,1.4,1.57,2.1,1.89.9.31C250.36,35.58,250.36,35.47,251.56,35.79Z"/><path d="M276.88,44.39c0-.31-.5-.63-1.2-.63s-1.2-.31-1.2-.63c0-.73-1.9-1.57-3-1.47-.2,0-.3.1-.5,0-.6.31-.6.52,0,1.26,1,1.26,1.2,2.83.5,3.67s.1,2.41.9,2.2c1.3-.21,1.6.21.8,1.15s-.7,1,.3.63a2.27,2.27,0,0,1,2,.31c.8.73.9.52.7-1.36s0-2.2,1-2,1,.1.4-.73-.6-1,.3-1.26,1-.31,0-.42C277.38,45,276.88,44.71,276.88,44.39Z"/><path d="M278.28,25.61c-.2,0-.2.21-.2.42,0,.42-.3.63-.6.42-.7-.42-3.2-1-2.9-.63a3.29,3.29,0,0,0,.8.31,15.43,15.43,0,0,1,1.6.73c.6.31,1.1.31,1.4-.1a1,1,0,0,0,0-1A.1.1,0,0,0,278.28,25.61Z"/><path d="M276.88,24.24c1.4-.31,1.4-.42.2-.73a3.59,3.59,0,0,0-1.1-.1,1.92,1.92,0,0,0-.9.21C274,24.24,275.18,24.66,276.88,24.24Z"/><path d="M254.16,38.41c0-.63.3-.84,1-.52s.8.21.6-.21a1.59,1.59,0,0,0-1.3-.63c-.9-.1-1.9.31-1.8.84C252.86,39.25,254.16,39.67,254.16,38.41Z"/><path d="M285.89,2.52a2.22,2.22,0,0,1,2,.31c.7.52.8.52.5-.31a1.5,1.5,0,0,0-1-.94,4.16,4.16,0,0,0-1.7.63C284.89,2.83,285,2.83,285.89,2.52Z"/><path d="M293.2,9c.5,0,1.2.73,1.5,1.57.6,1.57,1.2,2,2,1.15s.4-1.47-.5-1c-.7.31-.8.1-.6-.52a1,1,0,0,0-.7-1.36,16.62,16.62,0,0,1-1.8-.73.36.36,0,0,0-.3-.1c-.2,0-.4.21-.5.42S292.7,9,293.2,9Z"/><path d="M272.38,2.2c.2,0,.3-.31.3-.63s.4-.52,1-.42a4.3,4.3,0,0,0,2.2-.31c.9-.31.6-.52-1.3-.52s-2.5.21-2.5.94C272.08,1.78,272.18,2.2,272.38,2.2Z"/><path d="M247.76,21.93c1-.31,2-2.1,1.2-2.1a8.16,8.16,0,0,0-2.2,1.26C245.05,22.25,245.45,22.56,247.76,21.93Z"/><path d="M261.67,8c1.6-.42,1.6-.52.4-.84-.1-.1-.3-.1-.5-.1-.6-.1-1,0-1.1.31a.63.63,0,0,1-.9.21q-.6-.31-.6.31C259,8.61,259,8.61,261.67,8Z"/><path d="M307.81,9.13c.4-.21-.8-.52-2.7-.52a9.4,9.4,0,0,0-3,.21C302.61,9.45,307,9.65,307.81,9.13Z"/><path d="M295,13.54a2.21,2.21,0,0,0,1.5.84c.5,0,.7.31.5.94s-.1.84.2.63c.9-.63,1.4.94.6,1.89-.5.63-.6.94-.1.94.3,0,.8-.73,1-1.57s.7-1.57,1.2-1.57.7.42.5,1.26-.5,1.89-.7,2.62c-.2.94-.7,1.26-1.5,1-1-.31-1.1-.21-.5.52.4.52.9.84,1.2.63.7-.42,1.2,2,.5,2.73-.4.42-.2,1,.7,2,1.2,1.36,1.2,1.47.3,3.57-.5,1.26-1.3,2.2-1.7,2.2s-.4.21.2.63c.8.52.7.84-.6,1.89A5.28,5.28,0,0,1,296.1,36a2.23,2.23,0,0,0-1.4.94c-.6.84-.4.94,1.6.94,2.2.1,2.2.1,1.1,1s-1.2.94.1.52c1.1-.31,1.2-.21.9.73s-.3,1,.5.31,1.1-.63,1.4-.1.6.42,1-.31c.4-.94.6-.94,1.4-.1a1.79,1.79,0,0,1,.6,1.47,1.52,1.52,0,0,0,.6,1.36c.5.42.8.94.6,1.26a.74.74,0,0,0,.3.94c.3.21.7-.1.9-.63a13.75,13.75,0,0,0,.6-1.89c.2-.63,0-.84-.7-.52s-.9.21-.6-.63c.2-.52.1-1-.2-1s-.5-.84-.4-1.78c.1-1.36-.1-1.68-.9-1.57-.5.1-1-.1-1-.52s-.2-.52-.6-.31a1.09,1.09,0,0,0-.3,1.26c.4,1.15-.8,1.78-1.6.94-.6-.73-.2-1.26,3.1-3.67,1.2-.84,1.5-.84,2-.1a5.6,5.6,0,0,1,.4,2.83c-.1,1.36,0,1.89.5,1.68,1-.42,1.4-4.51.5-5.77-.5-.84-.5-1.15.3-1.89s.9-.84-.1-.52c-.6.21-1,0-1-.52a1.18,1.18,0,0,0-.7-1.15c-.4-.21,0-.31.9-.31,1.7-.1,2.5,1,1.9,2.62-.2.52,0,.94.4.94s.5.52.3,1.15c-.3.94-.3.94.4.1a12.42,12.42,0,0,1,1.6-1.68c.7-.63.6-.94-.8-1.47s-1.6-.73-.7-1.78.8-1-1.8-1c-1.6.1-2.9.42-3,.84-.4,1.36-1.5.94-1.2-.42.1-.73,0-1.36-.4-1.57s-.4-.31.1-.31.6-.31.4-.63a.9.9,0,0,0-1.2-.31,1,1,0,0,1-1.3-.42c-.3-.42-.2-.52.2-.31a.75.75,0,0,0,1-.21,2.25,2.25,0,0,1,3.2.1,1.05,1.05,0,0,1,.1,1.47c-.4.52-.1.73,1.1.73h1.7l-2.2-2.31a10.66,10.66,0,0,1-2.4-3.57c-.2-1,.1-1.26,1.7-1.15,1.3.1,1.9-.21,1.9-.84s.3-.73.9-.52,1.2.52,1.6.73a3.65,3.65,0,0,0,2.2-.94c1.2-1,1.2-1.26.4-1.26a1,1,0,0,1-1.1-.84c0-.52-.1-.52-.5.1a2,2,0,0,0-.2,1.68c.3.63-.1.63-1.5-.1-1.7-.94-2.6-2.52-1.1-2a1.51,1.51,0,0,0,1.4-.42c.5-.42.4-.84-.3-1.36-1.4-1.15-.4-1.78,2-1.26,2,.42,3,1.68,1.4,1.68-.4,0-.3.31.3.63a1.64,1.64,0,0,0,1.6.31c.7-.52,2.4.21,2.4.94,0,.31-.6.63-1.3.63-1.3,0-1.3.1-.2.73.9.52,1.2.52,1.8-.31s.9-.84,1.5-.21.6.63,0-.31c-.8-1.15-.5-2.41.6-2.41.4,0,.5.42.3.94-.3.73.2.63,2.1-.42,2.1-1.15,2.4-1.15,2.1-.31s-.2.84.8.31a4.28,4.28,0,0,1,5,.84c1,.94,1,1.15,0,2.52-1.1,1.57-3.8,3.25-3.8,2.31,0-.31.5-.94,1.2-1.47a2.51,2.51,0,0,0,1-2.31c-.3-1.89-1.7-2.41-1.7-.63,0,.94-.4,1.36-1.2,1.36a12.79,12.79,0,0,0-3.4,1l-2.2,1,1.8.42c1,.31,1.8.73,1.7,1a3.07,3.07,0,0,0,.9,1.47c.9.84.9.84.6-.1s-.1-.94.8-.73a4,4,0,0,0,2.2-.21,7.5,7.5,0,0,1,2.4-.52,2.9,2.9,0,0,0,1.9-1c.4-.73.6-.73.6.31s.1,1,.6-.21a3.51,3.51,0,0,0,.2-2.2c-.2-.52.3-.73,2.1-.52,1.3.1,2.4,0,2.3-.31-.3-1.47.2-2.1,1.3-2.1.9,0,1.1.31.9.94s0,.94.5.94a.62.62,0,0,0,.16,0V11.24c-.5,0-.75.22-.66.41.4.63-2.5,2-3.2,1.57-.3-.31-1.1.1-1.8.84a4.31,4.31,0,0,1-2.6,1.26c-1.2,0-1.2-.1-.1-.63.9-.42.9-.52-.5-.21-1.9.42-2.8-1-1.6-2.52a1.63,1.63,0,0,0,.3-1.57c-.2-.31-.1-.63.3-.63s.2-.42-.3-.94c-1.3-1.36-1.2-1.89.4-1.89,2.2,0,3,.84,2.1,2.1-.7.94-.7.94.2.21a3.49,3.49,0,0,0,.7-4.83l-1-1.57,1.7.73c1,.31,1.8.63,1.9.63.8-.31.7.1-.2.84-1.1.84-1.1.94.3.52s1.4-.31.7.63c-.5.63-.6,1-.3,1,.5,0,2.8-3.78,2.5-4.09-.1,0-1.9-.31-3.9-.52-3.3-.42-3.7-.31-3.4.52a2.56,2.56,0,0,1-.6,2.1c-1,1.15-4.5,1.68-5.1.73-.2-.31-1,0-1.9.84-1.4,1.26-1.5,1.47-.6,2.1s.9.84.1,1.89-.8,1.15.1.42,1.1-.52,1.3.42-.1,1.26-2.2,1.26-2.3-.1-1.3-.52.8-.63-.8-.42c-1.9.21-2,.1-1.6-1.36s.4-1.57-.8-.42c-1,.94-1.4,1-2.1.42-.5-.52-.9-.52-1.2-.1-.8,1.36-1.6.63-1.2-1,.5-2.2,2-4,3.2-4,.7,0,.7.21-.2,1.26-1.1,1.26-1.1,1.26.1,1.26.9,0,1.1-.42,1-1.57C317.52,4,319.32,2.62,322,3c2,.31,2.1.31,1.1-.52s-1-.94.7-.94a4,4,0,0,1,2.5.73c.4.42.7.52.7.21,0-1.15-2.2-2.2-4.6-2.2-2.1,0-2.5.1-2,1.36.3.84.1.94-.5.52a3,3,0,0,0-1.9-.42c-.5.1-1,0-1-.31s-.5-.63-1.2-.63c-.9-.1-1.2.31-1.2,1.47a7.71,7.71,0,0,1-1,3.15c-.5.94-.8,1.78-.6,2,.4.42-1,2.1-1.8,2.1-.3,0-1.1.73-1.9,1.57-1.3,1.47-1.4,1.47-2.8.52-1.6-1.15-1.9-.84-.5.63.8.84.8.94-.1.94-.7,0-.9.31-.7,1.26.2.73.1,1.15-.1,1s-.8.31-1.4.94c-1.1,1.26-.6,1.68.6.42.5-.52.9-.52,1.6.1.9.84.9.94,0,1.47a3.15,3.15,0,0,1-2.7-.21c-1.6-.73-1.7-.84-.8-1.89s.8-1.15-1.5-1.36c-1.4-.1-2.6.1-2.7.42s-.3,0-.3-.73c0-1-.5-1.47-1.8-1.68S294.5,12.91,295,13.54Zm8.41,17.11c.1-.1.1-.1.2-.1a2.73,2.73,0,0,1,1.2,2.31c0,.31-.4,0-.9-.63S303.21,30.85,303.41,30.64ZM324,19.84c-.3,0-.6-.21-.6-.31s.3-.42.6-.63c0-.1.1-.1.2-.1a.38.38,0,0,1,.4.42A.66.66,0,0,1,324,19.84Zm.1-11.54c.1-.42,1.1-.94,2.2-1h.9c.7.1,1,.31.7.63a2.07,2.07,0,0,0,.6,1.68c.7.73.7,1-.2,2-1.1,1.15-2.5,1.57-2.6.73a10,10,0,0,1-.3-1.68,2,2,0,0,1,.5-1.78c.4-.31.1-.31-.7-.1C324.23,9,323.93,8.92,324.13,8.29Zm-11.81,3.46a5.59,5.59,0,0,0,1,.1c1.6.42,3.7,2.2,2.7,2.2a6.29,6.29,0,0,1-2.4-1.26C312.52,12.07,312.11,11.75,312.31,11.75Zm-10.41,6.82c.7,0,1.1.31.9.63a1,1,0,0,1-1.8,0C300.8,18.89,301.2,18.58,301.91,18.58Zm-.2,2.62c.5.84.5,1.26.1,1.26s-.4.31-.2.73.1.63-.3.42a2.79,2.79,0,0,1-.9-2c-.1-1,0-1.57.2-1.68S301.3,20.25,301.71,21.2Z"/><path d="M339.14,31.48l-1.9-.1c-1.2-.1-1.9.21-1.8.94,0,1.36.8,1.47,2.3.31Z"/><path d="M327.93,39.46c.3,0,.7.52.9,1.26a1.6,1.6,0,0,0,1.3,1.26c.6,0,1,.31,1,.63a.66.66,0,0,0,.6.63,1.33,1.33,0,0,0,.9-.63.39.39,0,0,0-.3-.63,4.12,4.12,0,0,1-1.8-1.26c-1.3-1.36-1.2-3.46.4-6.09.5-.84.6-1.57.3-1.78H331c-.5.1-1.2,1.26-1,1.68a12.8,12.8,0,0,1-1.3,2.52C327.93,38.41,327.63,39.46,327.93,39.46Z"/><path d="M340,18.87v-.34a.45.45,0,0,1-.16-.59c.2-.31-.1-.42-.5-.42-.2,0-.3,0-.4.1-.8.1-1.6.31-1.9.31s-.4.42-.2.94,0,.94-.5.94a1.3,1.3,0,0,1-1.2-.94,1.18,1.18,0,0,0-1-.94c-.5,0-.3.42.3,1.15s.8,1.36.5,1.47-.1.21.3.1.7.21.5.73,0,.94.8.84,1-.31.5-.94-.3-.84.9-.84c1,0,1.4-.21,1.2-.84S339.2,18.83,340,18.87Z"/><path d="M333.43,24c-.1-.1-.5.21-1,1a16.53,16.53,0,0,1-2.7,2.31c-.9.52-1,.73-.3.73a2.52,2.52,0,0,0,1.6-.73,3.29,3.29,0,0,1,2.2-.73,2.62,2.62,0,0,0,1.9-.52c.2-.31-.2-.52-.9-.52-.9,0-1.1-.31-.8-1.15C333.53,24.24,333.53,24,333.43,24Z"/><path d="M338.34,56a2.44,2.44,0,0,1-1.9-.63,1.52,1.52,0,0,0-1.1-.63,3,3,0,0,0-1.5.42l-1.7.73,1.7-.21a3.4,3.4,0,0,1,2.7.84c.9.84,1.1.94,1.8.1S339,55.73,338.34,56Z"/><path d="M320.82,48.38c.1.1.1-.31-.1-1s0-1.26.4-1.36,1.7-.21,2.8-.31a15.44,15.44,0,0,0,3.1-.73c.8-.31,1-.1,1,1.26s-.2,1.68-.9,1.36-.9,0-.9.52-.3.94-.6.94a.66.66,0,0,1-.6-.63.66.66,0,0,0-.6-.63c-.3,0-.4.42-.2.94s0,.94-.9.94c-1.5,0-1.5,0-.5,2.1.5.94,1,1.47,1.2,1.26.4-.42,2.8,2.2,2.8,3s-1.6.63-2-.1c-.2-.31-.3-.21-.2.21s.7,1.15,1.4,1.47c1.33.65,1.56,1.06,1,2.38h.88c.61-1.24,1.82-2.7,2.46-2.7,1.5,0,1.9-.94.9-2.31-.5-.63-.7-1.47-.4-1.78.9-1.15,1.4-3.67.7-3.25-.9.63-.8-.63.2-1.47,1.2-1,1.8,1,1.3,3.88l-.4,2,1.7-2a13.14,13.14,0,0,1,2.6-2.31c.7-.31.7-.42.1-.42-1.2-.1.3-2,1.6-2,.9,0,.9-.1.1-.63-.6-.42-.7-.63-.1-.63.39,0,1-.89,1.36-1.89V38.14a4,4,0,0,1-.86.17c-.4,0-.5.84-.4,1.89.2,1.57.1,1.78-.8,1.26s-.9-.63,0-2.41c.5-.94.8-2,.5-2.31-.6-.63-1.7,1-1.2,1.89.2.31-.5.42-1.8.21-1.9-.31-2-.31-1.3.52a2.61,2.61,0,0,0,1.6.94c.7,0,.7.1,0,.52s-.7.63,0,.84c.45.19.56.46.44.74a1.24,1.24,0,0,1,.16-.11c.2,0,.3-.1.4-.1q.45,0,.3.63c-.2.52-.6,1.36-.8,2-.3.84-.2.94.4.52s.7-.42,0,.52c-1,1.26-1.7,1.36-2.1.1-.2-.52-.1-.94.2-.94s.6-.52.6-1.15a1.94,1.94,0,0,1,.58-1.27,1.71,1.71,0,0,1-1.18-.52c-.9-.84-1-.73-.6,1.15.3,1.47.2,1.89-.3,1.57a4.64,4.64,0,0,0-1.7-.52c-1-.11-4.6-2.83-3.7-2.83.3,0,0-.52-.7-1s-.9-1-.4-1.26.5-.73-.4-1.89a5.64,5.64,0,0,1-1.2-2.52c0-.52-.3-.73-.6-.52s-1,0-1.6-.42c-.9-.63-.9-.63-.3.1,1.2,1.36.9,2.52-.6,2.52-1.2.1-1.2.21-.4.84a1.71,1.71,0,0,1,.7,1.47,1.2,1.2,0,0,0,.4,1.15c.4.21.5,0,.3-.52a1.11,1.11,0,0,1,.3-1.36c.8-.52.8,2.83,0,5a2.28,2.28,0,0,1-.22.37.43.43,0,0,1,.32-.16c.3,0,.7-.73.9-1.68s.3-1.36.7-1.26a4,4,0,0,1,1.1.52c1.9,1.36,1.9,2.1-.3,2.83-2.7.94-2.9.94-2.9.21a.75.75,0,0,1,.06-.28,5.21,5.21,0,0,1-4.76,1.75c-.3-.1,0,.42.6,1.26S320.72,48.17,320.82,48.38Zm4.7,2.31c-.3.42-.7.42-1.2-.1s-.6-.73.1-.94a1.87,1.87,0,0,1,.7-.1C325.73,49.64,325.93,50.06,325.53,50.69Zm2.3.1a1.51,1.51,0,0,1-1,.63c-.3,0-.4-.31-.2-.63a1.51,1.51,0,0,1,1-.63C328,50.17,328,50.48,327.83,50.8Zm.6,1.47c.1,0,.2.21.5.63a2.36,2.36,0,0,1,.2,1.78c-.6,1-.9.63-.9-1.15C328.23,52.58,328.23,52.16,328.43,52.26Zm-3.6-16.06c-.1,0-.4-.31-.6-.63a.39.39,0,0,1,.3-.63.59.59,0,0,1,.6.63C325.13,35.89,324.93,36.21,324.83,36.21Z"/><path d="M324.63,58.14c0-.52-4.1-7.35-4.5-7.35a4.21,4.21,0,0,0,.5,1.78C321.42,54.57,324.63,59,324.63,58.14Z"/><path d="M320.92,32.22a.57.57,0,0,1-.4-.84c.4-.63,2.2-.1,2.8.84.5.73,4.7,0,4.7-.84a1.13,1.13,0,0,0-.6-.94,1.79,1.79,0,0,1-.3-1.68c.3-1,.2-1.15-.5-.52s-.8.52-.8,0a.69.69,0,0,0-.6-.73c-.3,0-.4.42-.2.94s.1.94-.2.94c-.9,0-1.3-2.62-.7-3.88.3-.63.3-1.26,0-1.47s-.7.52-1.1,1.78c-.4,2.1-1.9,4.3-2.9,4.3s-2.3-1.68-1.8-2.2c.2-.21,0-.21-.4,0-.6.31-.6.73.1,1.89,1.1,1.78.3,2.83-2.1,2.83a2.86,2.86,0,0,0-2,.63c-.2.31.6.52,1.8.52s2.2-.31,2.4-.63a3.23,3.23,0,0,1,1.9-.52C320.92,32.53,321.32,32.43,320.92,32.22Z"/><path d="M213.42,29.18c-.1-.1-.1-.21-.2-.21s-.6.52-1.1,1.47c-1.1,2.31-1,2.62.5.84A3.11,3.11,0,0,0,213.42,29.18Z"/><path d="M208.32,46.39c-1.1,0-1.5,2.62-.6,3.25s1.7.63,3.2-.1c1.2-.52,1.2-.52,0-.42-1.6.1-2.7-.63-2.3-1.78C208.82,46.81,208.62,46.39,208.32,46.39Z"/><path d="M230,27.08c.6,0,2.3,1.57,2.3,2.2,0,.1-.4.31-.9.31-1,0-1.1.73-.5,3.67.5,2.62,1.4,1.89,1-.84-.4-2.31.2-3.15,1.6-2.2.6.42.6.63.1.63a.7.7,0,0,0-.7.73c0,.31.3.52.8.31a.92.92,0,0,1,1.2.63c.6,1.78.3,4-.6,4.41-.7.31-.7.52-.2,1.26s.4,1-.4,1.68-.9,1-.3,2.2.6,1.57,0,2.31c-.4.63-.5.94-.1.94s.7-.42.9-.94c.7-1.68,1.8-1,1.5.94-.2,1.36,0,1.89.7,2.1s1-.21,1.1-1a3.43,3.43,0,0,0-.5-2.1c-.3-.52-.4-.94,0-1.15s.5-.94.3-1.68-.5-1.15-.8-.94-.6-.21-.8-.73c-.6-1.57-.4-2.2.5-2.2.5,0,.8-.31.6-.84s.4-1.68,1.2-2.62c1.9-2.1,1.9-2.41.3-2a2.36,2.36,0,0,1-2.2-.63c-1-1.15-.8-1.47,1.1-1.68,1-.1,1.4.1,1.3.63s.1.63.4.42a3.07,3.07,0,0,0,.6-2c0-1.36-.1-1.57-1.6-1.15s-1.5.31-.8-.63c1.1-1.26,3.1-1.36,3.1-.1s1,1.15,1.7-.1c.5-.94.7-.84,1.4.21s3.3,2.62,2.6,1.47a.74.74,0,0,1,.3-.94c.3-.21.6.1.6.63s.3.84.6.63.4-.63-.1-1.26-.9-.73-1.2-.52-.5-.21-.5-.94a1.87,1.87,0,0,1,.9-1.68,1.48,1.48,0,0,0,.9-1c0-.42-.3-.31-.8.1-1,.94-3.9,1.57-3.9.94a3.07,3.07,0,0,1,.9-1.47c.7-.84.6-.94-.9-1-1.3,0-1.7.21-1.6,1.15.1.63.4,1.15.7,1.15s.4.21.2.42-1-.1-1.9-.73c-1.6-1-1.6-1-1.2.21.3,1,.2,1.36-.5,1.36-1,0-1.2-.94-1-3.67,0-.73-.1-1.15-.3-1.15s-.2,0-.5.42a.77.77,0,0,0-.3,1c.3.42-.1.52-1,.21-1.2-.31-1.2-.21-.4.31a1.58,1.58,0,0,1,.6,1.78c-.6,1.68-1.3,1.89-4.2,1.57-1.8-.21-2.6,0-2.3.42A1.51,1.51,0,0,0,230,27.08Zm6.51,14.27c.1,0,.4.31.6.63a.39.39,0,0,1-.3.63.66.66,0,0,1-.6-.63C236.24,41.66,236.44,41.35,236.54,41.35Z"/><path d="M198.61,29.18a2.82,2.82,0,0,0-2-.94H196c-.4,0-.2.21.9.84C198.81,30.23,199.51,30.23,198.61,29.18Z"/><path d="M205.32,30.75c1.8-.42,1.2-1.15-1.1-1.15-1.2,0-1.9.1-1.6.21s.7.73.7,1.47c0,.94.3,1.15.9.94s.9-.1.9.21a1,1,0,0,1-.7.84c-.4.1-.6.42-.4.63s.9-.1,1.6-.63c1.7-1.26,1.7-2.1,0-2.2Q204.11,31.06,205.32,30.75Z"/><path d="M199.11,44.71a3.26,3.26,0,0,0-1.2-.52,4.59,4.59,0,0,1-1.5-.63c-.1,0-.2-.1-.3-.1-.3,0-.5.31-.4.84,0,1.47-.2,1.57-2,.52-1.2-.63-1.2-.63-.5.31,1,1.26,2.4,1.36,2.8.21.2-.52.9-.73,1.9-.52S199.31,44.92,199.11,44.71Z"/><path d="M204.82,42.71c.2-.52.3-1.15.1-1.36s-.3-.1-.3.21-.7-.21-1.5-1.15-1.1-1.15-1.3-1.15-.2.21-.2.31c0,.84-.4.94-1.3.63-1.1-.31-1.2-.31-.5.52a2,2,0,0,0,1.8.63c.6-.21,1.4.31,1.9,1C204.32,43.66,204.52,43.66,204.82,42.71Z"/><path d="M216.13,22.35a1.68,1.68,0,0,0-1.2.73,1.13,1.13,0,0,1-1.2.52c-.4-.1-.8,0-.8.31s-1,.84-2.3,1-2.5.84-2.7,1.36c-.4,1.15.6,1.26,1.2.21.3-.52.5-.42.8.21a1.26,1.26,0,0,0,1.4.73c.5-.1,1-.52,1-.94s.9-1.36,2.1-2,2.1-1.36,2.1-1.68A.47.47,0,0,0,216.13,22.35Z"/><path d="M204.52,45c-.7.42-.2.63,1.6.52,1.4-.1,2.4-.31,2.2-.63s.4-.84,1.3-1.26c1.4-.63,1.5-.84.5-1.15a.87.87,0,0,0-.5-.1c-.5,0-.9.31-1.4.84a2.5,2.5,0,0,1-1.8,1.15A4.53,4.53,0,0,0,204.52,45Z"/><path d="M168.88,12.07c.2.21.5-.1.7-.63s.7-1,1.1-1,1.7-1,3-2.31c1.8-1.78,2.2-2.52,1.9-3.78-.2-.73-.6-1.47-.9-1.47-1.3,0-.4-1.89,1.1-2.1,1-.21.7-.31-.7-.21-2.4.1-2.4.1-2.5,2.41a10.23,10.23,0,0,0,.5,3.36c.3.73.3.94-.1.73a3.49,3.49,0,0,0-2.3.42c-1.4.63-2,.84-2,1.15,0,.1.3.31.6.52.7.52.7.73,0,1.57C168.88,11.23,168.68,11.86,168.88,12.07Z"/><path d="M240.65,30.43c-.4,1.47-.1,1.68,1.5.94a3.24,3.24,0,0,0,1.1-2.2c.1-1-.1-1.57-.4-1.68C242.35,27.29,241.35,28.44,240.65,30.43Z"/><path d="M169.08,33.06l1-1.47c.9-1.26.9-1.57.2-2.62-.4-.63-.8-.84-1-.84-.4,0-.5.94-.4,2.73Z"/><path d="M174.39,47.86l-1.4-.42,1.5-1.47c1.9-1.89,2.9-1.36,2.1,1-.5,1.15-.5,1.68,0,1.89s.5.52,0,1.15-.5.84,0,.84,1.1-.84,1.6-1.89a5.82,5.82,0,0,1,1.7-2.2c.5-.21.3-.42-.3-.42-1.1,0-1.3-1.26-.4-2.41.5-.52.4-.52-.1-.1-1.8,1.57-2.3-.42-.8-3.15l.8-1.57.1,1.57.1,1.57.4-1.57a2.86,2.86,0,0,1,1.9-2c.9-.31,1.1-.52.4-.52-1-.1-1.6-1.36-.6-1.36a6.48,6.48,0,0,0,2.3-1.78c1.2-1.26,2.1-1.68,2.6-1.36a2.36,2.36,0,0,0,1.7.1c.7-.31.8-.1.5.73a8.66,8.66,0,0,0-.4,1.78c0,.42-.4.52-.9.31s-.7-.1-.5.31-.2,1.15-.8,1.78c-1,.94-1.3,3.15-.8,5.67,0,.1.6-.42,1.2-1.26,1-1.36,1.3-1.47,2.1-.73s1.1.73,2.1-.42,1-1.36.2-1.68-.8-.52-.3-1.15c.7-.94.2-3.67-.8-4.41-.5-.42-.5-.52,0-.52s1-.84,1.3-1.89c.4-1.47.9-1.89,2.1-1.89.8,0,1.5.31,1.5.63s1.1,1,2.4,1.68c2.1,1,2.6,1.57,2.5,2.83,0,.1.4.31,1,.31a15.93,15.93,0,0,1,2.6.42c1.1.31,1.6.21,1.6-.42,0-.42-.7-.94-1.6-.94a3.39,3.39,0,0,1-2.5-1.36,2.58,2.58,0,0,0-1.7-1.26c-1,0-3.8-2.31-3.4-2.73.2-.21-.1-.52-.6-.73s-.9-.1-.9.21c0,1-1.2.63-2.8-1.15-1.2-1.36-1.4-1.47-1.1-.52.7,2.1.7,2.41-.2,2.73-.5.1-.6,0-.4-.42a2.63,2.63,0,0,0-.2-1.89c-.5-.84-.5-1.36,0-1.68s.5-.63-.1-.94-.3-.73,1.1-1.36,1.8-.94,1.2-1.57-.4-.73.5-.73c.7,0,.9-.21.6-.42a2.1,2.1,0,0,1-.8-1.26c-.1-.63.3-.73,1.8-.42,1.9.42,1.9.31.8-.52a6.31,6.31,0,0,0-2.4-1.15c-1.5-.31-1.7-2.73-.2-2.73a2.51,2.51,0,0,0,1.4-.42,1.15,1.15,0,0,1,1.2-.1c.5.21.8-.1.8-.63a1.47,1.47,0,0,0-.7-1.26c-.5-.21-.3-.42.4-.42,1.2-.1,1.2-.1,0-.63s-1.2-.52,0-.63c1,0,1-.1.3-.63-.6-.31-1-.31-1.3.21s-.6.52-1.1,0c-1-1-.1-2.2,1.3-1.78a2,2,0,0,0,2-.31c.6-.52,1.6-.63,3.1-.31l2.2.52-1.8.52a5.73,5.73,0,0,1-2.9.21c-.8-.21-1-.1-.7.42a1.86,1.86,0,0,0,1.9.42c1.8-.31,1.8,0-.2,2.2a5.56,5.56,0,0,0-1.3,2,10.26,10.26,0,0,0,2.5.63c1.9.31,2.2.21,1.6-.52s-.4-.94,1-1.36c1.9-.52,3.3-.42,3.8.52.2.42.5-.1.7-.94a2.81,2.81,0,0,0-.8-2.62c-.6-.52-1-1.26-.8-1.57s-.1-.52-.5-.42a.48.48,0,0,1-.6-.63.65.65,0,0,0-.7-.84c-.5,0-.9-.21-.9-.52,0-.94,1.6-1.26,2.3-.52s.7.63.9-3.36l.1-1.89h-5.2c-3.2,0-5.41.31-5.81.73s-.7.52-.7.21S192,.63,190.5.52c-1.7-.1-2.7.21-2.7.63s-.2.52-.7,0a6.13,6.13,0,0,0-3.4-.73c-2.2,0-2.5.1-2,.84.4.52.5,1,.3,1.26s.4.73,1.3,1.15c1.4.63,1.8.63,2.4-.31.4-.63.9-.94,1.1-.73s.8.21,1.4-.1c1.8-.73,2.6-.84,2.6-.21,0,.31-.3.52-.7.42-.7-.21-1,.21-1,1.36,0,.84,2.4-.42,3.1-1.47.2-.31.6-.42.8-.21s-.2.94-.9,1.57-1.1,1.36-.9,1.57c.6.52.8,2.31.3,2.1s-2.7,1.57-3.3,2.62c-.3.63.1.52,1.1-.21s1.8-.84,2-.63a.46.46,0,0,1-.3.73c-.5.21-.6.52-.1,1.47.4.73,1,1,1.3.84s.3-.63-.2-.94-.6-.52-.1-.52c1.1,0,1.4.94.9,2.52l-.2,1.15-1.1-1.26a5.68,5.68,0,0,0-2.3-1.68c-1.5-.52-3.2-3.15-2.2-3.46a.63.63,0,0,0,.3-.94c-.3-.31.1-1,.7-1.57,1.1-.84,1-.84-.3-.42-1,.31-1.3.31-1-.21s.2-.73-.1-.73c-.7,0-2.3,3.88-2.1,5.14.1.63.6,1.15,1,1.15s.8.63.7,1.57c-.1,1.89-.3,2-1.2.63-.8-1.15-3-.52-2.5.73.4.94-.1,1-1.4.21-.7-.52-.7-.73.2-1a1.37,1.37,0,0,0,.9-1.47,5.81,5.81,0,0,1,1.2-2.83c1-1.26,1.2-2,.7-2.31s-.5-.52.1-.73.6-.42.1-1-.9-.52-1.5.52c-1.2,2-3.1,1.89-2.6-.1.3-1.47-1-3.57-2.2-3.57-1,0-.7,1.89.3,2.31,1.2.42,1.1,1.47-.1,1.47-.8,0-.8.21-.2.94s.5.94-.6.84c-.7-.1-1.5.21-1.6.63s.2.84,1,.84c1.1,0,1.2.31.9,1.47-.5,2-.7,2.1-2.1,1.15s-2.4-.31-1.1.73a2.25,2.25,0,0,1,.7,1.89c-.1.84.2,1.15,1.1,1.15.7,0,1.2.42,1,.84a2.12,2.12,0,0,1-1.8.73c-1,0-1.4.21-1.2.73.4,1,3.6.1,4.8-1.47.8-1,.9-1,.6.31-.3,1.68.8,2,2.2.52,1.1-1.15,1.6-1.26,1.5-.21-.3,1.89.2,2.62.6,1.15l.5-1.57.1,1.68a1.79,1.79,0,0,1-1.1,2.1c-1.4.42-1.6,1.89-.4,2.41a6.18,6.18,0,0,0,2.6.21,2.64,2.64,0,0,1,2.5,1c.4.63.4,1.15.1,1.15a.88.88,0,0,1-.8-.63c-.1-.31-2-.63-4.2-.73s-3.9-.31-3.7-.63-.9-.52-2.3-.52-3.4-.1-4.5-.21-1.8,0-1.6.31.9.52,1.7.52a2.5,2.5,0,0,1,1.8.52c.2.31.8.42,1.5.21,1.7-.42,1.6.31-.1,1-1.2.52-1.1.63.7.63,1.5,0,1.9.31,1.7.94s.2,1,.9,1.26c1,.31,1.1.21.5-.52s-.4-.94.6-.94a1.84,1.84,0,0,0,1.6-1c.2-.84.4-.84.8-.21a1.68,1.68,0,0,1-.2,1.68c-.4.63-.4.73.3.42s1,.1,1.2.94.7,1.26,1.1,1.26c.6,0,.6-.21-.1-.63s-.8-.63-.1-.63.6-.31-.2-1.26a2.07,2.07,0,0,1-.7-1.89c.6-.94,1.7-.84,1.3.21a3.37,3.37,0,0,0,.6,2.2c.5.73.7,1.36.5,1.36s-.1.42.2.84c.5.52.4,1-.3,1.68-.9.84-.9.84-.6-.1.3-.63.2-1-.3-1-1,0-3.4,1.78-3.4,2.62,0,.42.3.42.9-.1s1.1-.63,1.3-.31.1.63-.3.73a1.2,1.2,0,0,0-.8,1c-.1,1.68-6,3.15-6.91,1.68-.6-1.15-1.5-.73-.9.52.9,1.68.6,3.88-.5,4-.6,0-.7.1-.2.31a1.72,1.72,0,0,1,.7,1.47c0,1.36-2.9,4.62-3.8,4.3-.4-.1-1.1.31-1.7.94s-1,1.15-.9,1.15C170.38,48.07,175.39,48.17,174.39,47.86ZM188.1,40a1.38,1.38,0,0,1,0-1.26c.1-.31.1-.42.2-.31s.1.31.1.73C188.4,39.78,188.3,40.2,188.1,40ZM203.41,9.76a1.33,1.33,0,0,1,.9.63c.2.31-.1.63-.6.63s-.9-.31-.9-.63A.66.66,0,0,1,203.41,9.76Zm-.6-8.82a.66.66,0,0,1,.6.63.6.6,0,1,1-1.2,0A.66.66,0,0,1,202.81.94Zm-4.3,1.68a.9.9,0,0,1,.5-.31c.2,0,.2.1.2.21,0,.84-.7,1.57-1.1,1.15C197.91,3.57,198.11,3,198.51,2.62Zm-4.6,1.26A4.86,4.86,0,0,0,195.21,2a1.49,1.49,0,0,1,1.3-1c.5,0,.9.21.9.84s-.7,1.36-1.6,1.89C193.81,4.83,192.6,4.93,193.91,3.88Zm-.3,2.73c.5,0,.8.31.6.63s-.5.63-.6.63-.4-.31-.6-.63S193.1,6.61,193.61,6.61Zm-11.11.63a.63.63,0,1,1-.6.63A.66.66,0,0,1,182.49,7.24Zm-2.7,6c-.2.63-.5.94-.7.73s0-.73.4-1.15.4-.52.5-.42A3.45,3.45,0,0,1,179.79,13.22Zm.2-3.15c-.4-.31-.3-.63.2-.94a.85.85,0,0,1,.6-.31c.5-.21.7.21.2.94A.7.7,0,0,1,180,10.07Zm5.3,5.35c-.6,0-1-.1-.8-.31a.75.75,0,0,1,.5-.21,1.87,1.87,0,0,1,.7.1C186.1,15.22,186,15.43,185.3,15.43Zm2.3-1.36a3.74,3.74,0,0,1,1.6-1.15c.4,0,.4.21-.2.94s-.6.94.1.94c.4,0,.3.21-.4.52C187,16.06,186.4,15.43,187.6,14.06Zm.3,3.25c0-.31.4-.63.9-.63s.8.31.6.63a1.33,1.33,0,0,1-.9.63A.66.66,0,0,1,187.9,17.32Zm.6,3.78c0-.31.4-.63.9-.63s.8.31.6.63a1.33,1.33,0,0,1-.9.63A.66.66,0,0,1,188.5,21.09Z"/><path d="M174.29,19.73c.3.52.6.63.6.21,0-1-1.4-1.89-3-1.78a2.25,2.25,0,0,1-1.9-.42c-.1,0-.1-.1-.2-.1a.55.55,0,0,0-.5.52c-.4.84,0,.94,2,.84C173,18.89,173.89,19.1,174.29,19.73Z"/><path d="M248.26,59.19c.2-.11.5,0,.7.31.07.08,0,.26-.08.49h3.06c-.31-.19-.55-.26-.68-.18s-.4-.42-.3-1.26c.1-1.36,0-1.47-.8-.73s-1,.63-1.2,0a1,1,0,0,0-.5-.73c-.3-.1-.6.31-.6,1.15C247.86,58.88,248.06,59.3,248.26,59.19Z"/><path d="M249.56,56.25c-.2-.52.1-.84.8-.84,1,0,1-.1.2-.84S249,51,248,44.5c-.3-1.57-.7-2.2-1.2-2-1.1.42-1.8-1.78-.8-2.62a2.9,2.9,0,0,0,.6-2.1c-.1-.84.1-1.47.5-1.47.6,0,.6-.21,0-.94a2.22,2.22,0,0,1-.4-1.89,1,1,0,0,0-.6-1.26,4.38,4.38,0,0,0-1.1-.31c-.3,0-.2.31.1,1.15s.4,1.26.1,1.26-.7.63-.9,1.47c-.4,1.68-2.1,2.62-3,1.68a2.46,2.46,0,0,0-1.4-.63c-1.5,0,.5,1.68,2.1,1.78,2,.1,2.4.63,1.3,1.47-.7.52-.7.63.2.31s1.3.21,1.1,2c0,.52.2.84.6.84s.5.42.3.94a5,5,0,0,0,.2,2.62c.7,1.89-.1,3.36-1.9,3.36-.7,0-.9.31-.7.73.6,1-1.1,2-1.7,1-.4-.42-.4-.31-.2.42a3.41,3.41,0,0,1-.5,2.52c-1.1,1.78-.1,3.46,1.4,2.2.7-.63.9-.63.5,0-.7,1.26.1.94,1.5-.52,1.2-1.26,1.3-1.36,3.5-.42C249.46,57,249.86,57,249.56,56.25ZM247,54.57a.66.66,0,0,1-.6-.63c0-.31.2-.63.3-.63s.4.31.6.63A.39.39,0,0,1,247,54.57Z"/><path d="M297.7,55.83c-.4,0-1.2,1.57-1.2,2.62,0,.63,1.4.73,1.9.21S298.3,55.83,297.7,55.83Z"/><path d="M279.78,42.71a1.85,1.85,0,0,0-1.5.1c-1,.63,1.8,2.83,2.9,2.41.8-.31.8-.21.2.52a3.06,3.06,0,0,0-.7,1.78c0,.84.1.84.6-.1s3.1-1.15,4-.1c.5.42-1.2,1.57-1.8,1.15-.2-.21-.6.42-.8,1.26s-.6,1.57-.9,1.57c-.9,0-.6,1.89.4,2.31a1.61,1.61,0,0,1,.9,1.26c0,.42.8,1.26,1.9,1.68l1.9.84-1.4.84c-.9.52-1.3.52-1,.1s.1-.73-.2-.73c-.84,0-1.41,1.73-.82,2.38h1.85c.27-.47.66-.53,1.48-.39s1.5,0,1.7-.52a.87.87,0,0,1,1.2-.52c.45.16.55.77.42,1.44h4.25a2.79,2.79,0,0,0-.27-.91,2.83,2.83,0,0,1-.2-2c.2-.52.1-.94-.2-.94s-.4-.31-.2-.94.7-.94,1.1-.73a8.63,8.63,0,0,0,3.3-.94c3-1.47,4.5-.84,2.7,1.26-.9,1-.9,1.36-.3,2.2.4.52.9.84,1.1.63s.7.31,1.1.94,1.2,1.15,1.6.94a.72.72,0,0,1,1,.49h3.59l-1.09-1.23H309c.8,0,1.4.21,1.4.52s.28.48.65.7h.85a6.33,6.33,0,0,0-.3-.7,2.82,2.82,0,0,0-2-1.26c-.8-.11-1-.21-.6-.42s.7-.52.5-.84.1-1.68.6-3.15c1.2-3.57,1.3-3.57-1.3-1.15-1.9,1.78-2.2,1.89-2.4.94-.1-.63-.6-1-1-.84a1,1,0,0,1-1.1-.63,1.19,1.19,0,0,0-1.1-.94c-1,0-2.9-2.2-2.4-2.73.2-.31,0-.94-.4-1.57-.6-.94-.6-1,0-.42a2,2,0,0,0,1.8.42c.9-.31.9-.21.1.31s-.8.84-.3,1.36.8.21,1.3-.94.5-1.57-.1-1.57-.8-.73-.8-1.68c0-3.67-2.5-3.57-2.9.1a4.11,4.11,0,0,1-1.1,2.41c-.7.52-.8.84-.3,1.36a1.48,1.48,0,0,1,.1,1.57,4,4,0,0,0-.5,1.78,1.26,1.26,0,0,1-.8,1.15c-.5.1-.6-.21-.4-.94.3-.94.2-.84-.6.21-1.2,1.78-4.5,1.78-4.5.1s.7-3.15,1.3-2.73c.3.21.5,0,.5-.31,0-1.26-1.1-1.36-1.5-.1-.5,1.47-1.4,1.57-1.9.21-.3-.94-.4-.94-1-.1s-.8.84-1.4.1-.6-.84-.1-.84.5-.21,0-.84c-.4-.42-.5-1-.3-1.26a38.86,38.86,0,0,0,1.6-7.87,3.94,3.94,0,0,1,.9-2.2c.6-.63.7-.52.4.31-.4,1.15.4,2,1.4,1.36.7-.52-3.4-5.35-4.4-5.14a1,1,0,0,1-.9-.84c-.2-.84-.2-.84.4,0,1.1,1.68.7.52-1.1-3.36-1.6-3.46-1.7-3.78-.8-4.51s.7-.63-1-.42-1.9.21-1.6-.73c.2-.63.1-.84-.2-.63s-.6.1-.6-.21-.7-.84-1.5-1.26a3.5,3.5,0,0,0-1.1-.31c-.8-.11-.4.73,1.4,2.1,1.2.84,1.5,1.47,1.2,2.62s-.2,1.47.5,1.15.9,0,.9.73-.3,1-1.4.73-1.5-.11-1.8.63-.2.84.4.31c1-.84,1.9-.21,2.5,1.68a2.91,2.91,0,0,1-.9,3c-1.5,1.68-1.3,2.2.2.63.8-.73.9-.42.7,2.62-.2,4.09-.5,4.51-1.9,3.36-1-.73-1-.73-.1.42C281.29,41.66,281,43.24,279.78,42.71Zm26.22,12a.69.69,0,0,0,1.1-.21.54.54,0,0,1,.4-.31c.1,0,.2.21.5.42,1,1.78-.6,2.41-1.9.73C305.61,54.68,305.61,54.47,306,54.68Zm-3.7-2.62c-.3-.31-.1-.63.2-.63s.6.42.7.94.2.84.4.84c1.6-.21,1.9.1,1.2,1.36a1.71,1.71,0,0,1-2.2.84c-1.1-.31-1.4-.21-1,.42s.2.73-.2.42-.4-.94.3-2A2.72,2.72,0,0,0,302.31,52.05Zm-12.71-.63c.2,0,.4.42.6.94s.1.94-.2.94-.6-.42-.6-.94S289.49,51.42,289.59,51.42Zm-3.5,1c-.4,1-.5,1-.7,0-.1-.63-.4-1-.7-.84s-.7-.1-.9-.73-.2-.84,0-.63.8.21,1.2-.21c.3-.21.5-.31.7-.21C286.29,50.06,286.59,51.32,286.09,52.47Zm-1.9-19.84a7.54,7.54,0,0,0,.9,1.36c.7,1.47,1.1,1.68,1.5.94s.4-.11.2,1.15c-.3,1.57-.2,2.1.4,2.1s.6.1-.1.63c-1.4.94-1.6.73-2-1.47-.2-1.15-.5-2.83-.7-3.67S284.09,32.64,284.19,32.64Z"/><path d="M264.27,49.43c.4,0,.5.63.3,1.78s-.1,1.78.4,1.78c2.9-.1,3.5.21,3.1,1.47s-.2,1.26.9.94c.7-.21,1.2-.21,1.1.1-.2.73,2.5,3.57,3.9,4.2a1.29,1.29,0,0,1,.5.28h2.6c0-.24-.11-.39-.2-.39s-.7,0-1.2,0c-.8,0-.8-.1,0-.73s.7-.63-.2-.31-1.3-.21-2-2.1c-.5-1.36-1.2-2.52-1.5-2.52s-.6-.52-.6-1.15-.1-.73-.3-.31c-.5,1.15-1.2.94-1.6-.52a4.32,4.32,0,0,0-2.2-2c-1-.42-1.8-1-1.8-1.47s-.7-.84-1.5-1a1.87,1.87,0,0,0-.7-.1c-.5,0-.5.21-.2.94S263.87,49.43,264.27,49.43Z"/><path d="M309,48.7c.5.73.7.84.7.31s.3-.73.8-.52c.7.31,1.2-.42,2.5-3.57a21.81,21.81,0,0,0-4.4,2.52C308.51,47.44,308.71,48.07,309,48.7Z"/><path d="M278.58,51.74a1,1,0,0,0-.9.21,2.92,2.92,0,0,1-2.1.31c-.6-.1-1.1.1-1.1.52s.7.63,2.3.42c1.3-.21,2.6-.1,3,.31s.7.52.7,0A2.07,2.07,0,0,0,278.58,51.74Z"/><path d="M173.79,59.19a11.39,11.39,0,0,0,1.47.81H176a3.4,3.4,0,0,0-.45-.39c-.7-.52-.6-.63.7-.31.9.21,1.6.1,1.6-.31s-.4-.63-.9-.63-.8-.31-.6-.63a.6.6,0,0,1,.9-.31c.3.21,1,0,1.6-.31s.8-.63.3-.63c-1.1,0,1.6-3.88,3-4.3a1.53,1.53,0,0,0,1.1-1.26c0-1,2.2-.52,3.6.84.6.73.7,1,.1,1.68s-.7.52-.7-.52a1.69,1.69,0,0,0-1.2-1.68c-.8-.21-1.2,0-1.2.52a8.85,8.85,0,0,1-.4,2c-.2.84-.1.84.8-.31,1.1-1.36,1.1-1.36,1.1-.1a2.39,2.39,0,0,1-1.6,2,2,2,0,0,0-1.4,2.2c.2,1.26,0,1.36-.9.84s-1.1-.31-1.4.42-.1.84.4.63a2,2,0,0,1,1.7.21,2.78,2.78,0,0,1,.45.39h.74a4.66,4.66,0,0,1-.19-.91,4,4,0,0,1,1.1-2.94,7.82,7.82,0,0,1,3.2-2,.25.25,0,0,1,.4.21,14.36,14.36,0,0,1-1.7,2A12.59,12.59,0,0,0,184,59.3a4.76,4.76,0,0,1-.35.7H186a1.63,1.63,0,0,0,0-.28c-.5-1.47,1.7-2.73,3.7-2.31,1.5.42,1.6.31,1.6-3.25,0-2.31-.3-4-.8-4.51-.7-.84-.8-.52-.4,2.1.3,2.41.3,2.94-.4,2.73-1.3-.42-1.3-2.2-.3-5.56.9-2.94.7-6.09-.3-4.41-.7,1.15-2,.1-1.5-1.15V43c-.1-.1-.6.21-.9,1-1.1,1-1.9,1.47-2.1,1s-.3-.31-.2.1a.94.94,0,0,0,1.1.63c.6-.1.8.21.6.84a1.41,1.41,0,0,1-1.2.94c-.5,0-.6.31-.4.73s.2.52-.3.21a1,1,0,0,1-.4-1.26c.2-.42-.2-.94-.9-1.15-.9-.21-1-.1-.5.52s.2.94-1.2,1.47q-1.8.63-1.5,1.57c.2.63-.2,1-1.3,1.36s-1.5.73-1.3,1.68c.4,1.47-.5,2.2-1.7,1.15-.5-.52-1.1-.63-1.3-.42s-.1.42.3.42c1.1,0,.8,2.41-.4,3.15-.6.31-1.3.42-1.5.21s-.4-.1-.4.21S172.79,58.56,173.79,59.19Zm8.41-10.91c.5,0,.9.31.9.63a.66.66,0,0,1-.6.63,1.33,1.33,0,0,1-.9-.63C181.39,48.59,181.69,48.28,182.19,48.28Zm-8,9.45c.7,0,1.1.31.9.63a1,1,0,0,1-1.8,0C173.09,58,173.49,57.72,174.19,57.72Z"/><path d="M190.5,25.08c.6.31.8.63.4.63s-.6.31-.4.63.8.42,1.7-.1c1.3-.73,1.3-.73.2.63-.6.73-.9,1.36-.5,1.36a1.32,1.32,0,0,0,1-.63,4.05,4.05,0,0,1,2.1-.94,5.76,5.76,0,0,0,2.5-1.36c.8-1,2.4-1.26,2.4-.42,0,.31-.6.84-1.3,1.26l-1.3.73h1.3a1.77,1.77,0,0,1,1.6.84c.2.42.5.63.8.31s.3-.73-.1-1.15c-1-.94-.3-3.25.7-2.41.6.52.9.52,1.2,0s1-.31,2.2.42c1.7,1.15,1.8,1.15,2.8-.1,1.4-1.68,3.4-2.83,4.9-2.83a6.29,6.29,0,0,0,2.4-.63q1.2-.63,1.2,0c0,.94,1.5.84,3-.1,1-.63,1.3-.52,1.9.52a6.1,6.1,0,0,1,.5,3c-.1,1,.1,1.78.5,1.78a.66.66,0,0,0,.6-.63c0-.31.5-.84,1.2-1.26,1-.52,1.2-.52,1.2.31,0,.52-.2.84-.5.63s-.4,1.15-.3,3.25c.2,3.15.1,3.78-1.1,4.72-.8.73-1,1-.4.94s1,.11,1,.42a2.81,2.81,0,0,0,.9,1c.5.31.1.52-1.2.52-1.6,0-2,.31-1.9,1.15.2,2.52-.1,3.36-1,2.94a1,1,0,0,1-.6-1.26c.1-.42,0-.84-.3-.84s-.6.52-.6,1.26.3,1.26.6,1.26.5.94.4,2.1-.4,2-.7,1.89-2.2,1.36-4.1,3.25-4.1,3.67-4.9,3.88-1.4.63-1.4.94-.3.42-.6.21-.4-.63,0-1.15.3-.73-.3-.73a.9.9,0,0,0-.9.84c0,.52-.6,1.15-1.3,1.57a13.9,13.9,0,0,0-3.1,2.83c-1.1,1.15-2.2,2.1-2.6,2.1s-.83.49-1.37,1.23h4.26l-.09-.07c-1.2-.84-1.2-.84.1-2.2,2.1-2.1,4.4-2.83,5.3-1.68.6.73.6,1,0,1.47s-.7.52,0,.84c.5.21,0,.63-1.1.84a9.36,9.36,0,0,0-1.87.81h3.69a8.86,8.86,0,0,1,.78-1,6.46,6.46,0,0,0,1.6-2.31c0-.31.4-.42.9-.21.8.31.8.1.3-.94-.4-.73-1-1.15-1.5-.94s-.8.21-.8-.21.6-.63,1.4-.52,1.4.31,1.2.63,0,.52.3.52a.57.57,0,0,0,.6-.52,2.66,2.66,0,0,1,1.2-1.26,1.64,1.64,0,0,1,2.3,0c1,.63,1.1.84.3,1.47s-.7.73.4.73,1.2-.31.9-1.47.1-1.89,1.2-3.15c.8-.94,1.6-1.36,1.6-1s.1,1.26.2,2.1A4.38,4.38,0,0,0,223,54c.5.52.6.52.3-.31-.2-.63-.1-1.26.3-1.47s.3-.73-.3-1.36-.8-1.26-.6-1.47-.6-.31-1.8-.21-2,0-1.8-.31a.57.57,0,0,0-.4-.84c-.6-.21-.6-.42,0-.73.4-.21.7-.21.7.21a.66.66,0,0,0,.6.63c.3,0,.6-.42.6-.94s.3-.94.6-.94.6-.52.6-1.15a3,3,0,0,1,.9-2c.5-.42.9-1,.8-1.47a6,6,0,0,1,.6-2.52c.6-1.57,1-1.78,2.5-1.57,1.7.21,2.5-.42,1-.94-.5-.21-.2-.63.6-1,1.1-.63,1.4-.63,1.7.21.2.52.6.84.9.63.8-.52-.8-2.73-1.7-2.31-.6.21-.7-.1-.4-1.26s.2-1.57-.4-1.47c-.4.1-.8-.1-.8-.31a3.25,3.25,0,0,0-1.2-1.36c-1.2-.84-1.2-.94.4-1.68,1.4-.63,1.5-.94.8-1.47-.9-.73-1.9-4.2-1.1-4.09,1.5.31,2.2,0,1.6-.73-.4-.52-1.1-.31-2.4.63a10.46,10.46,0,0,1-2.1,1.36c-.5,0,.3-2.52.9-2.62,2.1-.31,4.3-1.68,3.6-2.1-.4-.21-1.8.1-3.1.84l-2.4,1.26.6-1.68c.5-1.47.4-1.57-.8-1.15s-1.2.42-.4-.73a11.16,11.16,0,0,1,1.4-1.57c.7-.52-.1-2.62-.8-2.1-1.3.84,1.4-3.57,3.4-5.67s3.4-5.35,1.8-4.3c-.6.31-.6.21,0-.52a2.45,2.45,0,0,0,.4-2c-.2-.63-.7-.94-2.4-.94a11.18,11.18,0,0,1-3-.42c-2.3.1-4.3.42-4.4.84s.4.63,1.6.52c2.5-.31,3.4.52,3.1,3-.3,3-.7,3.67-2,3.67s-1.7.94-.7,1.36c.4.16.43,1.08.24,2l-.84-1.12a21.79,21.79,0,0,0-1.4-1.78,7.27,7.27,0,0,0,.1,1.15c.2,1,0,1.47-1,1.68-.7.1-.2.31,1.1.31l2,.09c-.21.74-.56,1.38-1,1.38a6.09,6.09,0,0,0-2.3,1.36c-.9.73-1.8,1.15-2,.94s0-.63.5-.94c1.1-.73.5-1.47-.8-.94a1.89,1.89,0,0,0-1,1.47c0,.63-.1.73-.4.31s-.9-.52-2.2.1c-1.5.63-1.5.84-.5.84a3.07,3.07,0,0,1,2.1,1.15c.7.94.7,1-.2.31s-1-.63-1.3.21-.8.94-1.7.63-1.1-.21-.8.1a2.33,2.33,0,0,1,.8,1.57c.2,1.36-1.6,1.47-2.1.1a1,1,0,0,0-1.3-.63c-.9.31-.9.31-.1-.42a3.09,3.09,0,0,0,.8-2.2c0-1,.2-1.36.8-1.15s.7.1.5-.21a.7.7,0,0,1,.4-.94c.5-.21,0-.21-1,0-2.1.42-4.9,2.2-4,2.52.3.1.5.73.3,1.36-.4,1.26-1.8,1.26-4.6.1-2.2-.84-2.4-.84-2,.21.4.84-1.7,2.2-3.6,2.31-.7,0-.6.21.4.63,1.4.52,1.8.42,3.9-1.68a2.15,2.15,0,0,1,2.3-.1c1.5.52,1.5.63.6,1.78-1.1,1.36-2.5,1.57-2.5.42,0-.52-.1-.52-.5.1s-1.4.73-3.1.63-2.7.1-2.8.52.2.63,1,.42,1.2,0,1.2.42-.7.63-2.5.42S189.7,24.66,190.5,25.08Zm26.12,25.4c-1.4,1.78-2.4,2.62-2.4,1.68a4.59,4.59,0,0,1,1.6-1.68,7.14,7.14,0,0,1,1.3-.94C217.23,49.54,217,49.85,216.63,50.48Zm.9-30.33c.2-.52.6-.94.9-.94s.4-.31.2-.63a.74.74,0,0,1,.3-.94c0-.1.1-.1.2-.1a.71.71,0,0,1,.4.73c0,.94.1,1,.6.21s.6-.73.6,1.15a.48.48,0,0,1-.5.52,1.88,1.88,0,0,0-1,.52C218.43,21.51,217.13,21.09,217.53,20.15Z"/><path d="M218.53,56.67c-.2,0-.3.1-.4.31-.2.42-.8.52-1.4.31-.9-.31-.9-.21-.2.31a1.52,1.52,0,0,0,1.3.42c.3-.1.6.1.7.52s.4.31.6-.31C219.43,57.3,219,56.57,218.53,56.67Z"/><path d="M192.39,60a1.72,1.72,0,0,1,1.12-.28c.8.1,1.4-.1,1.4-.52s-.2-.63-.5-.52-.5-.84-.4-2a3.16,3.16,0,0,0-.9-2.62c-.2,0-.5.21-.6.94a7.49,7.49,0,0,0,.3,3.25c.2.84.2,1.15,0,.73-.3-.63-.6-.63-1.2-.1A1.44,1.44,0,0,0,191,60Z"/><path d="M236.24,50.48c1-1.15,1.3-1.78.8-2.31a.85.85,0,0,0-.6-.31c-.2,0-.3.1-.5.31-.2.42-.2.73,0,.73s.1.42-.3.94a2.58,2.58,0,0,1-1.8.94,2,2,0,0,0-1.5.63C231.54,52.79,234.94,51.95,236.24,50.48Z"/><path d="M227.94,51.84c0-.84-.3-1.68-.7-1.78s-.5-.73-.3-1.57c.3-1.15.6-1.26,1.4-.73,1.2.84,6.11-.31,6.11-1.36,0-.42-1-.21-2.2.31-1.6.63-2.3.73-2.6.21s-.5-.52-.8.1-.2.21-.1-.52c.2-.94-.1-1.47-.6-1.47a1.09,1.09,0,0,1-.9-.94c0-.42-.1-1.26-.1-1.68a1,1,0,0,0-1.2-.94,2.13,2.13,0,0,0-1.6,1.36c-.6.84-.7,1.57-.4,1.57a.59.59,0,0,0,.6-.63c0-.42.3-.52.8-.31,1,.42.9,4.3-.2,6.4-.6,1.36-.6,1.47.8,1.47.8,0,1.5.31,1.5.63,0,.84-1.7,2.62-2.5,2.62q-.6,0-.3.31c.2.21.9.1,1.6-.31,1-.52,1.5-.52,2.3.31,1.1,1,1.5,1.15,2,.63a1.35,1.35,0,0,0,0-1.26c-.2-.42-.1-.84.3-.84s.6-.73.6-1.47V50.48l-1.1,1.47C228.94,53.84,227.94,53.73,227.94,51.84Z"/><path d="M237.65,59.19a1.76,1.76,0,0,1,.8.52,1.71,1.71,0,0,0,.3.28h.87a.83.83,0,0,0,0-.7c-.3-.63-.1-.84.6-.52s.8.21.5-.31a1.55,1.55,0,0,0-1.3-.73,1,1,0,0,1-.9-1c0-.42,0-.73-.1-.73s-.2.1-.4.31a2.8,2.8,0,0,1-1.8.73C234.34,57,235.54,58.88,237.65,59.19Z"/><path d="M223,32.64a7.67,7.67,0,0,0-.9.42c-1.8.94-2,1.47-.9,2.52.8.84.9.84.5-.21a1.75,1.75,0,0,1,.6-2.1C222.83,32.85,223,32.64,223,32.64Z"/></g></svg>