<?xml version="1.0" encoding="utf-8"?>
<!-- Generator: Adobe Illustrator 21.1.0, SVG Export Plug-In . SVG Version: 6.00 Build 0)  -->
<svg version="1.1" id="Layer_1" xmlns="http://www.w3.org/2000/svg" xmlns:xlink="http://www.w3.org/1999/xlink" x="0px" y="0px"
	 viewBox="0 0 500 500" style="enable-background:new 0 0 500 500;" xml:space="preserve">
<path d="M500,270.9v-1c-5.4,3.2-10.9,6.4-12.2,7.2c-8.8,5.5-15.5,10.5-20.6,15.9c-4.6,5-10.4,8.4-18.7,11.8c-1.2,0.5-2.5,1-4,1.6
	l-4,1.5c-8.1,3.1-12.3,5.2-15.8,8.4c-3.5,3.2-8,5.5-14,7.4c-1.6,0.5-3.3,1-5.4,1.5l-5.1,1.3c-4.4,1.1-6.9,2-8.8,3.1
	c-2.6,1.6-5.5,2.7-10.6,4.2c-1.3,0.4-2.7,0.8-4,1.1c-1.7,0.5-3,0.9-4.3,1.3c-3.2,1-6.3,2.1-9.3,3.4c-2.2,1-4.6,3.3-7.3,7
	c-1.8,2.5-3.5,5.1-5.1,7.7c-4.8,7.6-6.3,9.8-8.5,12.1c-1.2,1.2-2.5,2.4-3.8,3.5c-1.9,1.6-8.7,6.3-9.8,7.3c-1.2,0.9-2.3,2.1-3.1,3.5
	c-1,1.9-1.6,3.8-2.3,7.4c-1.8,8.8-2.9,12.3-6.8,18.4c-3.4,5.3-5.7,8.2-8.2,10.8c-0.4,0.4-0.8,0.8-1.2,1.2l-3.1,3
	c-1.4,1.3-2.6,2.6-4,4.1c-3.8,4-6.6,8.8-8.2,14.1c-2.1,6.8-2.3,12.9-1.5,22.7c0.4,4.8,0.4,5.3,0.4,6.8c0,8.8,0.1,14.6,0.5,21.5
	c0.2,3.4,0.5,6.5,0.8,9.3h0.7c-0.9-8-1.2-18.2-1.2-30.8c0-1.5,0-2-0.4-6.9c-0.8-9.7-0.6-15.7,1.4-22.4c1.6-5.2,4.3-9.9,8-13.8
	c1.4-1.5,2.6-2.7,4-4c0.5-0.5,2.6-2.5,3.1-3c0.4-0.4,0.9-0.8,1.3-1.2c2.6-2.6,4.9-5.6,8.3-11c4-6.2,5.1-9.8,6.9-18.7
	c0.7-3.5,1.2-5.3,2.2-7.2c0.6-1,1.5-2.1,2.9-3.2c1.1-1,7.9-5.7,9.8-7.3c1.4-1.2,2.7-2.3,3.9-3.6c2.3-2.4,3.8-4.6,8.6-12.2
	c1.6-2.6,3.3-5.1,5.1-7.6c2.7-3.6,4.9-5.8,7-6.7c2.9-1.2,5.9-2.3,9.2-3.3c2.1-0.6,4.2-1.3,6.3-1.8l2-0.6c5.2-1.5,8.2-2.6,10.8-4.3
	c1.8-1.1,4.2-1.9,8.6-3l5.1-1.3c2.1-0.5,3.8-1,5.4-1.5c6-1.9,10.7-4.2,14.3-7.5c3.4-3.1,7.5-5.2,15.5-8.2l4-1.5
	c1.6-0.6,2.8-1.1,4-1.6c8.4-3.5,14.2-6.9,19-12c5-5.4,11.6-10.3,20.4-15.8C489.5,277,494.7,274,500,270.9l0-53.8
	c-3.3,6.8-7.1,12.4-10.6,14.9c-2.1,1.5-4.5,3.3-7.5,5.8c-1.7,1.4-3.5,2.8-5.2,4.1l-1.1,0.8c-1.4,1.1-2.7,2.2-4.1,3.2
	c-6.3,5-10.7,8.4-14.7,11c-2.6,1.7-3.2,2.3-6.7,5.9c-4.9,5.1-9.8,7.2-24.3,9.1c-9.4,1.2-16.7,4.1-25.6,9.2c-1.4,0.8-6.1,3.6-5.8,3.4
	c-2.2,1.3-3.9,2.2-5.5,3c-4.7,2.3-8.7,3.5-13.1,3.5c-14.3,0-34.5,9.6-43,19c-10,11.2-26.2,23.1-37.7,26c-6.2,1.5-9.9,5.9-11.7,12.2
	c-1,3.7-1.3,6.9-1.3,11.5c0,0.7,0,0.8,0.2,3c0.4,4.3,0.3,7.3-0.6,11c-1.3,5.2-4.1,10.5-8.8,16.2c-11.6,13.9-19.1,38.8-19.1,59.7
	c0,2,0,3.5,0.1,7.3c0.1,9,0.1,13.2-0.2,18.3c-0.5,9.3-1.7,17.3-4.2,24.4h-0.9c2.4-7.1,3.7-15.1,4.2-24.5c0.3-5.1,0.3-9.2,0.2-18.2
	c0-3.7-0.1-5.3-0.1-7.3c0-21.1,7.6-46.2,19.3-60.3c4.7-5.6,7.4-10.8,8.6-15.9c0.9-3.7,1-6.5,0.6-10.8c-0.2-2.2-0.2-2.4-0.2-3.1
	c0-4.7,0.3-8,1.3-11.7c1.9-6.6,5.8-11.2,12.3-12.8c11.3-2.8,27.3-14.7,37.3-25.7c8.6-9.6,29.1-19.3,43.6-19.3
	c4.2,0,8.1-1.1,12.7-3.4c1.6-0.8,3.2-1.7,5.5-3c-0.2,0.1,4.4-2.6,5.8-3.4c9-5.2,16.4-8.1,25.9-9.3c14.4-1.9,19.1-4,23.8-8.9
	c3.5-3.7,4.2-4.3,6.8-6.1c3.9-2.6,8.3-5.9,14.6-10.9c1.4-1.1,2.7-2.2,4-3.2l1.1-0.8c1.7-1.4,3.5-2.8,5.2-4.1
	c3.1-2.4,5.5-4.3,7.6-5.8c3.6-2.7,7.6-8.8,11.1-16.2L500,270.9L500,270.9z M500,174.1c-0.5,0-1.1,0-1.6,0.1
	c-5.1,0.5-11.5,2.9-18.2,6.2c-3,1.5-7,2.2-11.8,2.3c-3.9,0-8.1-0.4-12.3-1.1c-1.4-0.2-2.7-0.5-3.9-0.8c-1-0.2-2-0.4-3-0.5
	c-4.6-0.4-9.2-0.6-13.9-0.7c-8.7-0.1-14.3,0.6-15,2.3c-0.3,0.8,0.5,2.1,2.5,4.1c0.8,0.8,1.8,1.7,3.4,3c1.3,1.1,2.7,2.2,4,3.3
	c1.2,1,2.6,1.6,4.6,2.1c0.6,0.1,0.7,0.2,2.2,0.4c2.9,0.6,4.2,1,5.1,2.2c1.2,1.5,1.2,3.8-0.1,7.4c-2,5.7-4.8,8.4-8.5,8.6
	c-3,0.2-6.3-1.1-12.1-4.2c-3.8-2.1-5.7-6.1-6.9-12.7c-0.1-0.7-0.3-1.5-0.4-2.4l-0.4-2.3c-0.9-5.5-1.6-7.7-3.1-8.4
	c-0.7-0.3-1.3-0.6-2-0.8c-1.9-0.6-3.8-0.8-6.7-0.8c-1.9,0.1-12.2,0.8-11.5,0.8c-17.1,1.1-24,4.2-30.9,12.5c-1.2,1.5-2.4,3-3.5,4.5
	l-1.9,2.6l-2.1,2.8c-3.4,4.5-5.9,7.1-8.7,9.3c-0.5,0.4-1.1,0.9-1.8,1.3l-3.4,2.4c-1.5,1.1-2.9,2.2-4.3,3.3
	c-3.8,3.1-8.1,7.2-13.5,12.8c-6.9,7.1-9.8,11.3-9.7,13.3c0.1,1.4,1.4,1.8,5.7,2c1.3,0.1,1.8,0.1,2.5,0.2c2.5,0.2,4.2,0.6,5.7,1.4
	c6.2,3.5,9.7,6,11.6,9.6c2.7,5.1,0.7,10.7-7.4,16.9c-6.9,5.2-9.2,8.6-9.4,12.5c-0.1,1,0,1.6,0.2,3.7c0.6,5.4,0.2,8.9-2.3,14.5
	c-0.9,2.2-2.1,4.3-3.5,6.3c-2.3,3.3-4.6,4.8-8.8,6.4c-0.4,0.1-2.8,1-3.6,1.3c-1.5,0.6-2.8,1.1-4.2,1.8c-3.5,1.7-7,3.8-10.9,6.9
	c-7,5.4-11,12.1-13.3,20.9c-0.9,3.5-1.3,5.7-2.3,12.7c-1,7.2-1.8,10.5-3.4,13.8c-1.7,3.6-9.9,22.2-10.8,24.1
	c-1.7,3.8-3.5,7.5-5.3,11.2c-3.4,6.8-6.3,11.7-8.9,14.8c-4.5,5.4-7.5,12-11.5,23.7c-0.5,1.6-1.1,3.1-1.6,4.7
	c-1.5,4.5-2.5,7.2-3.5,9.9c-5.1,12.8-21.2,21.9-38.7,21.9c-9.3,0-17.1-2.3-25.8-7.1c-4.7-2.6-3.8-2-18.5-12.1
	c-11.9-8.2-14.7-8.9-17.1-5.7c-0.3,0.4-1.5,2.3-1.5,2.3c-1.2,1.7-2.6,3.4-4.1,4.9c-0.6,0.7-4.6,4.9-5.8,6.2c-2,2.2-3.6,4-5,5.8
	c-1.6,2-3,4.1-4.2,6.4c-1.1,2.1-1.6,4.4-2.2,8.8c-0.1,0.9-0.3,1.8-0.4,2.6h-0.8l0.4-2.8c0.6-4.5,1.2-6.8,2.3-9.1
	c1.2-2.3,2.7-4.5,4.3-6.5c1.4-1.8,3-3.6,5-5.8c1.2-1.3,5.2-5.6,5.8-6.2c1.5-1.5,2.8-3.1,4-4.8c0,0,1.2-1.9,1.5-2.3
	c2.7-3.7,5.9-2.9,18.2,5.6c14.7,10.1,13.8,9.5,18.5,12.1c8.6,4.8,16.2,7,25.4,7c17.2,0,33-9,37.9-21.4c1.3-3.2,2.4-6.5,3.5-9.8
	c0.5-1.6,1-3.1,1.6-4.7c4-11.8,7.1-18.4,11.6-23.9c2.5-3,5.5-8,8.8-14.7c1.6-3.3,3.4-6.9,5.3-11.1c0.9-1.9,9.1-20.5,10.8-24.1
	c1.5-3.2,2.3-6.5,3.3-13.5c1-7,1.4-9.2,2.3-12.8c2.3-8.9,6.4-15.8,13.6-21.3c3.4-2.7,7.1-5,11.1-7c1.4-0.7,2.7-1.2,4.2-1.8
	c0.8-0.3,3.2-1.2,3.6-1.3c4.1-1.6,6.2-3,8.4-6.1c1.1-1.6,2.2-3.6,3.4-6.1c2.5-5.5,2.8-8.8,2.3-14.1c-0.2-1.3-0.3-2.5-0.2-3.8
	c0.2-4.1,2.7-7.7,9.7-13.1c7.8-5.9,9.7-11.1,7.2-15.8c-1.8-3.4-5.2-5.9-11.3-9.3c-1.3-0.7-3-1.1-5.3-1.3c-0.7-0.1-1.1-0.1-2.5-0.2
	c-4.8-0.2-6.4-0.7-6.4-2.8c-0.1-2.3,2.9-6.6,10-13.9c5.4-5.7,9.8-9.7,13.6-12.9c1.5-1.2,2.8-2.3,4.3-3.4l3.4-2.4
	c0.7-0.5,1.2-0.9,1.8-1.3c2.7-2.2,5.1-4.7,8.5-9.1c0.7-0.9,1.4-1.8,2.1-2.8l1.9-2.6c1.5-2,2.5-3.3,3.6-4.6
	c7.1-8.5,14.1-11.6,31.1-12.7c-0.4,0,10-0.7,11.9-0.8c3-0.1,5,0.1,7,0.8c0.7,0.2,1.3,0.5,2.1,0.9c1.9,0.9,2.6,3.2,3.6,9l0.4,2.3
	c0.1,0.9,0.3,1.6,0.4,2.4c1.2,6.4,3,10.2,6.5,12.1c5.6,3.1,8.8,4.3,11.7,4.1c3.3-0.2,5.8-2.6,7.7-8.1c1.2-3.4,1.2-5.4,0.3-6.6
	c-0.8-0.9-1.9-1.3-4.6-1.9c-0.7-0.1-1.5-0.3-2.2-0.5c-2.1-0.5-3.7-1.2-4.9-2.3c-1.3-1.1-2.6-2.2-4-3.3c-1.2-1-2.3-2-3.4-3
	c-2.3-2.2-3.2-3.7-2.7-5c0.8-2.2,6.5-2.9,15.8-2.8c4.7,0.1,9.3,0.3,13.9,0.7c2.3,0.3,2.7,0.4,3.1,0.5c1.2,0.2,2.5,0.5,3.8,0.8
	c4,0.7,8.1,1.1,12.1,1.1c4.6,0,8.5-0.7,11.4-2.2c6.7-3.4,13.2-5.7,18.5-6.3c0.6-0.1,1.2-0.1,1.7-0.1L500,174.1L500,174.1z M500,89.9
	v1.2c-7.2,13.4-14.4,24.6-19.7,29.9c-2.7,2.7-6.3,4.1-11.3,4.6c-3.7,0.4-6.9,0.3-16-0.2c-8.3-0.5-12.8-0.4-17.1,0.6
	c-4.1,1-8.3,1.5-12.5,1.8l-1.9,0.1c-10.4,0.6-16.1,1.5-27.3,4.8c-3.7,1.1-7.7,2.1-11.9,2.9c-9,1.7-18,2.8-27.2,3.3
	c-6.3,0.4-11,0.5-16.9,0.5c-4.5,0-9.9,1.3-15,4.3c-6.9,4.1-12.5,10.7-16.3,20.4c-1,2.8-2.3,5.5-3.8,8.2c-3,5.2-5.8,7.5-11.1,10.1
	l-3.4,1.6c-4.6,2.2-8.8,5.1-12.6,8.5c-6.8,6.1-11.4,13.9-18.8,29.7l-1.7,3.7c-6.1,13.1-9.6,19.4-14.5,24.9
	c-6.4,7.2-16.9,12-33.6,16.7c-3.6,1-15.9,4.2-16,4.3c-5.8,1.6-9.7,2.8-13,4.1c-8.8,3.5-15.6,8.8-30.3,22.1l-1.4,1.3
	c-7.1,6.5-11.2,9.9-15.7,13.2c-3.3,2.4-6.7,4.7-10.8,7.4c-1.7,1.1-8.6,5.5-10.3,6.6c-9.6,6.2-15.4,10.9-20.5,16.7
	c-2,2.3-3.8,4.8-5.4,7.4c-3.4,5.8-5.2,11-7.7,20.9l-1.3,5.2c-0.5,2-1,3.8-1.4,5.5c-2.5,8.9-5.7,14.5-12.3,22.4l-3.4,4.1
	c-1.2,1.4-2.4,2.9-3.5,4.4c-1.2,1.6-2.2,3.4-2.9,5.2c-1,2.7-1.3,4.9-1.6,9.9c-0.5,8.4-1.2,12.5-3.9,18.9c-1.3,3.1-4.7,11.7-5.3,13.2
	c-0.9,2.1-1.9,4.2-3,6.2c-2.4,4.3-5.6,8.4-10.9,14.1c-5,5.3-7.4,9.1-8.8,13.3c-0.4,1.3-0.8,2.7-1.1,4l-0.4,1.5h-0.9l0.4-1.7
	c0.4-1.7,0.8-2.9,1.2-4.1c1.5-4.4,4-8.2,9-13.6c5.3-5.6,8.4-9.7,10.8-14c1.1-2,2.1-4,2.9-6.1c0.6-1.5,4-10,5.3-13.2
	c2.6-6.2,3.3-10.3,3.8-18.6c0.3-5.1,0.6-7.4,1.6-10.2c0.7-2,1.7-3.8,3-5.4c1.1-1.4,2.2-2.8,3.5-4.4l3.4-4.1
	c6.5-7.9,9.7-13.3,12.2-22.1c0.5-1.7,0.9-3.4,1.4-5.5l1.3-5.2c2.5-10,4.3-15.3,7.8-21.2c1.5-2.6,3.3-5,5.4-7.5
	c5.1-5.9,11-10.6,20.7-16.9c1.7-1.1,8.6-5.5,10.3-6.6c4.1-2.7,7.5-5,10.8-7.4c4.5-3.3,8.5-6.7,15.6-13.2l1.4-1.3
	c14.8-13.4,21.6-18.7,30.6-22.2c3.3-1.3,7.3-2.6,13.1-4.1c0.2,0,12.4-3.2,16-4.3c16.6-4.7,26.9-9.4,33.2-16.5
	c4.8-5.4,8.3-11.7,14.3-24.7l1.7-3.7c7.4-15.9,12-23.7,19-29.9c3.8-3.5,8.2-6.4,12.8-8.7l3.4-1.6c5.2-2.6,7.9-4.8,10.8-9.8
	c1.5-2.6,2.7-5.3,3.7-8.1c3.8-9.9,9.6-16.7,16.6-20.8c5.2-3,10.8-4.4,15.4-4.4c5.8,0,10.5-0.1,16.8-0.5c9.1-0.5,18.1-1.6,27.1-3.3
	c4.2-0.8,8.1-1.8,11.8-2.9c11.2-3.3,17-4.2,27.4-4.8l1.9-0.1c4.8-0.3,8.2-0.7,12.4-1.7c4.4-1,9-1.1,18.8-0.6
	c7.5,0.4,10.7,0.5,14.3,0.1c4.8-0.5,8.3-1.9,10.8-4.4C485.1,115.2,492.5,103.6,500,89.9L500,89.9z M500,465.1
	c-1.1-3.8-1.8-8.8-2.8-16.9l-0.2-1.7l-0.2-1.7c-1.5-13.1-2.6-18.3-4.6-20.4c-2-2-2.5-4.2-2.1-7.2c0.1-0.5,0.1-0.9,0.3-1.8
	c0.6-2.9,0.6-4.2,0.1-5.7c-0.8-2-2.8-3.7-6.5-5.2c-4.2-1.7-5.4-4-4.1-7c0.5-1.2,1.5-2.5,2.9-4.2c0.9-1,4.6-5,4.2-4.6
	c5.1-5.6,7.5-9.4,7.5-13.7c-0.1-4.3,1.9-8.3,5.4-10.7v1c-3,2.3-4.7,5.9-4.6,9.7c0,4.6-2.4,8.6-7.7,14.3c0.3-0.4-3.4,3.6-4.2,4.6
	c-1.4,1.6-2.3,2.9-2.8,4c-1.1,2.5-0.2,4.3,3.6,5.9c3.9,1.6,6.1,3.5,6.9,5.7c0.6,1.7,0.6,3.1,0,6.2c-0.2,0.9-0.2,1.3-0.3,1.7
	c-0.4,2.8,0,4.7,1.9,6.5c2.3,2.3,3.3,7.5,4.9,20.9l0.2,1.7l0.2,1.7c0.7,5.8,1.3,10,1.9,13.4L500,465.1L500,465.1z M500,413.3
	c-1.2-2.6-3.7-8.2-4.1-9.3c-0.9-2.1-1-3.2-0.8-4.3c0.2-0.7,1.7-3.9,1.9-4.4c1.2-3,2.2-6.1,2.9-9.3v3.3c-0.6,2.2-1.3,4.3-2.2,6.3
	c-0.3,0.6-1.7,3.7-1.9,4.3c-0.2,0.9-0.1,1.8,0.7,3.8c0.3,0.8,2.1,4.7,3.3,7.6V413.3z M500,342.4c-1.4,1.4-3,2.4-5.3,3.4
	c-0.2,0.1-11.6,4.6-17,7c-7.8,3.6-13.9,4.9-19.2,4.4c-4.2-0.4-7.5-1.9-12.3-4.9l-2.7-1.7c-1.5-1-3-1.9-4.5-2.7
	c-3.4-1.8-2.7-4.8,1.2-8.7c3.1-3.1,8-6.6,15.6-11.5l3.7-2.3c15-9.4,15.2-9.6,18.6-12.3c9.4-7.5,16.4-11.7,21.9-12.6v0.8
	c-5.3,0.9-12.2,5-21.4,12.4c-3.4,2.7-3.6,2.9-18.6,12.3c-1.2,0.8-2.5,1.6-3.7,2.4c-7.6,4.9-12.4,8.4-15.5,11.4
	c-3.6,3.6-4.1,5.9-1.4,7.4c1.4,0.8,2.7,1.6,4.6,2.7l2.7,1.7c4.7,3,7.9,4.4,11.9,4.8c5.1,0.5,11.1-0.8,18.8-4.3c5.4-2.5,16.8-7,17-7
	c2.5-1.1,4.2-2.3,5.7-3.9L500,342.4L500,342.4z M500,307.9v0.8c-5.5,0.2-10.1,2.6-16.4,7.6l-3.9,3.1c-1.2,0.9-2.4,1.8-3.7,2.6
	c-0.7,0.4-4.6,2.8-5.2,3.1c-2.8,1.7-5.1,3.2-7.4,4.7c-2.3,1.5-4.6,3.2-6.8,4.9c-3.8,3.1-6.2,5.7-6.6,7.8c-0.5,2.2,1.2,3.8,5.9,4.5
	c8.9,1.5,17.4,0,25.4-3.9c5.3-2.6,10.1-6,14.2-10.2c1.7-1.9,3.2-4,4.5-6.2v1.6c-1.1,1.8-2.4,3.6-3.9,5.2c-4.2,4.2-9.1,7.7-14.5,10.3
	c-8.1,3.9-16.8,5.5-25.9,3.9c-5-0.8-7.2-2.7-6.5-5.6c0.5-2.3,2.9-5,6.9-8.2c2-1.6,4.2-3.2,6.9-5c2.3-1.5,4.6-3,7.4-4.7
	c0.6-0.4,4.5-2.7,5.2-3.1c1-0.7,2.2-1.5,3.6-2.6c0.7-0.5,3.2-2.6,3.9-3.1C489.5,310.6,494.3,308.1,500,307.9L500,307.9z M500,179.1
	v0.8c-1.5-0.2-3.6,0.2-6.5,1.3c-8.3,3.1-11.5,4.2-16,5.6c-1.5,0.5-2.2,0.7-3.2,1c-1.2,0.4-2.6,0.6-5.6,1c-0.7,0.1-1.5,0.2-2.2,0.2
	c-6.5,0.8-9.4,2.1-9.4,5.1c0,3.7,2.4,11,6.6,21.5c0.8,2.1,1.4,4.2,1.9,6.3c0.2,1,0.5,1.9,0.7,2.9c1.5,6.3,2.6,8.9,4.6,9.7
	c1.8,0.7,3.9,0.5,6.2-0.6c2.9-1.4,6-4.1,9.3-7.9c1.3-1.4,2.5-2.9,3.8-4.6l2.6-3.4c2.2-2.7,5.1-10.2,7-16.9v2.9
	c-1.9,6-4.4,12.1-6.3,14.5c-0.4,0.5-2.2,2.9-2.6,3.4c-1.4,1.7-2.6,3.2-3.8,4.7c-3.4,3.8-6.6,6.6-9.6,8.1c-2.5,1.2-4.8,1.5-6.9,0.6
	c-2.4-0.9-3.5-3.6-5.1-10.3c-0.2-1-0.5-1.9-0.7-2.9c-0.7-2.7-1.2-4.5-1.9-6.2c-4.3-10.7-6.7-18-6.7-21.8c0-3.6,3.2-5,10.1-5.9
	c0.7-0.1,1.5-0.2,2.2-0.2c2.9-0.3,4.3-0.5,5.4-0.9c1-0.3,1.7-0.6,3.2-1c4.4-1.4,7.6-2.5,15.9-5.6C496.1,179.3,498.4,178.9,500,179.1
	L500,179.1z M0,243.3c8.4-9.4,15.1-19.3,19.2-29.5c2.7-6.8,5.1-13.4,9-25.5l1.3-4c5.4-16.6,8.4-24.8,12.3-33
	c5.1-10.6,10.5-17.6,16.9-21.3c5.5-3.1,8.5-6.5,10.2-11c0.7-1.8,1.2-3.6,1.5-5.5c1-4.3,1.7-6.3,3.3-8.6c2-3,5.2-5.4,10.1-7.5
	c13.1-5.5,13.9-5.9,15-7.5c0.5-0.8,0.7-1.8,0.6-3.8c0-0.6-0.2-3.2-0.2-3.3c-0.1-1.5-0.1-3.1-0.1-4.6c0-8.4,0.2-9.5,2-11
	c0.4-0.3,0.9-0.7,1.7-1.1c0.2-0.1,1.8-0.9,2.4-1.2c2.7-1.4,5.2-3.1,7.6-4.9c1.7-1.3,2.2-1.8,6.7-6.6c3.1-3.4,5.2-5.3,7.5-6.8
	c3-1.9,6-2.6,9.1-1.8c3.7,1,9,1.7,15.6,2c5.7,0.3,10.7,0.4,18.3,0.4c4.1,0,7.5,0.4,12.8,1.3c6.5,1.1,7.7,1.3,10.3,1.3
	c3.4,0,6.2-0.7,8.9-2.5c4.2-2.7,6.8-3.9,9.3-4.3c3-0.5,4-0.4,13.8,1.7c14.4,3.1,25.7,1.1,34.2-8.1c4.2-4.6,4.6-7.4,2.9-12.3
	c-0.7-2-0.9-2.6-1-3.6c-0.2-2.1,0.4-3.9,2.3-5.8c2.2-2.2,3.9-7.6,5.2-15.2h1.7c-1.3,8.1-3.1,13.9-5.7,16.4c-1.5,1.5-2,2.8-1.8,4.4
	c0.1,0.8,0.2,1.4,0.9,3.2c1.8,5.4,1.5,8.9-3.2,14c-9,9.7-20.9,11.8-35.8,8.6c-9.5-2-10.5-2.2-13.1-1.7c-2.3,0.4-4.7,1.5-8.7,4.1
	c-2.9,1.9-6.3,2.8-9.8,2.7c-2.7,0-4-0.2-10.6-1.3c-5.3-0.9-8.6-1.3-12.5-1.3c-7.6,0-12.6-0.1-18.4-0.4c-6.7-0.4-12.2-1.1-16-2.1
	c-4.7-1.3-8.5,1.1-14.9,8c-4.6,4.9-5.1,5.4-6.9,6.8c-2.5,1.9-5.1,3.6-7.8,5c-0.6,0.3-2.1,1.1-2.4,1.2c-0.7,0.4-1.1,0.6-1.5,0.9
	c-1.2,1-1.4,2-1.4,9.7c0,1.5,0,2.9,0.1,4.5c0,0.1,0.2,2.7,0.2,3.4c0.1,2.3-0.1,3.6-0.9,4.8c-1.4,2.1-1.9,2.3-15.8,8.1
	c-4.6,1.9-7.5,4.1-9.3,6.9c-1.4,2.1-2.1,3.9-3,8.1c-0.7,2.9-1,4.1-1.6,5.7c-1.8,4.8-5,8.5-10.9,11.8c-6.1,3.4-11.3,10.2-16.2,20.5
	c-3.8,8-6.8,16.2-12.2,32.8l-1.3,4c-4,12.1-6.3,18.7-9,25.6C16.4,225.3,9.2,235.9,0,245.8L0,243.3L0,243.3z M0,308.3v-0.4l0.8,0
	c5.3,0,6.2,4.3,3.8,11.1c-1.2,3.3-2.8,6.4-4.7,9.4v-1.6c1.5-2.6,2.8-5.3,3.9-8.1c2.2-6.3,1.4-10-3-10c-0.3,0-0.6,0-0.8,0v-38.8
	c3.9-2.2,7.7-4.5,11.4-6.9c11.4-7.9,24.8-31.3,24.8-44.7c0-15.1,18-60.5,26.9-66.2c10.6-6.7,26.9-23.3,29.8-31.5
	c1.6-4.4,4.6-6.1,12-7.8c5.1-1.2,7.2-2,8.9-4c1.2-1.4,2.3-4,3.6-8.6c0.2-0.6,1.6-5.6,2-7c3-10.1,6.1-15.4,11.2-17
	c2.1-0.6,2.5-0.8,8.1-3.1c6.2-2.5,10-3.7,14.3-4.1c5.6-0.5,10.9,0.6,16.3,3.9c4.5,2.8,10.2,3.9,16.8,3.8c5-0.1,10.2-0.9,16.5-2.3
	c1.5-0.3,6.1-1.4,6.9-1.6c2.2-0.5,3.6-0.7,4.6-0.7c4.1,0,7.4,0,11.8-0.2c6.6-0.3,13-0.8,19-1.6c7.1-0.9,13.2-2.3,18.2-4
	c15.7-5.5,27.2-15.2,28.1-23c0.2-2.1,0.3-2.5,2.3-9.3c1.9-6.6,2.7-10.8,2.3-15.2c-0.2-1.9-0.6-3.6-1.2-5.3
	c-1.2-3.3-2.2-7.8-2.9-13.5h0.7c0.6,5.4,1.6,9.8,2.9,13.2c0.7,1.8,1.1,3.7,1.3,5.6c0.4,4.5-0.3,8.8-2.3,15.5c-2,6.7-2.1,7.1-2.3,9.1
	c-0.9,8.1-12.6,18.1-28.6,23.7c-5,1.8-11.3,3.1-18.4,4.1c-6,0.8-12.4,1.3-19,1.6c-4.4,0.2-7.7,0.2-11.9,0.2c-0.9,0-2.2,0.2-4.4,0.7
	c-0.7,0.2-5.4,1.3-6.9,1.6c-6.4,1.4-11.6,2.2-16.7,2.3c-6.8,0.1-12.6-1.1-17.3-3.9c-5.2-3.2-10.3-4.3-15.8-3.8
	c-4.2,0.4-7.9,1.5-14,4c-5.6,2.3-6.1,2.5-8.2,3.1c-4.8,1.5-7.7,6.6-10.7,16.4c-0.4,1.5-1.8,6.4-2,7c-1.4,4.7-2.4,7.3-3.8,8.9
	c-1.8,2.1-4,3-10,4.4c-6.5,1.5-9.3,3-10.7,7.1c-3,8.4-19.4,25-30.2,31.9c-8.6,5.5-26.5,50.7-26.5,65.5c0,13.6-13.6,37.3-25.2,45.3
	c-1.8,1.2-6.9,4.3-11.9,7.2v-1L0,308.3L0,308.3z M0,163.6v-0.9c6.2-3.2,12.1-8.5,18.2-15.8c3.2-3.8,11.8-15.6,13.2-17.1
	c1.5-1.7,3.4-3.3,6.2-5.4c0.9-0.7,4.1-3,4.6-3.3c7.8-5.7,11.7-10,13.3-16.1c0.7-2.5,1.3-5.6,2-10.2c0.2-1.2,1.7-10.4,2.1-13.2
	c2.4-14,4.8-22.3,8.4-26.7c9-11,16.6-22.9,16.6-27.2c0-2.1,0.3-2.8,5-13.1c0.6-1.2,1-2.3,1.5-3.3c2.1-4.8,3.2-8.4,3.4-11.1h0.8
	c-0.2,2.9-1.4,6.6-3.5,11.5c-0.4,1-0.9,2-1.5,3.3c-4.6,10-5,10.8-5,12.7c0,4.6-7.6,16.5-16.8,27.8c-3.5,4.3-5.9,12.5-8.2,26.4
	c-0.5,2.8-1.9,11.9-2.1,13.1c-0.8,4.6-1.4,7.8-2.1,10.3c-1.7,6.4-5.7,10.8-13.6,16.6L38,125c-2.7,2-4.6,3.6-6.1,5.3
	c-1.3,1.4-9.9,13.3-13.1,17.1C12.6,154.9,6.4,160.4,0,163.6L0,163.6z M0,465.1v-3.6c0.4,2,0.8,3.6,1.3,5.1c1.7,5,3.8,6.9,6.8,5.5
	c15.8-7.4,28.1-20.1,28.1-32.9c0-13.5,5.3-26.7,14.2-38.6c1.6-2.1,3-3.7,4.6-5c0.6-0.5,1.2-1,1.9-1.5l1.7-1.2
	c3.1-2.2,4.4-4.4,5.9-10.5c0.6-2.6,1.1-4.2,3.5-11l0.5-1.6c2.7-8,3.8-12.5,3.5-15.5c-0.4-3.7-3.2-4.4-9.4-1.4
	c-2.5,1.2-5,2.2-7.6,3.1c-11.6,3.9-22.5,4.8-35.5,4.5l-1.6,0l-1.2,0c-4.3,0-8.6,0.8-12.5,2.5c-1.5,0.6-2.9,1.4-4.1,2.4v-1
	c1.2-0.9,2.5-1.6,3.8-2.1c4.5-1.8,9.3-2.7,14.1-2.5l1.6,0c13,0.3,23.8-0.6,35.3-4.5c2.6-0.9,5.1-1.9,7.5-3c6.7-3.2,10.1-2.4,10.6,2
	c0.3,3.2-0.8,7.8-3.5,15.9l-0.5,1.6c-2.3,6.8-2.9,8.5-3.5,11c-1.5,6.3-3,8.6-6.2,11l-1.7,1.2c-0.7,0.5-1.3,1-1.9,1.5
	c-1.7,1.4-3.2,3.1-4.5,4.9c-8.8,11.8-14.1,24.8-14.1,38.1c0,13.2-12.5,26.2-28.6,33.7c-3.6,1.7-6.2-0.5-8-6
	C0.4,466.3,0.2,465.7,0,465.1L0,465.1z M0,413.3v-2l1.2,2.7c1.7,4,2.9,8.6,3.5,14c0.5,4.4,0.7,7.7,0.9,15.4
	c0.2,7.8,0.4,10.6,1.4,12.5c1.1,2.2,3.1,2,6.9-1.2c14.3-11.9,18.2-19.1,18.2-32.2c0-6,0.9-10.3,3.1-14.7c1.9-3.9,3-5.5,11.2-16.3
	c1.9-2.6,4-5.1,6.3-7.3c0.9-0.9,1.9-1.8,2.9-2.5c0.3-0.2,0.5-0.4,0.7-0.6c0.9-0.8,1.7-1.7,2.2-2.8c0.8-1.6,1.4-3.2,1.9-4.9l0.3-1
	l0.3-1c0.2-0.8,0.4-1.3,0.5-1.8c0.4-1.3,0.6-2.2,0.8-3c0.3-1.8,0.1-2.9-0.7-3.5c-2-1.3-7.7-0.2-19.8,4.1c-7.9,2.8-13.4,3.5-23.2,3.5
	c-6.4,0-8.7,0.3-11,1.8c-2.9,1.8-4.9,5.3-6.3,11.9c-0.4,1.8-0.8,3.5-1.2,5v-3.3l0.4-1.8c1.5-6.7,3.6-10.5,6.7-12.4
	c2.5-1.5,4.9-1.8,11.5-1.9c9.7-0.1,15.1-0.7,22.9-3.5c12.4-4.4,18.3-5.6,20.6-4c1.1,0.8,1.4,2.2,1.1,4.3c-0.2,1.1-0.5,2.1-0.8,3.1
	l-0.5,1.8l-0.3,1l-0.3,1c-0.5,1.7-1.1,3.5-1.9,5.1c-0.7,1.3-1.3,2.1-2.4,3l-0.8,0.6l-0.8,0.7c-0.7,0.6-1.4,1.2-2.1,1.8
	c-2.3,2.2-4.4,4.6-6.2,7.2c-8.1,10.8-9.2,12.4-11.1,16.2c-2.1,4.3-3,8.5-3,14.4c0,13.4-4,20.8-18.5,32.8c-4.2,3.5-6.8,3.8-8.2,1
	c-1-2.1-1.3-4.9-1.4-12.9c-0.2-7.6-0.3-11-0.9-15.3c-0.7-5.3-1.8-9.8-3.5-13.7L0,413.3L0,413.3z M316.1,0h0.9l1.2,4.4
	c2.7,9.6,4.1,16.1,4.4,23.2c0.4,9.2-1.3,17.7-5.5,26c-6.5,12.6-17.1,22.1-30.2,28.4c-10.3,5-21.8,7.6-30.2,7.6
	c-5.7,0-14.4,1.1-31.1,3.8l-1.9,0.3c-20.4,3.3-26.4,4.2-31.2,4.2c-2.9,0-3.4-0.1-16.3-2.3c-3-0.5-5.3-0.9-7.5-1.2
	c-16.9-2.5-25.8-1-26.6,6.5c-0.1,0.7-0.1,1.4-0.2,2.3l-0.2,2.3c-0.9,9.1-1.7,13.1-3.6,16.6c-2.4,4.4-6.5,6.6-13,6.6
	c-8.5,0-10.8,0.5-12.9,2.6c0.4-0.4-4.2,4.9-6.8,7.2c-2.3,2.1-11.9,10.5-13.1,11.5c-1.8,1.6-3.7,3.3-5.4,4.9
	c-5.8,5.4-9.8,9.8-12.2,13.5c-4.9,7.7-8.7,15-9.7,20.1c-1.4,6.9,3.1,7.9,15.8,1c12.1-6.6,24.5-12.7,37.1-18.2
	c2.9-1.3,11.7-5.2,13.1-5.8c4.2-1.9,6.9-3.2,9-4.3l1.6-0.9l1.8-1c1.5-0.8,2.8-1.5,4.2-2.1c15.1-7.3,28.7-8.7,41.9-1
	c19.1,11.1,31.9,30.8,31.9,47c0,15.9-0.6,20.9-4.3,27.7c-1.2,2.1-2.6,4.1-4.1,5.9c-5.4,6.5-9.8,13.5-10.6,17.7
	c-1,5.3,3.9,5.9,16.8,0c11.1-5.1,18.7-12.5,23.7-21.9c2.1-4,3.8-8.2,5.1-12.6c0.7-2.5,2.6-9.7,2.8-10.4c0.4-1.4,0.9-2.7,1.5-4
	c6.2-12.4,17.6-25.4,30.2-31c6.3-2.8,10.8-8,16.2-17.3c0.7-1.2,3.5-6.4,4.3-7.6c2.9-5.1,5.2-8.1,7.8-10c8.5-6.2,23.9-9.2,41.9-9.2
	c6.3,0,13.8-1,22.9-3c4.2-0.9,8.3-1.9,12.5-2.9c-1.1,0.3,12.9-3.3,16.2-4.1c11.8-2.8,34.2-4.2,53.4-4.2c14.5,0,23.2-7.7,32.1-32.2
	c5.5-15.2,5.5-22,2.2-28.6l-1-2c-0.8-1.6-1.3-3.3-1.3-5.1c0-3.4,0-3.3,2.1-20.5c0.4-3.1,0.7-5.6,0.9-8c0.8-7,1.1-12.7,1.1-17.3
	c0-0.8,0-1.6,0-2.5h0.8c0,0.9,0,1.7,0,2.5c0,4.7-0.4,10.4-1.2,17.4c-0.2,2.4-0.5,4.9-0.9,8c-2.1,17-2.1,17.1-2.1,20.4
	c0,1.6,0.4,3,1.2,4.7c0.2,0.4,1,2,1,2c3.4,6.9,3.4,13.9-2.2,29.3c-9,24.8-18,32.8-32.9,32.8c-19.1,0-41.5,1.4-53.2,4.2
	c-3.2,0.7-17.2,4.3-16.2,4.1c-4.1,1.1-8.3,2-12.5,2.9c-9.2,2-16.8,3-23.1,3c-17.8,0-33.1,3.1-41.4,9.1c-2.5,1.8-4.7,4.7-7.6,9.7
	c-0.7,1.3-3.6,6.4-4.3,7.6c-5.4,9.4-10,14.8-16.5,17.7c-12.4,5.5-23.6,18.4-29.8,30.6c-0.6,1.3-1.1,2.6-1.4,3.9
	c-0.2,0.7-2.1,7.9-2.8,10.4c-1.3,4.4-3,8.7-5.2,12.7c-5.2,9.6-12.9,17.1-24.1,22.3c-13.4,6.1-19.2,5.5-18-0.9
	c0.8-4.4,5.3-11.5,10.8-18.1c1.5-1.8,2.9-3.7,4-5.8c3.6-6.6,4.2-11.5,4.2-27.3c0-15.9-12.7-35.3-31.4-46.3c-13-7.6-26.3-6.1-41.2,1
	c-2,1-4,2-5.9,3.1l-1.6,0.9c-3,1.6-6,3-9,4.3c-1.4,0.6-10.1,4.5-13.1,5.8c-12.6,5.6-24.9,11.7-37,18.2c-13.3,7.2-18.6,6-17.1-1.9
	c1-5.2,4.9-12.5,9.8-20.3c2.4-3.7,6.4-8.2,12.3-13.6c1.6-1.5,3.4-3.2,5.5-4.9c1.2-1.1,10.8-9.4,13.1-11.5c2.6-2.3,7.2-7.6,6.8-7.2
	c2.3-2.3,4.8-2.9,13.5-2.9c6.2,0,10-2,12.3-6.2c1.8-3.4,2.6-7.4,3.5-16.3l0.2-2.3l0.2-2.3c0.5-4.5,3.7-7.1,9.4-8
	c4.5-0.7,10.4-0.4,18.2,0.7c2.2,0.3,4.6,0.7,7.5,1.2c12.8,2.2,13.3,2.3,16.1,2.3c4.8,0,10.7-0.9,31.1-4.2l1.9-0.3
	c16.7-2.7,25.4-3.9,31.2-3.9c8.3,0,19.6-2.6,29.8-7.6c13-6.2,23.4-15.6,29.8-28c4.2-8.1,5.8-16.5,5.4-25.6c-0.3-7-1.6-13.4-4.4-23
	L316.1,0z M327.5,0h0.8c0.6,3.2,1.6,7.2,2.9,12.4c3,11.7,2.5,22.5-0.6,32.3c-2,6.3-5.2,12.2-9.5,17.2c-4.8,5.7-10.2,11-16.1,15.6
	c-9.4,7.5-19.5,12.9-30,15.3c-6.2,1.4-12.5,2.5-18.8,3.4c-2.6,0.4-5.3,0.7-8.6,1.1l-7.8,0.9c-9.6,1.2-14.5,2.1-18,3.7
	c-7.7,3.5-23.6,5-41,5c-1.1,0-2.3-0.1-3.6-0.3c-2.2-0.3-4.2-0.9-7.6-1.9c-6.1-1.8-8-2.3-10.5-2.1c-3.2,0.2-5.5,1.9-7.1,5.7
	c-1.5,3.9-2,6.3-2.8,12.5c-0.9,7.5-2.4,10.1-8.3,11.9c-2,0.6-3.8,1.3-5.7,2.2c-0.5,0.3-1,0.5-1.5,0.8l-1.1,0.7
	c-1.6,0.9-3.2,1.2-7.7,1.2c-2.7,0-7.4-0.5-7.9-0.3c-1,0.2-0.6-0.1-5.9,5.2c-1.2,1.2-2.9,2.6-5.3,4.5c-1.3,1-6,4.5-6.6,5
	c-4.1,3.1-6.9,5.5-9.2,7.8c-4.1,4.1-5.7,7.6-4.6,10.6c1.1,3.1,3.4,3.7,7.4,2.3c2.2-0.8,4.4-1.8,6.5-2.9c1.2-0.6,6.5-3.4,7.8-4.1
	c3.3-1.8,6.8-3.4,10.3-4.7c3.1-1.2,6.2-2.6,9.2-4c1.7-0.8,8.9-4.3,10.8-5.2c3.7-1.7,6.7-3.1,9.7-4.4c14.3-6.1,24.4-8.2,31.4-5.5
	l4.5,1.7c1.9,0.7,3.5,1.3,5,2c3.7,1.5,7.3,3.2,10.9,5c15.3,8,25.3,18.4,29,33.2c5.8,23.2,3,37.9-6.7,52c-3.3,4.8-2.9,7.7,0,7.5
	c3.4-0.2,8.5-4.1,12.6-10.4c2.6-4,4.2-8.7,6.7-17.9l1.4-5.3c0.6-2.1,1-3.8,1.5-5.4c4.1-13.8,9.2-22.7,18-29c6-4.2,19.8-12.9,21.2-14
	c5.6-4,8.8-7.9,11.9-15c6.4-14.5,17.6-20.3,37.1-20.3c7.8,0,14.9-0.9,24.6-2.9c1.7-0.3,3.4-0.7,5.2-1.1c2-0.4,3.4-0.7,4.7-0.9
	c3.4-0.6,5.9-0.9,8-0.9c3.7,0,7.8-0.8,26.2-5l2.5-0.5c13.6-3.1,21.4-4.5,26.4-4.5c1.3,0,2,0,5.3,0.1c6.5,0.1,10.2,0.1,14.4-0.2
	c13.7-0.9,22.3-4.5,24.8-12.1c0.9-2.5,1.8-5,3-7.4c-0.1,0.3,1.9-4.1,2.4-5.3c4.5-10.2,4.6-18.3-1.2-32.9c-2.2-5.6-3.6-11.4-4.4-17.3
	c-1.3-10-1.1-19.3,0.1-33.6l0.2-1.8h0.8l-0.2,1.8c-1.2,14.3-1.4,23.5-0.1,33.4c0.7,5.8,2.2,11.6,4.3,17.1
	c5.9,14.8,5.8,23.1,1.2,33.5c-0.5,1.2-2.5,5.6-2.4,5.3c-1.1,2.4-2.1,4.8-2.9,7.3c-2.7,8.1-11.6,11.8-25.6,12.7
	c-4.2,0.3-8,0.3-14.5,0.2c-3.3-0.1-4-0.1-5.3-0.1c-4.9,0-12.6,1.4-26.2,4.4l-2.5,0.6c-18.5,4.2-22.5,5-26.3,5
	c-2.1,0-4.5,0.3-7.9,0.9c-1.3,0.2-2.7,0.5-4.7,0.9c-1.7,0.4-3.4,0.7-5.2,1.1c-9.7,2-16.9,2.9-24.8,2.9c-19.2,0-30,5.6-36.3,19.7
	c-3.2,7.3-6.5,11.3-12.2,15.4c-1.5,1.1-15.3,9.7-21.2,14c-8.6,6.1-13.6,14.9-17.7,28.5c-0.5,1.6-1,3.3-1.5,5.4l-1.4,5.3
	c-2.5,9.3-4.2,14.1-6.8,18.2c-4.2,6.5-9.5,10.6-13.2,10.8c-3.9,0.3-4.4-3.5-0.8-8.8c9.6-13.9,12.3-28.4,6.6-51.3
	c-3.6-14.5-13.5-24.8-28.6-32.7c-3.3-1.7-6.8-3.3-10.8-5c-1.5-0.6-3.1-1.2-5-2l-4.5-1.7c-6.7-2.6-16.7-0.5-30.8,5.5
	c-2.9,1.2-6,2.7-9.7,4.4l-10.8,5.2c-3.9,1.8-6.8,3.1-9.3,4.1c-3.5,1.4-6.9,2.9-10.2,4.7c-1.3,0.7-6.5,3.5-7.8,4.1
	c-2.1,1.2-4.3,2.1-6.6,2.9c-4.4,1.5-7.2,0.7-8.5-2.9c-1.2-3.3,0.5-7.1,4.8-11.4c2.3-2.3,5.1-4.7,9.3-7.9c0.7-0.5,5.4-4,6.6-5
	c1.8-1.4,3.6-2.8,5.2-4.4c5.6-5.6,5.1-5.1,6.3-5.4c0.7-0.2,5.6,0.3,8.1,0.3c4.3,0,5.9-0.3,7.3-1.1l1.1-0.7c0.5-0.3,1-0.6,1.5-0.9
	c1.9-0.9,3.8-1.7,5.8-2.3c5.5-1.7,6.8-4,7.7-11.2c0.8-6.3,1.2-8.7,2.8-12.7c1.7-4.1,4.2-6,7.8-6.3c2.6-0.2,4.6,0.3,10.8,2.2
	c2.5,0.8,5,1.4,7.5,1.9c1.2,0.2,2.4,0.3,3.4,0.3c17.3,0,33.1-1.5,40.7-5c3.6-1.6,8.6-2.6,18.3-3.8l7.8-0.9c3.3-0.4,5.9-0.7,8.6-1.1
	c6.8-0.9,12.8-2,18.7-3.4c10.3-2.4,20.3-7.7,29.6-15.2c5.8-4.6,11.2-9.8,16-15.5c4.2-5,7.3-10.7,9.3-16.9c3.1-9.6,3.6-20.3,0.6-31.9
	C329.3,8.4,328.3,4.2,327.5,0L327.5,0z M422.2,0h1c-0.4,0.5-0.8,1-1,1.3c-3.3,4.1-5.7,6.6-8.2,8c-1.3,0.7-2.7,1.2-4.1,1.2
	c-2,0-3.5,0.6-5.6,1.8l-2.2,1.4c-3.6,2.3-6.7,3.4-11.4,3.4c-4.7,0-8.3-1-13.4-3.4c-0.6-0.3-1.3-0.6-1.9-0.9l-1.8-0.8
	c-1.3-0.6-2.4-1-3.5-1.2c-0.9-0.2-1.8-0.4-2.7-0.4c-1.9,0-3.6-0.6-9.2-2.8L357,7.1c-4.2-1.6-6.7-2.3-8.8-2.2
	c-2.4,0.2-3.7,1.7-3.7,5.1c0,17.3-4.3,42-10.1,47.8c-6.3,6.3-22.1,19.7-28.4,24.2c-11,7.8-26,16.8-36.8,20.9
	c-3.6,1.4-7.3,2.5-11.1,3.4c-2.7,0.6-5.5,1.2-9.4,1.9c-0.4,0.1-7.3,1.2-9.6,1.7c-4,0.7-7.7,1.4-11.7,2.3
	c-17.2,3.7-20.9,4.2-31.8,4.2c-2.1,0-2.4-0.1-11.7-1.7c-2-0.3-3.6-0.6-5.1-0.8c-6.8-1-11.5-1.1-14.7-0.2c-3.8,1.2-4.9,3.9-3.1,8.8
	c1.7,4.4,4,7.2,7.4,8.9c2.7,1.4,5.6,2.2,11.5,3.1c7.8,1.2,9.1,1.5,12.9,2.4c5.4,1.4,10.6,3.4,15.5,6.1c6.9,3.8,12.1,9.6,16.6,17.4
	c2.3,3.9,7.9,16.1,8.8,17.7c2.8,4.9,5.2,5.5,9.1,1.7c4.1-4.1,8.6-7,17.6-11.7c0.4-0.2,1.7-0.9,1.8-0.9c6.6-3.5,9.9-5.4,13.2-7.9
	c4.3-3.2,7.2-6.7,9-10.9c7.1-16.9,17.3-27.8,27-27.8l4.6,0c8.8,0.1,14.5,0,20.7-0.3c11.4-0.5,19.8-1.7,24.5-3.9
	c4.9-2.2,11.2-4.6,20.1-7.5c2.9-0.9,5.2-1.7,10.6-3.4c6.4-2,9.2-2.9,12.6-4.1c3.1-1.1,6.3-2.1,9.4-3.1c3.1-1,5-1.7,6.7-2.3
	c1.9-0.7,3.8-1.5,5.5-2.4c1.6-0.8,3.1-1.7,4.9-2.9c2.9-1.9,5.1-2.6,10-3.4l1-0.2c4.8-0.8,7.5-1.9,10.6-4.7
	c6.5-5.8,7.1-19.3,3.2-37.1c-1.4-6.4-1.7-16.1-1.3-29.6c0.2-5.2,0.4-10.4,0.7-15.5h0.8l-0.1,2.5c-0.3,5.3-0.4,9.2-0.6,13
	c-0.4,13.4-0.1,23,1.3,29.3c4,18.1,3.4,31.8-3.5,37.9c-3.3,2.9-6.1,4-11,4.9l-1,0.2c-4.8,0.8-6.9,1.5-9.7,3.3c-1.6,1.1-3.3,2.1-5,3
	c-1.8,0.9-3.7,1.8-5.6,2.5c-1.7,0.7-3.7,1.3-6.7,2.3c-3.1,1-6.3,2.1-9.4,3.1c-3.4,1.1-6.2,2-12.6,4.1c-5.3,1.7-7.7,2.5-10.6,3.4
	c-8.9,2.9-15.2,5.2-20.1,7.5c-4.8,2.2-13.3,3.4-24.8,4c-6.3,0.3-12,0.3-20.8,0.3l-4.6,0c-9.3,0-19.3,10.7-26.3,27.2
	c-1.8,4.3-4.9,7.9-9.2,11.3c-3.3,2.6-6.7,4.5-13.3,8l-1.8,0.9c-8.9,4.7-13.4,7.5-17.4,11.6c-4.3,4.3-7.3,3.5-10.4-1.8
	c-0.9-1.6-6.5-13.7-8.8-17.7c-4.4-7.7-9.6-13.3-16.3-17.1c-4.8-2.7-10-4.7-15.3-6.1c-3.7-1-5-1.2-12.8-2.4c-6-0.9-8.9-1.7-11.8-3.2
	c-3.5-1.9-6-4.8-7.7-9.4c-2-5.3-0.6-8.5,3.6-9.9c3.3-1,8.2-0.9,15.1,0.1c1.5,0.2,3.1,0.5,5.1,0.8c9.2,1.6,9.6,1.6,11.6,1.6
	c10.8,0,14.5-0.4,31.6-4.2c3.9-0.8,7.6-1.6,11.7-2.3c2.3-0.4,9.1-1.6,9.6-1.6c3.9-0.7,6.6-1.2,9.3-1.9c3.8-0.9,7.3-1.9,11-3.3
	c10.7-4,25.7-13,36.6-20.8c6.2-4.4,22-17.8,28.3-24.1c5.5-5.6,9.9-30.1,9.9-47.2c0-3.8,1.5-5.7,4.5-6c2.2-0.1,4.8,0.6,9.1,2.3
	l1.3,0.5c5.4,2.2,7.1,2.7,8.9,2.7c0.9,0,1.9,0.1,2.9,0.4c1.1,0.3,2.2,0.7,3.6,1.3c0.9,0.4,1.9,0.8,2.8,1.3l1,0.4
	c5,2.3,8.5,3.3,13.1,3.3c4.5,0,7.4-1,10.9-3.3c0.2-0.1,1.7-1.1,2.2-1.4c2.2-1.4,3.9-2,6-2c1.2,0,2.4-0.4,3.7-1.1
	c2.3-1.3,4.7-3.7,7.9-7.8L422.2,0L422.2,0z M270.5,500h-1.7c0.4-2.5,0.8-5.2,1.1-8c0.4-3.4,0.6-6.9,0.8-10.2
	c0.1-1.2,0.1-2.2-0.3-6.1c-0.4-1.6-0.8-3.4-1.1-5.4c-1.7-9.4-2.2-19.1-1-28.1c0.7-5.2,2.1-10.2,4.3-15c2.7-5.6,6.2-10.7,10.5-15.2
	c2.8-3,4.6-4.6,9.9-9c3.7-3.1,5.3-4.6,6.3-6.2c0.5-0.9,0.8-1.7,0.8-2.5c0-1.5,0-1.4-0.6-7.7c-0.3-3.1-0.5-5.2-0.6-7.5
	c-0.4-10.1,1.3-16.3,6.8-18.1c13.2-4.4,21.6-10.1,27.9-21.3c7.9-14,21.4-26.3,29.9-26.3c10.3,0,16.7-1.6,24.5-7.3
	c5.6-4.1,7.9-5.5,10.4-6.2c1.8-0.5,3.2-0.6,7.6-0.6c1.5,0,2.9-0.7,4.6-2.2c0.9-0.8,4.3-4.3,4.7-4.7c5-4.9,10-7.3,17.4-7.3
	c2,0,3.8,0,6.1,0.1c6.3,0.2,7.4,0.1,9.4-0.6c2.5-0.9,4.6-2.5,12.3-9.3c6.7-5.9,8.9-7.4,19.1-13.7c1.2-0.8,2.2-1.4,3.1-2
	c2.8-1.9,5.4-3.9,7.9-6.2c3.4-3.2,6.7-6.5,9.7-9.9v2.5c-2.7,3-5.6,5.9-8.6,8.6c-2.6,2.5-5.2,4.5-8.1,6.4c-0.9,0.6-1.9,1.2-3.1,2
	c-10,6.2-12.3,7.8-18.8,13.6c-7.9,7-10,8.6-12.8,9.6c-2.3,0.8-3.5,0.9-10,0.7c-2.3-0.1-4-0.1-6-0.1c-6.9,0-11.5,2.2-16.2,6.8
	c-0.4,0.4-3.8,3.9-4.7,4.7c-2,1.7-3.7,2.6-5.7,2.6c-4.2,0-5.5,0.1-7.1,0.6c-2.2,0.6-4.4,2-9.9,6c-8.2,5.9-14.9,7.7-25.5,7.7
	c-7.7,0-20.8,11.8-28.4,25.4c-6.5,11.6-15.2,17.5-28.8,22c-4.4,1.5-6,7.1-5.6,16.5c0.1,2.2,0.3,4.3,0.6,7.4c0.6,6.3,0.6,6.3,0.6,7.9
	c0,1.1-0.4,2.3-1,3.4c-1.1,1.8-2.7,3.4-6.6,6.7c-5.2,4.4-7,5.9-9.7,8.9c-4.2,4.4-7.6,9.3-10.2,14.8c-2.1,4.6-3.5,9.5-4.2,14.5
	c-1.2,8.9-0.7,18.4,0.9,27.6c0.4,2,0.7,3.8,1.1,5.4c0.1,0.5,0.2,1,0.5,3.4c-0.2,4.5-0.5,9-1,13.4C271.2,494.9,270.8,497.6,270.5,500
	L270.5,500z M259.3,500h-0.9l0.1-0.2c2.6-6,3.6-9.9,3.6-15.6c0-3-0.1-4.1-0.6-13c-0.6-10-0.8-16.4-0.5-23.6c0.5-9.6,2-18.4,4.8-26.8
	c1.1-3.2,2.3-6.2,3.8-9.2c2.9-5.9,5.7-10.3,8.7-13.8c1.1-1.3,2.3-2.6,3.6-3.8c0.4-0.3,2.5-2.3,3.1-2.9c4.8-4.7,6.3-9.6,6.3-24.3
	c0-15.7,2.4-19.8,13.2-23.5c0.9-0.3,1.6-0.6,2.3-0.8c1.7-0.6,3.4-1.4,5.1-2.2c4.1-2.2,8-5.2,12-9.5c21.2-23,31-29.3,47-29.3
	c6.9,0,12.1-1.6,18.3-5.2c1.5-0.9,11.5-7.3,15.1-9.4c2.4-1.3,4.7-2.5,7.2-3.7c6.6-3,11.6-3.7,22.2-4c6.3-0.2,8.9-0.4,11.9-1.3
	c3.8-1.2,6.7-3.3,9.1-7c1.8-2.8,5.7-5.9,12.2-10c1.3-0.9,2.7-1.7,4.7-2.9c7.9-4.9,9.6-5.9,12.3-8c4.4-3.3,7.7-7,11.4-12.3
	c1.6-2.4,3.2-4.8,4.7-7.3v1.6c-1.6,2.6-2.8,4.5-4,6.2c-3.7,5.4-7,9.1-11.6,12.5c-2.7,2-4.4,3.1-12.4,8c-1.6,1-3.1,1.9-4.7,2.9
	c-6.4,4.1-10.2,7.1-12,9.8c-2.5,3.9-5.6,6.2-9.6,7.4c-3.1,0.9-5.7,1.2-12.1,1.4c-10.4,0.3-15.4,1-21.8,3.9c-2.4,1.1-4.8,2.3-7.1,3.6
	c-3.6,2-13.6,8.5-15.1,9.4c-6.3,3.7-11.7,5.4-18.7,5.4c-15.7,0-25.2,6.2-46.4,29c-4.1,4.4-8.1,7.5-12.2,9.7
	c-1.7,0.9-3.3,1.6-5.2,2.3c-0.7,0.3-1.4,0.5-4.5,1.6c-4.2,1.5-6.2,2.7-7.7,5.3c-1.9,3.1-2.7,8.3-2.7,16.7c0,14.9-1.6,20.1-6.5,24.9
	c-0.6,0.6-2.7,2.5-3.1,2.9c-1.3,1.2-2.4,2.4-3.6,3.7c-2.9,3.4-5.7,7.8-8.6,13.6c-1.4,3-2.7,6-3.7,9.2c-2.8,8.3-4.3,17.1-4.8,26.6
	c-0.4,7.2-0.2,13.5,0.5,23.5c0.6,9,0.6,10.1,0.6,13.1C262.9,489.5,262.1,493.2,259.3,500L259.3,500z M280.2,500h-0.8
	c0-3.9,0.1-7.8,0.2-12.5c0.2-5.3-0.3-9.8-2.1-20.3l-0.3-1.5c-1.8-10.5-2.3-16.1-1.6-22.1c0.9-7.7,4-13.9,10-18.9
	c18.4-15.2,24.8-25.1,24.8-37.2c0-2.2-0.2-4-0.8-6.8c-0.8-4-0.9-4.7-0.8-6.3c0.2-2.1,1.1-3.9,3-5.6c2.2-2,5.9-3.8,11.4-5.8
	c8.1-2.9,12.9-7.6,20.2-18l1.5-2.1c3.7-5.3,5.9-8,8.7-10.6c3.6-3.4,7.5-5.6,12.1-6.8c11.1-2.8,17-4.6,21.1-6.4
	c1.5-0.7,3-1.4,4.4-2.2c0.9-0.5,1.5-0.9,3.5-2.2c2.2-1.4,4.3-1.7,9.5-1.9c4.5-0.1,6.6-0.4,9.1-1.2c3.1-1,5.8-2.8,7.9-5.2
	c4.1-4.4,8.4-6.3,14.8-7.4c0.9-0.1,1.6-0.2,3.2-0.5c5.7-0.8,8.3-1.4,11.2-3c3.7-2,5.7-3.7,19.5-16.4l2.6-2.4
	c8-7.3,13.4-11.5,17.8-13.7c3.5-1.8,6.3-3.9,9.3-7.2v1.2c-2.8,3-5.6,5-9,6.7c-4.3,2.2-9.7,6.4-17.7,13.6l-2.6,2.4
	c-14,12.8-15.9,14.4-19.7,16.5c-3.1,1.7-5.7,2.3-11.5,3.1c-1.6,0.2-2.3,0.3-3.2,0.5c-6.3,1-10.4,2.9-14.3,7.2
	c-2.2,2.5-5.1,4.4-8.3,5.4c-2.7,0.8-4.8,1.1-9.4,1.2c-5,0.2-7,0.5-9.1,1.8c-1.2,0.7-2.3,1.5-3.5,2.2c-1.5,0.9-2.9,1.6-4.5,2.3
	c-4.2,1.8-10.1,3.6-21.2,6.4c-8.1,2-12.7,6.4-20.3,17.1l-1.5,2.1c-7.4,10.4-12.3,15.3-20.6,18.3c-5.5,2-9,3.8-11.2,5.7
	c-1.7,1.5-2.5,3.1-2.7,5c-0.1,1.5,0,2.2,0.8,6.1c0.6,2.8,0.8,4.7,0.8,7c0,12.3-6.6,22.5-25.1,37.8c-5.9,4.8-8.9,10.8-9.7,18.3
	c-0.6,5.8-0.1,11.4,1.6,21.8l0.3,1.5c1.8,10.5,2.3,15.1,2.1,20.5C280.2,492.2,280.2,496,280.2,500L280.2,500z M79.9,500h-1.7
	c0.6-3.2,0.9-7.3,1.3-13.3c0.2-2.6,0.2-3.4,0.3-4.7c1.1-14.6,3.4-22.6,9.6-27.7c3.9-3.1,6-7.4,7.2-13.3c0.4-2.1,0.6-3.2,1.1-7.6
	c0.5-4.6,1-6.7,1.9-8.6c1.2-2.6,3.2-3.9,6.2-3.9c11.9,0,32.1,7.6,44.7,16.8c7.2,5.3,17.7,11.1,26.4,14.3c10.9,3.9,18.2,3.7,20.6-1.4
	c1.4-3,1.6-3.4,2.2-4.8c2.4-5.6,3.9-10.2,4.4-14.6c0.2-1.8,0.2-3.5,0-5.2c-0.3-2.3-1.2-3.8-3.4-6.1l-1.1-1.1c-0.7-0.7-1.4-1.5-2-2.3
	c-0.8-1.1-1.5-2.2-2.1-3.4l-0.9-1.8c-1.3-2.6-2.2-3.8-3.4-4.6c-4.4-2.9-12.3-4.6-23.8-5.7c-2.5-0.2-5-0.4-7.5-0.6l-1.8-0.1
	c-8-0.6-12.6-1.3-15.9-2.7c-11.7-4.9-28.8-22-28.8-30.8c0-4.4,1.4-7.9,4.6-11.8c1.6-2,9.3-9.8,10.7-11.3c3.8-4.1,8.5-7.9,14.7-12.2
	c2.3-1.6,12.3-8,14.6-9.6c1.9-1.4,3.6-2.9,5.3-4.5c1.3-1.2,5.8-5.9,5.9-6.1c6-6.1,10.6-9.6,16.4-12c2.8-1.1,6.8-2.3,14.5-4.5
	c3.3-0.9,6.5-1.8,9.8-2.7c3.5-1,7.1-2,10.6-3.1c17-5.2,28.3-10.1,34-15.4c7.3-6.8,9.8-11.5,13.1-21.7c1.7-5.2,2.6-7.5,4.2-10.6
	c7.9-14.8,23.9-32.8,36.2-37.9c11.8-4.9,16.1-9.8,16.1-15.1c0-2.4,2.3-7,5.7-11.4c4-5.2,8.9-9.5,14-11.8c10.4-4.8,27.9-8.4,39.5-8.4
	c4.4,0,8.2-1.2,13.7-4.1c7.7-3.9,8.4-4.3,11.3-4.3c8.7,0,26.7-2.1,38.1-5l3.2-0.8l2.9-0.7c2.2-0.5,3.6-0.9,4.9-1.2
	c3.2-0.7,5.6-1,8-1c2.3,0.1,4.6,0.4,7.2,1.2c3.8,1.1,11.4-0.7,19.1-4.7c2.9-1.5,5.6-3.2,8.2-5.2v2c-9.2,6.8-21.5,11.4-27.7,9.5
	c-2.2-0.7-4.5-1.1-6.8-1.2c-2.2,0-4.5,0.2-7.6,0.9c-2.6,0.6-5.2,1.2-7.8,1.9l-3.2,0.8c-11.5,2.9-29.7,5-38.5,5
	c-2.5,0-3.3,0.3-10.6,4.1c-5.7,2.9-9.7,4.3-14.4,4.3c-11.4,0-28.6,3.5-38.8,8.2c-4.8,2.2-9.5,6.3-13.3,11.3
	c-3.2,4.2-5.3,8.5-5.3,10.4c0,6.1-4.8,11.5-17.2,16.6c-11.9,4.9-27.6,22.7-35.4,37.1c-1.6,3-2.5,5.2-4.1,10.3
	c-3.4,10.4-6,15.3-13.6,22.4c-5.9,5.5-17.4,10.5-34.6,15.7c-3.5,1.1-7,2.1-10.6,3.1c-3.3,0.9-6.6,1.8-9.8,2.7
	c-7.7,2.1-11.6,3.3-14.4,4.4c-5.6,2.2-10,5.7-15.9,11.6c-0.1,0.1-4.7,4.8-6,6.1c-1.7,1.7-3.5,3.3-5.5,4.7c-2.3,1.6-12.3,8-14.6,9.6
	c-6.2,4.2-10.8,7.9-14.4,12c-1.4,1.6-9,9.3-10.6,11.2c-2.9,3.5-4.2,6.7-4.2,10.7c0,7.9,16.7,24.6,27.8,29.2
	c3.1,1.3,7.6,1.9,15.4,2.5c1.2,0.1,2.4,0.2,3.6,0.3c2.7,0.2,4.2,0.3,5.8,0.5c11.7,1.1,19.8,2.8,24.5,6c1.5,1,2.5,2.4,4,5.2l0.9,1.8
	c0.6,1.1,1.2,2.2,1.9,3.2c0.5,0.7,1.1,1.3,1.9,2.2c0.2,0.2,0.9,1,1.1,1.1c2.4,2.6,3.5,4.4,3.8,7.1c0.2,1.8,0.2,3.6,0,5.5
	c-0.5,4.6-2,9.4-4.5,15.1c-0.6,1.4-0.8,1.8-2.2,4.8c-2.9,6.2-11.1,6.5-22.7,2.3c-8.9-3.2-19.5-9.1-26.9-14.5
	c-12.3-9-32.2-16.5-43.7-16.5c-4.2,0-5.3,2.5-6.4,11.1c-0.3,2.6-0.6,5.2-1.1,7.8c-1.3,6.2-3.6,10.9-7.8,14.3
	c-5.7,4.6-7.9,12.3-9,26.5c-0.1,1.3-0.1,2.1-0.3,4.6C80.9,492.6,80.5,496.8,79.9,500L79.9,500z M86.6,500h-0.8
	c0.2-1.2,0.5-2.4,0.7-3.8l0.9-4.7c2.1-11.1,3.5-16.6,5.6-20c1.4-2.4,3.1-4.6,6.7-9.2c6.8-8.6,9.1-12.1,9.1-15.6l0-1.4
	c0-1.5,0-2.2,0-3.1c0.2-4.2,1.2-6.8,3.9-7.8c3.3-1.2,8.7,0.4,16.8,5.4c8,4.9,14.6,8.9,21.6,13c1.1,0.7,11.9,7,14.7,8.7
	c1.8,1.1,3.6,2.2,5.3,3.2c11.5,7.1,32.4,4.2,38.6-6.5c3-5.2,3.8-7.1,6.5-14.4c0.3-0.9,0.6-1.7,1-2.6c0.9-2.2,2-4.4,3.4-6.4
	c7.8-11.6,12.4-21.7,12.4-30.6c0-3,0.6-5.5,2.8-12.4c0.4-1.4,0.7-2.2,1-3.1c3-10.2,2.5-15.9-3.6-20c-2.5-1.7-5.3-2.8-8.3-3.1
	c-6-0.8-12.1,1-19.9,4.9c-1.3,0.6-5.5,2.9-6.3,3.3c-1.2,0.6-2.3,1.2-3.4,1.9l-3.7,2.2c-9.7,5.8-17,7.6-27.3,5.1
	c-2.8-0.7-5.2-1.2-10.9-2.2c-11-2-15.6-3.1-19.4-5.4c-5.2-3.1-6.2-7.5-2.4-13.9c3.4-5.6,7.4-10.7,12-15.3c2.2-2.2,4.5-4.3,6.9-6.4
	c-0.1,0,5.1-4.4,6.5-5.6c1.9-1.7,3.7-3.4,5.4-5.3c6.4-7,10.6-11.1,16.7-15.5c8.3-5.9,17.8-10.3,29.3-13c30.9-7.2,42.5-10.6,49-14.9
	c7.2-4.8,17.7-20.6,30.7-45.7c4.3-8.4,10.2-15.3,17.6-21.4c4.3-3.5,8-6,14.6-10.2c6.2-3.8,8-5.1,9.5-6.8c1-1.2,1.8-2.6,2.5-4.1
	c0.5-1.1,2.4-5.4,2.5-5.6c1.1-2.5,2.1-4.5,3.3-6.4c5.4-9.1,13.4-15,26.2-17.3c10.6-1.9,16.5-2.2,24.7-1.9c2.7,0.1,3.4,0.1,4.7,0.1
	c4.3-0.1,8.1-0.9,13.8-3.2c17.3-6.9,32.3-10,49.3-10c2.5,0,5,0.1,8.7,0.4l1.7,0.1c10.4,0.8,15.1,0.8,21.1-0.5
	c4.1-0.9,8.1-2.4,11.7-4.5v1c-3.6,2-7.5,3.5-11.6,4.4c-6.1,1.3-10.9,1.3-21.4,0.5l-1.7-0.1c-3.7-0.3-6.2-0.4-8.7-0.4
	c-16.9,0-31.8,3.1-49,10c-5.8,2.3-9.7,3.2-14.1,3.2c-1.2,0-2,0-4.7-0.1c-8.1-0.3-14,0-24.6,1.9c-12.5,2.3-20.3,8-25.6,16.9
	c-1.2,2.1-2.3,4.2-3.2,6.4c-0.1,0.2-2,4.6-2.5,5.7c-0.7,1.5-1.5,3-2.6,4.2c-1.5,1.8-3.4,3-9.7,7c-6.6,4.1-10.3,6.6-14.5,10.1
	c-7.3,6-13.1,12.9-17.4,21.2c-13,25.2-23.6,41.1-31,46c-6.6,4.4-18.3,7.8-49.3,15.1c-11.4,2.6-20.8,7-29,12.8
	c-6,4.3-10.2,8.3-16.6,15.4c-1.7,1.9-3.6,3.7-5.5,5.3c-1.4,1.2-6.6,5.7-6.5,5.6c-2.7,2.4-4.8,4.3-6.9,6.3
	c-4.6,4.5-8.6,9.6-11.9,15.1c-3.6,6-2.7,9.9,2.1,12.7c3.7,2.2,8.2,3.3,19.4,5.3c3.6,0.6,7.2,1.3,10.8,2.2c10.1,2.5,17.2,0.7,26.7-5
	l3.7-2.2c1.4-0.8,2.5-1.4,3.5-2c0.8-0.4,5-2.6,6.3-3.3c8-4,14.2-5.8,20.4-5c3.1,0.4,6.1,1.5,8.7,3.3c6.5,4.3,7,10.4,3.9,20.9
	c-0.3,0.9-0.5,1.7-1,3.1c-2.1,6.8-2.8,9.2-2.8,12.1c0,9.1-4.7,19.3-12.6,31.1c-1.3,2-2.4,4-3.3,6.2c-0.3,0.8-0.6,1.5-1,2.5
	c-2.7,7.4-3.5,9.3-6.5,14.6c-6.4,11.2-27.9,14.1-39.7,6.8c-1.8-1.1-3.5-2.2-5.3-3.2c-2.8-1.7-13.6-8.1-14.7-8.7
	c-7-4.1-13.6-8.1-21.6-13c-7.9-4.9-13.1-6.4-16-5.3c-2.2,0.9-3.2,3.2-3.3,7.1c0,1,0,2.1,0,3.1l0,1.4c0,3.7-2.2,7.3-9.6,16.6
	c-3.3,4.1-4.9,6.3-6.3,8.7c-2,3.3-3.4,8.8-5.5,19.8l-0.9,4.7L86.6,500L86.6,500z M95.4,500h-0.8c0-0.3,0-0.6,0-0.8
	c0-10.3,7.1-28,16-36.1c1.1-1,2.2-2.2,3.1-3.5c0.9-1.3,1.7-2.7,2.4-4.1c0.3-0.6,1.5-3,1.7-3.6c2.7-5.2,5.7-5.4,14.1,0.3
	c1.1,0.8,5.1,3.5,5.3,3.6c2.2,1.5,3.9,2.7,5.6,3.8c4.2,2.8,7.8,5.2,11.3,7.2c11.9,7.2,21.2,11.1,28.4,11.1c14,0,27.3-5,33-12.3
	c1.3-1.7,2.7-4.3,4.2-8c0.7-1.6,1.4-3.4,2.2-5.7l2.3-6.1c3.9-10.4,6.5-15.9,9.6-19.4c6.6-7.3,12.4-30,12.4-43.9
	c0-1.6,0.1-2.6,0.8-6.9c0.3-1.8,0.5-3,0.6-4.2c0.5-4.6,0.2-7.9-1.4-10.3c-3.8-5.9-16.4-7.7-32-4c-5.4,1.2-10.7,3-15.8,5.2
	c-4.3,2-14.3,8.1-13.7,7.8c-5.6,3-10.8,3.5-20.7,1.1c-24.6-5.9-25.4-7.2-12.7-22.3c14.5-17.4,39.3-38.5,47-38.5
	c8.3,0,44.9-10,54.8-15c7.9-3.9,20.3-17.6,30.7-31.5c0.6-0.8,11.2-18,16-24.7c7.8-10.9,15.2-18.8,22.5-22.9
	c6.1-3.5,11-8.6,15.7-15.6c1.6-2.4,8.8-14.7,10.6-17c1.3-1.6,2.5-2.7,3.8-3.2c11.7-5.2,20.2-7.5,32.7-7.5h24.2
	c3.4,0,6.1-0.3,19.1-2.1l3.6-0.5c8.3-1.1,13.8-1.6,18.1-1.6c1.4,0,2.5,0,5,0c15.5,0.2,23.8-0.4,37.4-3.4c2.6-0.6,5.1-1.5,7.6-2.8
	v0.9c-2.4,1.2-4.8,2.1-7.4,2.6c-13.7,3-22,3.5-37.6,3.4c-2.6,0-3.6,0-5,0c-4.3,0-9.8,0.5-18,1.6l-3.6,0.5c-13,1.8-15.8,2.1-19.2,2.1
	H385c-12.3,0-20.7,2.3-32.3,7.5c-1.1,0.5-2.2,1.5-3.4,3c-1.8,2.2-8.9,14.5-10.6,16.9c-4.8,7.1-9.7,12.3-15.9,15.9
	c-7.1,4.1-14.5,11.9-22.2,22.7c-4.7,6.6-15.4,23.9-16,24.7c-10.5,14-22.9,27.8-31,31.8c-10,5-46.8,15-55.2,15
	c-7.3,0-32,21-46.3,38.2c-12.2,14.6-11.8,15.2,12.3,21c9.7,2.3,14.7,1.9,20.1-1c-0.6,0.3,9.4-5.9,13.8-7.9c4.5-2.1,9.7-3.8,15.9-5.3
	c15.9-3.8,28.9-2,32.9,4.3c1.7,2.6,2.1,6.1,1.5,10.9c-0.2,1.4-0.4,2.9-0.6,4.3c-0.7,4.2-0.8,5.2-0.8,6.7c0,14.1-5.9,36.9-12.6,44.4
	c-3.1,3.4-5.6,8.9-9.5,19.1c-0.3,0.8-1.8,4.9-2.3,6.1c-0.9,2.3-1.6,4.1-2.2,5.7c-1.6,3.8-3,6.4-4.3,8.2
	c-5.9,7.6-19.4,12.7-33.7,12.7c-7.4,0-16.8-3.9-28.9-11.2c-3.5-2.1-7.1-4.4-11.3-7.3c-1.9-1.3-3.7-2.5-5.6-3.8l-5.3-3.7
	c-8.1-5.5-10.5-5.3-12.9-0.6c-0.3,0.6-1.4,3-1.7,3.6c-0.7,1.5-1.5,2.9-2.5,4.2c-0.9,1.3-2,2.5-3.2,3.6c-8.7,8-15.7,25.4-15.7,35.5
	L95.4,500L95.4,500z M70.7,500h-0.9c1-2.1,1.5-4.3,1.5-6.7c0-16.7,4-35,10.1-41.1c4.3-4.3,6.5-7,8.2-10.6c2.2-4.5,3.3-10,3.3-17.4
	c0-5.7,0.9-9.7,2.8-12.6c1.4-2.2,3-3.5,7.4-6.3c1.1-0.7,2.2-1.5,3.2-2.3c3.8-3.3,5.5-5.2,6.4-7.8c1.2-3.3,0.8-7.5-1.5-13.3
	c-1-2.3-2.1-4.6-3.3-6.7l-0.8-1.4c-0.8-1.4-1.5-2.8-2.2-4.2c-4.3-8.9-3.1-15.7,6.4-24.8c6.9-6.6,14.4-12.6,22.3-18
	c3.3-2.2,14-9,16-10.4c1.7-1.2,3.6-2.7,6.5-5.2c0,0,6-5.3,7.9-6.9c4.1-3.5,7.6-6.2,10.9-8.5c3.9-2.6,7.5-4.4,10.7-5.3
	c10.6-2.8,13-3.5,18.1-5c10.5-3,18.3-5.7,23.4-8.3c2-1,4.1-1.7,6.2-2.3c7.2-2.2,10-3.4,14.1-6.7c5.6-4.5,10.9-11.9,16.1-23.2
	c13.3-29,15.9-32.8,26.8-41c2.6-2,5.3-3.4,9.5-5.3l1.9-0.9c9.9-4.5,14.1-7.4,17.6-14.5c1.6-3.1,2.1-5.2,2.8-10.2
	c0.6-4.3,1.2-6.3,2.9-8.5c2.1-2.8,5.9-5.2,12-7.5c2.8-1,6.1-2.1,10-3.1c13.6-3.6,21.1-4.5,33-4.8c5.7-0.2,7.9-0.5,10.5-1.7
	c1-0.4,2-1,3-1.8c3.1-2.2,6.8-3.8,11-4.7c4.8-1.1,8.9-1.3,15.6-1.2l2,0c2.3,0,5.7-0.8,16.4-3.9c9-2.6,13.3-3.6,16.1-3.6
	c0.7,0,1.6,0.1,3,0.3l4.2,0.7c8.2,1.4,14.5,1.6,21-0.2c6.6-1.8,12.3-5.6,16.9-11.9v1.4c-4.6,5.9-10.2,9.5-16.7,11.3
	c-6.6,1.8-13,1.6-21.3,0.2l-4.2-0.7c-1.3-0.2-2.2-0.3-2.8-0.3c-2.7,0-6.9,1-16.4,3.7c-10.3,2.9-13.6,3.8-16,3.8l-2,0
	c-6.6-0.1-10.7,0.1-15.4,1.2c-4.1,0.9-7.7,2.4-10.7,4.6c-1,0.7-2,1.3-3.1,1.8c-2.8,1.2-5,1.6-10.9,1.7c-11.9,0.4-19.3,1.2-32.8,4.8
	c-3.4,0.9-6.7,1.9-10,3.1c-6,2.2-9.6,4.5-11.6,7.2c-1.6,2.1-2.1,4-2.8,8.2c-0.8,5.1-1.3,7.2-2.9,10.5c-1.9,3.8-4.6,7.1-8,9.5
	c-2.6,1.9-5,3.1-9.9,5.3l-1.9,0.9c-4.2,1.9-6.8,3.3-9.4,5.2c-10.7,8.1-13.3,11.8-26.5,40.7c-5.3,11.5-10.6,18.9-16.3,23.5
	c-4.2,3.4-7.1,4.6-14.4,6.9c-2.1,0.6-4.1,1.3-6.1,2.3c-5.2,2.6-13.1,5.3-23.6,8.4c-6,1.7-12.1,3.4-18.2,5c-3.1,0.8-6.6,2.6-10.5,5.2
	c-3.8,2.6-7.4,5.4-10.8,8.4c-1.9,1.6-7.9,6.9-7.9,6.9c-2.1,1.9-4.3,3.7-6.5,5.3c-2,1.4-12.8,8.2-16,10.4
	c-7.9,5.3-15.3,11.3-22.2,17.9c-9.3,8.8-10.4,15.2-6.2,23.9c0.7,1.4,1.4,2.8,2.2,4.1l0.8,1.4c1.3,2.2,2.4,4.5,3.4,6.8
	c2.4,6,2.8,10.4,1.6,13.9c-1,2.9-2.7,4.8-6.7,8.2c-0.9,0.8-1.9,1.5-4.4,3.1c-3.3,2-4.7,3.2-6.1,5.3c-1.8,2.7-2.7,6.6-2.7,12.1
	c0,7.5-1.1,13.2-3.4,17.8c-1.8,3.7-4,6.5-8.4,10.8c-5.9,5.9-9.9,24.1-9.9,40.5C72.1,495.7,71.6,497.9,70.7,500L70.7,500z M306.1,500
	h-0.8l-0.9-4.8c-2.6-13.5-3.4-21.8-2.3-31c0.6-4.8,0.6-8.1,0.5-12.7c-0.1-3.7-0.1-4.7,0.2-6.4c0.6-3.6,2.9-7.1,8.7-13.6
	c7.6-8.5,10.2-12.8,16.5-25.1c1.1-2.2,1.9-3.7,2.8-5.2c0.7-1.3,1.5-2.5,2.3-3.7c2.6-3.9,5.9-7,14-14c9.3-8,12.9-11.5,15.1-15.9
	c0.6-1.2,1.1-2.3,1.6-3.7c0.4-1.1,0.8-2.2,1.2-3.4c3-8.3,6.7-11.6,19.1-14.8c4.2-1.1,17.1-4.3,17.8-4.4c13.5-3.4,21.1-6.1,27.9-10.5
	c4.9-3.1,4.9-3.1,23-13.8l2.2-1.3c8.5-5,14.2-8.5,18.9-11.6c2.5-1.7,5-3.4,7.3-5.2c1.8-1.4,3.5-2.8,5.3-4.2
	c4.2-3.3,8.7-6.2,13.4-8.5v0.9c-4.6,2.3-8.9,5-12.9,8.2c0.1-0.1-4,3.2-5.3,4.2c-2.4,1.9-4.9,3.6-7.4,5.3c-4.7,3.1-10.4,6.6-19,11.6
	l-2.2,1.3c-18.2,10.6-18.1,10.6-23,13.7c-6.9,4.4-14.6,7.2-28.1,10.6c-0.7,0.2-13.7,3.4-17.8,4.4c-6.7,1.7-11,3.7-13.7,6.2
	c-2.2,2-3.3,4-4.8,8.1l-1.2,3.4c-0.5,1.3-1,2.5-1.6,3.7c-2.3,4.5-5.9,8.1-15.3,16.2c-8.1,6.9-11.3,10-13.9,13.8
	c-0.8,1.2-1.6,2.4-2.3,3.7c-0.9,1.5-1.7,3-2.8,5.2c-6.3,12.3-9,16.7-16.6,25.3c-5.7,6.4-7.8,9.8-8.5,13.2c-0.3,1.5-0.3,2.5-0.1,6.2
	c0.2,4.7,0.1,8-0.5,12.9c-1.1,9.1-0.3,17.3,2.3,30.8L306.1,500L306.1,500z M242.3,500h-1.7l1.2-3.6c0.9-2.7,1.6-5.6,2.2-8.7
	c2.2-10.6,2.7-19.7,2.7-34.4c0-4.8-1.5-8.1-3.4-8.1c-2.4,0-5.8,4.7-9.1,14.2c-8.2,23.6-18.9,34.7-35.8,34.7
	c-18.7,0-24.4-1.1-40.3-8.4c-2.7-1.2-5.3-2.6-7.8-4.2c-2.5-1.5-10.6-7.1-12.4-8.1c-3.5-2-5.8-2.3-8.1-0.8c-0.5,0.3-1,0.8-1.6,1.3
	c-1.1,1.1-2.3,2.2-3.6,3.2c-0.8,0.7-1.7,1.4-2.5,2l-0.8,0.7c-6.9,5.5-9.4,9.5-9.4,17.7c0,0.9,0,1.7-0.1,2.5h-1.7
	c0-0.8,0.1-1.6,0.1-2.5c0-8.8,2.8-13.1,10.1-19c0.6-0.4,1.1-0.9,1.7-1.3c0.7-0.5,1.2-0.9,1.7-1.3c1.2-1,2.4-2,3.5-3.1
	c0.6-0.6,1.2-1.1,1.9-1.5c2.9-1.8,5.8-1.5,9.8,0.8c1.8,1,10,6.7,12.4,8.1c2.5,1.5,5,2.9,7.7,4.1c15.7,7.2,21.2,8.3,39.6,8.3
	c16,0,26.2-10.6,34.2-33.6c3.5-10.2,7.2-15.3,10.7-15.3c3.2,0,5.1,4.2,5.1,9.8c0,14.8-0.5,24-2.7,34.7c-0.6,3.1-1.4,6-2.3,8.8
	C243,498,242.6,499,242.3,500L242.3,500z M117.9,500l0.4-0.8c2-3.6,3.8-7.3,5.4-11c2.3-5.2,4.8-8,7.7-8.8c3.1-0.8,6,0.6,10.5,4.3
	c4.5,3.7,5.1,4,6.4,4.2c1.3,0.2,3.6,0.9,7.4,2.5c1.1,0.4,9,3.6,11.5,4.6c2.6,1,4.9,1.9,7.1,2.6c2.6,0.9,5,1.7,7.2,2.3h-2.9
	c-1.5-0.5-3-1-4.6-1.6c-2.4-0.8-4.7-1.7-7.1-2.7c-2.6-1-10.5-4.2-11.5-4.6c-3.7-1.5-6-2.2-7.2-2.4c-1.6-0.2-2.1-0.6-6.8-4.4
	c-4.3-3.5-7-4.8-9.7-4.1c-2.6,0.7-4.9,3.3-7.1,8.3c-1.7,3.9-3.6,7.8-5.7,11.5L117.9,500L117.9,500z M212,500c3.5-1,6.7-2.8,9.4-5.2
	c1.3-1.1,2.8-2.9,4.4-5.2c0.9-1.2,1.8-2.6,2.8-4.2c0.7-1.1,1.4-2.2,2.1-3.2l0.4-0.6l0.8-1.2c0.9-1.4,1.8-2.7,2.7-4
	c0.9-1.2,1.5-1.9,2-2c0.8-0.3,1.2,0.4,1.2,1.7l0,1.8c0,5.8-0.1,9.4-0.6,13.6c-0.3,3-1,5.9-2,8.8h-0.9c1-2.9,1.7-5.9,2-8.9
	c0.5-4.1,0.6-7.8,0.6-13.5l0-1.8c0-0.8-0.1-0.9-0.1-0.9c-0.3,0.1-0.9,0.7-1.6,1.7c-0.9,1.3-1.8,2.6-2.7,4l-0.8,1.2l-0.4,0.6
	c-0.7,1.1-1.4,2.2-2.1,3.3c-1,1.6-2,3-2.9,4.2c-1.7,2.4-3.2,4.2-4.6,5.4c-2.2,1.9-4.7,3.5-7.4,4.6L212,500L212,500z M58.9,500h-1.1
	c2.8-2.9,4.3-6.9,4.3-12.5c0-15.5,0-14.5,0.8-17.3c0.5-1.6,1.2-3.1,2.7-5.5c0.3-0.6,4.1-6.5,5.6-9c2.5-4.1,9.2-13.7,10.2-15.5
	c2.9-5.1,3.9-10,3.9-20.1c0-6.5,2.1-11.8,6.7-19.5l2.4-3.9c0.7-1.2,1.4-2.4,2.1-3.7c1.3-2.6,2.1-4.8,2.2-6.9
	c0.2-3.1-1.1-6.1-4.1-9.1c-4.3-4.3-7.2-4.5-9.3-1.5c-1.8,2.4-2.9,6.4-4.2,13.7c-0.2,0.9-0.7,3.8-0.7,3.8c-0.7,3.9-1.2,6.1-1.7,8
	c-1.1,3.7-3.1,6.3-7,10.2l-2.7,2.7c-5.3,5.3-8.1,9.6-9.5,16.2l-1,4.6c-0.7,3.4-1.3,5.9-1.9,8.3c-3.1,11.4-8,21.6-18.8,37.3
	c-6.4,9.3-9.2,15.7-9.1,19.8h-0.8c-0.1-4.3,2.8-10.9,9.2-20.2c10.7-15.6,15.7-25.7,18.7-37c0.6-2.4,1.2-4.8,1.9-8.2l1-4.6
	c1.4-6.8,4.3-11.2,9.7-16.7c0.5-0.5,2.4-2.3,2.7-2.7c3.8-3.8,5.7-6.3,6.8-9.9c0.7-2.6,1.3-5.2,1.7-7.9l0.7-3.8
	c1.3-7.4,2.5-11.5,4.4-14.1c2.5-3.5,6-3.1,10.6,1.4c3.2,3.2,4.5,6.3,4.3,9.7c-0.1,2.2-0.9,4.5-2.3,7.2c-0.7,1.3-1.4,2.5-2.1,3.7
	l-2.4,3.9c-4.6,7.6-6.6,12.7-6.6,19.1c0,10.2-1.1,15.4-4,20.6c-1,1.7-7.7,11.4-10.2,15.5c-1.6,2.5-5.3,8.5-5.6,9
	c-1.4,2.3-2.2,3.8-2.6,5.3c-0.8,2.7-0.8,1.7-0.8,17.1C62.9,492.9,61.5,497,58.9,500L58.9,500z M258.4,0h0.9c-0.3,0.7-0.6,1.5-1,2.3
	c-3.2,7.5-4.5,12.6-4.5,21c0,6.4-1.7,9.7-5.5,10.9c-2.9,0.9-4.8,0.8-14.6-0.4c-9.6-1.1-16-1.3-23.5-0.1c-5.2,2.1-21.6,5.8-26.8,5.8
	c-9.3,0-30.6-2.4-45.1-5.8c-4.8-1.2-9.9-0.5-14.1,2.1c-3.4,1.9-5.9,4.2-11.6,10c-5.2,5.3-7.9,7.7-11.5,9.6
	c-5.9,3.2-9.3,6.4-11.2,10.2c-1.5,3.2-1.9,6.5-1.9,12.7c0,3.7-2.2,5.6-7.9,8.1c0.1,0-2.5,1.1-3.2,1.4c-7.3,3.4-10.6,6.9-10.6,13.8
	c0,10.4-4,16-14.4,23.3l-3.8,2.6c-1.6,1.1-2.7,1.9-3.9,2.7c-0.8,0.6-1.5,1.1-2.2,1.7c-6,4.7-9.2,12.1-13,27.7
	c-0.5,2.1-2.7,11.7-3.4,14.3c-1.3,5.4-2.7,10.8-4.3,16.1c-1.1,3.7-3.7,12.6-4.1,13.8c-0.9,2.8-1.4,4.1-2,5.3
	c-0.7,1.2-5.7,7.6-10.5,15.2L0,231.6v-1.6l3.8-6.1c3.3-5.2,6.8-10.3,10.5-15.2c-0.2,0.4,1.1-2.3,2-5.1c0.4-1.2,3-10,4.1-13.8
	c1.5-5,2.9-10.1,4.3-16.1c0.6-2.6,2.9-12.1,3.4-14.3c3.8-15.8,7.1-23.3,13.3-28.2c0.7-0.6,1.4-1.1,2.2-1.7c1.1-0.8,2.3-1.7,3.9-2.8
	l3.8-2.6c10.2-7.1,14.1-12.5,14.1-22.6c0-7.3,3.5-11,11.1-14.5c0.7-0.3,3.3-1.5,3.2-1.4c5.4-2.4,7.4-4.1,7.4-7.3
	c0-6.3,0.4-9.7,2-13.1c1.9-4,5.5-7.4,11.5-10.6c3.5-1.8,6.1-4.2,11.8-9.9c5.2-5.3,7.8-7.6,11.3-9.6c4.4-2.7,9.7-3.4,14.7-2.2
	c14.4,3.4,35.7,5.8,44.9,5.8c5.1,0,21.4-3.8,26.6-5.8c7.6-1.2,14-1,23.7,0.1c9.7,1.1,11.6,1.2,14.3,0.4c3.4-1.1,4.9-4,4.9-10.1
	C252.9,14.9,254.2,9.8,258.4,0L258.4,0z M279.3,0h0.8c0,4.7,0.2,9.6,0.5,16.2c0.4,8.1,0.5,12.1,0.5,18c0,8.2-3.9,14.5-10.9,19.3
	c-5.4,3.7-12.4,6.2-20.3,7.8c-3.1,0.4-7.8,0.5-18.9,0.2c-5.6-0.1-7.8-0.2-10.3-0.2c-2.3,0-4.1,0.4-6.4,1.1c-0.7,0.2-3.8,1.4-4.6,1.8
	c-5.5,2-11.3,2.9-20.7,2.9c-6.7,0-11.3-1.1-18.7-4.1l-2.6-1c-10.5-4.1-17.7-4.3-31,0.9c-9.3,3.7-15.1,7.7-18.6,12.3
	c-2.6,3.5-3.6,6.5-4.9,13.2c-1,5.1-1.6,7.3-2.9,10.1c-1.4,2.9-3.3,4.8-5.9,6c-1.9,0.9-3.6,1.2-7.8,1.8c-7.5,1.1-10.6,2.6-13,8
	c-3.1,7.1-6.4,11.6-11.8,16.5c-2,1.8-10.9,9.2-13.3,11.2c-6.8,5.9-11.5,14.5-15.6,26.6c-1,3-1.9,5.9-2.7,8.9c0,0-1.9,6.6-2.4,8.4
	c-7.1,24-14.9,44.1-21.8,51c-2.3,2.3-4.2,4.7-8.7,10.8c-2.8,3.9-5.2,6.9-7.5,9.2v-1.3c2.3-2.5,4.8-5.7,7.9-10c3.4-4.6,5.3-7,7.6-9.4
	c6.7-6.7,14.5-26.8,21.6-50.7c0.5-1.7,2.4-8.4,2.4-8.4c1-3.5,1.8-6.3,2.7-8.9c4.1-12.3,8.9-21,15.8-27c2.3-2,11.2-9.4,13.2-11.2
	c5.3-4.8,8.6-9.2,11.6-16.2c1.4-3.2,3.4-5.3,6-6.5c2-1,3.9-1.4,7.9-2c3.8-0.5,5.4-0.9,7.2-1.7c2.4-1.1,4.2-2.8,5.5-5.6
	c1.3-2.7,1.9-4.9,2.9-9.9c1.4-6.8,2.4-9.8,5.1-13.5c3.6-4.8,9.5-8.9,18.9-12.6c13.5-5.3,20.9-5.1,31.6-0.9l2.7,1
	c7.3,2.9,11.8,4,18.4,4c9.2,0,15-1,20.4-2.9c0.8-0.3,3.9-1.5,4.6-1.8c2.1-0.8,4.4-1.2,6.6-1.2c2.5,0,4.7,0,11.7,0.2
	c9.6,0.2,14.3,0.2,17.4-0.2c7.7-1.5,14.6-4,19.9-7.6c6.8-4.6,10.5-10.7,10.5-18.6c0-5.8-0.1-9.9-0.6-18.9
	C279.5,9.2,279.4,4.6,279.3,0z M78.2,0h1.7c-0.6,3.3-1.3,5.7-2.5,7.9c-1.9,3.6-2.4,4.8-4.4,10.9c-0.4,1.4-1,2.8-1.6,4.2
	c-1.9,3.9-4.9,7.3-10.9,11.9c-6.7,5.1-11.9,13.8-16.7,26.3c-2,5.2-7.3,21.4-8,23.3c-2.2,6-5.5,10.6-13,19.7l-2.2,2.7
	c-5,6.1-7.8,10.1-9.8,14.3C8.8,125.3,4.8,129.4,0,133v-2c4.3-3.3,7.6-6.9,9.2-10.5c2-4.4,4.9-8.4,10-14.6l2.2-2.7
	c7.4-9,10.6-13.5,12.7-19.2c0.7-1.9,6-18.1,8-23.4c4.9-12.8,10.2-21.7,17.2-27c5.8-4.4,8.7-7.7,10.4-11.3c0.5-1.1,1-2.2,1.5-4
	c2-6.2,2.5-7.4,4.5-11.1C77.1,4.9,77.9,2.5,78.2,0z M85.8,0h0.8c-1.4,6.9-2.4,10.6-3.8,12.7c-1.3,2.2-2.5,4.5-3.4,6.8
	c-1.1,2.5-2,5.2-2.9,7.8c-0.3,0.9-0.6,1.8-2,4.5c-3.7,3.6-7.3,7.3-10.7,11.1c-2.9,3.3-5,6.1-6,8c-0.8,1.6-1.7,5-3,10.8
	c-0.5,2.4-3,14.3-3.8,17.6c-3,13.7-5.5,22.2-8.2,26.7c-6.4,10.4-8.9,13.1-30.9,34.2c-3.6,3.5-7.6,6.6-12,9v-1
	c4.1-2.4,8-5.3,11.4-8.7c22-21.1,24.4-23.8,30.8-34.1c2.7-4.3,5.1-12.8,8.1-26.4c0.7-3.3,3.2-15.1,3.8-17.5c1.3-5.9,2.2-9.3,3.1-11
	c1-2.1,3.1-4.9,6.1-8.2c0.7-0.9,1.5-1.7,2.4-2.6c2-2.2,4.1-4.3,6.3-6.5c0.7-0.7,1.4-1.4,2.8-2.8c1.1-3.8,2.4-7.6,4-11.2
	c1-2.4,2.1-4.7,3.5-7C83.4,10.3,84.4,6.7,85.8,0L85.8,0z M69.8,0h0.9c-1.7,3.9-5,7.4-9.5,10.2c-6,3.8-13.7,6-20.3,6
	c-7.4,0-9.8,5.8-9.8,17.9c0,1.4,0,2.6,0.1,5c0.1,2.7,0.1,3.7,0.1,5c0,4.8-0.6,9.4-1.7,13.7c-0.5,2-1.1,3.9-1.8,5.8
	c-1.9,4.4-3.9,8.8-5.8,13.2c-5.5,12.2-11,24.4-16.6,36.6c-1.4,3.2-3.2,6.2-5.4,9v-1.4c1.8-2.5,3.4-5.2,4.6-8
	c7.1-15.5,14.1-31,21-46.5c0.4-1,0.8-1.9,2-4.9c1.8-5.7,2.8-11.6,2.8-17.6c0-1.3,0-2.2-0.1-5c-0.1-2.4-0.1-3.6-0.1-5
	c0-5.7,0.4-9.7,1.7-12.8c1.6-3.9,4.5-6,8.9-6c6.4,0,14-2.2,19.9-5.9C64.9,6.9,68.1,3.7,69.8,0L69.8,0z M305.3,0h0.8
	c1.5,8.3,1.8,10.6,1.9,15.2c1,7.7,1.1,15.5,0.3,23.2c-0.8,7.3-2.6,13.3-5.5,17.6c-9.4,13.7-33.2,24.3-55.3,24.3
	c-4.2,0-8.7,0.2-13.6,0.7c-6.8,0.7-13.6,1.6-20.3,2.6c-18,2.7-23,3.3-30.3,3.3c-5.8,0-10.2-0.9-18.1-3.2l-2.3-0.7
	c-1.2-0.3-2.1-0.6-3-0.8c-6.7-1.7-11.8-1.7-18.1,0.6c-3.3,1.2-6.1,3.6-7.6,6.8c-1.3,2.5-2.1,5-3.3,10.7c-1.2,5.5-1.9,7.9-3.3,10.5
	c-1.6,3.4-4.6,5.9-8.2,7c-2.7,0.8-5.3,1.8-7.9,2.8c-5.5,2.3-8.4,4.6-11.5,8.7c-1.1,1.5-0.9,1.1-4.5,6.6c-1.6,2.5-3.9,4.8-7.1,7.6
	c-1.7,1.5-8.9,7.4-10.7,8.9c-6.1,5.3-10.5,10.1-13.9,15.9c-3.5,6.1-6.5,15.2-9.4,27.7c-0.7,3.1-1.4,6.4-2.2,10.1l-1,4.8l-0.9,4.5
	c-1.5,7.5-2.3,11.1-3.1,13.5c-5.7,17-14.4,35.1-22.6,42.7c-4.3,3.9-6.7,5.9-9.2,7.4c-0.7,0.4-1.5,0.9-2.4,1.3
	c-0.4,0.2-8,3.7-11.7,5.5l-1,0.5v-0.9l0.6-0.3c3.8-1.9,11.4-5.4,11.7-5.5c0.8-0.4,1.6-0.8,2.4-1.3c2.4-1.5,4.9-3.4,9.1-7.3
	c8.1-7.4,16.7-25.4,22.4-42.3c0.8-2.4,1.6-6,3.1-13.4l0.9-4.5c1-5,2-10,3.2-15c2.9-12.5,5.9-21.8,9.5-27.9c3.4-5.9,7.8-10.8,14-16.2
	c1.8-1.6,9.1-7.5,10.7-8.9c3.1-2.7,5.3-5,6.9-7.4c3.7-5.5,3.4-5.1,4.6-6.6c3.2-4.2,6.2-6.6,11.8-9c2.2-0.9,4.8-1.9,8-2.9
	c3.4-1,6.2-3.4,7.7-6.5c1.3-2.5,2-4.9,3.4-10.8c1.2-5.2,1.9-7.8,3.3-10.4c1.7-3.4,4.6-6,8.1-7.2c6.4-2.4,11.7-2.4,18.6-0.6
	c0.9,0.2,1.9,0.5,3.1,0.9l3.1,0.9c7.1,2.1,11.4,3,17,3c7.2,0,12.2-0.6,30.1-3.3c6.8-1.1,13.5-2,20.3-2.6c4.9-0.4,9.4-0.7,13.7-0.7
	c21.9,0,45.4-10.5,54.7-24c2.8-4.1,4.6-10,5.4-17.2c0.7-6.4,0.6-13.3,0-19.9c-0.1-1.4-0.3-2.8-0.5-4.3C307.1,10.4,306.8,8.4,305.3,0
	L305.3,0z M15.7,0h0.9c-1.6,6.3-2.3,8.5-4.5,13.5c-1.6,3.6-2.2,7.7-2,12.4c0.2,3.6,0.6,6.4,1.9,13.4c0.9,4.9,1.3,7.3,1.6,10.2
	c0.8,7.4,0.2,13.4-2.3,19C7.7,76.2,4,83.8,0,91.2v-1.8c3.7-7,7.2-14.1,10.4-21.3c2.5-5.4,3.1-11.3,2.3-18.6
	c-0.3-2.8-0.7-5.2-1.6-10.1c-1.3-7.1-1.7-9.9-1.9-13.6c-0.2-4.9,0.4-9,2.1-12.8C13.5,8.3,14.2,6.1,15.7,0z M249.5,0
	c-1.1,3.2-2.5,6.4-4.1,9.4c-2.1,3.9-3.3,7-4,10l-0.3,1.5l-0.2,1.2c-0.1,0.6-0.3,1.2-0.6,1.7c-0.6,0.9-1.6,1.1-4.3,1
	c0.8,0-8.2-0.2-12.5-0.2c-8.5,0-15.4,0.7-24.5,2.1c-14.1,2.2-14.8,2.3-19.7,2.1c-2.2-0.1-4.5-0.4-6.7-0.9
	c-14.7-3.5-38.5-4.9-45.6-2.5c-2.3,0.7-4.9,2.3-7.9,4.7c-1.9,1.5-3.7,3-5.4,4.6c-1.2,1-7.6,7.1-9,8.2c-1.2,1-6.8,6.2-7.4,6.7
	c-1.2,1.1-2.5,2.2-3.8,3.2c-4.2,3.4-7.4,5.2-9.9,5.2c-2.9,0-3.6,0-4.3-0.3c-0.9-0.5-1.2-1.4-0.9-3c0.6-3,3.7-9,10.7-20.7
	c4.7-7.9,7.8-15,9.8-21.8c1.2-4.2,1.6-6.2,2.5-12.1h0.8c-0.9,6.1-1.3,8.1-2.5,12.3c-2,6.9-5.1,14.1-9.9,22
	c-6.9,11.5-10,17.5-10.6,20.4c-0.2,1.2-0.1,1.8,0.5,2.1c0.5,0.2,1.1,0.3,2.9,0.2c3.3,0,6.4-1.7,10.4-5c1.2-0.9,2.4-2,3.8-3.2
	c0.5-0.5,6.2-5.7,7.4-6.7c1.3-1.1,7.8-7.1,9-8.2c2-1.8,3.8-3.3,5.5-4.6c3.1-2.4,5.8-4,8.2-4.8c7.3-2.4,31.2-1,46.1,2.5
	c2.1,0.5,4.3,0.8,6.5,0.9c4.9,0.2,5.6,0.1,19.6-2.1c9.2-1.5,16.1-2.1,24.7-2.1c4.3,0,13.3,0.2,12.5,0.2c2.4,0,3.2-0.1,3.6-0.7
	c0.2-0.3,0.3-0.7,0.5-1.4l0.2-1.2l0.3-1.5c0.7-3,2-6.2,4.1-10.2c1.6-2.9,2.9-5.8,3.9-9L249.5,0L249.5,0z M242.3,0
	c-4.9,14.9-8,18.3-16.5,18.3c-3.7,0-8.5,0.3-23.9,1.2l-1.3,0.1c-13,0.8-19.6,1.2-24,1.2c-4.5,0-11-0.8-24-2.7l-1.3-0.2
	C136,15.6,131.2,15,127.5,15c-3.7,0-6.1,0.8-9.1,2.8c-0.1,0-1.5,1-1.9,1.2c-2,1.2-3.6,1.8-5.6,1.8c-2.3,0-3.4-1.2-3.4-3.5
	c0-0.9,0.1-1.9,0.4-3.4c0.1-0.7,0.7-3.7,0.9-4.4c0.7-3.4,1.1-6.4,1.2-9.5h1.7c-0.1,3.2-0.6,6.2-1.2,9.8c-0.2,0.8-0.8,3.7-0.9,4.4
	c-0.2,1-0.4,2.1-0.4,3.1c0,1.4,0.4,1.8,1.8,1.8c1.7,0,3-0.5,4.7-1.6c0.4-0.2,1.8-1.1,1.9-1.2c3.3-2.1,6-3,10-3
	c3.8,0,8.6,0.6,24.1,2.9l1.3,0.2c12.9,1.9,19.5,2.7,23.8,2.7c4.4,0,10.9-0.3,23.9-1.2l1.3-0.1c15.4-1,20.2-1.2,24-1.2
	c7.5,0,10.1-2.8,14.7-16.7H242.3z M117.9,0h0.9c-1.7,3.2-2.2,4.2-2.3,5.2c-0.1,0.9,0.3,1.4,1.9,1.6c1.5,0.2,3.2,0.3,9,0.3
	c5,0,10.8,0.5,17.8,1.3c3.3,0.4,6.7,0.9,10.9,1.6c20,3.1,18.7,2.9,22.4,2.9c20,0,43.2-1.9,50.4-5.8c2.4-1.3,4.2-3.7,5.5-7.1h0.9
	c-1.4,3.7-3.3,6.4-6,7.9c-7.4,4-30.6,5.9-50.8,5.9c-3.7,0-2.4,0.2-22.5-2.9c-4.2-0.7-7.6-1.1-10.9-1.6c-6.9-0.9-12.7-1.3-17.7-1.3
	c-5.9,0-7.6,0-9.1-0.3c-2-0.3-2.8-1.1-2.6-2.6C115.9,4,116.3,3,117.9,0L117.9,0z M181.6,0c4.7,1.4,8.6,2.1,11.7,2.1
	c8,0,13.9-0.6,18.7-2.1h2.5c-5.2,2.1-11.8,2.9-21.1,2.9c-3.7,0-8.6-1-14.6-2.9H181.6L181.6,0z M58.9,0c-2.4,2.7-5.8,4.5-10,5.4
	c-3.3,0.7-6.2,0.9-10.8,0.8c-0.5,0-1,0-1.5,0c-4.5,0-7.4-1-8.4-4.1C28,1.4,27.9,0.7,27.9,0h0.8c0,0.7,0.1,1.3,0.3,1.8
	c0.9,2.6,3.5,3.6,7.6,3.6l1.5,0c4.5,0.1,7.3-0.1,10.6-0.8c3.7-0.8,6.8-2.3,9-4.6H58.9L58.9,0z M0,173.2c6.1-0.1,9.6,2.8,9.6,9.3
	c0,9.5-4.2,23.6-9.6,34.6v-1.9c4.9-10.6,8.7-23.7,8.7-32.7c0-6-3.1-8.6-8.7-8.4V173.2L0,173.2z M0,179.1c1,0.1,1.8,0.5,2.4,1.1
	c1.2,1.2,1.3,3.1,1,6.3l-0.1,1.1c-0.2,1.1-0.3,2.2-0.3,3.2c0,2.7-1.2,7.9-2.9,13.2v-2.9c1.2-4.3,2.1-8.2,2.1-10.4
	c0-0.8,0.1-1.5,0.3-3.3l0.1-1.1c0.3-3,0.2-4.7-0.7-5.6c-0.4-0.4-1-0.7-1.8-0.8V179.1z M0,342.4v-1.2c1-1.2,1.8-2.5,2.5-3.9
	c1.1-2.2,2.2-5.2,3.8-9.9c6.5-19.6,6.5-22.2,0.2-25.3c-1.9-0.9-4-1.2-6.5-0.8v-0.8c2.3-0.5,4.7-0.2,6.8,0.9
	c6.9,3.4,6.9,6.3,0.2,26.3c-1.6,4.7-2.7,7.7-3.8,10C2.4,339.4,1.3,341,0,342.4z M28,376.7c1.4,0,2.5-0.2,6.9-1.1l2-0.4
	c6.9-1.3,10.6-1.1,12.1,1.9c1.1,2.3-0.4,4.9-4,8.1c-1.4,1.2-2.8,2.3-4.2,3.4c-0.8,0.6-4.1,3-4.8,3.6c-1.5,1.2-2.5,2-2.9,2.5
	c-1,1.4-1.9,2.9-2.4,4.6c0.1-0.2-3.3,11.4-5.8,18.5c-2.2,6.5-4.6,8.9-7.3,7.2c-1.8-1.2-3-3.5-5.5-9.2c-1.6-3.8-2.1-4.8-2.8-6.2
	c-3.8-6.8-3.2-19.9,0-27.4c1-2.5,3.2-4.4,5.8-5c2.2-0.5,4-0.6,9.8-0.6L28,376.7L28,376.7z M28,378.3c-0.9,0-1.7,0-3.2,0
	c-10.1-0.1-12.4,0.5-14.1,4.5c-3,7.1-3.5,19.6,0,25.9c0.8,1.4,1.2,2.4,2.9,6.3c2.3,5.2,3.5,7.6,4.9,8.4c1.4,0.9,2.9-0.7,4.8-6.3
	c2-6.1,4-12.3,5.8-18.5c0.6-1.8,1.5-3.5,2.6-5c0.5-0.7,1.5-1.6,3.2-2.9c0.8-0.6,4.1-3,4.8-3.6c1.7-1.2,3-2.3,4.1-3.3
	c3-2.7,4.2-4.7,3.6-6.1c-1-2-4.2-2.2-10.3-1.1l-2,0.4C30.7,378.1,29.6,378.3,28,378.3L28,378.3z M316.1,500
	c-2.9-10.2-3.1-11.8-3.1-15.8c0-2.8-0.1-5.2-0.4-9.4c-0.5-8.6-0.5-11.2,0.2-14.2c1-3.9,3.5-5.9,8.1-5.9h21.7c3.4,0,4.3,1.5,4.9,5.9
	c0.1,0.7,0.1,0.8,0.2,1.1c0.7,4.5,2.3,6.3,7.4,6.3c3,0,4.6,0.3,5.4,1.1c0.6,0.7,0.6,1.2,0.3,3.3c-0.7,4.4,0.4,7.4,6.2,11.5
	c5.3,3.7,9.7,4.5,13.8,2.8c3.2-1.3,5.6-3.5,9.9-8.3l0.9-1l0.9-1c0.7-0.8,1.5-1.6,2.2-2.4c2.3-2.3,5-4.2,8-5.6
	c1.3-0.6,1.4-0.7,4.7-2.2c5.1-2.3,7.5-3.7,9.8-6.3c2.2-2.5,3.9-4,5.6-5c2.6-1.5,4.5-1.8,11.4-1.8c5,0,8.8-3.6,15-12.5l2.3-3.4
	c0.9-1.2,1.6-2.2,2.3-3.2c6.6-8.4,16.1-8.7,25.6,0.8c4.6,4.6,8.5,16.2,11.4,32.1c2.1,11.5,3.5,24.5,3.7,33.2h-0.8
	c-0.2-8.6-1.6-21.6-3.7-33c-2.9-15.7-6.7-27.2-11.1-31.7c-9.1-9.1-18.1-8.9-24.4-0.9c-0.7,0.9-1.4,1.9-2.3,3.1l-2.3,3.3
	c-6.4,9.1-10.3,12.8-15.7,12.8c-6.7,0-8.5,0.2-11,1.7c-1.6,0.9-3.2,2.4-5.4,4.9c-2.4,2.7-4.9,4.2-10.1,6.6c-1.6,0.7-3.1,1.4-4.7,2.2
	c-2.9,1.4-5.5,3.2-7.8,5.4c-1.1,1.1-2.1,2.2-3.1,3.4l-0.9,1c-4.4,5-6.9,7.2-10.2,8.5c-4.4,1.8-9.1,1-14.6-2.9
	c-6.1-4.3-7.3-7.6-6.6-12.3c0.3-1.8,0.3-2.2-0.1-2.6c-0.5-0.6-1.9-0.9-4.7-0.9c-5.5,0-7.5-2.2-8.2-7l-0.2-1.1
	c-0.6-4-1.3-5.2-4.1-5.2h-21.7c-4.2,0-6.3,1.7-7.2,5.3c-0.7,2.9-0.7,5.5-0.2,14c0.2,3.2,0.3,6.3,0.4,9.5c0,4,0.3,5.5,3.2,15.8
	L316.1,500L316.1,500z M327.5,500c-1.1-5.5-1.3-8.9-1.1-12.4c0-0.6,0.1-1.2,0.1-2l0.2-2.1c0.3-3.2,0.4-5.8,0.4-9.3
	c0-4.1,1.2-6.5,3.5-7c2-0.5,4.6,0.4,7.7,2.5c5.5,3.8,11.7,10.9,13.8,16c4,9.5,11.8,13.1,27.9,13.1c7.2,0,11.9-2,17.2-6.6
	c1.2-1,12.5-12.5,17.5-16.7c6-5.1,9.8-6.3,17.2-6.9c4.6-0.4,6.6-0.8,9.5-2c3.8-1.6,7.8-4.6,12.4-9.4c6.2-6.5,11-7.4,14.6-3.6
	c2.8,3,4.5,8.8,5.7,16.9c0.6,4.3,0.8,6.4,1.3,14.5c0.2,3.1,0.1,4.4-0.8,15h-0.8c0.9-10.6,1-11.9,0.8-15c-0.5-8-0.7-10.1-1.3-14.4
	c-1.1-7.9-2.9-13.6-5.5-16.4c-3.1-3.4-7.4-2.6-13.3,3.6c-4.7,4.9-8.8,7.9-12.7,9.6c-3,1.3-5.1,1.7-9.7,2c-7.3,0.6-11,1.8-16.8,6.7
	c-4.9,4.1-16.2,15.6-17.5,16.7c-5.4,4.7-10.4,6.8-17.8,6.8c-16.5,0-24.6-3.7-28.7-13.6c-2.1-5-8.1-12-13.5-15.7
	c-2.8-1.9-5.3-2.8-7-2.4c-1.8,0.4-2.9,2.4-2.9,6.2c0,3.6-0.1,6.2-0.4,9.4l-0.2,2.1c-0.1,0.8-0.1,1.4-0.2,2
	c-0.2,3.4,0.1,6.8,1.2,12.3L327.5,500L327.5,500z M422.2,500c2.1-2.7,7.4-9.8,9.1-11.9c4.6-5.8,10.9-10.3,16.2-11.6
	c5.8-1.4,9.6,1.2,9.6,7.7c0,3.3,0,4.3-0.6,15.8h-0.8c0.6-11.5,0.6-12.5,0.6-15.8c0-5.9-3.2-8.2-8.5-6.9c-5.1,1.2-11.2,5.6-15.7,11.3
	c-1.5,2-6.4,8.4-8.7,11.4H422.2L422.2,500z M414,217.5c2.9,2.3,5.8,4.2,9.5,6.5c0.9,0.5,7,4.1,8.6,5.1c9.4,5.8,12.5,11.1,10.3,21.1
	c-1.2,5.4-3.8,9.2-7.8,12c-3.2,2.2-6.7,3.5-13.4,5.5c-10,2.9-11.4,3.3-15.7,5.2c-2.3,1-4.4,2.2-6.5,3.5c-9.3,5.9-15.9,6.4-23.3,2.7
	c-3-1.5-14.3-9.2-14.3-9.2c-1.4-0.9-2.9-1.7-4.3-2.6c-13.4-7.4-28.6-20.1-28.8-26.5c-0.1-2.9,1.7-5.5,5.2-8.5
	c0.9-0.7,1.8-1.5,3.1-2.5c0.6-0.5,2.8-2.1,3.3-2.5c3.7-2.8,6-4.8,7.8-7c9.3-11.5,22.1-23.9,28.6-26.9c10-4.6,16.5-4.8,22.8,0.1
	c2.7,2.1,4.7,5.4,7.1,11.1c0.2,0.5,1.9,4.5,2.4,5.6c1.3,3,2.4,4.8,3.5,5.8C412.8,216.5,413.4,217,414,217.5L414,217.5z M411.1,217.3
	c-1.4-1.2-2.5-3.1-4-6.4c-0.5-1.1-2.2-5.1-2.4-5.6c-2.3-5.4-4.2-8.6-6.6-10.5c-5.7-4.5-11.5-4.3-21.1,0.1
	c-6.2,2.8-18.9,15.1-28,26.4c-1.9,2.3-4.2,4.4-8.1,7.3l-3.3,2.5c-1,0.8-2,1.6-3,2.4c-3.2,2.8-4.7,5-4.6,7.2
	c0.2,5.5,15.1,18.1,27.9,25.1c1.5,0.8,2.9,1.7,4.4,2.6c0.1,0.1,11.3,7.7,14.2,9.1c6.8,3.4,12.9,2.9,21.7-2.6
	c2.2-1.4,4.4-2.6,6.7-3.6c4.4-2,5.8-2.4,15.9-5.3c6.5-1.9,9.9-3.2,12.9-5.2c3.7-2.5,6-6,7.1-11c2-9.2-0.7-13.8-9.5-19.3
	c-1.6-1-7.7-4.5-8.6-5.1c-3.7-2.2-6.8-4.3-9.7-6.6C412.4,218.3,411.7,217.8,411.1,217.3L411.1,217.3z M73.1,201.3
	c3.6-2.5,6.6-4.2,10.1-5.8c0.7-0.3,1.4-0.6,2.3-1l3.6-1.6c5.1-2.2,10-4.7,14.8-7.5c7.5-4.4,15.3-8.4,23.2-12.1
	c3.5-1.6,18.2-8.2,17.6-7.9c16-7.2,23.4-5.8,41.2,6.7c6.6,4.6,11,11,13.7,18.9c2.5,7.4,3.1,13.8,3.1,23.1c0,6.9-0.5,10.8-3.1,15.8
	c-3.5,7-10.2,13.4-21.3,19.6c-20.4,11.2-32.4,23-44,39.9c-7.4,10.7-39.8,36.8-54.3,45.1c-17.7,10.1-39.5,18.4-54.4,18.4
	c-8.4,0-12.2-4-12.3-11.1c-0.1-5.3,1.7-11.4,5.2-20.3c2.5-6.1,1.7-10.7-1.8-18.6c-2.7-6-3.2-7.6-3.2-10.4c0-2.8,1.6-5.7,4.6-9.2
	c2.2-2.5,2.9-3.2,9.9-9.6c4.2-3.9,6.7-6.3,8.9-9c7.9-9.5,10.5-16.2,14.9-37.3c2.6-12.5,5.5-16.9,12.6-21c0.7-0.4,3.3-1.9,3.9-2.2
	C70.2,203.3,71.6,202.3,73.1,201.3L73.1,201.3z M73.6,202c-1.5,1-3,2-4.5,2.9l-3.9,2.2c-6.9,4-9.6,8.2-12.2,20.5
	c-4.4,21.2-7.1,28.1-15.1,37.7c-2.2,2.7-4.7,5.1-9,9c-7,6.4-7.7,7.1-9.8,9.5c-2.9,3.3-4.4,6.1-4.4,8.7c0,2.6,0.6,4.2,3.2,10.1
	c3.6,8,4.4,12.8,1.8,19.2c-3.5,8.7-5.2,14.8-5.2,19.9c0.1,6.7,3.5,10.3,11.5,10.3c14.7,0,36.4-8.2,54-18.3
	c14.4-8.2,46.7-34.3,54-44.9c11.7-17,23.8-28.8,44.3-40.1c10.9-6,17.6-12.4,21-19.2c2.4-4.9,3-8.6,3-15.4c0-9.3-0.6-15.6-3.1-22.9
	c-2.6-7.7-7-14-13.4-18.5c-17.6-12.3-24.7-13.7-40.4-6.6c0.6-0.3-14.1,6.3-17.6,7.9c-1.4,0.7-2.7,1.3-4,1.9
	c-6.5,3.1-12.9,6.5-19.1,10.1c-4.8,2.8-9.8,5.3-14.9,7.5l-3.6,1.6c-0.9,0.4-1.6,0.7-2.3,1C80.1,197.9,76.7,199.8,73.6,202z
	 M67.2,212.2c6.4-5.2,10.2-6.8,19.7-9.4c5.1-1.4,7.6-2.5,10.3-4.8c3.2-2.7,6.2-3.8,13.2-5.1c2.3-0.4,3.1-0.6,4.2-0.8
	c4.6-1,7.9-2.4,10.9-4.9c8.7-7.1,21.2-11.8,30.3-11.8c4.4,0,14,6.3,21.4,14.3c8.9,9.5,13.3,19.4,10.6,27.1
	c-2.6,7.6-9.5,15.5-19.2,23.2c-7,5.6-15.3,10.8-21,13.7c-3.1,1.5-5.5,4.1-8.1,8.3c-0.6,0.9-9.2,16.9-13.4,23.2
	c-4.7,7.2-12.8,14.5-25.2,23.3c-2.5,1.8-5.1,3.6-7.7,5.3c-0.1,0.1-5.7,3.9-7.2,4.9c-5.4,3.7-8.6,6.1-10.9,8.2
	c-9.7,8.9-30.9,12.9-36.4,7.5c-1.6-1.6-1.8-3.4-1.6-8.8c0.3-7.8-0.4-12.1-4.1-17.1c-1.7-2.2-3.6-4.1-5.9-5.8
	c-3.3-2.5-5.1-5.1-5.5-7.9C21,289.4,25,284,33.6,276.9c1.3-1.1,5.6-4.5,5.9-4.8c1.5-1.2,3-2.5,4.4-4c3.4-3.9,4.9-8,6.5-16.7
	c0.2-1.2,0.4-2.4,0.7-3.6c0.3-1.6,0.5-2.7,0.7-3.9c0.6-3.1,1.2-6,2-8.9c0.8-3.1,1.1-4.6,2-8.6c0.5-2.5,0.8-3.5,1.3-4.6
	C58,219.7,58.1,219.6,67.2,212.2L67.2,212.2z M67.8,212.8c-9,7.3-9.1,7.4-10,9.2c-0.5,1-0.7,1.9-1.2,4.3c-0.8,4.1-1.1,5.5-2,8.7
	c-0.7,2.9-1.4,5.7-2,8.8c-0.4,1.9-0.7,3.9-1.1,5.8l-0.3,1.8c-1.6,8.9-3.1,13.1-6.7,17.1c-1.4,1.5-2.9,2.8-4.4,4.1
	c-0.3,0.3-4.6,3.7-5.9,4.8c-8.4,7-12.3,12.2-11.5,17.3c0.4,2.6,2,5,5.1,7.4c2.5,1.9,4.5,3.8,6,5.9c3.9,5.2,4.6,9.6,4.3,17.6
	c-0.2,5.1,0,6.7,1.4,8.1c5.1,5.1,25.8,1.1,35.3-7.5c2.3-2.1,5.5-4.5,11-8.3l7.2-4.9c3-2.1,5.4-3.7,7.7-5.3c12.3-8.8,20.4-16,25-23.1
	c4.1-6.3,12.8-22.2,13.3-23.2c2.7-4.4,5.2-7,8.5-8.6c5.7-2.8,13.9-8,20.9-13.6c9.6-7.6,16.3-15.4,18.9-22.8
	c2.6-7.3-1.7-16.9-10.4-26.2c-7.3-7.8-16.7-14-20.8-14c-8.9,0-21.2,4.6-29.7,11.6c-3.1,2.6-6.6,4-11.2,5.1c-1.2,0.3-2,0.4-4.3,0.8
	c-6.8,1.3-9.8,2.3-12.8,4.9c-2.8,2.4-5.4,3.5-10.6,4.9C77.8,206.1,74.1,207.7,67.8,212.8L67.8,212.8z M176.7,209.9
	c0,6.3-0.5,9.1-2.2,11.9c-0.9,1.5-6.4,8.4-7.2,9.4c-5,6.6-7.8,8.6-14.4,11.5c-1.1,0.5-1.8,0.8-2.5,1.2c-0.5,0.3-1,0.5-1.7,0.8
	c-0.6,0.3-3.7,1.6-4.6,2c-5,2.3-7.5,4.8-7.5,8.9c0,9.1-15.8,30.1-28.8,37.4c-6.8,3.8-17.7,7.8-27.3,9.9c-11.1,2.4-18.7,2.1-20.5-1.9
	c-1.1-2.5-3.7-3.5-10-4.8l-0.5-0.1c-4-0.8-5.8-1.3-7.5-2.2c-2.4-1.2-3.7-3.1-3.7-5.7c0-2.3,0.9-4.8,2.7-8.1c0.7-1.3,1.5-2.6,2.7-4.5
	c-0.1,0.2,2.4-3.7,3.1-4.8c5.6-8.9,8.2-15.4,8.2-22.7c0-15.3,9.3-27.8,22.9-35.7c4.3-2.5,7.7-2.8,12.7-1.8c4.2,0.8,5,0.7,6.2-1.3
	c3.7-6.5,5.9-7.9,13.2-7.9c3.3,0,5.8-0.8,8.7-2.6c1.3-0.8,7.2-5.1,9.2-6.4c7.7-5,9.4-5.8,21-10c5.8-2.1,12.6,1.1,18.6,7.6
	C173,196.1,176.7,204,176.7,209.9L176.7,209.9z M175,209.9c0-5.4-3.5-12.9-8.7-18.6c-5.6-6.1-11.8-8.9-16.8-7.2
	c-11.4,4.1-13.1,4.9-20.7,9.8c-1.9,1.2-7.8,5.6-9.2,6.4c-3.2,2-6,2.9-9.6,2.9c-6.7,0-8.3,1-11.8,7.1c-0.9,1.6-2.1,2.4-3.6,2.6
	c-1.1,0.1-1.6,0-4.3-0.5c-4.6-0.9-7.6-0.7-11.5,1.6c-13.1,7.6-22.1,19.6-22.1,34.3c0,7.7-2.7,14.4-8.5,23.6l-3.1,4.8
	c-1.2,1.8-2,3.1-2.6,4.4c-1.7,3-2.5,5.3-2.5,7.2c0,3.5,2.4,4.7,9.9,6.3l0.5,0.1c6.9,1.4,9.7,2.6,11.2,5.8c2.6,5.9,30,0,45.5-8.7
	c12.5-7,27.9-27.5,27.9-35.9c0-4.9,2.9-7.9,8.5-10.5c0.9-0.4,4-1.7,4.6-2c0.6-0.3,1.1-0.5,1.5-0.8c0.8-0.5,1.5-0.8,2.7-1.3
	c6.4-2.8,9-4.6,13.7-10.9c0.8-1.1,6.2-7.8,7.1-9.3C174.6,218.4,175,215.9,175,209.9L175,209.9z M144,191.2c0.1-0.1,2-1.3,2.5-1.5
	c0.8-0.5,1.4-0.8,2-1c2.1-0.7,4.2-0.1,9.2,2.6c12.4,6.7,16.2,19.1,7.6,32.3c-3.4,5.2-7.8,7.5-15.6,9.3c-0.7,0.2-1,0.2-2.6,0.6
	c-5,1.1-7.3,1.7-9.7,3c-3,1.7-5.1,4.1-6.2,7.9c-6.6,20.8-16.4,36.1-30.2,41.9c-13.7,5.8-17.6,7.1-23.3,7.4
	c-4.1,0.2-8.2-0.5-12.8-2.4c-1.6-0.6-3.2-1.3-4.7-2.2c-3.3-1.9-4.3-3.9-3.7-7.8c0.2-1.8,3.1-12.9,4-17.2c0.5-2.5,1-5.1,1.5-8.1
	c0.4-2.5,0.8-4.9,1.1-7.4c1.2-7.8,2.1-11.9,3.7-15.5c2-4.5,5.1-7.5,9.8-9.3c5.5-2.1,8.8-2.6,15-2.9c4-0.2,5.6-0.5,7.5-1.7
	c0.5-0.3,1-0.7,1.5-1.1c1-0.9,1.9-1.8,2.8-2.8c0.5-0.6,2-2.4,2.2-2.7c2.8-3.3,5.2-4.6,10.3-4.6c3.3,0,4.9-0.8,6.8-2.8
	c-0.1,0.1,2.3-2.6,3.2-3.5c1.7-1.6,3.6-3,5.7-4.2c1.2-0.7,2.6-1.3,4.2-2C138.6,194.3,141.4,192.9,144,191.2L144,191.2z M131.9,198.2
	c-2,1.1-3.8,2.4-5.5,4c-1.1,1.1-2.2,2.3-3.2,3.5c-2,2.2-3.9,3.1-7.4,3.1c-4.8,0-7,1.2-9.6,4.3c-0.2,0.2-1.7,2.1-2.2,2.7
	c-0.9,1-1.9,2-2.9,2.9c-0.5,0.5-1.1,0.9-1.6,1.2c-2.1,1.3-3.8,1.6-7.9,1.8c-6.2,0.4-9.4,0.9-14.8,2.9c-4.4,1.7-7.3,4.5-9.3,8.8
	c-1.6,3.6-2.5,7.6-3.7,15.3l-0.5,3.6l-0.6,3.8c-0.5,3-0.9,5.6-1.5,8.1c-0.9,4.3-3.8,15.4-4,17.2c-0.5,3.5,0.3,5.1,3.3,6.9
	c1.1,0.6,2.6,1.3,4.6,2.1c4.5,1.8,8.5,2.5,12.5,2.3c5.6-0.3,9.4-1.6,23-7.3c13.5-5.7,23.3-20.8,29.8-41.4c1.2-3.9,3.4-6.5,6.6-8.3
	c2.4-1.4,4.8-2,9.9-3.1c1.6-0.3,1.9-0.4,2.6-0.6c7.6-1.7,11.9-3.9,15.1-8.9c8.3-12.8,4.6-24.6-7.3-31.1c-4.8-2.6-6.7-3.1-8.5-2.5
	c-0.5,0.2-1.1,0.4-1.9,0.9c-0.5,0.3-2.3,1.4-2.4,1.5c-2.7,1.7-5.5,3.1-8.5,4.3C134.5,196.8,133.1,197.5,131.9,198.2L131.9,198.2z
	 M96.6,225.4c13.5-2.4,22-0.8,27.1,5.1c4.2,4.9,0.9,17.8-4.9,29.6c-4,8-8.8,13.5-19.3,21c-11.8,8.4-29.6,10.2-33.9,3.2
	c-1.5-2.5-1.7-6.8-0.9-13.1c0.6-4.7,1.5-8.9,3.9-19.1l0.1-0.4c1.3-5.7,2-8.6,2.6-11.8c1.2-6,3.1-9.6,6-11.4
	c2.3-1.5,4.6-1.9,10.3-2.2C92,226.1,93.9,225.9,96.6,225.4L96.6,225.4z M96.7,226.2c-2.7,0.5-4.6,0.6-9.1,0.9
	c-5.5,0.3-7.7,0.6-9.9,2c-2.7,1.7-4.5,5.1-5.7,10.9c-0.6,3.2-1.3,6.1-2.6,11.8l-0.1,0.4c-2.4,10.2-3.3,14.4-3.9,19.1
	c-0.9,6.1-0.7,10.3,0.7,12.6c4,6.4,21.3,4.7,32.7-3.5c10.4-7.4,15.1-12.8,19-20.7c5.7-11.4,9-24.2,5.1-28.7
	C118.2,225.4,109.9,223.9,96.7,226.2z M110,230.4c5.9,0,8.9,2.6,9.4,7.2c0.3,3.3-0.4,6.8-2.3,13.3c-2.1,7.1-15.3,21.1-22.7,26.1
	c-5.8,3.9-16.7,4.7-22.1,0.8c-3.3-2.4-2.9-10.1,0-22c0.6-2.3,1.2-4.7,2-7.3c0.8-2.8,1.7-5.6,2.5-8.4l0.3-1c1.2-4,4.2-6.5,8.9-7.7
	c3.7-1,7.9-1.2,14.6-1.1l3.2,0.1C107.1,230.4,108.4,230.4,110,230.4z M110,231.2c-1.6,0-2.9,0-6.2-0.1l-3.2-0.1
	c-6.5-0.1-10.8,0.1-14.3,1.1c-4.4,1.2-7.2,3.5-8.4,7.2c-0.4,1.4-0.9,2.9-1.3,4.3c-0.6,1.8-1.1,3.5-1.5,5.1c-0.7,2.6-1.4,5-2,7.3
	c-2.9,11.6-3.2,19.1-0.3,21.2c5.1,3.7,15.6,2.9,21.2-0.8c7.2-4.8,20.3-18.7,22.3-25.6c1.9-6.4,2.6-9.8,2.3-13
	C118.1,233.5,115.5,231.2,110,231.2L110,231.2z M95.2,237.1c2.4,0.1,4.8,0.4,7.1,1.2c4.5,1.5,7.3,4.2,7.3,8.4
	c0,8-7.9,14.3-18.6,17.9c-8.2,2.7-11.3-1.5-9.7-13.8c0.7-5.2,3.2-8.9,6.9-11.2C90.3,238.2,92.7,237.4,95.2,237.1z M94.7,238
	c-2.2,0.3-4.3,1.1-6.1,2.3c-3.5,2.2-5.8,5.6-6.5,10.6c-1.6,11.8,1.1,15.4,8.6,12.9c10.4-3.5,18-9.6,18-17.1c0-3.8-2.5-6.2-6.7-7.6
	c-2.2-0.7-4.5-1.1-6.8-1.1C95.1,237.9,94.9,237.9,94.7,238z M162.1,218.4c-2.3,8.2-12.4,8.2-22.3,2.7c-8.5-4.7-11.5-15-4.2-19.1
	c1.3-0.7,2.5-1.5,3.7-2.2l1.7-1.1c1.1-0.7,2.1-1.3,3.3-1.9c3.9-2,7.3-2.3,11.7-0.6C163.6,199.3,165.1,207.4,162.1,218.4L162.1,218.4
	z M144.7,197.6c-1.1,0.6-2.2,1.2-3.2,1.9l-1.7,1.1c-0.7,0.4-1.2,0.8-1.8,1.1c-0.7,0.4-1.3,0.8-2,1.2c-6.6,3.7-3.8,13.2,4.2,17.6
	c9.4,5.2,19,5.2,21.1-2.2c3-10.7,1.5-18.3-5.6-21.2C151.6,195.4,148.4,195.7,144.7,197.6L144.7,197.6z M159.6,207.7
	c0,4.7-2,7.5-5.5,8.3c-2.7,0.6-6.3,0-9.2-1.5l-1.6-0.8c-0.6-0.3-1-0.5-1.4-0.7c-3.4-2-3.4-4.1,0.3-9.1
	C147.8,196.4,159.6,198,159.6,207.7L159.6,207.7z M158.8,207.7c0-4.4-2.4-7.1-6.1-7.6c-3.5-0.5-7.5,1.2-9.8,4.3
	c-3.5,4.6-3.4,6.2-0.5,7.9c0.4,0.2,0.8,0.4,1.3,0.7l1.6,0.8c2.8,1.4,6.1,2,8.7,1.4C157,214.5,158.8,212.1,158.8,207.7L158.8,207.7z
	 M322.5,441.9c0-10.7,2-13.9,15.4-24.8c2-1.6,4.1-3.1,6.3-4.3c2.2-1.2,4.4-2.3,7.1-3.5c1-0.4,2.1-0.9,3.4-1.4l3.3-1.3
	c7.8-3.2,11.4-5.6,13.8-10c1-1.8,1.8-3.7,2.7-5.7c0.4-1.1,0.9-2.1,1.3-3.2l0.2-0.6l0.5-1.2c2.7-6.7,5-10.1,10.6-13.7
	c1.5-1,2.9-2.1,4.1-3.3c1.2-1.1,2.2-2.3,3.2-3.6c0.2-0.3,2.1-2.7,2.7-3.3c2.9-3.5,5.4-4.9,9.6-4.9c2.6,0,4.7-0.5,8-1.8
	c4.5-1.7,5.4-1.9,7.5-1.8c2.1,0.1,4,1,6,3c1.1,1.1,4.6,4.9,5.4,5.6c4.2,4.2,7.9,5.8,14.8,5.8c3.4,0,6.7,0.1,10.1,0.4
	c13.3,0.7,18.3,0.5,21.1-1.8c5.8-4.8,9.7-2.3,9.7,6.5c0,8.9-7.2,16.7-15.8,16.7c-4,0-6.9,1.2-7.8,3.1c-0.9,2.1,0.6,5.1,5,8.8
	c11.3,9.4,9.4,17.3-6.4,17.3c-4.5-0.1-8.8,1.5-12.2,4.4c-2.7,2.3-4.8,4.9-8.2,9.8l-1.3,1.9c-2.6,3.8-4.2,5.9-6.1,7.8
	c-5.2,5.2-7.7,6.4-10.9,5.7l-0.8-0.2c-0.7-0.2-1.5-0.3-2.2-0.3c-1.3,0-2,0.6-6.8,5.2c-4,3.9-6.7,5.6-9.8,5.6c-1.1,0-2.9,1-5.4,2.9
	c-1.1,0.8-2.2,1.8-3.7,3.1l-4.1,3.6c-1.2,1.1-2.5,2.1-3.8,3.2c-7.8,6.3-13,8.5-16.8,5.4c-2.2-1.8-3.4-3.8-3.9-6
	c-0.3-1.7-0.2-3,0.2-6.1c0.7-4.9,0.5-7-1.5-9.7c-1.9-2.5-2.5-2.7-3.1-2c-0.2,0.2-1.1,1.4-1.3,1.6c-1.8,2.1-4,3-7.5,2.3
	c-3.8-0.7-4.6-3.4-3.9-8.4l0.2-1.3c0.5-3,0.6-4.1,0.2-4.8c-0.4-0.7-1.6-0.8-4.4,0.3l-0.6,0.2c-11.5,4.6-12.7,5.1-16.2,5.6
	C325.2,449.2,322.5,447.2,322.5,441.9L322.5,441.9z M324.2,441.9c0,4.2,1.8,5.5,5.9,4.9c3.3-0.5,4.5-0.9,15.8-5.5l0.6-0.2
	c3.5-1.4,5.6-1.3,6.5,0.5c0.6,1.2,0.5,2.3,0,5.8l-0.2,1.3c-0.6,4.2,0,6.1,2.6,6.5c2.9,0.5,4.5-0.1,6-1.8c0.2-0.2,1.1-1.4,1.4-1.7
	c1.6-1.6,3.2-1,5.6,2.1c2.4,3.1,2.6,5.6,1.8,10.9c-0.8,5.6-0.4,7.8,3,10.6c2.9,2.3,7.6,0.4,14.7-5.4c1.1-0.9,2.3-1.9,3.7-3.1
	l4.1-3.6c1.5-1.3,2.7-2.3,3.8-3.1c2.8-2.1,4.8-3.2,6.4-3.2c2.5,0,5-1.6,8.7-5.2l2-2c0.8-0.7,1.4-1.3,2-1.8c1.5-1.2,2.7-1.9,3.9-1.9
	c0.9,0,1.5,0.1,2.6,0.3c0.6,0.1,0.6,0.1,0.8,0.2c2.5,0.5,4.5-0.5,9.4-5.3c1.8-1.8,3.4-3.9,5.9-7.6l1.3-1.9c3.5-5.1,5.6-7.8,8.5-10.2
	c3.7-3.1,8.4-4.8,13.2-4.7c14.1,0,15.5-5.8,5.3-14.4c-4.9-4.1-6.8-7.8-5.4-10.8c1.2-2.6,4.7-4,9.3-4c7.7,0,14.2-6.9,14.2-15
	c0-7.4-2.4-9-7-5.2c-3.3,2.7-8.3,3-22.2,2.2l-0.9,0c-4.2-0.2-6.7-0.3-9.1-0.3c-7.4,0-11.5-1.8-16-6.2c-0.8-0.8-4.4-4.6-5.4-5.7
	c-1.7-1.7-3.2-2.4-4.9-2.5c-1.7-0.1-2.5,0.1-6.8,1.7c-3.5,1.3-5.7,1.8-8.6,1.8c-3.6,0-5.7,1.2-8.3,4.3c-0.5,0.6-2.4,3-2.6,3.3
	c-1,1.3-2.2,2.5-3.4,3.7c-1.3,1.3-2.8,2.5-4.4,3.5c-5.2,3.5-7.4,6.6-10,13l-0.5,1.2l-0.2,0.6c-0.4,1.1-0.9,2.2-1.3,3.2
	c-0.8,2-1.7,3.9-2.8,5.8c-2.6,4.9-6.5,7.5-14.7,10.8l-3.3,1.3c-1.3,0.5-2.4,1-3.4,1.4c-2.4,1-4.7,2.1-6.9,3.4
	c-2.2,1.2-4.2,2.6-6.1,4.2C325.9,429,324.2,431.8,324.2,441.9L324.2,441.9z M435.2,375.4c2.5,1.3,5.4,1.7,8.9,1.4
	c2.1-0.2,4.1-0.5,7.3-1.2c4.5-1,5.3-1.1,6.9-1.3c2.3-0.2,4,0.1,5.2,1.2c1.3,1.1,1.6,2.3,1,3.5c-0.5,1.1-0.9,1.4-4.2,4.2
	c-2.9,2.4-4.2,4-4.2,5.9c0,6.1,1.1,8.3,6.5,13c3.2,2.7,4.9,5.7,4.4,8c-0.6,2.7-4.1,4.2-10.5,4.2c-6,0-10.6,3.8-16.7,12.2
	c-0.4,0.6-3.3,4.6-4.1,5.7c-1.2,1.6-2.5,3.2-3.9,4.6c-0.9,0.8-1.7,1.4-2.6,1.8c-2.4,1.1-4.2,1.3-8.2,1.4c-6.4,0.2-9.1,1.2-12.5,5.9
	c-1.3,1.8-2.6,3.3-3.9,4.7c-2.2,2.2-4.6,4-7.2,5.6c-0.1,0.1-8.9,5.2-12.3,7.4c-3.1,2-5.4,1.7-6.8-0.6c-1.1-1.7-1.6-3.8-2.4-8.6
	c-0.7-4.2-1.1-5.9-1.7-7.4c-0.8-1.9-1.8-2.7-3.3-2.4c-5.2,1-7.5,1.2-9.1,0.2c-2-1.2-2.6-3.8-2.2-8.9c0.1-1.6-0.9-2.4-3.1-2.5
	c-1.9-0.1-4.1,0.2-8.3,0.9l-0.6,0.1c-6.6,1.2-8.9,1.4-10.6,0.6c-2.4-1.2-1.3-4.4,3.5-10.2c4.6-5.4,8.8-9,13.1-11.3
	c3.1-1.6,4.9-2.2,10.1-3.4c6.1-1.4,8.7-2.9,11.7-7.8c2.5-4,8.9-15.5,10.1-17.4c3-4.7,5.7-7.6,9.2-9.4c2.2-1.1,3.9-2.3,7.6-5.1
	l1.1-0.8c6.5-4.8,10.2-6.6,14.7-6.6c3.5,0,5.4,1.1,7.6,4c0.3,0.4,1.4,1.8,1.7,2.2c0.7,0.9,1.3,1.6,2,2.4
	C431.3,373.1,433.1,374.4,435.2,375.4L435.2,375.4z M434.8,376.2c-2.3-1.2-4.2-2.5-5.8-4.1c-0.7-0.8-1.4-1.5-2.1-2.4
	c-0.3-0.4-1.4-1.9-1.7-2.2c-2.1-2.6-3.7-3.6-6.9-3.6c-4.2,0-7.8,1.8-14.2,6.5l-1.1,0.8c-3.7,2.7-5.5,3.9-7.7,5.1
	c-3.4,1.8-6,4.5-8.9,9.2c-1.2,1.8-7.6,13.4-10.1,17.3c-3.2,5.1-5.9,6.6-12.2,8.1c-5.1,1.2-6.9,1.7-9.9,3.3
	c-4.2,2.2-8.4,5.7-12.9,11.1c-4.5,5.4-5.4,8.1-3.8,8.9c1.4,0.7,3.7,0.5,10.1-0.7l0.6-0.1c4.3-0.8,6.5-1.1,8.5-0.9
	c2.7,0.2,4.1,1.2,3.9,3.4c-0.4,4.8,0.2,7.2,1.8,8.1c1.4,0.9,3.6,0.7,8.6-0.3c2-0.4,3.3,0.7,4.3,2.9c0.7,1.6,1.1,3.3,1.7,7.3l0,0.3
	c0.8,4.7,1.3,6.8,2.3,8.3c1.2,1.9,2.9,2.2,5.7,0.4c3.4-2.2,12.2-7.3,12.3-7.4c2.6-1.5,4.9-3.3,7-5.4c1.4-1.4,2.7-3,3.8-4.6
	c3.6-5,6.5-6,13.1-6.2c3.9-0.1,5.6-0.4,7.9-1.4c0.8-0.3,1.5-0.9,2.4-1.6c1.4-1.4,2.7-2.9,3.8-4.5c0.8-1.1,3.7-5.1,4.1-5.7
	c6.2-8.6,11-12.6,17.4-12.6c6,0,9.2-1.3,9.7-3.5c0.4-1.9-1.1-4.6-4.1-7.2c-5.6-4.8-6.8-7.3-6.8-13.6c0-2.2,1.4-3.9,4.5-6.5
	c3.2-2.6,3.5-3,4-3.9c0.4-0.9,0.2-1.7-0.8-2.5c-1.9-1.5-3.9-1.4-11.5,0.3c-3.3,0.7-5.3,1.1-7.4,1.2
	C440.6,378,437.5,377.5,434.8,376.2L434.8,376.2z M411.5,372.9c4.7-2.3,7.5-1.8,10.7,1.1c0.5,0.4,2.2,2.1,2.5,2.4
	c3.5,3.2,6.7,4.8,11.9,4.8c9.5,0,11.7,1.2,13.4,6.7c0.2,0.7,1.1,3.8,1.4,4.7c0.7,2.2,1.4,4.2,2.2,6.3c1.8,4.3,2.2,6.9,1.4,8.5
	c-0.6,1.3-1.7,1.8-4.5,2.3c-1.9,0.4-2.3,0.4-3.2,0.7c-1.5,0.5-2.8,1.2-3.8,2.2c-0.8,0.8-1.7,1.8-2.8,3c-0.5,0.6-2.4,2.9-2.9,3.4
	c-6,7.1-10.4,10.3-16.3,10.3c-3.1,0-5.8,1.1-8.8,3.3c-1.5,1.1-9.7,8.6-12.7,10.9c-2.4,1.8-4.9,3.5-7.5,4.9c-3.8,2.1-6.1,2.7-7.5,1.9
	c-1.1-0.7-1.4-1.7-1.6-4.6c0-0.5-0.1-1-0.1-1.5c-0.4-3.9-1.9-5.7-6-5.7c-5.9,0-7.4-1-8.1-4.5c-0.8-3.8-1.7-5.6-5.5-8.1
	c-3.3-2.2-3.6-4.5-1.3-6.8c1.7-1.7,3.9-2.9,9.5-5.7c5.5-2.7,7.7-4,9.2-5.6c1.7-1.6,3.1-3.4,4.4-5.4c0.8-1.2,1.5-2.5,2.4-4.3l1.8-3.6
	c0.8-1.5,1.4-2.8,2.2-4.1C396.9,382,400.8,378.3,411.5,372.9L411.5,372.9z M392.9,391c-0.7,1.3-1.4,2.6-2.2,4.1l-1.8,3.6
	c-0.7,1.5-1.6,3-2.4,4.4c-1.3,2-2.8,3.9-4.5,5.5c-1.7,1.7-3.8,2.9-9.5,5.7c-5.5,2.7-7.7,4-9.2,5.6c-1.9,1.9-1.7,3.6,1.1,5.6
	c3.9,2.6,5,4.5,5.8,8.6c0.6,3.1,1.7,3.8,7.3,3.8c4.6,0,6.3,2.1,6.8,6.5c0,0.4,0.1,0.7,0.1,1.5c0.2,2.5,0.5,3.5,1.2,3.9
	c1,0.6,3.1,0.1,6.6-1.9c2.6-1.4,5-3,7.3-4.8c3-2.2,11.1-9.7,12.7-10.9c3.2-2.4,6-3.5,9.3-3.5c5.6,0,9.8-3.1,15.7-10l2.9-3.4
	c0.9-1.1,1.8-2.1,2.8-3.1c1.2-1.1,2.6-2,4.2-2.4c0.9-0.3,1.3-0.4,3.3-0.7c2.5-0.5,3.4-0.8,3.9-1.9c0.6-1.3,0.2-3.7-1.4-7.9
	c-0.9-2.1-1.6-4.2-2.3-6.4c-0.3-0.9-1.2-4-1.4-4.7c-1.6-5.2-3.5-6.2-12.6-6.2c-5.4,0-8.8-1.6-12.5-5c-0.4-0.3-2-2-2.5-2.4
	c-3-2.7-5.4-3.2-9.8-1C401.3,379,397.6,382.6,392.9,391L392.9,391z M439.4,401c-2.5,5.4-14,12.7-22.3,12.7c-4.4,0-6.3-2.5-5.9-6.5
	c0.3-2.9,1.8-6.6,3.3-8.8l1.3-1.9c0.5-0.8,1-1.5,1.6-2.2c3-4,6.5-6.2,11.3-6.2C436.2,387.9,441.8,395.8,439.4,401L439.4,401z
	 M438.7,400.6c2.1-4.6-3-11.9-10-11.9c-4.5,0-7.8,2.1-10.7,5.9c-0.5,0.7-1,1.3-1.5,2.2c0,0-1,1.6-1.3,1.9c-1.4,2.1-2.9,5.7-3.1,8.4
	c-0.3,3.6,1.2,5.6,5.1,5.6C425.1,412.9,436.3,405.7,438.7,400.6L438.7,400.6z M380.6,417.9c1.7,0.1,3.7,0.7,4.9,1.5
	c1.8,1.2,1.8,3-0.2,5c-4.3,4.3-10.7,3.6-10.7-1.1C374.6,419.4,377.2,417.6,380.6,417.9L380.6,417.9z M380.5,418.7
	c-3-0.2-5.1,1.2-5.1,4.6c0,3.8,5.4,4.4,9.3,0.5c1.7-1.7,1.6-2.9,0.3-3.8C384,419.4,382.1,418.9,380.5,418.7L380.5,418.7z
	 M405.2,230.4c3.9,2,14.4,6.9,16.2,7.9c2.2,1.2,4.2,2.8,5.9,4.7c1.1,1.4,2.2,2.8,3.1,4.3c2,3.1,0,6.4-5.2,9.7
	c-4.1,2.6-10.1,5.2-18.3,8.2c-4,1.4-16.4,5.6-17.6,6c-5.5,1.9-12.4,0.1-20.9-4.9c-3.3-1.9-6.7-4.2-10.8-7.1
	c-1.9-1.3-7.9-5.8-8.9-6.5c-2.3-1.7-4.7-3.3-7.2-4.7c-4-2.2-3.7-5.5,0.1-10.1c2.7-3.2,3.5-3.9,15.1-13.6c2.5-2.1,5-4.2,7.4-6.4
	c1.4-1.2,2.7-2.5,3.9-3.9c4.2-4.5,8.2-5.4,12.5-3.3c1.9,0.9,3.8,2.4,6.2,4.6c1.2,1.1,5.8,5.6,6.6,6.4
	C397.7,225.7,401.2,228.5,405.2,230.4L405.2,230.4z M404.8,231.2c-4-2-7.6-4.8-12-9c-0.9-0.8-5.4-5.3-6.6-6.4
	c-2.4-2.2-4.2-3.6-6-4.5c-4-2-7.5-1.2-11.5,3.1c-1.3,1.4-2.6,2.7-4,3.9c-2.1,1.9-4.3,3.8-7.4,6.5c-11.5,9.7-12.3,10.3-15,13.5
	c-3.6,4.2-3.8,7-0.4,8.8c1.9,1,4.1,2.5,7.3,4.8c1,0.7,7.1,5.2,8.9,6.5c3.4,2.5,7,4.9,10.7,7.1c8.4,4.8,15.1,6.6,20.2,4.8
	c1.2-0.4,13.6-4.6,17.6-6c8.1-2.9,14-5.5,18.1-8.1c4.9-3.1,6.6-5.9,4.9-8.5c-0.9-1.5-1.9-2.9-3.1-4.2c-1.6-1.8-3.5-3.4-5.6-4.5
	C419.2,238.1,408.7,233.2,404.8,231.2L404.8,231.2z M372.4,237.9c2.6-0.3,4.7-0.1,7,0.6c1.8,0.5,2.3,0.8,7.2,3.1c4,1.9,7,3.2,11,4.6
	c7,2.5,9.4,5.2,7.4,8.1c-1.7,2.4-6.7,4.9-14.9,7.6c-7,2.3-12.9,2-17.9-0.8c-3.9-2.1-6.9-5.4-10.1-10.2c-2.4-3.7-2.3-6.8,0.1-9.2
	C364.3,239.8,368,238.4,372.4,237.9L372.4,237.9z M372.5,238.7c-4.3,0.5-7.8,1.8-9.7,3.7c-2.1,2.1-2.2,4.8,0,8.2
	c3.1,4.7,6.1,7.9,9.8,10c4.7,2.6,10.4,3,17.2,0.7c8-2.7,12.9-5.1,14.4-7.3c1.6-2.3-0.4-4.5-7-6.9c-4-1.4-7.1-2.7-11.1-4.7
	c-4.9-2.3-5.3-2.6-7.1-3.1C377.1,238.6,374.8,238.4,372.5,238.7L372.5,238.7z M168.8,417c0,4-1.2,6.3-3.7,7.4c-1.9,0.9-3.8,1-9,1
	l-1.5,0c-7.7,0-14.2-6.4-14.2-12.9c0-6.3,8.8-8.8,16.4-4.5c2.3,1.3,3.5,1.6,7.1,2.3C167.7,410.9,168.8,412.1,168.8,417L168.8,417z
	 M167.9,417c0-4.4-0.7-5.3-4.1-5.9c-3.7-0.7-5-1-7.4-2.4c-7.1-4-15.2-1.7-15.2,3.8c0,6.1,6.1,12.1,13.3,12.1h1.5
	c5,0,6.9-0.1,8.6-0.9C166.9,422.7,167.9,420.7,167.9,417L167.9,417z M195.7,318.8c3.1-1.1,7.2-2.2,13.4-3.8
	c2.1-0.5,13.8-3.4,17.1-4.2c16.3-4.1,26.3-7.4,31.9-11.1c12.4-8.3,30.7-28.2,36.5-39.8c1.9-3.7,3.9-5.3,6.4-5.2c1,0,2.2,0.4,3.6,1
	c1,0.4,2,0.9,2.9,1.4l1,0.5c4,1.9,7,2.9,10.5,2.9c6,0,8.3,2.6,7,6.6c-1.2,3.4-4.9,7.4-9.2,10c-6.9,4.1-9.8,14.4-9.8,28
	c0,3-1.1,5.2-3.3,7c-1.6,1.3-3.5,2.2-7.1,3.5l-0.8,0.3c-4,1.5-5.8,2.3-7.2,3.7c-4.2,4.2-10.4,6-17,6c-1.1,0-2.1,0.8-3.3,2.6
	c-0.2,0.3-1.1,1.6-1.2,1.8c-2.2,3.3-4.1,4.8-7.1,4.8c-6.5,0-8.9,0.8-18.1,5.8c-4.3,2.3-7.3,3-12.2,3.1c-0.2,0-0.4,0-0.8,0
	c-4,0-5.9,0.2-8.8,1.1c-2.5,0.8-5,1.8-7.4,3c-1.8,0.8-8.8,4.2-8.5,4.1c-6.5,3.1-11.1,5-15.7,6.3c-10.3,3-15.5,1.9-22.8-3.4
	c-2.1-1.5-2.3-3.7-0.7-6.3c1.2-2,3.2-4.2,6.7-7.5l1.5-1.4c3.3-3,3.7-3.4,4.9-4.6c1.9-1.9,2.6-2.9,4.6-6.4c1.6-2.8,2.8-4.3,5.2-5.9
	C189.7,321.2,192.3,320,195.7,318.8L195.7,318.8z M196,319.6c-3.4,1.2-5.8,2.4-7.7,3.6c-2.3,1.5-3.4,2.9-5,5.6
	c-2,3.5-2.7,4.5-4.7,6.5c-1.2,1.2-1.7,1.6-4.9,4.6l-1.5,1.4c-3.4,3.2-5.4,5.3-6.6,7.3c-1.4,2.3-1.3,4,0.5,5.2
	c7.2,5.1,12,6.1,22.1,3.3c4.6-1.3,9.2-3.2,15.6-6.3c-0.2,0.1,6.7-3.2,8.5-4.1c2.4-1.2,4.9-2.2,7.5-3c2.9-0.9,4.9-1.1,9-1.2h0.8
	c4.8-0.1,7.6-0.7,11.8-3c9.3-5.1,11.8-5.9,18.5-5.9c2.7,0,4.3-1.3,6.4-4.4l1.2-1.8c1.4-2,2.5-2.9,4-2.9c6.3,0,12.3-1.7,16.4-5.7
	c1.5-1.5,3.4-2.4,7.5-3.9l0.8-0.3c7.2-2.6,9.8-4.7,9.8-9.6c0-13.8,2.9-24.3,10.2-28.7c4.2-2.5,7.8-6.4,8.9-9.6
	c1.2-3.4-0.7-5.5-6.2-5.5c-3.7,0-6.8-0.9-10.9-2.9c-6.3-3.1-5.6-2.8-7.3-2.9c-2.1-0.1-3.9,1.3-5.6,4.7
	c-5.9,11.7-24.2,31.8-36.8,40.2c-5.7,3.8-15.7,7.1-32.1,11.2c-3.4,0.8-15,3.7-17.1,4.2C203.2,317.3,199,318.5,196,319.6L196,319.6z
	 M210,322.9c1.7,0,3.3-0.2,6-0.6c4.3-0.6,5.5-0.7,7-0.4c2.1,0.5,3.2,2,3.2,4.7c0,3.4-1.9,6.1-5.5,8.4c-2.7,1.7-5.4,2.9-11.8,5.3
	l-0.2,0.1l-1.9,0.7c-2.5,1-4.4,2.1-7.8,4.5l-0.7,0.5c-6.8,4.9-11.1,6.7-19.2,6.7c-4.1,0-5.7-1.7-4.8-4.7c0.7-2.3,3-5.5,6.5-9.3
	c1-1.1,2.2-2.3,3.5-3.6c2.6-2.6,9.4-8.8,9.5-9c0.4-0.4,0.8-0.7,1.2-1c2.8-2.3,4.8-2.6,11.8-2.4C208.2,322.9,209.1,322.9,210,322.9
	L210,322.9z M210,323.7c-1,0-1.8,0-3.2,0c-6.8-0.1-8.7,0.2-11.3,2.3c-0.4,0.3-0.7,0.6-1.1,1c-0.2,0.2-6.9,6.4-9.5,9
	c-1.2,1.2-2.3,2.3-3.4,3.5c-3.4,3.7-5.6,6.8-6.3,9c-0.7,2.4,0.4,3.6,4,3.6c7.9,0,12-1.7,18.7-6.5l0.7-0.5c3.4-2.5,5.3-3.6,8-4.6
	l1.9-0.7l0.2-0.1c6.3-2.4,9-3.5,11.6-5.2c3.4-2.2,5.1-4.7,5.1-7.7c0-2.4-0.8-3.5-2.5-3.9c-1.4-0.3-2.5-0.2-6.7,0.4
	C213.4,323.6,211.8,323.7,210,323.7L210,323.7z M303.7,286c-1.6,4.5-1.6,5.6-0.8,10.6c1,5.9-1.1,13.8-4.6,13.8c-0.4,0-0.8,0-1.3,0.1
	l-0.5,0c-2.4,0.1-4,0.1-5.8-0.1c-5.5-0.9-8.7-4.3-8.7-11.2c0-11.6,1.8-16.4,6.8-21.9c0.8-1,1.5-2,2.1-3.1c0.5-0.9,2.3-4.3,2.3-4.2
	c3.7-6.8,6.4-9.6,10.2-8.7c1,0.2,1.8,0.6,3,1.3l1.2,0.7c0.8,0.5,1.7,1,2.6,1.3c0.6,0.2,1.5,0.3,4,0.2l0.6,0c2.6,0,4,0.1,4.9,0.5
	c1.3,0.7,1,2.1-1,4.1c-1.1,1.1-2.1,2.1-3.2,3.1C306.6,281,304.8,282.9,303.7,286L303.7,286z M302.9,285.7c1.1-3.2,2.9-5.1,11.9-13.7
	c1.3-1.2,2.3-2.2,3.2-3.1c1.6-1.6,1.8-2.4,1.1-2.8c-0.7-0.4-2-0.5-4.4-0.4l-0.6,0c-2.6,0.1-3.5,0-4.3-0.3c-0.9-0.3-1.6-0.7-2.7-1.4
	l-1.1-0.7c-0.9-0.5-1.8-1-2.8-1.2c-3.2-0.8-5.8,1.8-9.3,8.2c0.1-0.1-1.8,3.3-2.3,4.2c-0.6,1.2-1.4,2.3-2.2,3.3
	c-4.8,5.4-6.6,10-6.6,21.4c0,6.5,2.9,9.6,8,10.4c1.7,0.3,3.3,0.3,5.6,0.1c0.3,0,0.7,0,1-0.1c0.4,0,0.6,0,0.8,0
	c2.7,0,4.7-7.4,3.7-12.8C301.2,291.6,301.3,290.4,302.9,285.7L302.9,285.7z M295.2,296c0.5,0.4,2.1,1.6,2.1,1.6
	c1.6,1.3,1.7,2.8,0,5.3c-3.1,4.7-7.4,2.6-7.4-3.8c0-3.2,0.4-4.7,1.7-5C292.7,293.9,293.4,294.4,295.2,296L295.2,296z M294.1,297.3
	c-1.2-1.1-1.9-1.5-2-1.5c-0.1,0-0.4,1-0.4,3.4c0,4.9,2.2,6,4.3,2.9c1.2-1.9,1.2-2.4,0.3-3.1C296.3,299,294.7,297.8,294.1,297.3
	L294.1,297.3z M479.9,188.8c1.8-0.9,3.1-1.4,4.9-2l0.2-0.1c2.5-0.7,5-1.7,7.3-3c3.5-1.7,5.3-1.6,5.8,0.7c0.4,1.7,0.2,3.3-1,10.6
	c-1.9,11.3-7.6,21.8-17.6,30.2c-3.6,3-6.2,3.7-8.1,2c-1.6-1.3-2.6-3.8-3.8-8.7c-0.2-1-1.2-4.9-1.4-5.8c-0.6-2.6-1.4-5.2-2.3-7.7
	c-2-5.7-2.5-9-1.7-10.8c0.6-1.5,1.7-1.9,4.7-2c1.2-0.1,1.7-0.1,2.5-0.2l1.6-0.3c0.6-0.1,1-0.2,1.4-0.2c0.9-0.2,1.6-0.3,2.3-0.5
	C475.9,190.7,477.3,190.1,479.9,188.8L479.9,188.8z M480.2,189.5c-2.6,1.3-4.1,1.9-5.5,2.3c-0.7,0.2-1.4,0.3-2.3,0.5
	c-1.1,0.2-2.1,0.4-3.2,0.5c-0.6,0.1-1.2,0.2-2.4,0.2c-2.6,0.1-3.5,0.4-3.9,1.5c-0.6,1.5-0.2,4.7,1.8,10.2c0.9,2.6,1.6,5.1,2.3,7.8
	l1.4,5.8c1.2,4.7,2.2,7.1,3.6,8.3c1.6,1.3,3.7,0.8,7.1-2c9.8-8.3,15.5-18.6,17.4-29.7c1.2-7,1.4-8.8,1-10.3
	c-0.3-1.6-1.5-1.7-4.6-0.1c-2.4,1.2-4.9,2.2-7.4,3l-0.2,0.1C483.4,188.1,481.8,188.8,480.2,189.5z M476.5,195
	c1.1-0.3,2.1-0.6,3.2-1.2c0.3-0.1,2.1-1.1,2.8-1.4c1.2-0.6,2.5-1.1,3.9-1.6c2.2-0.7,3.9-0.6,4.9,0.3c0.8,0.8,1.1,1.9,1.2,3.5
	c0,0.3,0,0.6,0,1.1c0,4.7-3.9,14.1-9.4,19c-3.6,3.2-6.1,3.9-8.3,2.1c-1.7-1.4-2.9-3.9-5.6-10.8c-1.5-4-1.7-6.7-0.6-8.5
	c0.9-1.4,2.4-2,4.9-2.2l1-0.1C475.6,195.2,476,195.1,476.5,195L476.5,195z M474.7,196.9l-1,0.1c-2,0.2-3.1,0.6-3.7,1.5
	c-0.8,1.2-0.7,3.4,0.7,7c2.5,6.5,3.7,8.9,5.1,10.1c1.4,1.1,3,0.6,6.1-2.1c5.2-4.6,8.9-13.5,8.9-17.7c0-0.5,0-0.8,0-1.1
	c0-1.2-0.2-1.9-0.7-2.3c-0.5-0.5-1.5-0.5-3.2,0c-1.3,0.4-2.5,0.9-3.7,1.5c-0.6,0.3-2.4,1.2-2.8,1.4c-1.1,0.6-2.3,1-3.6,1.3
	C476.3,196.8,475.8,196.8,474.7,196.9L474.7,196.9z M285,122.8c-1.3,3.6-2.9,6-5.9,9.5l-2.2,2.5c-0.8,0.9-1.5,1.8-2.2,2.7
	c-1.5,2-2.8,4-3.9,6.2c-2.4,4.7-5.9,8.5-10.7,11.6c-3.5,2.3-6.9,3.8-13.1,6.3c-9.2,3.7-13.7,1-22.7-13.7c-2.4-3.9-7.3-7.2-15-10.5
	c-2.5-1.1-10.7-4.4-12-4.9c-4.1-1.8-5.9-3.1-5.3-4.9c0.6-1.9,4.4-3.4,12.9-5.1c13.9-2.8,22.4-3.2,33.3-2.5c6.6,0.4,8.1,0.4,10.6-0.2
	c1.7-0.4,3.3-1.1,5-2.2l2.3-1.4c8.2-5.1,10.8-6.6,14.4-8.2c5-2.3,8.8-2.8,11.6-1.2C288.1,110.2,288.5,113.2,285,122.8L285,122.8z
	 M283.4,122.2c3.3-8.9,3-11-2.1-14c-2.2-1.3-5.5-0.8-10.1,1.2c-3.5,1.6-6.1,3.1-14.2,8.1l-2.3,1.4c-1.7,1.1-3.5,1.9-5.5,2.4
	c-2.8,0.7-4.3,0.7-11.1,0.2c-10.7-0.6-19.1-0.2-32.8,2.5c-4.1,0.8-7,1.6-9,2.3c-1.7,0.6-2.5,1.2-2.6,1.6c-0.1,0.5,1.2,1.5,4.4,2.9
	c1.2,0.6,9.5,3.8,12,4.9c7.9,3.5,13.1,6.9,15.7,11.2c8.6,14.1,12.4,16.3,20.6,13c6.1-2.4,9.3-4,12.8-6.2c4.5-2.9,7.9-6.5,10.1-10.9
	c1.2-2.4,2.5-4.5,4-6.5c0.7-0.9,1.5-1.9,2.3-2.8l2.2-2.5C280.6,127.9,282.1,125.6,283.4,122.2L283.4,122.2z M277.9,121.9
	c-6.6,10.7-15.4,18.1-27.7,21c-6.5,1.5-10.4-0.7-10.9-4.9c-0.5-3.7,1.9-7.5,5-7.5c2.5,0,4.7-1.4,12.8-7.6c1.2-0.9,2.1-1.6,3-2.3
	c3.7-2.7,6.5-4.3,9-5.1c4.6-1.4,7.8-1.8,9.5-1C280.6,115.4,280.4,117.9,277.9,121.9L277.9,121.9z M277.2,121.5
	c2.3-3.7,2.4-5.6,1-6.3c-1.4-0.7-4.4-0.3-8.9,1.1c-2.4,0.7-5.2,2.3-8.8,4.9c-0.9,0.7-1.8,1.3-3,2.3c-8.4,6.4-10.5,7.8-13.3,7.8
	c-2.5,0-4.6,3.3-4.2,6.6c0.5,3.7,3.8,5.6,9.9,4.2C262,139.3,270.6,131.9,277.2,121.5L277.2,121.5z M384.3,27.9
	c11.6,4.1,17.3,4.1,26.3,0c2.5-1.1,4.6-2.4,9.2-5.7c4.6-3.3,6.7-4.6,9.3-5.8c3.4-1.6,6.5-2,9.3-1.1c3.3,1,5.2,10.2,5.6,23.7
	c0.4,11.8-0.4,24.1-2,28.5c-1.5,4.1-4.9,6.8-9.6,8.3c-3.5,1.1-7.1,1.6-10.8,1.5c-4.8,0-7.5,2-10.2,6.4c-0.3,0.5-1.3,2.2-1.4,2.4
	c-1.5,2.4-2.5,3.6-4.1,4.1c-0.8,0.3-1.7,0.7-3.2,1.4l-2,1c-0.9,0.4-1.6,0.8-2.2,1.1c-5.4,2.6-9.8,3.9-14.3,3.9
	c-4.8,0-8.4,1.7-11.7,4.9c-1,0.9-3.5,3.8-3.9,4.1c-2.1,2-4.9,3.5-9,5.1c-1.2,0.4-5,1.8-5.2,1.8l-1.7,0.6c-0.7,0.3-1.5,0.5-2.2,0.7
	c-4.6,0.9-9.3-0.4-15-3.7c-1.1-0.6-4.3-2.5-4.8-2.8c-1.7-1-3.4-1.3-7.6-1.6l-1.4-0.1c-4-0.3-6.4-0.9-8.5-2.5
	c-4.2-3-5.6-6.5-4.7-10.3c1.1-4.5,5.4-9.2,12.4-14.4c1.8-1.3,3.6-2.6,5.4-3.8c-0.3,0.2,3.6-2.4,4.4-3c2.3-1.6,4-3.2,10.6-10l0.9-0.9
	c2.9-3,4.9-4.9,6.8-6.5c2.4-2.1,3.9-5,6.2-10.9l0.5-1.3c2.2-5.8,3.6-8.3,5.7-10.3c1.2-1.1,5.6-5.4,6.6-6.2
	C371.3,24.3,374.7,24.5,384.3,27.9L384.3,27.9z M384,28.7c-9.4-3.3-12.5-3.6-15.5-1.3c-1,0.7-5.3,5.1-6.6,6.2c-2,1.8-3.3,4.3-5.5,10
	l-0.5,1.3c-2.4,6-3.9,9-6.5,11.2c-2.7,2.3-5.2,4.8-7.6,7.4c-6.7,6.8-8.4,8.5-10.7,10.1c-0.8,0.6-4.7,3.2-4.4,3
	c-2.1,1.4-3.8,2.6-5.4,3.8c-6.8,5.1-11,9.7-12.1,13.9c-0.8,3.5,0.5,6.6,4.4,9.4c2,1.4,4.3,2,8.1,2.3l1.4,0.1
	c4.3,0.3,6.1,0.6,7.9,1.7c0.5,0.3,3.7,2.2,4.8,2.8c5.5,3.1,10,4.5,14.4,3.6c0.7-0.1,1.4-0.3,2.1-0.6c0.6-0.2,1.2-0.5,1.8-0.7
	c0.2-0.1,4-1.4,5.2-1.8c4-1.5,6.7-3,8.7-4.9c0.3-0.3,2.9-3.2,3.9-4.1c3.5-3.3,7.3-5.2,12.3-5.2c4.4,0,8.7-1.3,13.9-3.8
	c0.7-0.3,1.4-0.7,2.2-1.1c0.1,0,1.6-0.8,2-1c1.5-0.8,2.5-1.2,3.3-1.5c1.3-0.4,2.3-1.5,3.7-3.8l1.4-2.4c2.8-4.6,5.7-6.8,10.9-6.8
	c3.7,0,7.3-0.4,10.5-1.5c4.5-1.5,7.7-4,9.1-7.8c1.6-4.3,2.4-16.5,2-28.2c-0.5-12.9-2.3-22.1-5.1-22.9c-2.6-0.8-5.5-0.5-8.7,1
	c-2.5,1.1-4.6,2.4-9.2,5.7c-4.6,3.3-6.7,4.6-9.3,5.8C401.7,32.9,395.8,32.9,384,28.7L384,28.7z M395.8,45.8c4.5,0,6.3-0.2,8.1-0.8
	c1-0.4,8.3-4,12.4-5.8c1.6-0.7,3-2,5.5-5c2.1-2.5,2.7-3.1,3.7-4c3.1-2.8,5.9-2.7,8.5,1c5.2,7.4,4.7,13.3,0.1,22.5
	c-0.8,1.5-1.5,3-2.1,4.6c-0.3,0.7-0.8,2.2-0.9,2.4c-0.1,0.4-0.3,0.7-0.4,1c-0.5,0.9-1.3,1.8-3.4,3.9c-2,2-4.3,2.7-9.7,3.6
	c-1.5,0.2-1.8,0.3-2.5,0.4c-5,0.9-8,2.2-10.2,5.1c-3,3.8-6.6,6.2-12.5,8.9c-0.5,0.2-0.9,0.4-1.5,0.7l-1.5,0.7
	c-2.2,0.9-4.4,2-6.4,3.2c-2.1,1.3-4,2-7.8,2.9c-7.1,1.7-10.2,3.1-14.5,7.8c-4.3,4.7-8.5,6.4-13.9,5.6c-4.5-0.7-8.9-2.5-19.6-7.9
	c-5.2-2.6-5.4-6.5-1.2-11.3c2.8-3.3,2.9-3.4,16.2-13.7c6.8-5.3,10.8-8.8,13.9-12.4c2.1-2.5,3.5-4.8,4.1-6.9
	c4.6-15.2,10.4-18.3,19-13c1.6,1,5.5,3.8,6,4.1C387.8,45.2,390.4,45.8,395.8,45.8z M395.8,47.5c-5.7,0-8.6-0.7-11.7-2.7
	c-0.5-0.3-4.4-3.1-6-4.1c-7.5-4.7-12.2-2.2-16.5,12c-0.7,2.4-2.2,4.9-4.5,7.5c-3.1,3.7-7.2,7.3-14.1,12.6
	c-13,10.2-13.2,10.3-15.9,13.5c-3.5,4.1-3.4,6.7,0.7,8.7c10.6,5.3,14.9,7.1,19.1,7.7c4.8,0.7,8.5-0.7,12.4-5c4.5-5,7.9-6.5,15.3-8.3
	c3.7-0.9,5.4-1.5,7.4-2.7c2.1-1.3,4.3-2.4,6.6-3.3l1.5-0.7l1.5-0.7c5.7-2.6,9.1-4.9,11.9-8.4c2.5-3.2,5.8-4.7,11.2-5.7
	c0.7-0.1,1-0.2,2.5-0.4c5.1-0.8,7.2-1.5,8.8-3.1c2-2,2.7-2.8,3.1-3.5c0.1-0.2,0.2-0.5,0.4-0.8c0.1-0.1,0.6-1.7,0.9-2.4
	c0.5-1.3,1.2-2.8,2.1-4.7c4.4-8.7,4.8-14,0.1-20.8c-2-2.9-3.6-2.9-6-0.7c-0.9,0.8-1.4,1.4-3.5,3.9c-2.7,3.2-4.2,4.7-6.1,5.5
	c-4,1.7-11.3,5.4-12.5,5.8C402.4,47.3,400.5,47.5,395.8,47.5z M385.2,54.7c4.6,3.2,8.6,3.1,15.2,0.7c4.5-1.6,4.9-1.7,6.4-1.7
	c2.1,0,3.5,1.1,4.4,3.7c1.4,4.1-1.9,7.1-10.2,10.6c-2.2,0.9-13.5,5.1-16.7,6.4c-6.5,2.7-11.6,5.3-15.7,8.5
	c-10.8,8.2-15.3,9.9-19.8,8.1c-1-0.5-2.1-1-3-1.6l-1.7-1.1c-0.6-0.4-1.2-0.8-1.9-1.2c-2.8-1.7-2.3-3.6,0.7-6.1
	c1.1-0.9,8.9-6.3,11.3-8.3c5.9-4.7,9.9-9.6,12-15.3c2.6-7,4.1-10.1,5.7-11.2c1.4-1,2.8-0.4,5.1,1.6c0.5,0.5,2.8,2.6,3.4,3.1
	C382.1,52.3,383.6,53.5,385.2,54.7L385.2,54.7z M384.7,55.3c-1.6-1.2-3.2-2.4-4.8-3.8c-0.6-0.5-2.9-2.6-3.4-3.1
	c-2.1-1.8-3.1-2.2-4.1-1.5c-1.4,0.9-2.9,3.9-5.3,10.7c-2.1,5.9-6.2,10.8-12.3,15.6c-2.4,1.9-10.2,7.3-11.3,8.2
	c-2.7,2.2-3,3.5-0.8,4.8l1.9,1.2l1.7,1.1c1.2,0.8,2.1,1.2,2.9,1.6c4.1,1.7,8.3,0.1,18.9-8c4.2-3.2,9.3-5.8,15.9-8.6
	c3.1-1.3,14.4-5.5,16.7-6.4c7.9-3.3,10.9-6,9.8-9.5c-0.7-2.3-1.9-3.2-3.6-3.2c-1.3,0-1.8,0.1-6.1,1.7
	C393.9,58.6,389.6,58.8,384.7,55.3L384.7,55.3z"/>
</svg>
