<svg id="svg2" xmlns="http://www.w3.org/2000/svg" viewBox="0 0 100 100"><title>water</title><g id="layer1"><path d="M33.5,0c-.5.3-1,2.49-.5,2.19.2-.1.3,0,.3.2a.46.46,0,0,0,.5.4,7.13,7.13,0,0,1,2,1c1.2.8,1.5,1.2,1.3,2s-.1.8.3.5.5-.1.7.8c.3,1.39.9,2.29,1.7,2.29.3,0,.4-.7.5-2.29V4.33q-.15-.75.3,0a1.07,1.07,0,0,1,.2.9.36.36,0,0,0,.2.5c.4.3.8-.6.7-1.59a.8.8,0,0,0-.9-.7c-.5,0-.8-.1-.8-.2s-.5-.4-1.2-.5a6.8,6.8,0,0,1-2.6-1.59A7.24,7.24,0,0,0,34.85,0H33.58Z"/><path d="M37.1,1.24c0,.2.5.5,1.2.6a2.63,2.63,0,0,1,1.4.6c.1.2.5.3.9.3s.5-.1-.2-.5C39.1,1.44,37.1.84,37.1,1.24Z"/><path d="M.1,15.28a1.27,1.27,0,0,0,.8,1.1c.8.5,1.1.5,1.1,0,0-.2.3-.3.6-.2.7.3,1.2-1,.8-2.09C2.9,12.49.1,13.49.1,15.28Z"/><path d="M2,27.93a2.87,2.87,0,0,0,2.2-.4,5.79,5.79,0,0,0,1.7-1,6.72,6.72,0,0,0-2.4-.7c-1.3-.3-2.6-.6-2.9-.7-.8-.3-.8,2.29.1,3,.4.4.6.4.4,0C.8,27.53,1,27.53,2,27.93Z"/><path d="M24.3,1.34a4.09,4.09,0,0,0-1.8.5c-.7.5-.7.6-.1.6.3-.1.7-.2.7-.4s.5-.4,1.1-.5C25.3,1.34,25.3,1.34,24.3,1.34Z"/><path d="M8.2,23.55c.7-1.1.7-1.49.3-1.79s-.3-.3-.1-.4-.5-.3-1.6-.7c-1.3-.4-2-.5-2.2-.3s-.3.2-.3-.1-.3-.5-.8-.5-.7.2-.6,1.1c.1.6,0,1.2-.2,1.29-.6.4,1.8,2.19,3.2,2.49S7.4,24.84,8.2,23.55Z"/><path d="M80,1.34l1.5-.8A4.39,4.39,0,0,1,82.8,0H77.88Z"/><path d="M23.5,42.57a2.28,2.28,0,0,0,1.4-.6c.3-.6.9-.4.9.3a.47.47,0,0,0,.5.5c.3-.1.5-.6.5-1.2a3.3,3.3,0,0,1,.9-2c.8-.8.9-1.2.6-2.69a4.61,4.61,0,0,0-.8-2.29,2.87,2.87,0,0,1-.6-1.69c0-1.69-.8-4.18-1.5-4.68-.3-.3-.5-.5-.3-.5s-.2-.4-.7-.9a4,4,0,0,1-1-1.29,6.49,6.49,0,0,0-2.6-1.39c-2.1-.8-2.7-.9-2.9-.5-.4.7-.4,1,.2,1.59a14.29,14.29,0,0,1,1.4,2.19c.8,1.59.9,2.09.7,7.07-.1,4.58-.1,5.28.4,5.08s.5-.1.3.2a1,1,0,0,1-.8.5c-.3,0-.7.4-1,.8-.3.6-.3.8,0,.8s.3.2,0,.8-.3.8.2,1a7,7,0,0,0,2.5,0c.5-.1.8-.3.7-.5S22.8,42.67,23.5,42.57Z"/><path d="M63.9,20.76c.6.3,1.2-2.09.9-3.09a2.16,2.16,0,0,0-1.2-1.1,5.08,5.08,0,0,1-1.6-.9c-.4-.3-.8-.5-1.1-.3s-.4.1-.4-.2.5-.4,1.1-.4c.9,0,1.1-.1,1-.8a1.56,1.56,0,0,1,.4-1.29c.7-.7,1.2-3,.7-3-.2,0-.3-.2-.2-.5s-.1-.6-.6-.8c-1-.3-.8-1.29.3-1.1.4.1,1.1.2,1.6.3.7.1.9,0,.9-.8A1.81,1.81,0,0,0,63.6,5c-.4.1-.7,0-.5-.3s0-.4-2-.5c-.6,0-.8-.2-.7-.5s0-.5-.6-.3-.8,0-.8-.4a1.35,1.35,0,0,0-.7-1c-.4-.2-.5-.4-.4-.4.5,0-.8-1.2-1.3-1.2a.43.43,0,0,1-.4-.4s0,0,0,0h-.39A3.67,3.67,0,0,0,55,.34c-.8.5-1.2,1-1.2,1.59a3.29,3.29,0,0,1-.4,1.49c-.3.4-.1.7.5,1a2.78,2.78,0,0,1,1.2,1.69,2.28,2.28,0,0,0,1.1,1.49c.8.2,1,.8.4,1a1.86,1.86,0,0,0-.5,1.1,8.34,8.34,0,0,1-.4,1.39c-.4.6,0,1.69,1,2.69a1.4,1.4,0,0,1,.5,1.49c-.2.4-.1.6.3.5s.5.2.6,1.2c.1.8-.1,1.29-.3,1.1-1-.6-.6.5.6,1.59.7.7,1.3,1.1,1.3,1s.3.1.6.5.5.5.3.2c-.2-.5-.2-.5.2-.1a3,3,0,0,0,1.8.5c1.2.1,1.4-.1,1.2-.6S63.7,20.56,63.9,20.76Z"/><path d="M44.9.44c1.2.9,3.1,1,3.1.1,0-.5-.1-.5-.6-.2-.66.49-1.18.3-1.17-.34H44.46A2.77,2.77,0,0,0,44.9.44Z"/><path d="M45.1,18.17a.55.55,0,0,0,.3-.8c-.3-.8-.8-.8-1,.1-.1.4-.2.3-.2-.4s-.3-1.1-.6-1.1a.84.84,0,0,1-.7-.7c-.2-.6-.6-.8-2.4-.9a5.66,5.66,0,0,0-2.6.2c-.2.2-.4.2-.4-.1s-.6-.5-2.1-.4c-1.9.1-2.1.2-2.1,1,0,.6-.2.8-.6.7a2,2,0,0,0-1.5.7,2.45,2.45,0,0,1-1.8.8,2.4,2.4,0,0,0-1.5.3c-.4.4-.6.4-.6-.1s-.1-.4-.5.1a2.33,2.33,0,0,1-1.2.8c-1.3.2-1.5,1.69-.4,3,.9,1,1,1.1,4.9,1a24.87,24.87,0,0,1,4.9.3c1,.4,2-.1,1.6-.8-.2-.3-.1-.4.2-.2a.67.67,0,0,1,.3.8c-.2.6,1.1,1,3.6,1.2a2.85,2.85,0,0,1,1.9.5c.1.2.3.4.4.4s.5-.2,1-.3c.7-.1.9-.4.9-1.39V21.06a13.59,13.59,0,0,0-.2-1.59C44.5,18.77,44.7,18.37,45.1,18.17Zm-8.4-2.89c-.8.4-.8.4-.5-.3.1-.3.4-.5.6-.3S37,15.08,36.7,15.28Zm5.7,7.77q-.45-.15-.3-1.2c.1-.6.2-1.2.3-1.2s.2.5.3,1.2S42.7,23.05,42.4,23.05Z"/><path d="M97.5,0c-.56.55-.86.53-1,0H93.32a2.54,2.54,0,0,0,.18.24q.75.9.3.9a1.19,1.19,0,0,1-.9-.5A3.64,3.64,0,0,0,91,0h-2.2a1.59,1.59,0,0,0-.53.84c-.4,1.2-1.5,1.89-1.5.9a2.26,2.26,0,0,0-.6-1.2A1.33,1.33,0,0,1,85.91,0H83.72c.67.31.64.84,0,.84a4.66,4.66,0,0,0-1.6.8c-.9.7-1,1-.8,2,.1.7.3,1.39.3,1.69a.53.53,0,0,0,.5.5.46.46,0,0,1,.5.4q0,.45.6,0t.6,0c0,.3.2.4.4.2.4-.3,2.4.5,2.4,1,0,.2.4.4.9.5s1.1.3,1.5.4a2.44,2.44,0,0,0,1.1-.7c.6-.6.8-1,.5-1.2-.6-.3.2-1.39,1-1.39.5,0,.7-.8.6-1.69,0-.2.2-.2.5-.1a.73.73,0,0,0,.8-.2c.1-.3.4-.2.7.3.6.7.6.7,1.6,0,1.2-.9,1.3-1.29.4-1.39-.6,0-.6-.1.1-.4A8.82,8.82,0,0,1,97.8,1a.52.52,0,0,0,.4-.8A1.21,1.21,0,0,0,98,0h-.49Zm-6,4.38c-.2.3-.4.2-.6-.1s-.2-.6-.1-.7C91.1,3.33,91.8,4,91.5,4.43Z"/><path d="M76.6,6.42a1.25,1.25,0,0,0,.8-2.19,3.49,3.49,0,0,1-.6-1.79c-.1-1.29-.5-2.19-1-1.89-.16.08-.53-.18-.87-.54H70c.39.44.3.57-.07.64s-.7.3-.7.5-.4.4-.9.4A5.28,5.28,0,0,1,66,0h-6.9a.43.43,0,0,1,0,.14c0,.3-.2.4-.4.3s0,.2.6.6a7.82,7.82,0,0,0,2,1.1,9.84,9.84,0,0,1,1.8.8,6.5,6.5,0,0,0,2.8.6c1.8.1,2,.2,1.8.9-.1.4-.1.6.1.5s.6,0,.9.3a4.6,4.6,0,0,0,1.4.7,8.35,8.35,0,0,1,1.2.4c.3.2.5.1.5-.1s.2-.3.5-.1C72.9,6.52,75.1,6.62,76.6,6.42Z"/><path d="M89.9,23.05c-.3-.2-.4-.2-.2.1s.6.3,1.3,0a5.52,5.52,0,0,1,2.2-.2c1.1.2,1.3,0,1.8-1,1-2.29.8-3.29-.8-5.38a18.33,18.33,0,0,0-2.9-2.79c-.7-.4-1.3-1-1.3-1.29a.56.56,0,0,0-.6-.5,1,1,0,0,1-.8-.6,4.21,4.21,0,0,0-2.5-1c-2-.4-2.2-.5-1.8-1.1s.4-.5,0-.3-.5.1-.5-.1-.6-.6-1.4-.8c-1.1-.3-1.6-.3-2.2.2-.4.3-.6.6-.3.6.8,0,.5.7-.3,1a1.19,1.19,0,0,0-.8.9,1.42,1.42,0,0,1-.5,1.1c-.4.4-.3.5.3.5s.7.1.2.4-.5.4,0,.8.5.4-.1.4-.7.3-.7,1.39a5.54,5.54,0,0,1-.4,2.09c-.3.6-.3.8.2.8s.6.4.4,2.09-.1,2.29.4,3.09c.8,1.2.4,2-.4.8-.3-.4-.7-1-.9-1.29a3.5,3.5,0,0,1-.4-1.69c0-.7-.2-1.1-.4-1s-.4-.1-.4-.5a1.33,1.33,0,0,0-.4-1c-.3-.2-.3-.4.1-.6s.3-.3-.3-.3c-.9,0-1.2.5-.5,1,.3.2.3.4.1.7a4.56,4.56,0,0,0-.5,3.78c.4,1.1.9,1.2,1.8.6a.47.47,0,0,1,.7.1c.1.2,0,.4-.2.4s-.2.2.2.5a1.91,1.91,0,0,0,1.4.4,1.22,1.22,0,0,1,1.2.5c.5.6.5.7-.1.4-.3-.1.2.6,1.3,1.69,1.7,2.19,3.2,2.89,3.6,1.79.2-.4.1-.5-.3-.4s-.2,0,.2-.3c.6-.5,1.5-5.58,1.2-6.67A3.1,3.1,0,0,1,85.9,21a1.87,1.87,0,0,0,0-1.49.42.42,0,0,1,0-.7c.6-.3,1.6,2.09,1.6,3.78,0,1.1.1,1.2.4.6a1.37,1.37,0,0,1,2.2-.2C90.3,23.25,90.2,23.25,89.9,23.05ZM84.4,11.3a.82.82,0,0,1-.6.4c-.2,0-.2-.2-.1-.4a.82.82,0,0,1,.6-.4C84.5,10.9,84.6,11.1,84.4,11.3Z"/><path d="M15.8,19.76a5.31,5.31,0,0,0,4.3-.1c.7-.6.7-.6,0-1.49a7.8,7.8,0,0,1-.8-1c-.1-.3-4.5-.8-5.1-.6-1,.4-.5,2.19.6,2.49.5.1.8.3.6.3S15.4,19.57,15.8,19.76Z"/><path d="M9.1,1.54c.3.4-.3.1-1.2-.6A6.35,6.35,0,0,0,6.33,0H5.79A1.22,1.22,0,0,0,5.5.14a1.54,1.54,0,0,0-.7,1c0,.5,0,.5-.4,0s-.4-.3-.4.5a5.29,5.29,0,0,1-.4,1.89c-.4.7-.3.8.4.6,1-.3,1-.2.1.7-.5.5-.5.6-.1.5s1.6.5,1.6,1,1,1.29,1.8,1.39c.4.1.7.4.7.6a.35.35,0,0,0,.3.5c.2,0,.1-.4,0-1-.1-1,0-1.29,1-1.59.6-.2,1.1-.5,1.1-.7s.5-.2,1.2-.1,1.1-.1,1-.3-.5-.2-.9-.1c-.6.2-.6.2,0-.3,1-.8,1.2-1.89.5-2.19-.4-.2-.5-.5-.4-1.1A1.42,1.42,0,0,0,11.69,0H9A1.28,1.28,0,0,0,9.1,1.54ZM9.6,5c-.2.4-1.4.6-1.4.3,0-.1.4-.2.8-.4S9.7,4.92,9.6,5Z"/><path d="M11.5,47.55c-1.5.1-2.3.3-2.7.9-.8,1-.7,1.49.1.9.6-.5.6-.5.4.1s.1.7,3.2.7a10.83,10.83,0,0,0,3.5-.2,7.86,7.86,0,0,0-1.2-1.39C13.7,47.55,13.3,47.45,11.5,47.55Z"/><path d="M6.7,32.71a9.25,9.25,0,0,1-.1-2.59,4.45,4.45,0,0,0-.3-2.19,3.51,3.51,0,0,0-1.6.2c-1.3.4-1.6,1.39-.6,1.79.3.1.6.4.6.6s-.2.3-.4.1c-.4-.3-.5.6-.2,1.49.1.3.4.5.6.4s.2.1.1.4-.1.6.1.6.3.4.3,1,.1,1,.9,1.29c1.1.3,1.2.3,1-1.1A6.85,6.85,0,0,0,6.7,32.71Z"/><path d="M4.6,36.7a2.3,2.3,0,0,0,.1,3.19c.9.8,1.3.7,1.9-.2.7-1.1.6-1.29-.5-2.59C5.2,36,5.1,36,4.6,36.7Z"/><path d="M18.8,32.22c.5-.5.5-.7.1-.7s-.4-.1-.1-.5c.8-.8.5-2.09-.8-3.39a4.72,4.72,0,0,0-1.7-1.2c-.3,0-.6-.4-.7-1s-.4-1-.6-1-.3-.2-.2-.4c.7-1.2-1.4-2.19-3.6-1.69a3.58,3.58,0,0,0-2.5,2.79,5,5,0,0,1-.5,1.29c-.6.9-.6,6,0,7.57a6.64,6.64,0,0,0,1,1.79c.3.2.4.3.2.4-.4,0,.5,1.69,1.1,2.09a1,1,0,0,1,.5.7,3.59,3.59,0,0,0,2.1,1.89c.2-.1.7-.2,1-.3A3,3,0,0,0,16,37.39c-.1-.8,0-1.39.2-1.29s.3-.1.3-.4a2.74,2.74,0,0,1,1-1.49c.5-.5.9-1,.8-1.1S18.4,32.61,18.8,32.22Z"/><path d="M23.8,48.75a3.26,3.26,0,0,1-1.1-.8,2.64,2.64,0,0,0-2.3-.8c-1.3.1-2.4.7-1.2.7.3,0,.6.2.6.4s-.4.3-.9.1c-.8-.2-.8-.2-.3.4.3.4.7.6.9.4s.3.1.3.4c0,.5.5.6,2.5.6,2.6.1,2.7,0,2.2-.7C24.2,49,23.9,48.75,23.8,48.75Z"/><path d="M.4,37.1a.62.62,0,0,1,.7.1c.2.3.7.3,1.2.2.7-.2,1.1-.7,1.6-1.89l.6-1.69-1.1-.9a2.68,2.68,0,0,0-2.2-.7c-1.1.2-1.2.2-1.2,2.69C0,36.6.1,37.3.4,37.1Z"/><path d="M4.7,43.57c0-.8-.8-1.89-1.4-1.89a2.92,2.92,0,0,1-1.6-1,3,3,0,0,0-1.4-1c-.2,0-.1.2.2.4s.4.4.1.4-.5.7-.5,2.09v2.09l1.5.2c1.8.3,2,.3,2.7-.1.4-.3.4-.4-.2-.5s-.6-.2-.1-.2S4.7,43.87,4.7,43.57Z"/><path d="M95.7,48.55c0,.2-.3.5-.6.6-.7.3-.6-.6.2-1.2.5-.4.5-.5-.3-.5-.6,0-.8-.2-.7-.8.2-.9-1-1.59-1.3-.8a.79.79,0,0,1-.8.5c-.5,0-.5.1,0,.9a1.56,1.56,0,0,0,1.1.8c.3-.1.6.3.6.7.1,1,.1,1,1.2,1.29.7.1,1,0,1.2-.4a1.38,1.38,0,0,0-.2-1.1C95.8,48.25,95.7,48.25,95.7,48.55Z"/><path d="M20.1,5.92c.6,0,1.8-1.59,1.8-2.49a1,1,0,0,0-.6-.8c-.4-.1-.5,0-.3.4s.1.6-.1.5c-.8-.1-1,.1-.5.6s.4.6-.1.6c-.3,0-.6-.2-.6-.4s-.4-.3-1-.2-1,.1-1-.3c0-.9-.7-.7-1.5.5-1.1,1.59-1.1,2.49.1,2.19.7-.2.8-.2.4.2-.6.6-.6,1.1-.1,1.1.2,0,.3-.2.2-.4s-.1-.4.1-.4a.82.82,0,0,1,.6.4c.2.5.4.5,1.6-.1.5-.2.8-.7.7-.9S19.8,5.92,20.1,5.92Z"/><path d="M89.3,44.17c-.3-.1-.5-.4-.4-.5.2-.3-1.5-2.09-2.8-3a2.88,2.88,0,0,0-2.3-.3c-1.2.2-1.4.4-1.1,1.1a6.87,6.87,0,0,0,1.4,2.09,7.23,7.23,0,0,1,1.3,2c.2.8,1.2,1,2.8.3.5-.2,1.1-.3,1.3-.1s.4-.1.4-.6A1,1,0,0,0,89.3,44.17Z"/><path d="M95.6,37.4a9.61,9.61,0,0,0,2.2-.3c1.2-.3,1.5-.3,1.8.3s.4-.2.4-2.19c0-2.69,0-2.79-.9-2.79a2.17,2.17,0,0,1-1.4-.5c-.4-.4-.6-.4-1,.2-.3.4-.6.6-.8.4-.4-.4-.3-.9.3-.9.8,0,.7-1.1-.2-2.19a3.66,3.66,0,0,1-.8-1.49c0-.7-1.5-1-1.7-.4a.77.77,0,0,0,.2.8.84.84,0,0,1,.4.7c0,.3-.1.3-.5,0s-.7-.3-1.2,0-.7.3-.5,0c.4-.6-.4-.5-1.1.1-.3.3-.7.5-.8.4-.4-.4-1.6,1.89-1.5,3,0,1.49.7,2.69,2.5,4.58a6.86,6.86,0,0,1,1.5,2,.55.55,0,0,0,.3.5,3.94,3.94,0,0,1,.9,1.29c.7,1.49,3.1,3.19,3.5,2.49.3-.5.5-.1.4.6,0,.2.4.3,1,.3s.9.2.8.4,0,.4.2.4a7.26,7.26,0,0,0,.3-2.89l-.1-2.59-1.8-.3a15.49,15.49,0,0,1-2.9-.7,10.1,10.1,0,0,0-1.9-.6C91.3,37.59,92.9,37.2,95.6,37.4Zm-.5-7.17c.7.3.8.5.2.5a.71.71,0,0,1-.6-.3C94.6,30.22,94.7,30.12,95.1,30.22Zm-3,1c0-.7.5-1.59.8-1.59s.3.9,0,1.89C92.9,31.72,92.1,31.52,92.1,31.22Z"/><path d="M82.5,33.41c-.3.2-.5-.7-.4-1.49,0-.2-.1-.2-.3-.2s-.9-.4-1.7-1.1a14.61,14.61,0,0,0-6.7-3.29,7.76,7.76,0,0,1-2.5-.9c-.3-.5-2-.4-2.5.2-.3.4-.7.5-1.3.2-1.5-.6-2.5.4-3.9,3.69C61.8,34,61.7,36.7,62.9,37A2.13,2.13,0,0,1,64,38c.4.7.3.8-.4.8-.4,0-.8.2-.8.3.1.8,1.4.9,3.3.3,1-.3,1.9-.7,1.9-.9s.3-.3.6-.2a7.69,7.69,0,0,0,3.9-1c.5-.3,1.4-.2,3.2.5,2.8,1,5.8.8,6.4-.3C82.6,36.6,82.9,33.11,82.5,33.41ZM65.4,38.19c-.9-.1-1-.2-.4-.4a1.32,1.32,0,0,1,1.1.2C66.3,38.19,66.1,38.29,65.4,38.19Z"/><path d="M51.2,37a7.51,7.51,0,0,0-1-3.09c-1.3-1.79-3.6-3.79-4.4-3.88s-1.3,1.59-.7,2.69c.2.4.3.8.2.8s0,.3.2.6.4.7.3.8-.5-.1-.7-.6c-.7-1-.8-1-2.2.2-1,.9-1,1-.4,1.49a4.21,4.21,0,0,1,.9,2.39c.1,1,.1,1.69,0,1.39a.89.89,0,0,0-.8-.5c-.4,0-.5.3-.3,1.1l.2,1.1-1.4-1.79-2.3.8a23.51,23.51,0,0,1-2.9.8c-.3,0-.5.2-.3.6s0,.6-.5.6a1.1,1.1,0,0,0-.9.4c-.1.2-.4.3-.8.2-.7-.3-.9-1-.3-1,.2,0,.4-.2.4-.6,0-.9-3.5-.7-4.4.2-.4.4-.6.8-.4.9s0,.7-.3,1.2a2.68,2.68,0,0,0-.3,1.69c.2.6,0,.7-1,.6-1.3-.2-3.4.5-3.4,1,0,.2.5.6,1.1.9a20.33,20.33,0,0,1,2.3,1.39,4.81,4.81,0,0,0,4.9.3c.8-.4,1.2-.4,1.5-.1s.4.3.4,0a.46.46,0,0,1,.4-.5c.2,0,.3.3.2.6s0,.6.3.6.6-.7.6-1.49c.1-2.19.3-3.59.7-3.88a3.18,3.18,0,0,1,1.7-.3,17.63,17.63,0,0,0,3.1-.4,12.34,12.34,0,0,1,3.3-.1,7.39,7.39,0,0,0,2.4.2,7.8,7.8,0,0,1,1.6-.2c.6,0,1.1-.5,1.5-1.29.6-1.1.7-1.2.9-.5s.3.4.6-1a6.09,6.09,0,0,0,.2-2.09A8.75,8.75,0,0,1,51.2,37Zm-6.3,1.1c-.5,0-.7-.1-.5-.2a1.71,1.71,0,0,1,1,0C45.7,38,45.4,38.09,44.9,38.09Z"/><path d="M58.4,34.31c-.1-1.2-.4-1.29-2-.8-2.1.7-2.4,1.1-2,2.59s.4,1.39,1.8.8a10.2,10.2,0,0,0,1.5-.8c.5-.4.4-.5-.2-.7s-.7-.3.1-.3C58.2,35.1,58.4,34.81,58.4,34.31Z"/><path d="M80,40c0-.3-.8-.5-2-.5-1.6-.1-1.9,0-1.3.3C77.7,40.38,80,40.48,80,40Z"/><path d="M55.6,30.72c-.7.3-.7.3-.1.6a3.44,3.44,0,0,0,3.5-.7,7.38,7.38,0,0,0,2.1-3.79c.3-1.2-.1-2.79-.6-2.49-.2.1-.6-.1-.9-.4a3.3,3.3,0,0,0-1.9-.6c-1,0-1.2.1-.7.4s.3.3-.7.2c-.7-.1-1.3-.1-1.2.1.1.7-.1,1.29-.4,1.2-.5-.3-2.2,1.1-2.3,1.79-.1.9,2.2,3.39,3.2,3.39C56.4,30.42,56.4,30.42,55.6,30.72Z"/><path d="M61.6,48.25c-.2,0-.3-.3-.3-.6s-.4-.6-.9-.6a2.25,2.25,0,0,0-1.4.6c-.4.5-.4.6,0,.6s.4.4.3,1c-.2.9-.1,1,1.9,1h2.1l-.7-1C62.2,48.75,61.8,48.25,61.6,48.25Z"/><path d="M79.5,45.76a2.64,2.64,0,0,1-1.2-.1,5.36,5.36,0,0,0-2.4.2c-.9.3-1.7.4-1.8.2-.3-.6.9-1.59,2.2-1.79,2.1-.4,2.5-.7,1.9-1.59a4.93,4.93,0,0,0-4.9-1.89c-2.1.3-2.5.5-1.8,1.1s.6,1.1-.1.8c-.3-.1-.6-.1-.6.2,0,.5,1,1.29,1.3,1,.1-.1.3.1.3.6,0,.8.1.8.6.3.8-.8.9-.8.9,0a1.2,1.2,0,0,1-.7.9c-1,.4-1.9,1.29-1.2,1.29.4,0,.3.1,0,.6s-.4.6,0,.6a.46.46,0,0,1,.4.5,4.81,4.81,0,0,0,2.4,1.79c-.1-.3.3-.4.7-.5s.6-.3.5-.5.2-.4.6-.5.7,0,.6.2c-.3.5-.1.4,1.2,0,.6-.2,1-.6.8-.9a1,1,0,0,1,.5-1C80.5,46.76,80.3,45.46,79.5,45.76Z"/><path d="M92.2,43.77a3,3,0,0,0-.3-1.59c-.3-.7-.5-1.29-.3-1.29s-.1-.3-.4-.6A9.51,9.51,0,0,1,90,38.69c-.5-.7-.7-.8-1.2-.5a1.43,1.43,0,0,0-.3,1.29c.5,1.59,1.7,4.08,2.1,4.08a3.72,3.72,0,0,1,.9.2A.85.85,0,0,0,92.2,43.77Z"/><path d="M96.6,23.95a4.05,4.05,0,0,0-.1-1.89c-.3-.9-.3-.9-.8.3a5.33,5.33,0,0,0-.5,1.89C95.2,25.24,96.4,25,96.6,23.95Z"/></g><g id="layer1-2" data-name="layer1"><path d="M28.8,70c.2,0,.3.1.2.2-.4.4,2,2.49,2.9,2.49a4.16,4.16,0,0,1,1.6.3c.5.2.7.2.5-.1s0-.3.6-.2.7.1.6-.2c-.4-.6,4.2.1,5.9.9a11.09,11.09,0,0,0,3.1.9c1.7.1,1.9,0,2.3-1a3,3,0,0,0,0-2.29,10.06,10.06,0,0,1-.4-2.59A4.61,4.61,0,0,0,43,64.26c-2.4-1.2-6.8-2.49-7.8-2.19s-3.5,2.79-3.4,3.29c0,.1.2.5.3.9s-.1.8-1.3,1.29C29.3,68.14,27.8,70,28.8,70Z"/><path d="M60.1,87c.2.2.5.1.5-.1s.5-.6,1.2-1c1.4-.8,1.5-1.2.2-1.29a1.23,1.23,0,0,0-1.4.8,4.21,4.21,0,0,1-1,1.2c-.6.4-.7,1.29-.2,1.59.1.1.4,0,.5-.2a1.1,1.1,0,0,0,0-.8C59.7,86.87,59.8,86.87,60.1,87Z"/><path d="M91.2,83.18a2.28,2.28,0,0,0-1.8.5c-.4.4-.7.5-.7.3s-.1-.4-.4,0c-1.4,1.2,1.5,1.69,3,.5C92.4,83.58,92.4,83.38,91.2,83.18Z"/><path d="M59.2,97.53a.35.35,0,0,1-.3.5c-.2,0-.5.3-.6.6s-.1.6.3.4.5,0,.5.3-.2.4-.4.3,0,.1.31.38h7.94a15,15,0,0,1-1.44-1.28c-1.3-1.29-2.1-1.89-2.6-1.79a1.38,1.38,0,0,1-1.2-.4c-.4-.5-1.3-.4-1,.2.1.2-.2.3-.7.3S59.2,97.23,59.2,97.53Z"/><path d="M63.3,67c0,.7-.1.7-.6.3a1.79,1.79,0,0,1-.6-1,.47.47,0,0,0-.5-.5c-.3,0-.7-.4-1-.9-.7-1.2-2.4-2-3-1.39s.8,3.78,1.6,3.78c.3,0,.6.4.6.8,0,.9,1.6,3.49,2.1,3.49.1,0,.1-.6,0-1.2-.2-1-.1-1.1.4-.9a.7.7,0,0,0,.9-.4c.1-.3.4-.6.6-.6s.1.5-.3,1.1l-.7,1.1.9-.8c.7-.6.8-.7.6-.1-.1.4-.1.7.1.7.6,0,.9-2,.6-3.29S63.3,65.85,63.3,67Zm-1.2,1.89a.4.4,0,1,1,.4-.4A.43.43,0,0,1,62.1,68.94Z"/><path d="M49.7,74.22c-.7,0-.1,2.09.8,2.89.4.4.7.6.5.3-.3-.6,0-.6.9-.2.4.4,1.2.2,2.1-.3s1.4-.9,1.2-1.1A25.66,25.66,0,0,0,49.7,74.22Z"/><path d="M73.5,98.72c-.2,0-.4-.1-.3-.3.2-1.2-1-2.09-3.5-2.59-1.4-.3-1.5-.2-.9.9.3.6.3.8-.1.8s0,.5.7,1.1c1,.9,1,1.1.5,1.2a1.59,1.59,0,0,0-.45.18h7c-.17-.3-.38-.42-.61-.28s-.7-.3-1.1-.8-.8-.8-.8-.6A.43.43,0,0,1,73.5,98.72Z"/><path d="M84.3,80.69c0,.2-.3.3-.7.3-1.3,0-.1.5,1.5.7a5.58,5.58,0,0,0,3-.7c.7-.4,1.3-1,1.3-1.2,0-.4-.7-.4-3.8.3C84.9,80.19,84.3,80.49,84.3,80.69Z"/><path d="M70,80.19c-2.7-1.2-3.1-1.29-4.2-.4-1.4,1.1-1.4,2.49,0,3.09s2.3,1.89,1.5,2.19a2.5,2.5,0,0,1-1.4-.2c-.8-.4-1.1-.2-3.5,2.29-3.2,3.29-3.6,4.48-1.3,4.58,1.7.1,2.8.5,3.1,1.2.1.3.4.5.5.4a15.07,15.07,0,0,1,3.6.1c2.3.1,3.4,0,3.9-.3.9-.6,1.3-3.19.8-5-.3-1.2-.3-1.49.3-1.79s.6-.6.1-2.19A4.85,4.85,0,0,0,70,80.19Zm-1.7,5.48c-.2,0-.4-.1-.4-.2s.2-.3.4-.4.4-.1.4.2A.43.43,0,0,1,68.3,85.67Z"/><path d="M10.1,92.94c-.3,1-.7,1.2-1.1.5-.2-.3-.5-.2-1,.2s-.9.6-1.1.4-.3.2-.3.6a1.17,1.17,0,0,0,.9,1.1,1.28,1.28,0,0,1,.9,1.59c-.2.3,1.1.5,1.4.2a4.92,4.92,0,0,1,1.3-.3c.6-.1,1.9-.4,2.9-.6,1.4-.4,1.7-.6,1.6-1.29-.1-.5.1-.8.4-.8s.4-.2.2-.6-.1-.5.2-.4.5-.1.6-.6-.1-1.1-.9-1.79c-1.3-1.1-1.4-1.59-.5-1.59.4,0,.5.1.4.3-.3.3.4,1.29,1,1.29s.4-1.1-.1-1.29-.4-.2,0-.2c.7,0,.6-1.2-.2-1.49a1.83,1.83,0,0,1-1-.7c-.3-.4-3.6-.4-4.2,0A7.5,7.5,0,0,0,9.8,91c-.2,1.1-.2,1.1.4.4s.6-.7.4-.1C10.5,91.65,10.2,92.35,10.1,92.94Zm1.8.3c.3-.1.5-.1.4.2s-1,.5-1,.2C11.3,93.54,11.6,93.34,11.9,93.24Z"/><path d="M92.9,73a4.55,4.55,0,0,1-1.9-.2c-1.1-.4-1.1-.4-.7.5A4.59,4.59,0,0,0,92.2,75c1.2.7,1.5.7,1.7.2C94.3,74.12,93.7,72.82,92.9,73Z"/><path d="M89,75.91c-.3-.4-.4-.2-.4.9,0,1.49.4,1.89,2.2,2.09.8,0,.9-.2.9-.9,0-1-.7-1.39-2-1.1-.5.1-.8.1-.6-.1A1,1,0,0,0,89,75.91Zm.9,1.89a.51.51,0,0,1,1,0c.1.2-.2.4-.5.4S89.8,78,89.9,77.8Z"/><path d="M99.6,94.14c.2,0,.3-1.1.3-2.59,0-2.59-.1-2.79-.8-2.79a25.68,25.68,0,0,1-3.1-.6c-1.3-.3-2.4-.6-2.5-.4a5.82,5.82,0,0,0-.6,3c.1,2.29,1.4,3.09,4.5,3C98.5,93.74,99.5,93.84,99.6,94.14Z"/><path d="M55.5,68.94c-.3,0-.4.3-.2.9a10.32,10.32,0,0,1,.2,1.49c0,.5.2.6.6.4s.6-.1.4.6c-.4,1.2.3,1.1.8-.1.4-.8.3-.9-.2-.7s-.6,0-.3-1.1.2-1.29-.3-.6c-.4.5-.6.6-.8.3a.6.6,0,0,1,0-.8C55.9,69.14,55.7,68.94,55.5,68.94Z"/><path d="M73.9,96.13A12.18,12.18,0,0,0,77,98.62L79.19,100H81l.53-.28a3.39,3.39,0,0,1,2.1-.6c.74.28.79.8.24.88h2.59a1.93,1.93,0,0,0-.23-.28c-.9-.9-.4-5,.9-6.47,2.4-2.79.1-5.78-6.5-8.77-1.6-.7-3.3-1.59-3.7-1.79-1.2-.8-1.3-.7-1.2,1.49.1,1.1.2,3.59.4,5.48l.2,3.49L75,94.34C74.3,95,73.8,95.83,73.9,96.13Z"/><path d="M80.4,74.92c-1.3-1.39-3.2-1.79-3.7-.9-.2.3-.4.3-.6-.1s-.3,0-.3,1c.1,1.29.3,1.59,1.4,2,1.7.7,3.4.7,4-.1C81.6,76.31,81.5,76,80.4,74.92Z"/><path d="M88.31,100h4.76a1,1,0,0,1-.16-.18,4.42,4.42,0,0,0-2.3-.7C88.81,98.92,88.7,99,88.31,100Z"/><path d="M50.5,89.06c-.1,0-1.5-.3-3-.6-5.6-1.29-5.5-1.2-5.5-.6a8.89,8.89,0,0,0,1,2.19c.5.9,1,1.79.9,2s.3.6.9.8c1.3.3,2.2.2,2.6-.4.2-.3.2-.2.1.2s0,.7.6.7a8,8,0,0,1,1.5.3,12.77,12.77,0,0,0,4.3,1.2c.7.1.8-.1.6-1.2-.3-2-.6-2.59-1.7-2.59-.5,0-.9-.1-.7-.3S50.9,89.06,50.5,89.06Z"/><path d="M47.4,99.52c-.8.6-1.4.2-1.1-.8.2-.7.1-.8-.8-.6-1.2.3-1.3.2-.5-.6.5-.5.4-.7-.5-1.49-1.9-1.69-3.4-1.2-2.2.7.6.9.7,1,1.4.3.4-.4.8-.5.8-.2s-.2.5-.4.5c-.7,0-.1,1.59.8,2.29a3.57,3.57,0,0,0,.67.38h2.35a.51.51,0,0,0,.08-.28C48,99.22,47.9,99.22,47.4,99.52Z"/><path d="M30,58.78c-.5,0-.5.1-.2.6a1.36,1.36,0,0,1,.2,1.39c-.2.5-.1.8.2.8s.4.2.3.5a1.45,1.45,0,0,0,.2,1.1c.1.4.2.3,0-.2s0-.8.4-.9.5-.4.4-.6,0-.3.3-.1.8-.2,1.1-.8c.5-.9.5-1.1-.4-1.69-1.4-1-2.3-1.29-2.6-.8-.2.3-.1.3.2.2s.5-.1.5.1S30.3,58.78,30,58.78Z"/><path d="M54.5,88.76c.3,0,.6.2.6.4,0,.5.5.4,1-.1a1.83,1.83,0,0,0,.5-1.2c0-.5.2-.7.5-.5s.5-.2.5-1a2.06,2.06,0,0,1,.5-1.49,2.16,2.16,0,0,0,.5-1.59c.1-2.79.2-2.89,1.9-2.89,1.4,0,2.3-.5,2.3-1.39,0-1.1-8.1-2.09-8.8-1.1-.2.4-.2.4.2.2s.4-.2,0,.4-.5.8-.1.9a.93.93,0,0,1,.5.9c0,.4-.2.7-.4.5-.7-.4-.4.4.4,1.49s1,2.09.3,3.19C54,86.67,53.8,88.76,54.5,88.76Zm3.2-5.18c.6-.5.6-.5.1.1s-.8.9-.8.6C57,84.18,57.3,83.88,57.7,83.58Z"/><path d="M48.4,79.4c1.4.8,3.1,1,3.1.4s-2-2-3-2C47.1,77.8,47,78.5,48.4,79.4Z"/><path d="M34,96.83a.46.46,0,0,0,.4-.5q0-.6.3,0c.2.4.4.3.8-.2a1.83,1.83,0,0,1,1.3-.8c.5,0,.8-.2.8-.4,0-.6-.6-.5-1.6.3-.5.4-1.1.7-1.4.6s-.5.1-.7.4S33.8,96.83,34,96.83Z"/><path d="M38,94.54a.43.43,0,0,0,.4.4c.2,0,.3-.4.3-.8,0-.8-.9-1-2.7-.4-.9.3-.8.3.5.4C37.3,94.14,38,94.34,38,94.54Z"/><path d="M30.9,53c.2.5.2.9.1.9s0,.3.3.6c.4.5.9.6,2.1.4s1.7-.1,2.1.4c.9.8,3.2.5,5-.9s2-1.79.8-1.89c-.5,0-.7-.1-.4-.2a.75.75,0,0,0,.5-.7c0-.3-.2-.4-.5-.3a.73.73,0,0,1-.8-.2c-.3-.5-2-.5-2.4,0s-1,.5-1-.2c0-1.39-2.5-1.29-4.5.1C30.8,51.91,30.6,52.21,30.9,53Zm7.2-1.59a2.6,2.6,0,0,1,1,.4c.3.2.4.4.2.4a4.19,4.19,0,0,1-1-.4C38,51.61,37.9,51.41,38.1,51.41Z"/><path d="M43,59c1,1,1.1,1.29.5,1.1a7.52,7.52,0,0,0-1.6-.4,7.41,7.41,0,0,0-1.2-.2,1.7,1.7,0,0,0-1,0c-.5,0-.4.2.2.6.4.3.5.6.3.6-1,0-.4.7,1.1,1.2a6.38,6.38,0,0,1,2.2,1.2c.4.4.8.6,1,.5s.3,0,.3.2c0,.4,1.8,1.69,2.5,1.79a2.49,2.49,0,0,1,1.2.8,1.67,1.67,0,0,0,1.6.5,1.43,1.43,0,0,1,1.6.5,9.13,9.13,0,0,0,1.3,1c.6.2.5,1.79-.1,1.79-.1,0-.2.5-.2,1,.3,1,1.1,1.79,1.8,1.29.5-.3.4-1.59-.2-2.09A1.71,1.71,0,0,1,54.1,69c.2-1.2,1.8-1.29,2.9-.3.8.7.8.7.2-.3a5,5,0,0,0-1.1-1.29c-.5-.3-.5-.4,0-.7s.4-.4.1-.6c-.8-.6-1.3-2-1.3-3.78,0-1.49-.1-1.79-.8-1.79-.4,0-.8.2-.8.5,0,.6-2.9,1.89-3.1,1.39-.1-.2.3-.8.9-1.29a2.8,2.8,0,0,0,1-1.69,1.83,1.83,0,0,1,.5-1.2,2.71,2.71,0,0,0,.6-1.2c.3-1.89-3.4-1.79-4.4,0-.5.9-.8,1.1-1.4.9-1.1-.3-.9-.1-1.2-2-.2-1-.1-1.59.1-1.49s.5,0,.6-.4c.2-.6.1-.7-1.2-.3-.6.2-.9.5-.8.9.1.9-1.5,2.69-2.2,2.49C41.6,56.49,41.7,57.68,43,59ZM52.8,67a.85.85,0,0,1,.7,0c.3.1.2.2-.2.2S52.7,67.25,52.8,67Z"/><path d="M55.9,56.19c.2-.1.5.5.6,1.49s.3,1.49.4,1.2.3-.3.8.2c.7.8,3.3,2.19,3,1.59-.1-.2.1-.3.4-.1a1.17,1.17,0,0,1,.6,1c0,.4.2.7.4.7s.3-.2.2-.4a.48.48,0,0,1,.2-.6c.2-.1.4,0,.4.3,0,.7.8,1,2.4,1,1.1.1,1.4-.1,1.2-.3s0-.3.6-.2.8.2.6-.3.1-.8,1-.7c.2,0,.3-.4.2-.9s-.3-.9-.5-.9c-.6.1-1.8-.5-1.8-.9,0-.2.2-.3.5-.3a4.34,4.34,0,0,0,1.6-1c1-1,1.1-1.1.4-1.69s-.6-.8,0-1.39c.8-.8.8-1-.2-.8-.4.1-.8,0-.8-.2s-.2-.3-.4-.2a.48.48,0,0,1-.6-.2c-.3-.5-1.7.7-1.7,1.39a.56.56,0,0,1-.6.5.67.67,0,0,0-.6.7,3.6,3.6,0,0,1-.6,1.49c-.5.7-.6.6-.3-1l.2-1.79-1.7-.7a16.67,16.67,0,0,1-2.7-1.39,2.1,2.1,0,0,0-1.4-.5c-.2.2-.2.1-.1-.2.4-.8-.8-1.39-2.4-1.2-.8.1-1.5.2-1.6.2a3.18,3.18,0,0,0,0,1.49C53.7,53.2,55.4,56.49,55.9,56.19Z"/><path d="M62.4,52.4a2.85,2.85,0,0,1,.8.4c.4.1.4,0-.1-.5-.6-.7-.6-1-.3-1.59.4-.8.4-.8-1.9-.7-1.3.1-2.2.2-2.1.4A15.82,15.82,0,0,0,62.4,52.4Z"/><path d="M44.9,50.91c.3.1.4,0,.3-.2s.3-.3,1.4-.2c.9.1,1.5.1,1.3-.1-.5-.6-3.9-.6-3.7-.1A1.06,1.06,0,0,0,44.9,50.91Z"/><path d="M3.4,78.1a6.92,6.92,0,0,1,1.3,2.09c.4.9.9,1.49,1,1.29.4-.4-.1,1.29-.8,2.89-.3.7-.5,1.39-.3,1.69s0,.4-.3.4-.1.2.4.5.8.6.6.8-.1.3.1.3.5-.2.6-.4a4.81,4.81,0,0,0,0-1.79c-.2-1.29-.1-1.49.5-1.49,1.5,0,1.8-.6,1.2-1.79a3.75,3.75,0,0,1-.4-2c.2-.6.1-.8-.3-.7s-.5-.1-.5-.4a1.93,1.93,0,0,0-.8-1.1,2.15,2.15,0,0,1-.8-1c0-.2-.4-.6-.8-.7C3,76.31,2.4,77.51,3.4,78.1Z"/><path d="M5.7,53.5c2.3,0,2.6.1,2.2.5a5.89,5.89,0,0,1-2,1.1c-1.2.5-1.4.7-1,1.1a.76.76,0,0,1,.1,1c-.5.7-.3,6.87.3,7.57a4.3,4.3,0,0,1,.1.5,2.15,2.15,0,0,0,.8,1c.6.4.6.7.3,1s-.2.6.3,1.2c1,1,.9,1.2-.1,1.69-.8.4-.8.4-.1.5s.8,0,0,.6c-.4.3-.5.6-.3.6s.5.2.5.4-.2.3-.4.2-.4,0-.4.4.2.5.6.4.6,0,.6.2a.43.43,0,0,0,.4.4,1.87,1.87,0,0,1,1,.5,2.89,2.89,0,0,0,2.1.4c1-.1,1.5,0,1.4.2-.2.4.1.4,2,.5.6,0,.8.3.8,1.2,0,.6.2,1.2.5,1.29a.93.93,0,0,1,.5.9c0,.5.2.7.5.6s.7.1,1,.6c.6.9,1.2.6,1-.4-.1-.4,0-.9.3-1,.5-.3,2,1.2,2,2,0,1,3.1,1.39,5.8.8,1.1-.2,2.1-2.09,1.3-2.39-.3-.1-.4-.3-.3-.5s-.1-.2-.4-.1-.6,0-.6-.2-.4-.5-.9-.7c-1.3-.4-2.2-1.39-2.2-2.19a5.23,5.23,0,0,1,1.5-2.19l1.5-1.39-1-1.49c-.8-1.2-1.2-1.39-1.9-1.2-.5.1-.9.1-.9-.1,0-.4-2.9-.3-4.3.1-.8.2-1,.8-.8,2.29.1.5,0,.7-.3.4-.6-.6-.1-4.48.6-4.48a.56.56,0,0,0,.5-.6.67.67,0,0,1,.7-.6c.5,0,.8-.4,1-1s.4-.9.6-.8c.4.3,1.4-1.69,1.7-3.49.2-1.2-.9-3.49-2.1-4.38s-1.8-.1-1.2,1.1c.3.7,0,.5-1.1-.6-1.4-1.39-1.8-1.49-1.7-.5,0,.2-.2.2-.5.1s-.8.4-1.3,1.89c-.8,2.09-.8,2.09-.7.6,0-.8.2-1.49.4-1.49s.3-.2.2-.5a1.09,1.09,0,0,1,.4-1c.4-.4.4-.6.1-.8s-.5-.4-.5-.6-.3-.3-.6-.3-.5-.1-.5-.2-.6-.3-1.3-.3c-2.6,0-3.2-.1-2.7-.4s.4-.4-.1-.6a1,1,0,0,1-.6-.8c0-.3-.2-.6-.4-.6s-.5-.4-.6-.8c-.2-.7-.5-.8-1.7-.6-.8.1-1.6.2-1.7.2s-.3.5-.3,1a4.68,4.68,0,0,1-.4,1.69C3.1,53.5,3.3,53.6,5.7,53.5ZM16.2,77c.1,0,.3.2.4.4s.1.4-.2.4a.43.43,0,0,1-.4-.4C16,77.21,16.1,77,16.2,77Zm-.5-1.89c.2,0,.4.3.4.6s-.1.6-.2.6-.3-.3-.4-.6S15.4,75.11,15.7,75.11ZM15.2,73c.3-.3.4-.2.4.4,0,1-.5,1.59-.7.7A1.42,1.42,0,0,1,15.2,73Zm-4.3-6.37a.44.44,0,0,0,.3-.6c-.1-.2.1-.5.5-.6a2.26,2.26,0,0,0,1.1-.8c.3-.4.5-.4,1.1.3.9.9.8,1.1-.7,1.29a3.94,3.94,0,0,0-1.3.4,1.22,1.22,0,0,1-.9.2C10.6,66.85,10.5,66.85,10.9,66.65Zm-1.6.1c.1-.3.3-.5.4-.4a.48.48,0,0,1-.1.6C9.2,67.54,9,67.45,9.3,66.75Zm-.7,3.88c.2-.1.4-.1.4.2a.43.43,0,0,1-.4.4c-.2,0-.4-.1-.4-.2S8.4,70.73,8.6,70.63Z"/><path d="M.9,87.47c.5.3.8.4.6.3a1.46,1.46,0,0,1,.1-1.1,3.18,3.18,0,0,0-.2-2.09c-.9-2.09-1.4-1.89-1.4.3C0,86.57.1,87.07.9,87.47Z"/><path d="M2.5,94.64a.72.72,0,0,0,1.1.1c.2-.2-.3-1.39-1.2-2.59a4.26,4.26,0,0,1-.8-2.39c0-.2-.3-.2-.6-.1s-.5.1-.4-.1A.48.48,0,0,0,.4,89c-.3-.2-.4.7-.4,2.49v2.79H1.1A2.11,2.11,0,0,1,2.5,94.64Z"/><path d="M9.4,50.71a9.32,9.32,0,0,0,5.1,1.49,2.58,2.58,0,0,1,1.8.5,1.06,1.06,0,0,0,1.2.3,3.72,3.72,0,0,1,2.3.8c1,.6,1.6.8,1.6.5s.1-.4.3,0c.5.7,2.3,1.29,4.2,1.29,1.5.1,1.8-.1,1.8-.7a1.83,1.83,0,0,0-.5-1.2,2.29,2.29,0,0,1-.4-1.79,2.56,2.56,0,0,0-.3-1.69c-.6-.5-7-.3-7.2.3s-1.9.6-2.6-.1-6.3-.9-5.9-.1c.2.4.2.4-.3.1A2.84,2.84,0,0,0,9.2,50C8.6,50,8.6,50.11,9.4,50.71Z"/><path d="M72.1,53.3c.9-.4,1.6-1.2,1-1.2a1.46,1.46,0,0,0-.8.5c-.3.3-.5.3-.5,0s-.3-.5-.6-.6-.5,0-.3.4.1.5-.2.3-.5,0-.5.3C70.3,53.8,70.8,53.8,72.1,53.3Z"/><path d="M10.6,98.62A1.37,1.37,0,0,0,8.83,100H12C12,99.29,11.55,98.86,10.6,98.62Z"/><path d="M98.2,99.42c-.2-.4-.4-.5-.7-.2-.7.7-1,.5-1-.6,0-.5-.2-1-.5-1s-.3-.1-.2-.3-.1-.5-.5-.8c-1.7-1.2-3.3,1.2-1.8,2.89a2.89,2.89,0,0,1,.4.58h4.26A.49.49,0,0,0,98.2,99.42Z"/><path d="M97.7,81.59c.3-.5-1.4-2.49-2.1-2.49-.2,0-.3.2-.2.4.3.5-.7,1.59-1.5,1.59a1.27,1.27,0,0,0-1,.8c-.5,1-.5,1.39.1.9a2.29,2.29,0,0,1,1.1-.3,1.39,1.39,0,0,0,1-.5c.4-.5.6-.5,1.3,0s.8.5-.5,1.79c-2.4,2.19-1.4,4.38,1.9,3.88,1.1-.2,1.7-.1,1.9.3a8.89,8.89,0,0,0,.2-2.79c0-2.59-.1-3.09-.8-3.39-.4-.2-1-.3-1.2-.1S97.6,81.79,97.7,81.59Z"/><path d="M23.8,85.67a4.89,4.89,0,0,0-1.5-.2c-.6,0-1.4.1-1.8.1-.8,0-.9.8-.1.8.3,0,.5.2.4.4s0,.4.3.4a.89.89,0,0,1,.8.5c.1.4.3.3.6-.1s.5-.5.8,0,.4.5.4,0v-.9c-.1-.7.8-.2,1.1.6a2.41,2.41,0,0,0,1.4,1.2c1.4.3,1,1.2-.5,1.29-.7.1-1.2.3-1,.5s0,.4-.2.6-.6-.1-.9-.5-.7-.7-1-.6a1.38,1.38,0,0,1-1.2-.5c-.7-.7-.7-.7-.8,0a.84.84,0,0,0,.3.9,1.94,1.94,0,0,1,1.3,2.39A3,3,0,0,1,21.6,94c-.3.2-.3-.1-.1-.8s.1-1-.2-.9c-.6.2-.5,2.29.2,2.69.4.3.4.4-.1.7s-.5.4.1.4.6.1.3.5-.3.6.2.8.5.4.4.5c-.3.3,1.7,1.69,2.4,1.69a1.15,1.15,0,0,0,.9-.6c.1-.4.5-.5,1-.4.9.2,2.6-.5,2.6-1.1a4,4,0,0,1,1-1.29c.8-.7,1-1.1.8-1.89-.4-1.39-1.3-2.89-1.8-2.59-.2.1-.4,0-.4-.2v-.7c0-.2.9-.2,2.1-.2a4.5,4.5,0,0,1,3.4,1c1.1.8,1.8,1,4,1.1l2.7.1.3-1.49c.4-1.79-.3-2.79-2.8-4-.8-.4-1.4-.9-1.3-1.1s0-.2-.2-.1-.8.1-1.3-.2-1-.3-1.2,0a1,1,0,0,1-.9.2c-.3-.1-.5.1-.5.5,0,.6-.2.6-1.1-.3-1.4-1.29-3.7-1.59-6.1-1A5.32,5.32,0,0,1,23.8,85.67Zm3.9,3.78a.4.4,0,1,1-.4.4A.43.43,0,0,1,27.7,89.46Z"/><path d="M44.7,84.88c.7,1.2,1.1,1.39,3,1.39a11.76,11.76,0,0,1,2.4.2c.5.2.7.1.7-.2s.1-.4.3.1.5.6,1.2.4,1.1-.7,1.6-1.89l.6-1.69-1.2-.9c-.6-.5-1.2-.8-1.3-.6s-1.1.2-2.3,0c-2.4-.3-3-.2-2.6.4a.38.38,0,0,0,.6.1c.2-.1.4,0,.4.2,0,.4-.2.5-2.1.6C44.6,83.08,44.1,83.88,44.7,84.88Z"/><path d="M36,82.29c1.5,0,1.9-.1,2.1-.7.1-.4.3-.6.4-.5s.5-.2.9-.7c1-1.2.6-3.69-.6-4.18-2.2-.8-6.7-1.1-8.5-.4-.6.2-.8.7-.9,1.59-.1,1.39.8,2.89,1.5,2.49.2-.1.3.1.2.5C30.9,81.29,33.4,82.19,36,82.29Z"/><path d="M90.2,51.61a2.33,2.33,0,0,0-1.3-.7,7.52,7.52,0,0,1-1.6-.5c-.5-.2-.7-.2-.4.1C87.5,51.21,90.7,52.21,90.2,51.61Z"/><path d="M73.6,64.86a5.7,5.7,0,0,1-2.4,1.89,7.06,7.06,0,0,0-2.7,2.19c-.3.6-.4,1.1-.2,1.1s.4.5.4,1.1.1,2,.1,3.19a5.8,5.8,0,0,1-.2,2.59c-.4.5,0,1.79.5,1.49.2-.1.3-.1.3.2s.3.5.7.6a4.34,4.34,0,0,1,1.2.5c.7.3.6-.4-.3-1.29-.4-.5-.6-.9-.4-.9.6,0,2.4,1,2.2,1.29-.1.1.5.5,1.4.9s1.6.8,1.6,1,.8.5,1.8.3a.81.81,0,0,0,.8-.9c0-.5-.3-.7-.6-.6s-.5.1-.5-.1-.6-.6-1.3-1-1.1-.8-.8-.9.4-.4-.1-1.1a4,4,0,0,1-.5-2.19c.1-1,.3-1.29,1.2-1.39,1.7-.2,2.1-1,1.3-2.79a11.5,11.5,0,0,0-1.4-2.29c-.4-.4-.6-.8-.3-.8s.7.4,1.1.8c2.2,2.49,2.9,3.09,4.7,3.29a9,9,0,0,1,2.2.5A31.16,31.16,0,0,0,88,73c1.2.2.8-1.1-.8-2.59s-4.1-2.59-4.9-2.09c-.2.1-.3.1-.2-.1.3-.4-5.5-3.49-7.2-3.88C74.1,64.16,73.8,64.26,73.6,64.86Zm-1,2.89c-.2,0-.4-.2-.6-.4s-.1-.4.1-.4a.82.82,0,0,1,.6.4C72.8,67.54,72.8,67.74,72.6,67.74Zm2-.4c0,.2-.1.4-.2.4s-.3-.2-.4-.4-.1-.4.2-.4A.43.43,0,0,1,74.6,67.35Z"/><path d="M83.6,67.35A11.67,11.67,0,0,1,87.8,70a17,17,0,0,0,2.1,1.89,4.56,4.56,0,0,1,1.1.3,2.47,2.47,0,0,0,1.7-.2c.7-.4.8-.3,1,.7.5,1.39,1.1,1.59,1.5.3a2.75,2.75,0,0,0,0-1.79,3.13,3.13,0,0,1,.7-3.29c.5-.4.5-.6.2-1.29-.5-.9-4.7-4.78-5.2-4.78a12,12,0,0,1-2.4-1.2c-2.5-1.49-4.8-2.29-5.6-2a1.6,1.6,0,0,0-.8,1.1,6.08,6.08,0,0,1-.7,1.69c-.8,1.69.1,2.39,4.2,3.09,1.7.3,2,.5,2.4,1.49l.5,1.2-1.4-.3a7.12,7.12,0,0,1-3.8-1.59,2.08,2.08,0,0,0-1.9-.5C79.4,65.25,80.2,66.05,83.6,67.35Z"/><path d="M70.7,63.06c.2.3.5.5.6.4s.1-.4-.1-.7a.94.94,0,0,0-1.6.5.89.89,0,0,1-.5.8c-.6.4-1.2,1.69-.7,1.69a8.43,8.43,0,0,0,1.4-.8c1-.6,1.2-.9.9-1.2a1.48,1.48,0,0,1-.4-.9C70.3,62.66,70.5,62.66,70.7,63.06Z"/><path d="M95.5,54.8c.9-.3,1.3-.6,1.3-1.1s-.2-.7-.7-.5c-.7.2-.7.2,0-.5a2.94,2.94,0,0,0,.7-1c0-.5-1.1-.2-1.8.5a2.7,2.7,0,0,1-1.3.8c-.3,0-.5.2-.3.6s.1.6-.1.6-.4.3-.6.6C92.5,55.39,93.5,55.39,95.5,54.8ZM94.2,54c.1-.3.2-.2.2.2s-.1.6-.2.5S94.1,54.3,94.2,54Z"/><path d="M83.8,52.6a4.77,4.77,0,0,1,1.8.8l1,.6-1,1c-.6.5-1.3.9-1.6.8s-.6,0-.6.5c0,.7,4.6,3.19,5.9,3.19a3,3,0,0,1,1.3.6c.8.2,1.9.5,2,.2a6.88,6.88,0,0,0-.1-3.19c-.3-.7-.3-.7-.6-.1s-.4.6-.9.2-.6-.4-.3,0,.2.5-.2.4-.5-1-.5-2.19c-.1-1.59.1-2,.5-1.79a4.09,4.09,0,0,0,.7.2c.1,0,.1.2-.1.4s0,.3.3.2.5-.5.4-.7c-.2-.6-1.2-1.1-1.7-.8-.2.1-.4.1-.4-.1s-.5-.5-1.1-.6A6,6,0,0,1,86.4,51c-1.5-1.39-3.6-1.39-3.9,0C82.3,52.11,82.5,52.31,83.8,52.6Z"/><path d="M95.1,55.59a3.26,3.26,0,0,0-.7,1.1,2.58,2.58,0,0,0-.2,2.09c.3,1.1,1.1,1.59,1.1.8a8.09,8.09,0,0,0-.4-1.39,1.89,1.89,0,0,1,0-1.79C95.1,56,95.2,55.59,95.1,55.59Z"/></g></svg>